<?xml version="1.0" standalone="no"?>
<!DOCTYPE svg PUBLIC "-//W3C//DTD SVG 1.1//EN" "http://www.w3.org/Graphics/SVG/1.1/DTD/svg11.dtd" >
<svg xmlns="http://www.w3.org/2000/svg" xmlns:xlink="http://www.w3.org/1999/xlink" version="1.1">
<metadata>
Created by FontForge 20170731 at Wed Dec  7 13:22:35 2022
 By Aleksey,,,
Copyright (c) 2010, 2019 by Rian Hughes . All rights reserved.
</metadata>
<defs>
<font id="KorolevRounded-BoldItalic" horiz-adv-x="1077" >
  <font-face 
    font-family="Korolev Rounded Bold"
    font-weight="700"
    font-style="italic"
    font-stretch="normal"
    units-per-em="2048"
    panose-1="0 0 8 0 0 0 0 0 0 0"
    ascent="1638"
    descent="-410"
    x-height="1151"
    cap-height="1445"
    bbox="-1033.29 -563.621 3214.25 1959"
    underline-thickness="102"
    underline-position="-307"
    slope="-12"
    unicode-range="U+0020-FB02"
  />
<missing-glyph horiz-adv-x="1122" 
d="M979 0h-776v1434h776v-1434zM248 1393v-1348l317 672zM297 1393l293 -625l295 625h-588zM617 717l319 -672v1348zM590 666l-293 -621h588z" />
    <glyph glyph-name="fi" unicode="fi" horiz-adv-x="1130" 
d="M193 0h-12q-62 0 -88 33t-13 95l167 785h-28q-43 0 -61.5 32t-6.5 87t44 86.5t75 31.5h27l7 32q21 97 56 168.5t92 127t144 83.5t202 28q145 0 234.5 -51.5t110.5 -132.5q17 -60 -20.5 -96t-106.5 -36h-21q-25 0 -46.5 6.5t-32 13.5t-28.5 21q-19 15 -29.5 22.5t-35 15.5
t-54.5 8q-91 0 -133.5 -40t-63.5 -139l-7 -31h73q55 0 78 -31t11 -87t-48.5 -87.5t-90.5 -31.5h-73l-167 -785q-28 -128 -155 -128zM758 0h-11q-62 0 -88 33t-13 95l191 895q28 128 155 128h11q62 0 88 -33t13 -95l-190 -895q-28 -128 -156 -128z" />
    <glyph glyph-name="fl" unicode="fl" horiz-adv-x="1130" 
d="M193 0h-12q-62 0 -88 33t-13 95l167 785h-22q-47 0 -67 32t-9 87q11 54 41.5 86t70.5 32h36q23 109 59 187t93 136.5t140.5 87t195.5 28.5q439 0 350 -420l-222 -1041q-28 -128 -155 -128h-12q-62 0 -88 33t-13 95l222 1043q21 100 -1.5 143.5t-105.5 43.5
q-91 0 -130.5 -45.5t-64.5 -162.5h69q54 0 76.5 -31t10.5 -87q-12 -55 -47.5 -87t-88.5 -32h-70l-167 -785q-28 -128 -155 -128z" />
    <glyph glyph-name=".notdef" horiz-adv-x="1122" 
d="M979 0h-776v1434h776v-1434zM248 1393v-1348l317 672zM297 1393l293 -625l295 625h-588zM617 717l319 -672v1348zM590 666l-293 -621h588z" />
    <glyph glyph-name=".null" horiz-adv-x="0" 
 />
    <glyph glyph-name="nonmarkingreturn" horiz-adv-x="682" 
 />
    <glyph glyph-name="space" unicode=" " horiz-adv-x="452" 
 />
    <glyph glyph-name="exclam" unicode="!" horiz-adv-x="501" 
d="M224 456q-14 0 -21.5 4.5t-13 24t-4.5 55.5l36 540q10 170 21 219q14 68 66.5 110.5t126.5 42.5t108 -42.5t20 -110.5q-12 -58 -73 -223l-191 -536q-20 -52 -37 -68t-38 -16zM127 0q-67 0 -105 47.5t-24 114.5t72.5 115.5t125.5 48.5q68 0 106 -48t24 -116
q-14 -67 -72.5 -114.5t-126.5 -47.5z" />
    <glyph glyph-name="quotedbl" unicode="&#x22;" horiz-adv-x="849" 
d="M253 763q-103 0 -85 124l66 426q10 64 49.5 98t102.5 34h23q63 0 88.5 -34.5t7.5 -97.5l-115 -427q-33 -123 -137 -123zM676 763q-50 0 -72 32t-13 92l67 426q10 64 49 98t102 34h23q63 0 88.5 -34.5t7.5 -97.5l-117 -427q-33 -123 -135 -123z" />
    <glyph glyph-name="numbersign" unicode="#" horiz-adv-x="1449" 
d="M128 -104q-66 0 -86.5 38t10.5 104l165 349h-44q-55 0 -77.5 32t-10.5 90q13 59 47 90.5t85 31.5h116l88 187h-142q-62 0 -88.5 31.5t-13.5 90.5t52.5 90.5t101.5 31.5h207l182 383q52 109 166 109q69 0 88.5 -36.5t-13.5 -105.5l-165 -350h197l182 383q51 109 166 109
q66 0 86.5 -37.5t-10.5 -104.5l-167 -350h43q57 0 80.5 -32t11.5 -90q-13 -59 -46.5 -90.5t-84.5 -31.5h-120l-88 -187h145q62 0 88.5 -31.5t13.5 -90.5q-26 -122 -153 -122h-211l-180 -381q-51 -110 -165 -110q-66 0 -87 37.5t10 104.5l166 349h-199l-181 -382
q-51 -109 -165 -109zM678 818l-88 -187h198l88 187h-198z" />
    <glyph glyph-name="dollar" unicode="$" horiz-adv-x="1124" 
d="M670 1180q-88 0 -143.5 -42.5t-60.5 -117.5q-1 -20 2 -37.5t7 -31.5t16 -27t20 -21.5t28 -19t30.5 -15.5t37.5 -14.5t38.5 -13.5t43.5 -14q59 -18 103.5 -38.5t91 -55t75.5 -77t44.5 -107t9.5 -143.5q-13 -166 -122.5 -268.5t-282.5 -129.5l-23 -111q-13 -62 -65 -62
q-53 0 -40 61l22 103q-3 0 -8.5 -0.5t-8.5 -0.5q-53 0 -101 9l-24 -110q-13 -62 -64 -62q-53 0 -40 61l29 138q-113 43 -179 129.5t-64 199.5q-1 68 37 106.5t106 38.5h8q56 0 80.5 -22.5t33.5 -65.5q8 -73 60.5 -114.5t140.5 -41.5q90 0 153.5 43t67.5 120q1 25 -4 46.5
t-13 37.5t-26.5 30.5t-33 24t-43 21t-46.5 17.5l-54 18q-58 19 -104 41t-92 58t-75 80t-43.5 108t-7.5 141q15 162 122 261.5t275 124.5l26 120q13 61 65 61t39 -62l-24 -112h3q59 0 114 -12l27 125q13 61 65 61t39 -62l-33 -155q98 -43 158.5 -122t61.5 -184
q4 -65 -36 -105t-110 -40h-9q-49 0 -72 21t-34 62q-12 67 -61.5 108t-132.5 41z" />
    <glyph glyph-name="percent" unicode="%" horiz-adv-x="2347" 
d="M836 -104q-66 0 -87 37.5t10 104.5l650 1406q51 110 165 110q69 0 90 -36.5t-11 -105.5l-652 -1406q-51 -110 -165 -110zM507 475q-197 0 -292 124t-50 333l13 62q45 211 166 331t311 120q194 0 289.5 -124t52.5 -327l-13 -62q-46 -217 -167 -337t-310 -120zM528 716
q71 0 124 46.5t73 141.5l24 113q20 95 -13 141t-104 46q-154 0 -194 -187l-24 -113q-20 -96 11 -142t103 -46zM1753 0q-197 0 -292.5 123.5t-50.5 332.5l15 67q45 211 165.5 331t310.5 120q194 0 291 -124t54 -327l-15 -67q-46 -216 -168 -336t-310 -120zM1774 241
q70 0 123 46t74 142l25 117q20 93 -13 140t-104 47q-70 0 -122.5 -46.5t-72.5 -140.5l-25 -117q-21 -96 11.5 -142t103.5 -46z" />
    <glyph glyph-name="ampersand" unicode="&#x26;" horiz-adv-x="1316" 
d="M496 0q-249 0 -363 110t-85 319q9 64 38.5 119.5t71.5 93t86 62.5t89 38q-79 43 -112 124t-15 192q29 177 170 282t357 105q172 0 289.5 -89t120.5 -244q4 -63 -33.5 -99t-107.5 -36q-60 0 -85.5 16.5t-41.5 64.5q-10 65 -50 94t-116 29q-199 0 -230 -148
q-18 -84 19.5 -132.5t123.5 -50.5l33 -1q91 -6 66 -121q-12 -59 -40.5 -88.5t-77.5 -32.5l-36 -1q-200 -5 -236 -172q-10 -49 1.5 -85t41 -55.5t66 -28t82.5 -8.5q47 0 89.5 11t84 36t73 74t45.5 117l49 227q28 128 155 128h154q61 0 86 -33t11 -95q-27 -129 -118 -129h-40
l-19 -91q-28 -135 -86 -234t-137.5 -156.5t-172 -84.5t-200.5 -27z" />
    <glyph glyph-name="quotesingle" unicode="'" horiz-adv-x="425" 
d="M252 763q-103 0 -85 124l67 426q10 64 49.5 98t102.5 34h23q63 0 88.5 -34.5t7.5 -97.5l-116 -427q-33 -123 -137 -123z" />
    <glyph glyph-name="parenleft" unicode="(" horiz-adv-x="630" 
d="M275 -93q-308 46 -220 460l152 715q49 230 137.5 332t277.5 128q65 10 94.5 -20.5t17.5 -89.5q-13 -61 -39.5 -87.5t-70.5 -38.5q-60 -13 -90 -51t-47 -117l-176 -827q-18 -82 -3.5 -123.5t70.5 -58.5q35 -15 50 -40t5 -73q-12 -59 -54.5 -89t-103.5 -20z" />
    <glyph glyph-name="parenright" unicode=")" horiz-adv-x="630" 
d="M72 -93q-65 -10 -94.5 20t-17.5 89q10 48 36 73.5t67 39.5q63 17 94.5 58t49.5 124l176 827q18 78 3.5 117t-68.5 52q-39 12 -54.5 38.5t-2.5 87.5q12 59 54.5 89.5t103.5 19.5q161 -28 212 -143t8 -317l-152 -715q-51 -239 -139.5 -336.5t-275.5 -123.5z" />
    <glyph glyph-name="asterisk" unicode="*" horiz-adv-x="1097" 
d="M567 640q-46 0 -65 27t-7 77l38 165l-168 -89q-101 -54 -133 24q-15 37 5 71.5t72 59.5l163 79l-131 76q-43 24 -49.5 51.5t24.5 66.5q32 38 70 44t78 -22l127 -88l32 159q12 61 40.5 87t76.5 26t65.5 -26t3.5 -87l-36 -159l164 88q52 28 87 21.5t50 -45.5
q15 -38 -4.5 -72.5t-71.5 -59.5l-164 -77l130 -79q42 -24 46.5 -58.5t-26.5 -70.5q-30 -37 -64.5 -37.5t-73.5 28.5l-130 89l-32 -165q-10 -51 -40.5 -77.5t-76.5 -26.5z" />
    <glyph glyph-name="plus" unicode="+" horiz-adv-x="1079" 
d="M477 282q-60 0 -84.5 32.5t-11.5 92.5l41 195h-189q-62 0 -88.5 31.5t-13.5 90.5t52 90.5t100 31.5h191l41 191q28 128 150 128q59 0 84 -32t12 -92l-42 -195h189q62 0 89 -31.5t14 -90.5t-52.5 -90.5t-101.5 -31.5h-190l-41 -192q-28 -128 -149 -128z" />
    <glyph glyph-name="comma" unicode="," horiz-adv-x="532" 
d="M-78 -263q-33 0 -49.5 11.5t-14.5 44t29 87.5l206 411q51 108 165 108h18q72 0 91 -40.5t-23 -107.5l-258 -415q-34 -55 -72 -77t-92 -22z" />
    <glyph glyph-name="hyphen" unicode="-" horiz-adv-x="704" 
d="M476 478h-290q-62 0 -89 28t-16 79q21 104 150 104h290q62 0 89 -26.5t17 -77.5q-11 -52 -50 -79.5t-101 -27.5z" />
    <glyph glyph-name="period" unicode="." horiz-adv-x="485" 
d="M119 0q-67 0 -104.5 47.5t-23.5 114.5q14 68 72.5 116t125.5 48q68 0 105.5 -48t23.5 -116q-14 -67 -72.5 -114.5t-126.5 -47.5z" />
    <glyph glyph-name="slash" unicode="/" horiz-adv-x="741" 
d="M32 -104h-12q-68 0 -89 37.5t10 104.5l665 1406q51 110 166 110h17q66 0 86 -37.5t-11 -104.5l-667 -1407q-51 -109 -165 -109z" />
    <glyph glyph-name="zero" unicode="0" horiz-adv-x="1167" 
d="M487 0q-217 0 -333.5 140.5t-70.5 358.5l95 445q48 225 199.5 363t362.5 138q105 0 191.5 -37t140.5 -103t75.5 -158t-3.5 -203l-94 -445q-47 -223 -200 -361t-363 -138zM518 271q89 0 157 56.5t95 183.5l89 421q27 129 -16 185.5t-133 56.5q-202 0 -253 -243l-89 -419
q-27 -128 16.5 -184.5t133.5 -56.5z" />
    <glyph glyph-name="one" unicode="1" horiz-adv-x="659" 
d="M141 128l198 928q-28 -16 -49 -17q-61 -2 -86 26.5t-12 89.5l2 11q9 45 37.5 74t80.5 51q69 30 115 76q27 29 42 42t41 24.5t57 11.5h9q62 0 88 -33t13 -95l-253 -1189q-28 -128 -155 -128h-27q-62 0 -88 33t-13 95z" />
    <glyph glyph-name="two" unicode="2" horiz-adv-x="1128" 
d="M768 0h-675q-62 0 -89 28t-16 81l23 108q17 81 55 150t82 117.5t108 93.5t116 72.5t123 60.5q15 7 59.5 26.5t60 26.5t51.5 25.5t50.5 29.5t40 31.5t37.5 39t24.5 44t18.5 53.5q18 87 -25.5 139t-131.5 52q-146 0 -226 -138q-56 -81 -141 -82h-17q-68 0 -91 37t2 104
q56 157 195 251.5t314 94.5q211 0 321 -126.5t78 -328.5q-35 -216 -240 -351q-82 -54 -262 -132q-56 -24 -87.5 -38.5t-74.5 -38.5t-67 -45t-45.5 -51t-29.5 -63h516q62 0 88 -33t13 -95l-3 -15q-28 -128 -155 -128z" />
    <glyph glyph-name="three" unicode="3" horiz-adv-x="1132" 
d="M468 0q-186 0 -304.5 101t-118.5 263q-3 66 34.5 105.5t101.5 39.5h15q49 0 73 -22.5t36 -66.5q9 -74 59 -113t133 -39q91 0 157 41.5t84 125.5q18 87 -26 129t-147 42h-58q-55 0 -78 31.5t-10 90.5q12 58 48.5 90t91.5 32h54q86 0 149 47.5t79 124.5q18 85 -28 124.5
t-136 39.5q-150 0 -232 -148q-58 -85 -131 -85h-29q-64 0 -88.5 40t0.5 106q58 163 192.5 254.5t322.5 91.5q210 0 326 -103.5t90 -279.5q-17 -115 -89 -200t-174 -120q88 -30 129.5 -109t25.5 -199q-28 -205 -177.5 -319.5t-374.5 -114.5z" />
    <glyph glyph-name="four" unicode="4" horiz-adv-x="1173" 
d="M1096 1317l-159 -747h51q53 0 75 -32.5t10 -88.5l-3 -13q-13 -59 -48 -91.5t-88 -32.5h-52l-39 -184q-28 -128 -155 -128h-17q-62 0 -88.5 30t-14.5 86l42 197h-479q-62 0 -88 33t-13 95l9 43q18 85 83 159l659 720q73 82 171 82h43q62 0 88 -33t13 -95zM765 1041
l-430 -470h330z" />
    <glyph glyph-name="five" unicode="5" horiz-adv-x="1155" 
d="M473 0q-182 0 -299 100t-113 264q2 62 40 98.5t102 36.5h18q53 0 77.5 -20.5t32.5 -62.5q12 -146 173 -146q54 0 102 19t90 70t59 129l8 41q22 100 -22.5 150.5t-137.5 50.5q-91 0 -172 -58q-74 -51 -140 -35l-41 9q-56 13 -74 51.5t6 99.5l209 532q46 116 161 116h488
q62 0 88 -33t13 -95l-4 -15q-28 -128 -155 -128h-375l-115 -285q35 30 97 51t133 21q81 0 147 -26t113.5 -79.5t64 -134.5t-1.5 -192l-7 -41q-39 -222 -192 -355t-373 -133z" />
    <glyph glyph-name="six" unicode="6" horiz-adv-x="1122" 
d="M459 0q-220 0 -332 138.5t-65 359.5l9 42q25 120 78.5 223.5t131.5 209.5l283 380q66 92 170 92h27q75 0 91.5 -43.5t-33.5 -109.5l-219 -287q41 13 84 13q204 -2 301.5 -130.5t52.5 -340.5l-12 -59q-49 -231 -197.5 -359.5t-369.5 -128.5zM497 271q199 0 247 227l15 67
q24 114 -19.5 165.5t-134.5 51.5q-200 0 -246 -217l-14 -67q-48 -227 152 -227z" />
    <glyph glyph-name="seven" unicode="7" horiz-adv-x="989" 
d="M263 0h-41q-64 0 -82.5 38t16.5 106l547 1028h-369q-62 0 -88 33t-13 95l3 17q28 128 156 128h593q69 0 89 -38.5t-15 -106.5l-629 -1192q-56 -108 -167 -108z" />
    <glyph glyph-name="eight" unicode="8" horiz-adv-x="1144" 
d="M478 0q-226 0 -345 106t-92 294q16 116 91.5 203t181.5 122q-156 115 -110 330q39 181 176.5 284.5t344.5 103.5q212 0 329.5 -106t86.5 -291q-20 -121 -85.5 -204.5t-162.5 -122.5q168 -83 135 -323q-27 -190 -177.5 -293t-372.5 -103zM628 838h7q91 1 146.5 36.5
t76.5 132.5q40 187 -156 187q-195 0 -232 -186q-34 -170 158 -170zM503 249q206 0 245 185q20 95 -18 141t-119 46h-53q-181 0 -221 -186q-21 -99 23 -142.5t143 -43.5z" />
    <glyph glyph-name="nine" unicode="9" horiz-adv-x="1122" 
d="M452 1h-28q-75 0 -91 43.5t34 109.5l219 287q-41 -13 -84 -13q-204 2 -302 130.5t-53 340.5l13 58q49 231 197 360t369 129q220 0 332 -138.5t65 -359.5l-8 -42q-25 -120 -78.5 -223.5t-131.5 -209.5l-283 -380q-67 -92 -170 -92zM581 664q199 0 245 217l15 67
q48 227 -152 227t-248 -227l-14 -67q-24 -114 19.5 -165.5t134.5 -51.5z" />
    <glyph glyph-name="colon" unicode=":" horiz-adv-x="485" 
d="M295 825q-67 0 -105 47.5t-24 114.5q14 68 72.5 116t125.5 48q68 0 105.5 -48t23.5 -116q-14 -67 -72 -114.5t-126 -47.5zM119 0q-67 0 -104.5 47.5t-23.5 114.5q14 68 72.5 116t125.5 48q68 0 105.5 -48t23.5 -116q-14 -67 -72.5 -114.5t-126.5 -47.5z" />
    <glyph glyph-name="semicolon" unicode=";" horiz-adv-x="552" 
d="M346 825q-67 0 -104.5 47.5t-23.5 114.5t72 115.5t125 48.5q68 0 106 -48t24 -116q-14 -67 -72.5 -114.5t-126.5 -47.5zM-78 -263q-33 0 -49.5 11.5t-14.5 44t29 87.5l206 411q51 108 165 108h18q72 0 91 -40.5t-23 -107.5l-258 -415q-34 -55 -72 -77t-92 -22z" />
    <glyph glyph-name="less" unicode="&#x3c;" horiz-adv-x="931" 
d="M607 211l-441 211q-90 41 -68 148l9 39q22 108 130 149l531 214q72 28 108.5 4t22.5 -89q-26 -120 -135 -155l-413 -152l350 -143q96 -33 72 -142q-15 -68 -60 -90.5t-106 6.5z" />
    <glyph glyph-name="equal" unicode="=" horiz-adv-x="1007" 
d="M830 813h-552q-62 0 -88.5 31.5t-13.5 90.5t52.5 90.5t101.5 31.5h552q62 0 88.5 -31.5t13.5 -90.5t-52.5 -90.5t-101.5 -31.5zM740 392h-552q-62 0 -88.5 31.5t-13.5 90.5t52.5 90.5t101.5 31.5h552q62 0 88.5 -31.5t13.5 -90.5t-52.5 -90.5t-101.5 -31.5z" />
    <glyph glyph-name="greater" unicode="&#x3e;" horiz-adv-x="931" 
d="M173 447l413 154l-349 141q-95 32 -72 141q14 65 60 89.5t106 -3.5l441 -211q90 -41 68 -149l-9 -39q-22 -107 -130 -148l-531 -214q-73 -29 -109.5 -7t-21.5 90q26 120 134 156z" />
    <glyph glyph-name="question" unicode="?" horiz-adv-x="1038" 
d="M412 427q-28 0 -38.5 31.5t0.5 89.5q10 48 32 87.5t59 72.5t62.5 51t74.5 48q30 19 44 27.5t39 26.5t38.5 32t30 33.5t26.5 41.5t15 47q16 74 -27 121t-128 47q-148 0 -230 -137q-59 -82 -145 -82h-14q-65 0 -87 37t4 98q58 155 195.5 250.5t317.5 95.5q205 0 312 -111
t88 -284q-7 -65 -31.5 -119.5t-55 -90t-75.5 -67.5t-82.5 -51.5t-86.5 -42.5q-12 -5 -18 -8q-63 -30 -98.5 -50t-78 -56t-74.5 -83q-20 -32 -35 -43.5t-34 -11.5zM332 0q-68 0 -106 47t-24 114t72.5 115.5t126.5 48.5t105 -48t23 -116q-14 -67 -71.5 -114t-125.5 -47z" />
    <glyph glyph-name="at" unicode="@" horiz-adv-x="1482" 
d="M929 1544q135 0 243.5 -35.5t186.5 -111.5t103 -193.5t-6 -281.5l-72 -339q-18 -85 -54 -146.5t-79.5 -96.5t-104.5 -54.5t-117 -25t-129 -4.5q-52 1 -77 19.5t-24 46.5q-74 -77 -190 -77q-123 0 -166.5 77t-6.5 253l66 309q33 156 112.5 233t195.5 77q126 0 158 -81
q32 71 107 71q102 0 75 -127l-133 -623q73 1 107.5 32t54.5 122l71 334q91 428 -340 428q-206 0 -346 -106.5t-188 -332.5l-82 -382q-25 -107 -22 -188.5t41 -136.5t126.5 -83t234.5 -28h318q29 0 47.5 -11.5t24 -27.5t8 -33.5t-2.5 -29.5q-8 -36 -37.5 -69.5t-83.5 -33.5
h-293q-127 0 -227 23t-167 66t-111 100.5t-62 130.5t-17.5 152t19.5 169l81 382q34 160 107.5 282.5t175 198.5t221 114t254.5 38zM840 568l64 302q15 72 -4 107t-64 35q-100 0 -130 -142l-64 -302q-16 -76 2 -109t68 -33q98 0 128 142z" />
    <glyph glyph-name="A" unicode="A" horiz-adv-x="1173" 
d="M70 0h-30q-69 0 -90 38t12 105l605 1193q53 109 167 109h82q113 0 120 -109l91 -1193q4 -67 -33 -105t-104 -38h-21q-113 0 -117 111l-12 174h-417l-86 -175q-51 -110 -167 -110zM711 1121l-277 -593h299z" />
    <glyph glyph-name="B" unicode="B" horiz-adv-x="1153" 
d="M515 0h-368q-62 0 -88 33t-13 95l253 1189q28 128 155 128h271q86 0 160 -15.5t133 -46.5t96.5 -78.5t50.5 -110.5t-4 -143l-5 -21q-48 -227 -245 -304q176 -86 128 -312l-4 -18q-85 -396 -520 -396zM550 1174l-72 -340h174q181 0 214 154l7 33q10 46 0.5 77t-36 47
t-60 22.5t-79.5 6.5h-148zM431 614l-73 -346h162q207 0 241 160l7 32q33 154 -164 154h-173z" />
    <glyph glyph-name="C" unicode="C" horiz-adv-x="1142" 
d="M494 0q-142 0 -246.5 63t-149.5 178.5t-14 259.5l94 445q48 226 197 362.5t360 136.5q204 0 321 -119.5t95 -298.5q-8 -63 -45.5 -96.5t-100.5 -33.5h-27q-65 0 -86 26t-21 75q1 82 -34 129t-127 47q-83 0 -153 -52.5t-94 -166.5l-99 -463q-24 -114 20.5 -167.5
t133.5 -53.5q171 0 241 186q20 52 52 79.5t96 27.5h27q64 0 86 -37.5t3 -102.5q-56 -194 -191.5 -309t-337.5 -115z" />
    <glyph glyph-name="D" unicode="D" horiz-adv-x="1200" 
d="M524 0h-377q-62 0 -88 33t-13 95l253 1189q28 128 155 128h315q108 0 193.5 -35t141.5 -103t74 -168.5t-9 -232.5l-79 -370q-55 -260 -202.5 -398t-363.5 -138zM551 1174l-192 -906h157q236 0 299 293l68 322q17 70 13.5 120.5t-16.5 83.5t-40.5 52.5t-58.5 27t-72 7.5
h-158z" />
    <glyph glyph-name="E" unicode="E" horiz-adv-x="1024" 
d="M699 0h-552q-62 0 -88 33t-13 95l253 1189q28 128 155 128h552q62 0 88 -33t13 -95l-4 -17q-28 -128 -155 -128h-398l-70 -327h262q62 0 88.5 -31.5t13.5 -91.5t-52.5 -92t-101.5 -32h-262l-70 -327h399q62 0 88 -33t12 -95l-3 -15q-28 -128 -155 -128z" />
    <glyph glyph-name="F" unicode="F" horiz-adv-x="987" 
d="M173 0h-26q-62 0 -88 33t-13 95l253 1189q28 128 155 128h520q62 0 88 -33t13 -95l-3 -17q-28 -128 -156 -128h-366l-70 -327h234q62 0 88.5 -31.5t13.5 -91.5t-52 -92t-100 -32h-236l-100 -470q-28 -128 -155 -128z" />
    <glyph glyph-name="G" unicode="G" horiz-adv-x="1165" 
d="M489 0q-106 0 -192 36.5t-140.5 102.5t-76 158t2.5 202l95 445q48 225 197.5 363t359.5 138q177 0 293.5 -96.5t121.5 -255.5q4 -62 -37.5 -99.5t-108.5 -37.5h-23q-62 0 -84.5 20.5t-29.5 62.5q-14 135 -159 135q-199 0 -248 -233l-96 -452q-24 -112 21.5 -165
t130.5 -53q87 0 155 53t92 165l7 33h-96q-113 0 -87 123t154 123h236q62 0 88.5 -32t13.5 -92l-31 -145q-47 -224 -197.5 -361.5t-361.5 -137.5z" />
    <glyph glyph-name="H" unicode="H" horiz-adv-x="1226" 
d="M174 0h-27q-62 0 -88 33t-13 95l253 1189q28 128 155 128h27q62 0 88 -33t13 -95l-101 -473h378l100 473q28 128 156 128h26q62 0 88 -33t13 -95l-253 -1189q-28 -128 -155 -128h-27q-62 0 -88 33t-12 95l100 470h-378l-100 -470q-28 -128 -155 -128z" />
    <glyph glyph-name="I" unicode="I" horiz-adv-x="565" 
d="M173 0h-26q-62 0 -88 33t-13 95l253 1189q28 128 155 128h26q62 0 88 -33t13 -95l-253 -1189q-28 -128 -155 -128z" />
    <glyph glyph-name="J" unicode="J" horiz-adv-x="1124" 
d="M440 0q-214 0 -325.5 126.5t-72.5 335.5q10 61 48 100t104 39h25q67 0 86.5 -29t14.5 -83q-17 -119 19 -168.5t128 -49.5q84 0 148.5 54.5t90.5 176.5l173 815q28 128 156 128h26q62 0 88 -33t13 -95l-170 -799q-52 -246 -197.5 -382t-354.5 -136z" />
    <glyph glyph-name="K" unicode="K" horiz-adv-x="1148" 
d="M174 0h-27q-62 0 -88 33t-13 95l253 1189q28 128 155 128h27q62 0 88 -33t12 -95l-99 -467h104l349 497q61 98 167 98h47q73 0 91.5 -42.5t-25.5 -107.5l-411 -568l168 -577q16 -66 -17.5 -108t-102.5 -42h-45q-55 0 -85 23.5t-40 74.5l-139 502h-114l-100 -472
q-28 -128 -155 -128z" />
    <glyph glyph-name="L" unicode="L" horiz-adv-x="940" 
d="M651 0h-504q-62 0 -88 33t-13 95l253 1189q28 128 155 128h27q62 0 88 -33t13 -95l-223 -1046h349q62 0 88 -33t13 -95l-3 -15q-28 -128 -155 -128z" />
    <glyph glyph-name="M" unicode="M" horiz-adv-x="1484" 
d="M173 0h-26q-62 0 -88 33t-13 95l253 1189q28 128 155 128h35q109 0 125 -102l131 -715l436 715q61 102 168 102h51q62 0 88 -33t13 -95l-253 -1189q-28 -128 -155 -128h-25q-62 0 -88 33t-13 95l150 708l-290 -463q-32 -53 -67 -78t-83 -25t-73.5 25t-34.5 78l-92 457
l-149 -702q-28 -128 -155 -128z" />
    <glyph glyph-name="N" unicode="N" horiz-adv-x="1255" 
d="M174 0h-27q-62 0 -88 33t-13 95l253 1189q28 128 155 128h30q110 0 130 -95l213 -808l160 775q13 62 53 95t102 33h28q62 0 88 -33t13 -95l-253 -1189q-28 -128 -155 -128h-33q-110 0 -130 95l-214 787l-157 -754q-13 -62 -53 -95t-102 -33z" />
    <glyph glyph-name="O" unicode="O" horiz-adv-x="1167" 
d="M491 0q-106 0 -193 36.5t-141.5 102.5t-76 158t2.5 202l95 445q48 225 198 363t361 138q141 0 244.5 -63t148.5 -178.5t14 -259.5l-94 -445q-47 -224 -198.5 -361.5t-360.5 -137.5zM518 270q83 0 152.5 52t93.5 166l99 466q24 114 -21 167.5t-132 53.5q-54 0 -101 -19
t-88 -70.5t-58 -130.5l-99 -466q-24 -113 21.5 -166t132.5 -53z" />
    <glyph glyph-name="P" unicode="P" horiz-adv-x="1155" 
d="M174 0h-27q-62 0 -88 33t-13 95l253 1189q28 128 155 128h293q107 0 193 -34.5t143 -101t76.5 -164.5t-6.5 -225l-12 -58q-53 -250 -204 -383.5t-367 -133.5h-195l-46 -217q-28 -128 -155 -128zM551 1174l-119 -561h140q49 0 91.5 12.5t83 39.5t71 78t45.5 122l12 54
q16 63 9.5 108t-21 73.5t-44 45t-60 22.5t-68.5 6h-140z" />
    <glyph glyph-name="Q" unicode="Q" horiz-adv-x="1167" 
d="M572 -273h-33q-103 0 -131 93l-54 178q-166 37 -240.5 165t-35.5 313l100 468q48 225 198.5 363t360.5 138q142 0 245.5 -63t148 -178.5t13.5 -259.5l-99 -468q-40 -187 -142.5 -308.5t-265.5 -163.5l47 -124q28 -75 -5.5 -114t-106.5 -39zM514 251q83 0 152.5 52
t93.5 166l103 485q24 114 -21 167.5t-132 53.5q-54 0 -101 -19t-88 -70.5t-58 -130.5l-103 -485q-24 -113 21.5 -166t132.5 -53z" />
    <glyph glyph-name="R" unicode="R" horiz-adv-x="1155" 
d="M174 0h-27q-62 0 -88 33t-13 95l253 1189q28 128 155 128h298q225 0 339.5 -139t62.5 -384l-9 -40q-33 -157 -115.5 -266.5t-203.5 -162.5l108 -301q20 -65 -12 -108.5t-99 -43.5h-51q-106 0 -128 97l-89 276h-174l-52 -245q-28 -128 -155 -128zM551 1174l-113 -533h140
q49 0 91.5 12t82.5 38.5t70 75.5t44 118l9 41q9 50 10 88t-11 65.5t-28 45.5t-42 29t-53 15.5t-60 4.5h-140z" />
    <glyph glyph-name="S" unicode="S" horiz-adv-x="1130" 
d="M491 0q-123 0 -224.5 45.5t-161 129.5t-57.5 190q-1 68 37 106.5t106 38.5h8q56 0 81 -22.5t34 -65.5q8 -73 60.5 -115t140.5 -42q90 0 153 43t67 121q1 25 -4 46.5t-13 37t-27 30.5t-32.5 24t-43 20.5t-46.5 17.5t-54 18q-58 19 -104 41t-92 58t-75 80t-43.5 108.5
t-7.5 141.5q18 188 157 290.5t349 102.5q110 0 207 -40.5t160.5 -121.5t64.5 -187q4 -65 -36 -105.5t-110 -40.5h-8q-49 0 -72.5 21.5t-34.5 62.5q-12 67 -61.5 108t-132.5 41q-88 0 -143 -42.5t-60 -117.5q-2 -23 0.5 -42t12 -35t18 -27.5t28 -23.5t32 -19t40 -17t42.5 -15
t49 -16q59 -19 103.5 -39t91.5 -54t75.5 -77t44 -107t9.5 -143q-15 -195 -161 -301.5t-367 -106.5z" />
    <glyph glyph-name="T" unicode="T" horiz-adv-x="978" 
d="M379 0h-27q-62 0 -88 33t-13 95l222 1044h-170q-62 0 -88 33t-13 95l4 17q28 128 155 128h625q62 0 88 -33t12 -95l-3 -17q-28 -128 -135 -128h-191l-222 -1044q-28 -128 -156 -128z" />
    <glyph glyph-name="U" unicode="U" horiz-adv-x="1208" 
d="M512 0q-106 0 -193 36.5t-141.5 102.5t-76 158t2.5 202l174 818q28 128 156 128h25q62 0 88 -33t13 -95l-176 -828q-24 -115 23 -167t131 -52q86 0 155 53.5t93 165.5l175 828q28 128 156 128h26q62 0 88 -33t13 -95l-174 -818q-47 -224 -198 -361.5t-360 -137.5z" />
    <glyph glyph-name="V" unicode="V" horiz-adv-x="1110" 
d="M463 0h-69q-112 0 -118 110l-67 1193q-2 66 34 104t103 38h22q116 0 116 -113l23 -928l419 928q48 113 163 113h35q67 0 88 -38t-9 -104l-575 -1193q-51 -110 -165 -110z" />
    <glyph glyph-name="W" unicode="W" horiz-adv-x="1675" 
d="M402 0h-55q-117 0 -117 113l-25 1191q-1 66 36.5 103.5t103.5 37.5h19q59 0 87.5 -28t27.5 -86l3 -859l362 859q46 114 162 114h19q59 0 87.5 -28t27.5 -86l-5 -859l370 859q47 114 164 114h28q68 0 90 -37.5t-7 -103.5l-533 -1191q-50 -113 -164 -113h-57
q-117 0 -114 114l6 843l-354 -843q-47 -114 -162 -114z" />
    <glyph glyph-name="X" unicode="X" horiz-adv-x="1122" 
d="M112 0h-46q-74 0 -91.5 43t30.5 109l438 594l-175 547q-20 66 10.5 109t97.5 43h36q106 0 129 -95l101 -345l243 344q64 96 170 96h43q74 0 91.5 -43t-30.5 -109l-411 -557l189 -584q20 -66 -12 -109t-102 -43h-25q-54 0 -85 23t-44 73l-116 384l-271 -385
q-63 -95 -170 -95z" />
    <glyph glyph-name="Y" unicode="Y" horiz-adv-x="1132" 
d="M456 0h-26q-62 0 -88 33t-13 95l82 387l-177 781q-13 67 21 108t102 41h22q110 0 126 -100l103 -512l329 512q61 100 168 100h32q72 0 91 -41.5t-24 -107.5l-510 -781l-83 -387q-28 -128 -155 -128z" />
    <glyph glyph-name="Z" unicode="Z" horiz-adv-x="989" 
d="M660 0h-585q-71 0 -90 40t21 108l637 1024h-301q-62 0 -88 33t-13 95l4 17q28 128 155 128h545q71 0 89.5 -40.5t-21.5 -108.5l-643 -1025h348q62 0 88 -33t12 -95l-3 -15q-28 -128 -155 -128z" />
    <glyph glyph-name="bracketleft" unicode="[" horiz-adv-x="692" 
d="M341 -103h-216q-62 0 -88 33t-13 95l298 1399q28 128 155 128h216q128 0 103 -119q-25 -121 -144 -121h-87l-250 -1175h87q118 0 93 -121q-25 -119 -154 -119z" />
    <glyph glyph-name="backslash" unicode="\" horiz-adv-x="741" 
d="M433 -104h-13q-111 0 -115 110l-68 1406q-4 67 30.5 104.5t99.5 37.5h7q113 0 119 -109l69 -1407q3 -67 -31.5 -104.5t-97.5 -37.5z" />
    <glyph glyph-name="bracketright" unicode="]" horiz-adv-x="692" 
d="M280 -103h-216q-128 0 -103 119q26 121 144 121h87l249 1175h-87q-118 0 -92 121q25 119 154 119h216q62 0 88 -33t12 -95l-297 -1399q-28 -128 -155 -128z" />
    <glyph glyph-name="asciicircum" unicode="^" horiz-adv-x="1046" 
d="M732 825l-71 381l-230 -381q-56 -104 -174 -104q-65 0 -80 40.5t27 107.5l313 478q61 98 170 98h41q108 0 127 -98l112 -478q30 -148 -119 -148q-55 0 -81.5 25t-34.5 79z" />
    <glyph glyph-name="underscore" unicode="_" horiz-adv-x="1097" 
d="M694 -345h-683q-62 0 -89 26.5t-17 77.5q11 52 50 79.5t101 27.5h683q62 0 89 -27.5t16 -79.5q-21 -104 -150 -104z" />
    <glyph glyph-name="grave" unicode="`" horiz-adv-x="1099" 
d="M689 1191h-8q-51 0 -75.5 17t-49.5 66l-50 103q-65 134 107 135h5q63 0 93.5 -24t39.5 -76l22 -94q24 -127 -84 -127z" />
    <glyph glyph-name="a" unicode="a" 
d="M953 1151q61 0 86.5 -33t12.5 -95l-191 -896q-28 -128 -153 -128q-126 0 -99 128l3 15q-34 -56 -105.5 -99.5t-176.5 -43.5q-165 0 -242.5 103.5t-32.5 314.5l68 317q88 417 411 417q107 0 177 -46.5t85 -98.5l4 17q28 128 153 128zM660 438l59 280q22 100 -12.5 150.5
t-109.5 50.5q-76 0 -131 -51.5t-77 -153.5l-59 -276q-22 -104 11 -155.5t110 -51.5q76 0 131.5 52t77.5 155z" />
    <glyph glyph-name="b" unicode="b" horiz-adv-x="1079" 
d="M747 1151q165 0 242.5 -102.5t33.5 -312.5l-67 -318q-46 -217 -149.5 -317.5t-263.5 -100.5q-113 0 -179.5 44.5t-82.5 101.5l-3 -18q-13 -62 -53 -95t-101 -33t-86 33t-12 95l274 1291q28 128 155 128h12q62 0 88 -33t12 -95l-83 -394q38 51 104 88.5t159 37.5zM690 438
l58 277q21 101 -12 153t-110 52q-75 0 -130.5 -50.5t-76.5 -149.5l-60 -282q-22 -103 11.5 -155t109.5 -52q77 0 132.5 52t77.5 155z" />
    <glyph glyph-name="c" unicode="c" horiz-adv-x="1019" 
d="M429 0q-207 0 -308.5 123t-57.5 328l51 243q46 216 175 336.5t330 120.5q186 0 287.5 -99.5t81.5 -259.5q-7 -58 -42 -89t-93 -31h-20q-59 0 -78 23.5t-18 70.5q2 70 -30 106t-113 36q-82 0 -134 -46.5t-74 -152.5l-60 -282q-19 -90 15 -137.5t111 -47.5q79 0 125.5 35.5
t76.5 105.5q21 48 50 72t89 24h19q119 0 84 -120q-48 -165 -167.5 -262t-299.5 -97z" />
    <glyph glyph-name="d" unicode="d" 
d="M1023 1547h12q62 0 88 -33t13 -95l-275 -1291q-28 -128 -153 -128q-61 0 -87 31.5t-13 90.5l5 22q-91 -144 -283 -144q-166 0 -243 103t-32 315l67 318q88 415 416 415q99 0 163.5 -39.5t82.5 -86.5l83 394q28 128 156 128zM660 438l60 282q21 99 -13.5 149.5
t-109.5 50.5q-77 0 -132.5 -52t-76.5 -153l-59 -277q-22 -103 11.5 -155t110.5 -52q76 0 131.5 52t77.5 155z" />
    <glyph glyph-name="e" unicode="e" horiz-adv-x="1036" 
d="M421 0q-206 0 -304 122.5t-54 328.5l52 244q46 215 177 335.5t333 120.5q208 0 306 -117.5t54 -326.5l-17 -82q-28 -128 -155 -128h-472l-23 -105q-18 -85 20.5 -128.5t109.5 -43.5q157 0 206 109q20 34 47 51t80 17h19q55 0 80.5 -18.5t14.5 -56.5q-38 -144 -161.5 -233
t-312.5 -89zM395 754l-15 -70h332l13 61q21 95 -15 139.5t-112 44.5q-75 0 -129.5 -43.5t-73.5 -131.5z" />
    <glyph glyph-name="f" unicode="f" horiz-adv-x="706" 
d="M193 0h-12q-62 0 -88 33t-13 95l167 786h-21q-49 0 -68.5 30t-8.5 81l3 10q11 52 43 82.5t81 30.5h21q32 147 78.5 231t130.5 127.5t217 43.5q68 0 96 -28t15 -89q-12 -53 -40.5 -75t-73.5 -31q-74 -11 -104 -45t-51 -133h91q117 0 92 -114l-2 -11q-11 -53 -47.5 -82
t-92.5 -29h-91l-167 -785q-28 -128 -155 -128z" />
    <glyph glyph-name="g" unicode="g" 
d="M954 1151q61 0 86.5 -33t12.5 -95l-218 -1022q-23 -108 -58.5 -185.5t-93 -137t-143 -89t-200.5 -29.5q-103 0 -180 22t-121.5 61t-65.5 88t-18 107q1 44 35 68t92 24h17q51 0 72 -15.5t35 -54.5q15 -40 48 -62t101 -22q166 0 200 163l42 197q-99 -136 -266 -136
q-165 0 -242.5 103t-32.5 314l68 320q89 414 402 414q109 0 183.5 -44.5t88.5 -96.5l3 13q28 128 153 128zM659 429l65 307q20 93 -15.5 139.5t-109.5 46.5q-77 0 -132 -51.5t-77 -153.5l-60 -283q-22 -104 11 -155.5t110 -51.5q75 0 130.5 50.5t77.5 151.5z" />
    <glyph glyph-name="h" unicode="h" horiz-adv-x="1089" 
d="M138 0h-12q-62 0 -88 33t-12 95l274 1291q28 128 155 128h12q62 0 88 -33t12 -95l-86 -407q42 69 117.5 107.5t164.5 38.5q55 0 101.5 -13.5t86.5 -43.5t61.5 -78t27.5 -117.5t-15 -162.5l-131 -615q-28 -128 -155 -128h-14q-62 0 -88 33t-13 95l125 589q22 102 -8 150.5
t-116 48.5t-135.5 -48.5t-73.5 -158.5l-123 -581q-28 -128 -155 -128z" />
    <glyph glyph-name="i" unicode="i" horiz-adv-x="505" 
d="M402 1281q-68 0 -105.5 47.5t-23.5 114.5t72 115t126 48t105.5 -47.5t23.5 -115.5t-72 -115t-126 -47zM135 0h-12q-62 0 -88 33t-12 95l190 895q28 128 155 128h11q62 0 88 -33t13 -95l-190 -895q-28 -128 -155 -128z" />
    <glyph glyph-name="j" unicode="j" horiz-adv-x="512" 
d="M407 1281q-68 0 -105 47.5t-23 114.5q14 68 72 115.5t125 47.5q68 0 105.5 -47.5t23.5 -115.5t-72 -115t-126 -47zM-87 -411q-69 -13 -106.5 18.5t-24.5 93.5q10 44 34 68t64 42q46 18 74 58.5t44 114.5l221 1039q28 128 155 128h12q62 0 88 -33t12 -95l-209 -984
q-44 -205 -130 -314t-234 -136z" />
    <glyph glyph-name="k" unicode="k" horiz-adv-x="1030" 
d="M470 463h-104l-71 -335q-28 -128 -155 -128h-14q-62 0 -88 33t-12 95l274 1291q28 128 155 128h14q62 0 88 -33t12 -95l-156 -734h79l269 368q61 98 168 98h44q73 0 89.5 -42.5t-28.5 -108.5l-328 -441l143 -408q19 -66 -13.5 -108.5t-103.5 -42.5h-22q-106 0 -126 98z
" />
    <glyph glyph-name="l" unicode="l" horiz-adv-x="512" 
d="M141 0h-14q-62 0 -88 33t-13 95l274 1291q28 128 155 128h15q62 0 88 -33t13 -95l-275 -1291q-28 -128 -155 -128z" />
    <glyph glyph-name="m" unicode="m" horiz-adv-x="1574" 
d="M1267 1151q151 0 218.5 -100.5t24.5 -302.5l-132 -620q-28 -128 -155 -128h-14q-62 0 -88 33t-13 95l135 635q17 80 -10.5 119.5t-91.5 39.5q-63 0 -107.5 -39t-60.5 -116l-136 -639q-28 -128 -155 -128h-15q-62 0 -88 33t-13 95l135 635q33 159 -102 159
q-137 0 -170 -155l-136 -639q-28 -128 -155 -128h-11q-62 0 -88 33t-13 95l190 895q28 128 153 128q61 0 86.5 -32.5t12.5 -94.5l-3 -13q26 52 89.5 96t159.5 44q94 0 163.5 -40t93.5 -119q109 159 296 159z" />
    <glyph glyph-name="n" unicode="n" horiz-adv-x="1089" 
d="M745 1151q166 0 244 -103.5t34 -313.5l-129 -606q-28 -128 -155 -128h-15q-62 0 -88 33t-12 95l124 587q44 203 -122 203q-84 0 -134.5 -49.5t-74.5 -158.5l-124 -582q-28 -128 -155 -128h-12q-62 0 -88 33t-12 95l190 895q28 128 153 128q61 0 86.5 -32.5t12.5 -95.5
l-4 -19q35 55 107.5 101t173.5 46z" />
    <glyph glyph-name="o" unicode="o" horiz-adv-x="1046" 
d="M432 0q-209 0 -311 123.5t-57 333.5l52 243q45 212 171.5 331.5t327.5 119.5q205 0 308.5 -124t60.5 -327l-52 -243q-46 -216 -173.5 -336.5t-326.5 -120.5zM452 241q73 0 129.5 45t74.5 133l67 315q19 87 -18.5 131.5t-110.5 44.5q-74 0 -129 -44t-74 -132l-67 -315
q-19 -89 17.5 -133.5t110.5 -44.5z" />
    <glyph glyph-name="p" unicode="p" horiz-adv-x="1089" 
d="M747 1151q76 0 135.5 -23.5t100.5 -74.5t51 -130t-11 -190l-68 -318q-88 -415 -416 -415q-168 0 -245 126l-84 -394q-28 -128 -155 -128h-13q-62 0 -88 33t-13 95l275 1291q28 128 153 128q61 0 87 -31.5t13 -90.5l-5 -22q91 144 283 144zM689 436l59 277
q22 103 -11.5 155t-110.5 52q-76 0 -131.5 -52t-77.5 -155l-60 -282q-21 -99 13.5 -149.5t109.5 -50.5q77 0 132.5 52t76.5 153z" />
    <glyph glyph-name="q" unicode="q" horiz-adv-x="1087" 
d="M964 1151q61 0 86.5 -33t12.5 -95l-275 -1291q-28 -128 -155 -128h-12q-62 0 -88 33t-13 95l84 394q-93 -126 -273 -126q-159 0 -234.5 103t-31.5 312l68 318q46 217 149 317.5t263 100.5q113 0 179.5 -45.5t82.5 -100.5l5 24q13 59 52 90.5t100 31.5zM670 431l60 282
q22 103 -11.5 155t-109.5 52q-77 0 -132.5 -52t-77.5 -155l-59 -277q-21 -101 12 -153t110 -52q75 0 131 50.5t77 149.5z" />
    <glyph glyph-name="r" unicode="r" horiz-adv-x="729" 
d="M701 1151q129 0 104 -118l-2 -9q-13 -60 -54.5 -91.5t-109.5 -47.5q-97 -10 -155.5 -74t-84.5 -185l-106 -498q-28 -128 -155 -128h-11q-62 0 -88 33t-13 95l190 895q28 128 153 128q61 0 86.5 -33t12.5 -95l-8 -37q32 65 96 115t145 50z" />
    <glyph glyph-name="s" unicode="s" horiz-adv-x="1015" 
d="M410 0q-165 0 -273.5 71.5t-116.5 196.5q-7 58 34.5 96t108.5 38h9q44 0 66.5 -17t36.5 -53q31 -111 166 -111q75 0 127 28t58 83q4 32 -11 57t-43.5 42t-66.5 31.5t-80.5 30t-85 33t-79.5 44t-64.5 60t-40.5 84t-7 113.5q15 154 139.5 239t318.5 85q168 0 268.5 -65.5
t110.5 -189.5q7 -56 -33.5 -94t-102.5 -38h-10q-48 0 -71.5 17.5t-35.5 53.5q-11 51 -47 75t-103 24q-71 0 -116 -28t-52 -79q-7 -44 17.5 -75.5t69 -52t99.5 -39t109.5 -43.5t99 -58t69.5 -91t18 -135q-14 -164 -142 -248.5t-344 -84.5z" />
    <glyph glyph-name="t" unicode="t" horiz-adv-x="702" 
d="M382 0q-168 0 -230.5 119t-21.5 315l102 482h-15q-47 0 -66 28t-8 80q7 33 26.5 56.5t37 34t62.5 31.5l12 6q32 13 59 41q23 24 42 69q31 65 60 94t70 29q88 0 68 -96l-30 -138h87q124 0 99 -118t-146 -118h-90l-97 -458q-25 -118 -9.5 -160t87.5 -53q42 -12 60.5 -38
t7.5 -79q-14 -67 -54 -97t-113 -30z" />
    <glyph glyph-name="u" unicode="u" horiz-adv-x="1069" 
d="M436 -10q-206 0 -308 121t-59 323l125 589q28 128 156 128h12q62 0 88 -33t13 -95l-134 -628q-18 -82 22 -123.5t110 -41.5t126.5 42.5t73.5 122.5l133 628q28 128 156 128h13q62 0 88 -33t13 -95l-125 -589q-45 -210 -175.5 -327t-327.5 -117z" />
    <glyph glyph-name="v" unicode="v" horiz-adv-x="1017" 
d="M416 0h-60q-113 0 -120 109l-83 899q-5 66 31 104.5t102 38.5h22q114 0 115 -112l30 -683l318 683q49 112 166 112h33q69 0 90 -38t-12 -105l-465 -900q-53 -108 -167 -108z" />
    <glyph glyph-name="w" unicode="w" horiz-adv-x="1499" 
d="M347 0h-36q-115 0 -120 111l-46 897q-2 67 34 105t100 38h15q116 0 116 -114l11 -629l278 630q48 113 164 113h3q116 0 116 -113l10 -631l281 630q49 114 164 114h19q68 0 90 -37.5t-9 -105.5l-429 -897q-52 -111 -165 -111h-39q-57 0 -87 28.5t-29 85.5l-9 603
l-268 -604q-48 -113 -164 -113z" />
    <glyph glyph-name="x" unicode="x" horiz-adv-x="1007" 
d="M85 0h-32q-76 0 -91.5 43.5t36.5 109.5l362 449l-161 396q-25 65 2 109t92 44h35q102 0 130 -92l86 -245l185 244q64 93 169 93h47q71 0 83 -43t-40 -110l-331 -414l173 -431q25 -65 -6 -109t-102 -44h-18q-102 0 -131 92l-103 283l-215 -283q-65 -92 -170 -92z" />
    <glyph glyph-name="y" unicode="y" horiz-adv-x="1001" 
d="M195 -394h-15q-66 0 -85.5 39t14.5 106l134 252l-98 1004q-5 67 30 105.5t101 38.5h20q116 0 119 -111l39 -645l315 645q51 111 164 111h31q69 0 89.5 -38.5t-13.5 -105.5l-677 -1295q-53 -106 -168 -106z" />
    <glyph glyph-name="z" unicode="z" horiz-adv-x="864" 
d="M558 0h-499q-72 0 -91 41t25 109l515 760h-249q-62 0 -89 31.5t-14 89.5q12 58 52 89t102 31h475q72 0 90.5 -41.5t-25.5 -108.5l-516 -760h275q62 0 88.5 -31t13.5 -89q-13 -59 -52 -90t-101 -31z" />
    <glyph glyph-name="braceleft" unicode="{" horiz-adv-x="700" 
d="M340 719q127 -58 73 -313l-16 -75q-18 -95 -4.5 -137.5t60.5 -67.5q32 -19 45.5 -41.5t5.5 -61.5q-13 -63 -56 -97t-104 -22q-149 26 -200 144.5t-9 314.5l28 130q17 77 -26 112q-35 28 -44 43q-14 26 -5 67l3 14q6 29 20.5 49.5t28.5 31t38 24.5l3 1.5l3 1.5t3 2
q56 34 73 113l28 130q46 218 135.5 325.5t268.5 133.5q66 10 95 -20t16 -90q-11 -51 -36 -76.5t-67 -42.5q-60 -21 -89.5 -63.5t-50.5 -143.5l-16 -76q-55 -259 -204 -310z" />
    <glyph glyph-name="bar" unicode="|" horiz-adv-x="512" 
d="M119 -104h-15q-62 0 -88 33t-12 95l298 1402q28 128 155 128h14q62 0 88 -33t13 -95l-298 -1402q-28 -128 -155 -128z" />
    <glyph glyph-name="braceright" unicode="}" horiz-adv-x="700" 
d="M71 -96q-66 -10 -95 22.5t-15 95.5q8 40 32 62.5t65 40.5q61 23 91.5 68t52.5 147l17 76q55 256 203 306q-126 58 -72 317l16 75q17 94 4.5 134.5t-58.5 62.5q-34 18 -48 44t-3 76q12 59 54.5 90.5t103.5 19.5q149 -26 200 -144.5t9 -314.5l-28 -130q-17 -78 26 -113
q35 -27 42 -40q16 -26 7 -69l-3 -14q-2 -11 -5 -20t-8 -17t-8 -14t-10.5 -13t-10.5 -10t-13 -10t-12.5 -8.5t-14.5 -9t-14 -8.5q-56 -34 -73 -113l-28 -131q-46 -217 -135.5 -324.5t-268.5 -133.5z" />
    <glyph glyph-name="uni00A0" unicode="&#xa0;" horiz-adv-x="452" 
 />
    <glyph glyph-name="exclamdown" unicode="&#xa1;" horiz-adv-x="501" 
d="M366 1126q-67 0 -104.5 48.5t-23.5 115.5t72 114.5t125 47.5q68 0 106.5 -47.5t24.5 -114.5q-14 -68 -73 -116t-127 -48zM127 0q-74 0 -108.5 42.5t-20.5 110.5q12 54 72 219l194 540q20 52 37 68t38 16q14 0 21.5 -4.5t13 -24t4.5 -55.5l-36 -536q-10 -169 -22 -223
q-14 -68 -66.5 -110.5t-126.5 -42.5z" />
    <glyph glyph-name="cent" unicode="&#xa2;" horiz-adv-x="1036" 
d="M452 242q79 0 125.5 35.5t76.5 105.5q21 48 50 72t89 24h19q114 0 84 -120q-73 -277 -325 -338l-26 -125q-13 -62 -65 -62q-53 0 -40 61l23 108q-30 -3 -62 -3q-31 0 -58 3l-23 -107q-13 -62 -64 -62q-53 0 -40 61l27 129q-121 43 -168 154t-12 273l51 243
q81 380 365 442l25 116q14 61 65 61q53 0 40 -62l-22 -103q28 3 59 3q32 0 60 -3l23 104q13 61 65 61t39 -62l-27 -126q101 -37 149 -129t33 -204q-17 -120 -135 -120h-19q-59 0 -78.5 23.5t-18.5 70.5q2 70 -30 106t-113 36q-82 0 -134 -46.5t-74 -152.5l-60 -282
q-19 -90 15 -137.5t111 -47.5z" />
    <glyph glyph-name="sterling" unicode="&#xa3;" horiz-adv-x="1134" 
d="M773 0h-668q-62 0 -88 33t-13 95l3 15q28 128 144 128h231q16 121 -31 236h-211q-57 0 -46 52q11 51 69 51h156q-28 75 -43 121h-88q-58 0 -47 52t70 52h41q-22 119 -10 207q27 199 163.5 314.5t335.5 115.5q177 0 295 -99.5t122 -251.5q3 -61 -35.5 -98t-105.5 -37h-13
q-55 0 -80.5 21t-35.5 62q-10 62 -49.5 98.5t-104.5 36.5q-83 0 -138.5 -47t-67.5 -129q-13 -82 14 -193h277q58 0 47 -52t-68 -52h-229q22 -81 37 -121h165q59 0 48 -51q-11 -52 -69 -52h-124q36 -113 16 -236h188q62 0 88 -33t13 -95l-3 -15q-28 -128 -155 -128z" />
    <glyph glyph-name="yen" unicode="&#xa5;" horiz-adv-x="1132" 
d="M505 1343l105 -510l327 512q61 100 168 100h32q72 0 90.5 -41.5t-23.5 -107.5l-508 -773h104q59 0 48 -51q-11 -52 -69 -52h-105l-26 -121h104q58 0 47 -51q-11 -52 -68 -52h-105l-17 -78q-12 -57 -52 -87.5t-101 -30.5h-26q-60 0 -87.5 31.5t-15.5 88.5l17 77h-106
q-59 0 -48 52q11 51 71 51h104l26 121h-105q-60 0 -49 52q11 51 72 51h103l-178 772q-14 66 18.5 107.5t98.5 41.5h28q109 0 126 -102z" />
    <glyph glyph-name="brokenbar" unicode="&#xa6;" horiz-adv-x="512" 
d="M320 841h-15q-62 0 -88 33t-13 95l98 457q28 128 155 128h14q62 0 88 -33t13 -95l-97 -457q-28 -128 -155 -128zM119 -104h-15q-62 0 -88 33t-12 95l99 466q28 128 155 128h14q62 0 88 -33t13 -95l-99 -466q-28 -128 -155 -128z" />
    <glyph glyph-name="section" unicode="&#xa7;" horiz-adv-x="1019" 
d="M389 -187q-97 0 -175 23.5t-126.5 62.5t-74.5 85.5t-27 96.5q-3 65 37.5 100t105.5 35h10q21 0 34.5 -3.5t32.5 -20t35 -47.5q30 -111 166 -111q76 0 126.5 33.5t58.5 87.5q6 42 -19.5 72t-71.5 48t-102 35t-111 40.5t-98.5 55.5t-66 88t-11.5 132q23 163 216 257
q-72 41 -106.5 109.5t-19.5 158.5q21 143 146.5 226.5t321.5 83.5q98 0 177 -23.5t127.5 -62.5t74.5 -85.5t27 -96.5q3 -66 -38.5 -100t-105.5 -34h-9q-37 0 -60 14t-42 56q-4 53 -50.5 82t-115.5 29q-76 0 -126.5 -33.5t-58.5 -87.5q-6 -42 19.5 -72t71 -48t101.5 -35
t111 -40t98.5 -55t66 -88.5t11.5 -132.5q-23 -163 -209 -257q146 -82 120 -254q-21 -148 -148 -236t-323 -88zM511 527q72 0 117 30.5t54 81.5q10 54 -27.5 81t-103.5 27q-72 0 -117.5 -30.5t-54.5 -81.5q-10 -54 28 -81t104 -27z" />
    <glyph glyph-name="dieresis" unicode="&#xa8;" horiz-adv-x="1075" 
d="M481 1193q-52 0 -80 36t-17 88t54.5 88.5t95.5 36.5t81.5 -36.5t18.5 -88.5t-56 -88t-97 -36zM856 1193q-52 0 -80 36t-17 88t54.5 88.5t95.5 36.5t81 -36.5t18 -88.5t-55.5 -88t-96.5 -36z" />
    <glyph glyph-name="copyright" unicode="&#xa9;" horiz-adv-x="1482" 
d="M623 -108q-195 0 -330 80t-189 225.5t-14 333.5l81 382q30 143 96.5 261.5t162.5 205t225 134t277 47.5q193 0 326.5 -82.5t184.5 -230t11 -335.5l-81 -382q-62 -292 -258.5 -465.5t-491.5 -173.5zM641 86q431 0 526 445l81 382q49 232 -41.5 343t-292.5 111
q-205 0 -347 -111.5t-191 -342.5l-81 -382q-49 -231 45 -338t301 -107zM687 212q-153 0 -227 89t-43 239l77 359q34 161 127 247t239 86q156 0 230 -87.5t41 -239.5q-19 -92 -124 -92q-108 0 -89 99q14 67 -3.5 97.5t-71.5 30.5t-87.5 -31.5t-49.5 -107.5l-82 -386
q-22 -107 81 -107q57 0 87.5 29.5t44.5 92.5q23 102 129 102q51 0 73.5 -26t12.5 -75q-33 -156 -125.5 -237.5t-239.5 -81.5z" />
    <glyph glyph-name="ordfeminine" unicode="&#xaa;" 
d="M1017 1446q61 0 86 -33t12 -95l-147 -693q-28 -128 -153 -128q-120 0 -104 107q-95 -117 -282 -117q-157 0 -231 103.5t-29 314.5l27 126q46 213 145 313.5t251 100.5q105 0 174 -35t98 -83q29 119 153 119zM760 906l27 129q19 91 -15 135.5t-106 44.5q-160 0 -200 -185
l-26 -124q-39 -186 121 -186q73 0 126 46t73 140zM476 318q68 0 106 -48t24 -115t-72.5 -114t-126.5 -47t-105.5 47t-23.5 114t72 115t126 48z" />
    <glyph glyph-name="guillemotleft" unicode="&#xab;" horiz-adv-x="1087" 
d="M354 171h-3q-50 0 -77.5 19t-46.5 64l-108 243q-39 89 38 178l211 244q38 44 74 63t87 19h3q55 0 63.5 -35.5t-32.5 -102.5l-192 -288l69 -266q15 -66 -8 -102t-78 -36zM807 171h-4q-49 0 -77.5 19.5t-46.5 63.5l-106 243q-39 89 38 178l209 244q38 44 74 63t87 19h4
q55 0 63.5 -36t-32.5 -102l-192 -288l69 -266q15 -65 -8 -101.5t-78 -36.5z" />
    <glyph glyph-name="registered" unicode="&#xae;" horiz-adv-x="1482" 
d="M932 1561q193 0 326.5 -82.5t184.5 -230t11 -335.5l-81 -382q-62 -292 -258.5 -465.5t-491.5 -173.5q-195 0 -330 80t-189 225.5t-14 333.5l81 382q30 143 96.5 261.5t162.5 205t225 134t277 47.5zM1167 531l81 382q49 232 -41.5 343t-292.5 111q-205 0 -347 -111.5
t-191 -342.5l-81 -382q-49 -231 45 -338t301 -107q431 0 526 445zM699 1186h122q164 0 242 -94t42 -264l-2 -12q-47 -220 -196 -294l53 -108q56 -153 -77 -153q-51 0 -75.5 18t-38.5 61l-57 136h-87l-21 -98q-13 -62 -43.5 -89.5t-81.5 -27.5q-52 0 -71.5 28.5t-6.5 91.5
l144 680q26 125 154 125zM902 824l2 10q18 88 -10.5 122t-100.5 34h-59l-68 -321h55q75 0 119 33.5t62 121.5z" />
    <glyph glyph-name="macron" unicode="&#xaf;" horiz-adv-x="1159" 
d="M887 1207h-348q-61 0 -84.5 24.5t-13.5 72.5q20 94 138 94h348q61 0 84.5 -23.5t13.5 -70.5q-21 -97 -138 -97z" />
    <glyph glyph-name="degree" unicode="&#xb0;" horiz-adv-x="831" 
d="M472 774q-152 0 -222.5 89t-37.5 243l2 10q33 155 127 242t241 87q150 0 222.5 -89.5t40.5 -239.5l-2 -10q-34 -157 -129.5 -244.5t-241.5 -87.5zM495 951q52 0 91.5 32t53.5 95l14 63q14 63 -12.5 95t-79.5 32t-92 -32t-53 -95l-13 -63q-14 -64 12 -95.5t79 -31.5z" />
    <glyph glyph-name="acute" unicode="&#xb4;" horiz-adv-x="1099" 
d="M681 1191h-8q-109 0 -31 127l62 94q32 52 72.5 76t103.5 24h4q173 -1 50 -135l-93 -103q-46 -49 -78 -66t-82 -17z" />
    <glyph glyph-name="paragraph" unicode="&#xb6;" horiz-adv-x="778" 
d="M289 26l161 757h-124q-90 0 -124 56t-9 175l43 203q13 61 37 104.5t50.5 67.5t65.5 37t71 16t79 3h176q62 0 88 -33t13 -95l-274 -1291q-28 -128 -154 -128q-62 0 -87 33t-12 95z" />
    <glyph glyph-name="periodcentered" unicode="&#xb7;" horiz-adv-x="485" 
d="M209 423q-67 0 -104.5 47.5t-23.5 114.5q14 68 72 116t125 48q68 0 105.5 -48t23.5 -116q-14 -67 -72 -114.5t-126 -47.5z" />
    <glyph glyph-name="cedilla" unicode="&#xb8;" horiz-adv-x="1114" 
d="M262 -349q-75 0 -90.5 39.5t34.5 112.5l138 194q35 52 67.5 72.5t83.5 17.5q21 -1 32.5 -8t15.5 -17t0.5 -29t-10 -37t-19.5 -48l-87 -184q-46 -113 -165 -113z" />
    <glyph glyph-name="ordmasculine" unicode="&#xba;" horiz-adv-x="1036" 
d="M517 475q-207 0 -302 123t-50 334l13 62q45 211 173.5 331t330.5 120q203 0 300 -123t54 -328l-13 -62q-46 -215 -176 -336t-330 -121zM548 716q72 0 125.5 44.5t72.5 132.5l29 135q19 88 -15.5 132t-107.5 44q-74 0 -126.5 -44t-71.5 -132l-29 -135q-19 -89 15.5 -133
t107.5 -44zM392 -16q-67 0 -104.5 47t-23.5 114q14 68 72.5 116t125.5 48q68 0 105.5 -48t23.5 -116q-14 -67 -72.5 -114t-126.5 -47z" />
    <glyph glyph-name="guillemotright" unicode="&#xbb;" horiz-adv-x="1087" 
d="M111 171h-4q-55 0 -64.5 35.5t32.5 102.5l191 287l-68 267q-14 65 8 101.5t76 36.5h4q51 0 78.5 -18.5t46.5 -63.5l106 -244q39 -89 -38 -178l-209 -243q-38 -44 -74 -63.5t-85 -19.5zM564 171h-4q-55 0 -64.5 35.5t32.5 102.5l192 287l-69 267q-15 66 7.5 102t76.5 36h3
q51 0 79 -19t47 -63l107 -244q39 -89 -38 -178l-210 -243q-38 -45 -73.5 -64t-85.5 -19z" />
    <glyph glyph-name="onequarter" unicode="&#xbc;" horiz-adv-x="1484" 
d="M273 637h-7q-92 0 -72 92l102 480h-16q-36 1 -52 22.5t-8 56.5l1 6q6 27 20.5 43t41.5 31q49 27 82 56q34 31 78 31h9q87 0 67 -92l-135 -634q-20 -92 -111 -92zM242 -7h-25q-46 0 -56 29.5t20 77.5l796 1282q43 71 122 71h12q52 0 65.5 -29.5t-16.5 -77.5l-797 -1282
q-43 -71 -121 -71zM1101 -1h-18q-82 0 -65 80l20 96h-289q-82 0 -65 76l4 21q13 59 57 105l405 429q48 51 113 51h20q82 0 65 -82l-91 -426h23q81 0 64 -82l-2 -10q-17 -82 -99 -82h-22l-21 -94q-17 -82 -99 -82zM1125 584l-218 -235h168z" />
    <glyph glyph-name="onehalf" unicode="&#xbd;" horiz-adv-x="1501" 
d="M273 637h-7q-92 0 -72 92l102 480h-16q-36 1 -52 22.5t-8 56.5l1 6q6 27 20.5 43t41.5 31q49 27 82 56q34 31 78 31h9q87 0 67 -92l-135 -634q-20 -92 -111 -92zM232 -7h-25q-46 0 -55.5 29.5t20.5 77.5l795 1282q43 71 122 71h12q52 0 65.5 -29.5t-16.5 -77.5
l-796 -1282q-43 -71 -122 -71zM966 185h248q93 0 73 -92l-1 -3q-9 -43 -38 -66t-73 -23h-348q-93 0 -73 92l5 21q10 47 28 85t38 64.5t53 53t60 43t71 41.5q16 9 47 25.5t46 24.5t37.5 23t34 26.5t22 27.5t14.5 34q8 38 -10.5 60t-57.5 22q-61 0 -97 -53q-15 -21 -25.5 -32
t-28.5 -20t-41 -9h-25q-87 0 -49 96q34 90 109 143.5t174 53.5q122 0 191 -72t48 -186q-6 -29 -17.5 -55t-23 -45t-32.5 -39.5t-34.5 -32.5t-41 -29t-39 -24t-40.5 -23q-31 -19 -85.5 -46.5t-82.5 -46t-36 -39.5z" />
    <glyph glyph-name="threequarters" unicode="&#xbe;" horiz-adv-x="1705" 
d="M382 628q-111 0 -179 49.5t-73 132.5q-2 45 27 70.5t76 25.5h15q36 0 53 -14t29 -44q17 -42 76 -42q45 0 75 22t38 62q8 36 -11.5 55t-66.5 19h-19q-87 0 -72 72l2 10q17 80 100 80h20q86 0 103 80q8 37 -10.5 58t-60.5 21q-49 0 -84 -39q-28 -32 -50 -46t-57 -14h-16
q-46 0 -61.5 25.5t3.5 71.5q32 80 107.5 128.5t174.5 48.5q123 0 195 -66.5t54 -170.5q-18 -113 -126 -168q87 -45 68 -171q-17 -113 -110 -184.5t-220 -71.5zM475 -7h-25q-46 0 -55.5 29.5t20.5 77.5l795 1282q43 71 122 71h12q52 0 65.5 -29.5t-16.5 -77.5l-796 -1282
q-43 -71 -122 -71zM1322 -1h-18q-82 0 -65 80l20 96h-288q-83 0 -66 76l4 21q13 59 57 105l405 429q48 51 113 51h21q81 0 64 -82l-90 -426h22q82 0 65 -82l-3 -10q-17 -82 -99 -82h-22l-20 -94q-17 -82 -100 -82zM1346 584l-218 -235h168z" />
    <glyph glyph-name="questiondown" unicode="&#xbf;" horiz-adv-x="1038" 
d="M770 1445q68 0 106.5 -47t24.5 -114t-73 -115.5t-127 -48.5t-105 48t-23 116q14 67 71.5 114t125.5 47zM691 1018q28 0 38 -31.5t-1 -89.5q-10 -48 -32 -87.5t-59 -72.5t-62.5 -51t-74.5 -48l-52.5 -33t-45.5 -33t-43 -40.5t-30 -45t-21 -56.5q-16 -74 26.5 -121
t127.5 -47q151 0 230 137q59 82 145 82h15q65 0 87 -36.5t-4 -98.5q-58 -155 -196 -250.5t-318 -95.5q-205 0 -313 112.5t-86 282.5q6 48 21.5 90t32 72t46.5 60t50.5 47t59.5 39.5t58.5 32t61.5 29.5q4 2 6.5 3t6 3t6.5 3q64 30 98.5 49.5t77 55.5t74.5 83q20 32 35.5 44
t34.5 12z" />
    <glyph glyph-name="Agrave" unicode="&#xc0;" horiz-adv-x="1173" 
d="M802 1552h-9q-50 0 -74.5 17t-49.5 66l-50 104q-65 134 106 135h6q63 0 93.5 -24t39.5 -76l22 -95q24 -127 -84 -127zM70 0h-30q-69 0 -90 38t12 105l605 1193q53 109 167 109h82q113 0 120 -109l91 -1193q4 -67 -33 -105t-104 -38h-21q-113 0 -117 111l-12 174h-417
l-86 -175q-51 -110 -167 -110zM711 1121l-277 -593h299z" />
    <glyph glyph-name="Aacute" unicode="&#xc1;" horiz-adv-x="1173" 
d="M792 1554h-8q-109 0 -31 127l62 95q32 52 72.5 76t103.5 24h4q173 -1 50 -135l-93 -104q-46 -49 -78 -66t-82 -17zM70 0h-30q-69 0 -90 38t12 105l605 1193q53 109 167 109h82q113 0 120 -109l91 -1193q4 -67 -33 -105t-104 -38h-21q-113 0 -117 111l-12 174h-417
l-86 -175q-51 -110 -167 -110zM711 1121l-277 -593h299z" />
    <glyph glyph-name="Acircumflex" unicode="&#xc2;" horiz-adv-x="1173" 
d="M581 1547q-26 0 -42.5 7.5t-22 23t7.5 43t44 63.5l89 95q70 86 171 86h61q53 0 84.5 -17t50.5 -59l50 -103q23 -51 19.5 -82t-22.5 -44t-53 -13q-88 0 -121 55l-67 100l-89 -79q-40 -41 -75.5 -58.5t-84.5 -17.5zM70 0h-30q-69 0 -90 38t12 105l605 1193q53 109 167 109
h82q113 0 120 -109l91 -1193q4 -67 -33 -105t-104 -38h-21q-113 0 -117 111l-12 174h-417l-86 -175q-51 -110 -167 -110zM711 1121l-277 -593h299z" />
    <glyph glyph-name="Atilde" unicode="&#xc3;" horiz-adv-x="1173" 
d="M982 1552q-53 -7 -110 6.5t-109.5 25.5t-97.5 1q-31 -7 -46 -9.5t-40.5 -6.5t-38.5 -2.5t-29 5.5t-25 14t-14 25q-18 56 44.5 104.5t141.5 59.5q41 6 86.5 -2t78 -20t74.5 -19t77 1q12 3 39 9.5t38 8.5t31 5.5t29.5 1.5t21.5 -6.5t19 -14.5t11 -25q15 -57 -44 -105
t-137 -57zM70 0h-30q-69 0 -90 38t12 105l605 1193q53 109 167 109h82q113 0 120 -109l91 -1193q4 -67 -33 -105t-104 -38h-21q-113 0 -117 111l-12 174h-417l-86 -175q-51 -110 -167 -110zM711 1121l-277 -593h299z" />
    <glyph glyph-name="Adieresis" unicode="&#xc4;" horiz-adv-x="1173" 
d="M608 1559q-52 0 -80 35.5t-17 87.5t54.5 88.5t95.5 36.5t81.5 -36.5t18.5 -88.5q-11 -51 -56 -87t-97 -36zM983 1559q-52 0 -80 35.5t-17 87.5t54.5 88.5t95.5 36.5t80.5 -36.5t17.5 -88.5t-55 -87.5t-96 -35.5zM70 0h-30q-69 0 -90 38t12 105l605 1193q53 109 167 109
h82q113 0 120 -109l91 -1193q4 -67 -33 -105t-104 -38h-21q-113 0 -117 111l-12 174h-417l-86 -175q-51 -110 -167 -110zM711 1121l-277 -593h299z" />
    <glyph glyph-name="Aring" unicode="&#xc5;" horiz-adv-x="1173" 
d="M805 1548q-77 0 -123 55.5t-35 132.5q10 77 72.5 129.5t140.5 52.5q77 0 122.5 -54t35.5 -132q-10 -76 -73 -130t-140 -54zM825 1684q21 0 38.5 15.5t21.5 37.5q4 21 -8.5 35.5t-33.5 14.5q-22 0 -39.5 -14.5t-21.5 -35.5q-4 -22 8.5 -37.5t34.5 -15.5zM70 0h-30
q-69 0 -90 38t12 105l605 1193q53 109 167 109h82q113 0 120 -109l91 -1193q4 -67 -33 -105t-104 -38h-21q-113 0 -117 111l-12 174h-417l-86 -175q-51 -110 -167 -110zM711 1121l-277 -593h299z" />
    <glyph glyph-name="AE" unicode="&#xc6;" horiz-adv-x="1771" 
d="M91 0h-41q-74 0 -91.5 42.5t30.5 109.5l904 1201q68 92 169 92h676q62 0 88 -33t13 -95l-4 -17q-28 -128 -155 -128h-397l-70 -327h261q62 0 88.5 -31.5t13.5 -91.5t-52.5 -92t-101.5 -32h-261l-70 -327h398q62 0 88 -33t13 -95l-4 -15q-28 -128 -155 -128h-552
q-62 0 -89 28t-16 80l38 177h-405l-147 -192q-64 -93 -169 -93zM977 1068l-402 -540h286z" />
    <glyph glyph-name="Ccedilla" unicode="&#xc7;" horiz-adv-x="1142" 
d="M735 1445q204 0 321 -119.5t95 -298.5q-8 -63 -45.5 -96.5t-100.5 -33.5h-27q-65 0 -86 26t-21 75q1 82 -34 129t-127 47q-83 0 -153 -52.5t-94 -166.5l-99 -463q-24 -114 20.5 -167.5t133.5 -53.5q171 0 241 186q20 52 52 79.5t96 27.5h27q64 0 85.5 -37.5t2.5 -102.5
q-52 -182 -175 -295t-306 -127q-8 -21 -15 -37l-88 -183q-46 -114 -164 -114q-75 0 -91 39t34 113l139 194l2 3q-158 42 -235.5 173t-39.5 311l95 445q48 226 197 362.5t360 136.5z" />
    <glyph glyph-name="Egrave" unicode="&#xc8;" horiz-adv-x="1024" 
d="M764 1544h-8q-51 0 -75.5 17t-49.5 66l-50 104q-65 134 107 135h5q63 0 93.5 -24.5t39.5 -76.5l22 -94q24 -127 -84 -127zM699 0h-552q-62 0 -88 33t-13 95l253 1189q28 128 155 128h552q62 0 88 -33t13 -95l-4 -17q-28 -128 -155 -128h-398l-70 -327h262
q62 0 88.5 -31.5t13.5 -91.5t-52.5 -92t-101.5 -32h-262l-70 -327h399q62 0 88 -33t12 -95l-3 -15q-28 -128 -155 -128z" />
    <glyph glyph-name="Eacute" unicode="&#xc9;" horiz-adv-x="1024" 
d="M736 1547h-8q-109 0 -31 127l62 94q33 53 73 77t103 24h5q173 -1 50 -135l-94 -104q-46 -49 -78 -66t-82 -17zM699 0h-552q-62 0 -88 33t-13 95l253 1189q28 128 155 128h552q62 0 88 -33t13 -95l-4 -17q-28 -128 -155 -128h-398l-70 -327h262q62 0 88.5 -31.5
t13.5 -91.5t-52.5 -92t-101.5 -32h-262l-70 -327h399q62 0 88 -33t12 -95l-3 -15q-28 -128 -155 -128z" />
    <glyph glyph-name="Ecircumflex" unicode="&#xca;" horiz-adv-x="1024" 
d="M547 1550q-36 0 -53.5 13t-9.5 45t49 80l90 94q70 86 171 86h61q53 0 84.5 -17t50.5 -59l49 -103q23 -51 19.5 -82t-22.5 -44t-53 -13q-87 0 -120 55l-67 100l-89 -79q-40 -41 -75.5 -58.5t-84.5 -17.5zM699 0h-552q-62 0 -88 33t-13 95l253 1189q28 128 155 128h552
q62 0 88 -33t13 -95l-4 -17q-28 -128 -155 -128h-398l-70 -327h262q62 0 88.5 -31.5t13.5 -91.5t-52.5 -92t-101.5 -32h-262l-70 -327h399q62 0 88 -33t12 -95l-3 -15q-28 -128 -155 -128z" />
    <glyph glyph-name="Edieresis" unicode="&#xcb;" horiz-adv-x="1024" 
d="M567 1558q-52 0 -80 35.5t-17 87.5t54.5 88.5t95.5 36.5t81 -36.5t18 -88.5t-55.5 -87.5t-96.5 -35.5zM942 1558q-52 0 -80.5 35.5t-17.5 87.5t55 88.5t96 36.5t80.5 -36.5t17.5 -88.5t-55 -87.5t-96 -35.5zM699 0h-552q-62 0 -88 33t-13 95l253 1189q28 128 155 128h552
q62 0 88 -33t13 -95l-4 -17q-28 -128 -155 -128h-398l-70 -327h262q62 0 88.5 -31.5t13.5 -91.5t-52.5 -92t-101.5 -32h-262l-70 -327h399q62 0 88 -33t12 -95l-3 -15q-28 -128 -155 -128z" />
    <glyph glyph-name="Igrave" unicode="&#xcc;" horiz-adv-x="565" 
d="M496 1553h-9q-50 0 -74.5 17t-49.5 66l-50 104q-65 134 106 135h6q63 0 93.5 -24t39.5 -76l22 -95q24 -127 -84 -127zM173 0h-26q-62 0 -88 33t-13 95l253 1189q28 128 155 128h26q62 0 88 -33t13 -95l-253 -1189q-28 -128 -155 -128z" />
    <glyph glyph-name="Iacute" unicode="&#xcd;" horiz-adv-x="565" 
d="M491 1551h-8q-108 0 -30 127l62 95q32 53 72 76.5t103 23.5h5q173 -1 50 -135l-94 -104q-46 -49 -78 -66t-82 -17zM173 0h-26q-62 0 -88 33t-13 95l253 1189q28 128 155 128h26q62 0 88 -33t13 -95l-253 -1189q-28 -128 -155 -128z" />
    <glyph glyph-name="Icircumflex" unicode="&#xce;" horiz-adv-x="565" 
d="M268 1548q-36 0 -53.5 13t-9.5 45t49 80l90 94q70 86 171 86h61q53 0 84.5 -17t50.5 -59l49 -103q23 -51 19.5 -82t-22.5 -44t-53 -13q-87 0 -120 55l-67 100l-89 -79q-40 -41 -75.5 -58.5t-84.5 -17.5zM173 0h-26q-62 0 -88 33t-13 95l253 1189q28 128 155 128h26
q62 0 88 -33t13 -95l-253 -1189q-28 -128 -155 -128z" />
    <glyph glyph-name="Idieresis" unicode="&#xcf;" horiz-adv-x="565" 
d="M305 1566q-52 0 -80.5 36t-17.5 88t55 88.5t96 36.5t81 -36.5t18 -88.5t-55.5 -88t-96.5 -36zM679 1566q-52 0 -80 36t-17 88t54.5 88.5t95.5 36.5t81 -36.5t18 -88.5t-55.5 -88t-96.5 -36zM173 0h-26q-62 0 -88 33t-13 95l253 1189q28 128 155 128h26q62 0 88 -33
t13 -95l-253 -1189q-28 -128 -155 -128z" />
    <glyph glyph-name="Eth" unicode="&#xd0;" horiz-adv-x="1200" 
d="M524 0h-377q-62 0 -88 33t-13 95l109 514h-53q-36 0 -55 22.5t-11 61.5t36.5 61t66.5 22h52l108 508q28 128 155 128h315q108 0 193.5 -35t141.5 -103t74 -168.5t-9 -232.5l-79 -370q-55 -260 -202.5 -398t-363.5 -138zM438 640l-79 -372h157q236 0 299 293l68 322
q17 70 13.5 120.5t-16.5 83.5t-40.5 52.5t-58.5 27t-72 7.5h-158l-78 -367h92q42 0 62.5 -22t12.5 -61t-38 -61.5t-71 -22.5h-93z" />
    <glyph glyph-name="Ntilde" unicode="&#xd1;" horiz-adv-x="1255" 
d="M1019 1553q-53 -7 -110 6.5t-109.5 25.5t-97.5 1q-31 -7 -46 -9.5t-40.5 -6.5t-38.5 -2.5t-29 5.5t-25 14t-14 25q-18 56 44.5 104.5t141.5 59.5q41 6 86.5 -2t78.5 -20t75 -19t77 1q13 3 39.5 9.5t37.5 8.5t31 5.5t29 1.5t21 -6.5t19 -14.5t11 -25q15 -57 -44 -105
t-137 -57zM174 0h-27q-62 0 -88 33t-13 95l253 1189q28 128 155 128h30q110 0 130 -95l213 -808l160 775q13 62 53 95t102 33h28q62 0 88 -33t13 -95l-253 -1189q-28 -128 -155 -128h-33q-110 0 -130 95l-214 787l-157 -754q-13 -62 -53 -95t-102 -33z" />
    <glyph glyph-name="Ograve" unicode="&#xd2;" horiz-adv-x="1167" 
d="M782 1543h-8q-51 0 -75.5 17t-49.5 66l-49 104q-65 134 106 135h5q63 0 94 -24.5t40 -76.5l22 -94q24 -127 -85 -127zM491 0q-106 0 -193 36.5t-141.5 102.5t-76 158t2.5 202l95 445q48 225 198 363t361 138q141 0 244.5 -63t148.5 -178.5t14 -259.5l-94 -445
q-47 -224 -198.5 -361.5t-360.5 -137.5zM518 270q83 0 152.5 52t93.5 166l99 466q24 114 -21 167.5t-132 53.5q-54 0 -101 -19t-88 -70.5t-58 -130.5l-99 -466q-24 -113 21.5 -166t132.5 -53z" />
    <glyph glyph-name="Oacute" unicode="&#xd3;" horiz-adv-x="1167" 
d="M790 1549h-9q-108 0 -30 127l62 94q33 53 73 77t103 24h4q173 -1 50 -135l-93 -104q-46 -49 -78 -66t-82 -17zM491 0q-106 0 -193 36.5t-141.5 102.5t-76 158t2.5 202l95 445q48 225 198 363t361 138q141 0 244.5 -63t148.5 -178.5t14 -259.5l-94 -445
q-47 -224 -198.5 -361.5t-360.5 -137.5zM518 270q83 0 152.5 52t93.5 166l99 466q24 114 -21 167.5t-132 53.5q-54 0 -101 -19t-88 -70.5t-58 -130.5l-99 -466q-24 -113 21.5 -166t132.5 -53z" />
    <glyph glyph-name="Ocircumflex" unicode="&#xd4;" horiz-adv-x="1167" 
d="M579 1544q-26 0 -42.5 7.5t-22 23t7 43t43.5 63.5l89 95q70 86 171 86h62q53 0 84 -17t50 -60l50 -102q23 -51 19.5 -82t-22.5 -44t-53 -13q-89 0 -121 54l-66 101l-90 -79q-40 -41 -75 -58.5t-84 -17.5zM491 0q-106 0 -193 36.5t-141.5 102.5t-76 158t2.5 202l95 445
q48 225 198 363t361 138q141 0 244.5 -63t148.5 -178.5t14 -259.5l-94 -445q-47 -224 -198.5 -361.5t-360.5 -137.5zM518 270q83 0 152.5 52t93.5 166l99 466q24 114 -21 167.5t-132 53.5q-54 0 -101 -19t-88 -70.5t-58 -130.5l-99 -466q-24 -113 21.5 -166t132.5 -53z" />
    <glyph glyph-name="Otilde" unicode="&#xd5;" horiz-adv-x="1167" 
d="M977 1556q-53 -7 -110 6.5t-109.5 25.5t-97.5 1q-31 -7 -46 -9.5t-40.5 -6.5t-38.5 -2.5t-29 5.5t-25 14t-14 25q-18 56 44.5 104.5t141.5 59.5q41 6 86.5 -2t78 -20t74.5 -19t77 1q13 3 39.5 9.5t37.5 8.5t31 5.5t29 1.5t21 -6.5t19 -14.5t11 -25q15 -57 -43.5 -105
t-136.5 -57zM491 0q-106 0 -193 36.5t-141.5 102.5t-76 158t2.5 202l95 445q48 225 198 363t361 138q141 0 244.5 -63t148.5 -178.5t14 -259.5l-94 -445q-47 -224 -198.5 -361.5t-360.5 -137.5zM518 270q83 0 152.5 52t93.5 166l99 466q24 114 -21 167.5t-132 53.5
q-54 0 -101 -19t-88 -70.5t-58 -130.5l-99 -466q-24 -113 21.5 -166t132.5 -53z" />
    <glyph glyph-name="Odieresis" unicode="&#xd6;" horiz-adv-x="1167" 
d="M604 1556q-52 0 -80.5 36t-17.5 88t55 88.5t96 36.5t81 -36.5t18 -88.5t-55.5 -88t-96.5 -36zM979 1556q-52 0 -80.5 36t-17.5 88t54.5 88.5t95.5 36.5t81 -36.5t18 -88.5t-55 -88t-96 -36zM491 0q-106 0 -193 36.5t-141.5 102.5t-76 158t2.5 202l95 445q48 225 198 363
t361 138q141 0 244.5 -63t148.5 -178.5t14 -259.5l-94 -445q-47 -224 -198.5 -361.5t-360.5 -137.5zM518 270q83 0 152.5 52t93.5 166l99 466q24 114 -21 167.5t-132 53.5q-54 0 -101 -19t-88 -70.5t-58 -130.5l-99 -466q-24 -113 21.5 -166t132.5 -53z" />
    <glyph glyph-name="multiply" unicode="&#xd7;" horiz-adv-x="1026" 
d="M152 410q-66 85 35 170l189 158l-114 146q-71 90 30 173q102 84 172 -6l116 -150l179 150q52 43 98.5 44t79.5 -41t24 -88t-60 -88l-183 -151l119 -147q74 -91 -30 -177q-98 -80 -172 13l-118 147l-188 -156q-55 -44 -99.5 -42t-77.5 45z" />
    <glyph glyph-name="Oslash" unicode="&#xd8;" horiz-adv-x="1167" 
d="M1106 1536l-95 -175q89 -67 125.5 -175.5t7.5 -241.5l-94 -445q-47 -224 -198.5 -361.5t-360.5 -137.5q-108 0 -198 39l-85 -159q-29 -54 -77 -38q-45 15 -13 73l93 172q-86 67 -121 174t-7 238l95 445q48 225 198 363t361 138q105 0 191 -37l87 161q30 54 76 40
q47 -14 15 -73zM463 955l-99 -466q-15 -70 -1 -121l430 791q-35 16 -83 16q-54 0 -101 -19t-88 -70.5t-58 -130.5zM764 488l99 466q17 77 -1 131l-433 -796q38 -19 89 -19q83 0 152.5 52t93.5 166z" />
    <glyph glyph-name="Ugrave" unicode="&#xd9;" horiz-adv-x="1208" 
d="M833 1552h-8q-51 0 -75.5 17t-49.5 66l-49 104q-65 134 106 135h5q63 0 94 -24t40 -76l22 -95q24 -127 -85 -127zM512 0q-106 0 -193 36.5t-141.5 102.5t-76 158t2.5 202l174 818q28 128 156 128h25q62 0 88 -33t13 -95l-176 -828q-24 -115 23 -167t131 -52
q86 0 155 53.5t93 165.5l175 828q28 128 156 128h26q62 0 88 -33t13 -95l-174 -818q-47 -224 -198 -361.5t-360 -137.5z" />
    <glyph glyph-name="Uacute" unicode="&#xda;" horiz-adv-x="1208" 
d="M814 1551h-9q-108 0 -30 127l62 95q32 52 72.5 76t103.5 24h4q173 -1 50 -135l-93 -104q-46 -49 -78 -66t-82 -17zM512 0q-106 0 -192.5 36.5t-141 102.5t-76 158t2.5 202l173 818q28 128 156 128h25q62 0 88 -33t13 -95l-176 -828q-24 -115 23 -167t131 -52
q86 0 155 53.5t93 165.5l175 828q28 128 156 128h26q62 0 88 -33t13 -95l-174 -818q-47 -224 -198 -361.5t-360 -137.5z" />
    <glyph glyph-name="Ucircumflex" unicode="&#xdb;" horiz-adv-x="1208" 
d="M604 1550q-36 0 -53.5 13t-9.5 45t49 80l89 94q70 86 171 86h62q53 0 84 -17t50 -59l50 -103q23 -51 19.5 -82t-22.5 -44t-53 -13q-88 0 -121 55l-67 100l-89 -79q-40 -41 -75 -58.5t-84 -17.5zM512 0q-106 0 -192.5 36.5t-141 102.5t-76 158t2.5 202l173 818
q28 128 156 128h25q62 0 88 -33t13 -95l-176 -828q-24 -115 23 -167t131 -52q86 0 155 53.5t93 165.5l175 828q28 128 156 128h26q62 0 88 -33t13 -95l-174 -818q-47 -224 -198 -361.5t-360 -137.5z" />
    <glyph glyph-name="Udieresis" unicode="&#xdc;" horiz-adv-x="1208" 
d="M625 1560q-52 0 -80.5 35.5t-17.5 87.5t55 88.5t96 36.5t81 -36.5t18 -88.5t-55.5 -87.5t-96.5 -35.5zM1000 1560q-52 0 -80.5 35.5t-17.5 87.5t55 88.5t96 36.5t80.5 -36.5t17.5 -88.5t-55 -87.5t-96 -35.5zM512 0q-106 0 -193 36.5t-141.5 102.5t-76 158t2.5 202
l174 818q28 128 156 128h25q62 0 88 -33t13 -95l-176 -828q-24 -115 23 -167t131 -52q86 0 155 53.5t93 165.5l175 828q28 128 156 128h26q62 0 88 -33t13 -95l-174 -818q-47 -224 -198 -361.5t-360 -137.5z" />
    <glyph glyph-name="Yacute" unicode="&#xdd;" horiz-adv-x="1132" 
d="M775 1540h-9q-108 0 -30 127l62 95q32 52 72.5 76t103.5 24h4q173 -1 50 -135l-93 -104q-46 -49 -78 -66t-82 -17zM456 0h-26q-62 0 -88 33t-13 95l82 387l-177 781q-13 67 21 108t102 41h22q110 0 126 -100l103 -512l329 512q61 100 168 100h32q72 0 91 -41.5
t-24 -107.5l-510 -781l-83 -387q-28 -128 -155 -128z" />
    <glyph glyph-name="Thorn" unicode="&#xde;" horiz-adv-x="1155" 
d="M174 0h-27q-62 0 -88 33t-13 95l253 1189q28 128 155 128h26q62 0 88 -29.5t15 -86.5l-10 -46h147q107 0 192 -34.5t140.5 -101t74 -164.5t-7.5 -225l-12 -58q-53 -251 -203 -384t-365 -133h-198l-13 -58q-14 -60 -53.5 -92.5t-100.5 -32.5zM517 1012l-119 -560h140
q49 0 91.5 12t83 39.5t71 78t45.5 121.5l11 54q10 47 11 84.5t-5 64t-20 46t-31 31t-41 18t-46.5 9t-50.5 2.5h-140z" />
    <glyph glyph-name="germandbls" unicode="&#xdf;" horiz-adv-x="1214" 
d="M80 128l167 785h-20q-46 0 -64.5 32.5t-6.5 88.5q11 55 42.5 85t78.5 30h20q23 107 59 183.5t94 134t143 85.5t200 28h25q199 0 302.5 -75.5t74.5 -214.5l-6 -28q-38 -180 -210 -216q122 -35 163.5 -127t9.5 -242l-48 -227q-97 -451 -493 -459q-63 -2 -92.5 30.5
t-16.5 91.5q11 52 43 79.5t99 49.5q51 13 87 37t58.5 61t34.5 73t24 91l26 122q14 65 17.5 109t-3.5 79.5t-29 56.5t-60 31q-71 28 -91 55.5t-8 85.5q11 50 41 75.5t83 41.5q78 19 90 81l4 20q9 41 -17 67t-102 26h-39q-89 0 -130.5 -48.5t-64.5 -156.5l-217 -1021
q-28 -128 -155 -128h-12q-62 0 -88 33t-13 95z" />
    <glyph glyph-name="agrave" unicode="&#xe0;" 
d="M544 1343l-50 103q-66 135 106 136h6q63 0 93.5 -24.5t39.5 -76.5l22 -94q24 -127 -84 -127h-8q-51 0 -75.5 17t-49.5 66zM953 1151q61 0 86.5 -33t12.5 -95l-191 -896q-28 -128 -153 -128q-126 0 -99 128l3 15q-34 -56 -105.5 -99.5t-176.5 -43.5q-165 0 -242.5 103.5
t-32.5 314.5l68 317q88 417 411 417q107 0 177 -46.5t85 -98.5l4 17q28 128 153 128zM660 438l59 280q22 100 -12.5 150.5t-109.5 50.5q-76 0 -131 -51.5t-77 -153.5l-59 -276q-22 -104 11 -155.5t110 -51.5q76 0 131.5 52t77.5 155z" />
    <glyph glyph-name="aacute" unicode="&#xe1;" 
d="M673 1264h-8q-108 0 -30 127l62 94q32 52 72.5 76t103.5 24h4q173 -1 50 -135l-94 -103q-46 -49 -78 -66t-82 -17zM953 1151q61 0 86.5 -33t12.5 -95l-191 -896q-28 -128 -153 -128q-126 0 -99 128l3 15q-34 -56 -105.5 -99.5t-176.5 -43.5q-165 0 -242.5 103.5
t-32.5 314.5l68 317q88 417 411 417q107 0 177 -46.5t85 -98.5l4 17q28 128 153 128zM660 438l59 280q22 100 -12.5 150.5t-109.5 50.5q-76 0 -131 -51.5t-77 -153.5l-59 -276q-22 -104 11 -155.5t110 -51.5q76 0 131.5 52t77.5 155z" />
    <glyph glyph-name="acircumflex" unicode="&#xe2;" 
d="M461 1263q-26 0 -42.5 7.5t-22 23t7 43t43.5 63.5l90 94q70 86 171 86h61q53 0 84.5 -17t50.5 -59l49 -103q60 -138 -55 -138q-89 0 -121 54l-67 100l-89 -78q-40 -41 -75.5 -58.5t-84.5 -17.5zM953 1151q61 0 86.5 -33t12.5 -95l-191 -896q-28 -128 -153 -128
q-126 0 -99 128l3 15q-34 -56 -105.5 -99.5t-176.5 -43.5q-165 0 -242.5 103.5t-32.5 314.5l68 317q88 417 411 417q107 0 177 -46.5t85 -98.5l4 17q28 128 153 128zM660 438l59 280q22 100 -12.5 150.5t-109.5 50.5q-76 0 -131 -51.5t-77 -153.5l-59 -276
q-22 -104 11 -155.5t110 -51.5q76 0 131.5 52t77.5 155z" />
    <glyph glyph-name="atilde" unicode="&#xe3;" 
d="M543 1289q-31 -7 -46 -9.5t-40.5 -6.5t-38.5 -2.5t-29 5.5t-25 14t-14 25q-18 56 44.5 104.5t141.5 59.5q41 6 86.5 -2t78 -20t74.5 -19t77 1q13 3 39.5 9.5t37.5 8.5t31 5.5t29 1.5t21 -6.5t19 -14.5t11 -25q15 -57 -44 -105t-137 -57q-53 -7 -110 6.5t-109 25.5t-97 1z
M953 1151q61 0 86.5 -33t12.5 -95l-191 -896q-28 -128 -153 -128q-126 0 -99 128l3 15q-34 -56 -105.5 -99.5t-176.5 -43.5q-165 0 -242.5 103.5t-32.5 314.5l68 317q88 417 411 417q107 0 177 -46.5t85 -98.5l4 17q28 128 153 128zM660 438l59 280q22 100 -12.5 150.5
t-109.5 50.5q-76 0 -131 -51.5t-77 -153.5l-59 -276q-22 -104 11 -155.5t110 -51.5q76 0 131.5 52t77.5 155z" />
    <glyph glyph-name="adieresis" unicode="&#xe4;" 
d="M496 1276q-52 0 -80.5 36t-17.5 88t55 88.5t96 36.5t81 -36.5t18 -88.5t-55.5 -88t-96.5 -36zM871 1276q-52 0 -80.5 36t-17.5 88t55 88.5t96 36.5t80.5 -36.5t17.5 -88.5t-55 -88t-96 -36zM953 1151q61 0 86.5 -33t12.5 -95l-191 -896q-28 -128 -153 -128
q-126 0 -99 128l3 15q-34 -56 -105.5 -99.5t-176.5 -43.5q-165 0 -242.5 103.5t-32.5 314.5l68 317q88 417 411 417q107 0 177 -46.5t85 -98.5l4 17q28 128 153 128zM660 438l59 280q22 100 -12.5 150.5t-109.5 50.5q-76 0 -131 -51.5t-77 -153.5l-59 -276
q-22 -104 11 -155.5t110 -51.5q76 0 131.5 52t77.5 155z" />
    <glyph glyph-name="aring" unicode="&#xe5;" 
d="M675 1246q-77 0 -123 55.5t-35 132.5q10 77 72.5 129.5t140.5 52.5q77 0 123 -54t36 -132q-10 -76 -73.5 -130t-140.5 -54zM653 1435q-4 -22 8.5 -37t34.5 -15q21 0 38 15t21 37q4 21 -8 35.5t-33 14.5q-22 0 -39.5 -14.5t-21.5 -35.5zM953 1151q61 0 86.5 -33t12.5 -95
l-191 -896q-28 -128 -153 -128q-126 0 -99 128l3 15q-34 -56 -105.5 -99.5t-176.5 -43.5q-165 0 -242.5 103.5t-32.5 314.5l68 317q88 417 411 417q107 0 177 -46.5t85 -98.5l4 17q28 128 153 128zM660 438l59 280q22 100 -12.5 150.5t-109.5 50.5q-76 0 -131 -51.5
t-77 -153.5l-59 -276q-22 -104 11 -155.5t110 -51.5q76 0 131.5 52t77.5 155z" />
    <glyph glyph-name="ae" unicode="&#xe6;" horiz-adv-x="1636" 
d="M330 -1q-165 0 -242.5 103.5t-32.5 314.5l68 317q88 417 411 417q64 0 117 -19t83 -46.5t45.5 -54t13.5 -44.5l-1 -9q6 84 44.5 128.5t108.5 44.5q67 0 87.5 -46.5t-11.5 -117.5l-5 -26q19 75 102.5 132.5t184.5 57.5q167 0 247.5 -113.5t36.5 -318.5l-20 -94
q-28 -128 -155 -128h-472l-22 -104q-18 -86 21.5 -129.5t113.5 -43.5q79 0 126.5 23t73.5 77q22 36 48.5 54t76.5 18h18q54 0 80 -20t16 -59q-34 -144 -136.5 -228.5t-256.5 -84.5q-115 0 -185 54.5t-65 130.5l-5 -15q4 -79 -36 -125t-108 -46q-139 0 -79 173l-4 -9
q-7 -20 -26.5 -45.5t-53.5 -53.5t-88.5 -46.5t-118.5 -18.5zM996 762l-17 -78h332l13 62q21 95 -14.5 139t-112.5 44q-166 0 -201 -167zM451 231q76 0 131.5 52t77.5 155l59 280q22 100 -12.5 150.5t-109.5 50.5q-76 0 -131 -51.5t-77 -153.5l-59 -276q-22 -104 11 -155.5
t110 -51.5z" />
    <glyph glyph-name="ccedilla" unicode="&#xe7;" horiz-adv-x="1019" 
d="M619 1151q186 0 287.5 -99.5t81.5 -259.5q-7 -58 -42 -89t-93 -31h-20q-59 0 -78 23.5t-18 70.5q2 70 -30 106t-113 36q-82 0 -134 -46.5t-74 -152.5l-60 -282q-19 -90 15 -137.5t111 -47.5q79 0 125.5 35.5t76.5 105.5q21 48 50 72t89 24h19q119 0 84 -120
q-44 -149 -146 -243.5t-255 -111.5q-2 -5 -7.5 -18.5t-8.5 -21.5l-87 -183q-46 -114 -164 -114q-75 0 -91 39.5t34 113.5l138 193q-149 34 -215.5 150t-30.5 288l51 243q46 216 175 336.5t330 120.5z" />
    <glyph glyph-name="egrave" unicode="&#xe8;" horiz-adv-x="1036" 
d="M702 1269h-8q-50 0 -74.5 17t-49.5 66l-50 103q-66 135 106 136h6q63 0 93.5 -24.5t39.5 -76.5l22 -94q24 -127 -85 -127zM421 0q-206 0 -304 122.5t-54 328.5l52 244q46 215 177 335.5t333 120.5q208 0 306 -117.5t54 -326.5l-17 -82q-28 -128 -155 -128h-472l-23 -105
q-18 -85 20.5 -128.5t109.5 -43.5q157 0 206 109q20 34 47 51t80 17h19q55 0 80.5 -18.5t14.5 -56.5q-38 -144 -161.5 -233t-312.5 -89zM395 754l-14 -70h331l13 61q21 95 -15 139.5t-112 44.5q-75 0 -129.5 -43.5t-73.5 -131.5z" />
    <glyph glyph-name="eacute" unicode="&#xe9;" horiz-adv-x="1036" 
d="M657 1261h-9q-108 0 -30 127l62 94q33 53 73 77t103 24h4q174 -1 50 -136l-93 -103q-46 -49 -78 -66t-82 -17zM421 0q-206 0 -304 122.5t-54 328.5l52 244q46 215 177 335.5t333 120.5q208 0 306 -117.5t54 -326.5l-17 -82q-28 -128 -155 -128h-472l-23 -105
q-18 -85 20.5 -128.5t109.5 -43.5q157 0 206 109q20 34 47 51t80 17h19q55 0 80.5 -18.5t14.5 -56.5q-38 -144 -161.5 -233t-312.5 -89zM395 754l-14 -70h331l13 61q21 95 -15 139.5t-112 44.5q-75 0 -129.5 -43.5t-73.5 -131.5z" />
    <glyph glyph-name="ecircumflex" unicode="&#xea;" horiz-adv-x="1036" 
d="M461 1259q-26 0 -42.5 7.5t-22 23t7 43t43.5 63.5l89 94q70 86 171 86h62q53 0 84 -17t50 -59l50 -103q23 -51 19 -82t-22.5 -43.5t-52.5 -12.5q-89 0 -121 54l-66 100l-90 -78q-40 -41 -75 -58.5t-84 -17.5zM421 0q-206 0 -304 122.5t-54 328.5l52 244q46 215 177 335.5
t333 120.5q208 0 306 -117.5t54 -326.5l-17 -82q-28 -128 -155 -128h-472l-23 -105q-18 -85 20.5 -128.5t109.5 -43.5q157 0 206 109q20 34 47 51t80 17h19q55 0 80.5 -18.5t14.5 -56.5q-38 -144 -161.5 -233t-312.5 -89zM395 754l-14 -70h331l13 61q21 95 -15 139.5
t-112 44.5q-75 0 -129.5 -43.5t-73.5 -131.5z" />
    <glyph glyph-name="edieresis" unicode="&#xeb;" horiz-adv-x="1036" 
d="M478 1269q-52 0 -80.5 36t-17.5 88t55 88.5t96 36.5t81 -36.5t18 -88.5t-55.5 -88t-96.5 -36zM852 1269q-52 0 -80 36t-17 88t54.5 88.5t95.5 36.5t81 -36.5t18 -88.5t-55.5 -88t-96.5 -36zM421 0q-206 0 -304 122.5t-54 328.5l52 244q46 215 177 335.5t333 120.5
q208 0 306 -117.5t54 -326.5l-17 -82q-28 -128 -155 -128h-472l-23 -105q-18 -85 20.5 -128.5t109.5 -43.5q157 0 206 109q20 34 47 51t80 17h19q55 0 80.5 -18.5t14.5 -56.5q-38 -144 -161.5 -233t-312.5 -89zM395 754l-15 -70h332l13 61q21 95 -15 139.5t-112 44.5
q-75 0 -129.5 -43.5t-73.5 -131.5z" />
    <glyph glyph-name="igrave" unicode="&#xec;" horiz-adv-x="509" 
d="M423 1271h-8q-51 0 -75.5 17t-49.5 66l-49 103q-65 134 106 135h5q63 0 94 -24t40 -76l22 -94q24 -127 -85 -127zM135 0h-12q-62 0 -88 33t-12 95l190 895q28 128 155 128h11q62 0 88 -33t13 -95l-190 -895q-28 -128 -155 -128z" />
    <glyph glyph-name="iacute" unicode="&#xed;" horiz-adv-x="505" 
d="M389 1271h-8q-108 0 -30 127l62 94q32 52 72.5 76t103.5 24h4q173 -1 50 -135l-94 -103q-46 -49 -78 -66t-82 -17zM135 0h-12q-62 0 -88 33t-12 95l190 895q28 128 155 128h11q62 0 88 -33t13 -95l-190 -895q-28 -128 -155 -128z" />
    <glyph glyph-name="icircumflex" unicode="&#xee;" horiz-adv-x="499" 
d="M190 1266q-26 0 -42.5 7.5t-22 23t7 43t43.5 63.5l90 94q70 86 170 86h62q53 0 84 -17t50 -59l50 -103q23 -51 19 -82t-22.5 -43.5t-52.5 -12.5q-89 0 -121 54l-66 100l-90 -79q-40 -41 -75 -58t-84 -17zM135 0h-12q-62 0 -88 33t-12 95l190 895q28 128 155 128h11
q62 0 88 -33t13 -95l-190 -895q-28 -128 -155 -128z" />
    <glyph glyph-name="idieresis" unicode="&#xef;" horiz-adv-x="499" 
d="M216 1268q-52 0 -80.5 36t-17.5 88t55 88.5t96 36.5t81 -36.5t18 -88.5t-55.5 -88t-96.5 -36zM591 1268q-52 0 -80.5 36t-17.5 88t54.5 88.5t95.5 36.5t81 -36.5t18 -88.5t-55 -88t-96 -36zM135 0h-12q-62 0 -88 33t-12 95l190 895q28 128 155 128h11q62 0 88 -33t13 -95
l-190 -895q-28 -128 -155 -128z" />
    <glyph glyph-name="eth" unicode="&#xf0;" horiz-adv-x="1052" 
d="M422 0q-130 0 -221 55.5t-128 162.5t-7 250l50 233q95 444 479 451q67 0 98 -17l-42 141h-129q-60 0 -49 52q11 51 65 51h81l-10 35q-17 63 11 98t92 35h27q105 0 130 -94l22 -74h126q58 0 47 -51q-11 -52 -66 -52h-76l39 -139q34 -123 42 -217t-14 -222l-49 -230
q-47 -220 -184 -344t-334 -124zM454 244q80 0 134.5 49t80.5 172l49 232q24 115 -9 164.5t-113 49.5q-167 0 -212 -214l-49 -232q-26 -123 7.5 -172t111.5 -49z" />
    <glyph glyph-name="ntilde" unicode="&#xf1;" horiz-adv-x="1089" 
d="M1080 1422q15 -57 -44 -104.5t-137 -56.5q-42 -6 -88 1t-78 18t-74 16.5t-77 -3.5q-31 -7 -46 -9.5t-40.5 -6.5t-38.5 -2.5t-29 5.5t-25 14t-14 25q-18 56 44.5 104.5t141.5 59.5q41 6 86.5 -2t78 -20t74.5 -19t77 1q12 3 39 9.5t38 8.5t31 5.5t29.5 1.5t21.5 -6.5
t19 -14.5t11 -25zM745 1151q166 0 244 -103.5t34 -313.5l-129 -606q-28 -128 -155 -128h-14q-62 0 -88 33t-13 95l124 587q44 203 -122 203q-84 0 -134.5 -49.5t-74.5 -158.5l-124 -582q-28 -128 -155 -128h-12q-62 0 -88 33t-12 95l190 895q28 128 153 128q61 0 86.5 -32.5
t12.5 -95.5l-4 -19q35 55 107.5 101t173.5 46z" />
    <glyph glyph-name="ograve" unicode="&#xf2;" horiz-adv-x="1046" 
d="M674 1264h-9q-50 0 -74.5 17t-49.5 66l-50 103q-65 134 106 135h6q63 0 93.5 -24t39.5 -76l22 -94q24 -127 -84 -127zM432 0q-209 0 -311 123.5t-57 333.5l52 243q45 212 171.5 331.5t327.5 119.5q205 0 308.5 -124t60.5 -327l-52 -243q-46 -216 -173.5 -336.5
t-326.5 -120.5zM452 241q73 0 129.5 45t74.5 133l67 315q19 87 -18.5 131.5t-110.5 44.5q-74 0 -129 -44t-74 -132l-67 -315q-19 -89 17.5 -133.5t110.5 -44.5z" />
    <glyph glyph-name="oacute" unicode="&#xf3;" horiz-adv-x="1046" 
d="M673 1265h-8q-109 0 -31 127l62 94q32 52 72.5 76t103.5 24h4q174 -1 51 -135l-94 -103q-46 -49 -78 -66t-82 -17zM432 0q-209 0 -311 123.5t-57 333.5l52 243q45 212 171.5 331.5t327.5 119.5q205 0 308.5 -124t60.5 -327l-52 -243q-46 -216 -173.5 -336.5
t-326.5 -120.5zM452 241q73 0 129.5 45t74.5 133l67 315q19 87 -18.5 131.5t-110.5 44.5q-74 0 -129 -44t-74 -132l-67 -315q-19 -89 17.5 -133.5t110.5 -44.5z" />
    <glyph glyph-name="ocircumflex" unicode="&#xf4;" horiz-adv-x="1046" 
d="M462 1263q-36 0 -53.5 13t-9.5 45t49 80l89 94q70 86 171 86h62q53 0 84 -17t50 -59l50 -103q23 -51 19.5 -82t-22.5 -44t-53 -13q-88 0 -121 55l-66 100l-90 -79q-40 -41 -75 -58.5t-84 -17.5zM432 0q-209 0 -311 123.5t-57 333.5l52 243q45 212 171.5 331.5
t327.5 119.5q205 0 308.5 -124t60.5 -327l-52 -243q-46 -216 -173.5 -336.5t-326.5 -120.5zM452 241q73 0 129.5 45t74.5 133l67 315q19 87 -18.5 131.5t-110.5 44.5q-74 0 -129 -44t-74 -132l-67 -315q-19 -89 17.5 -133.5t110.5 -44.5z" />
    <glyph glyph-name="otilde" unicode="&#xf5;" horiz-adv-x="1046" 
d="M858 1262q-42 -6 -88 1t-78 18t-74 16.5t-77 -3.5q-31 -7 -46 -9.5t-40.5 -6.5t-38.5 -2.5t-29 5.5t-25 14t-14 25q-18 56 44.5 104.5t141.5 59.5q41 6 86.5 -2t78 -20t74.5 -19t77 1q13 3 39.5 9.5t37.5 8.5t31 5.5t29 1.5t21 -6.5t19 -14.5t11 -25q15 -57 -43.5 -104.5
t-136.5 -56.5zM432 0q-209 0 -311 123.5t-57 333.5l52 243q45 212 171.5 331.5t327.5 119.5q205 0 308.5 -124t60.5 -327l-52 -243q-46 -216 -173.5 -336.5t-326.5 -120.5zM452 241q73 0 129.5 45t74.5 133l67 315q19 87 -18.5 131.5t-110.5 44.5q-74 0 -129 -44t-74 -132
l-67 -315q-19 -89 17.5 -133.5t110.5 -44.5z" />
    <glyph glyph-name="odieresis" unicode="&#xf6;" horiz-adv-x="1046" 
d="M484 1274q-52 0 -80.5 36t-17.5 88t55 88.5t96 36.5t81 -36.5t18 -88.5t-55.5 -88t-96.5 -36zM859 1274q-52 0 -80.5 36t-17.5 88t54.5 88.5t95.5 36.5t81 -36.5t18 -88.5t-55 -88t-96 -36zM432 0q-209 0 -311 123.5t-57 333.5l52 243q45 212 171.5 331.5t327.5 119.5
q205 0 308.5 -124t60.5 -327l-52 -243q-46 -216 -173.5 -336.5t-326.5 -120.5zM452 241q73 0 129.5 45t74.5 133l67 315q19 87 -18.5 131.5t-110.5 44.5q-74 0 -129 -44t-74 -132l-67 -315q-19 -89 17.5 -133.5t110.5 -44.5z" />
    <glyph glyph-name="divide" unicode="&#xf7;" horiz-adv-x="1005" 
d="M579 939q-62 0 -95.5 43t-20.5 103q14 62 65.5 105.5t113.5 43.5q61 0 95 -43.5t21 -105.5q-13 -60 -65.5 -103t-113.5 -43zM795 602h-562q-62 0 -88.5 31.5t-13.5 90.5t52.5 90.5t101.5 31.5h562q62 0 88.5 -31.5t13.5 -90.5t-52.5 -90.5t-101.5 -31.5zM425 214
q-62 0 -95.5 43t-20.5 103q14 62 65.5 105.5t113.5 43.5q61 0 95 -43.5t21 -105.5q-13 -60 -65.5 -103t-113.5 -43z" />
    <glyph glyph-name="oslash" unicode="&#xf8;" horiz-adv-x="1050" 
d="M927 1222l-72 -134q88 -56 122.5 -156.5t6.5 -231.5l-52 -243q-46 -216 -173.5 -336.5t-326.5 -120.5q-83 0 -154 22l-77 -142q-30 -54 -76 -38q-45 15 -13 73l79 147q-88 56 -122 158t-5 237l52 243q45 212 171.5 331.5t327.5 119.5q82 0 153 -22l68 125q30 54 76 40
t15 -72zM391 734l-67 -315q-13 -63 3 -106l319 591q-24 6 -52 6q-74 0 -129 -44t-74 -132zM656 419l67 315q13 62 -3 105l-320 -592q19 -6 52 -6q73 0 129.5 45t74.5 133z" />
    <glyph glyph-name="ugrave" unicode="&#xf9;" horiz-adv-x="1069" 
d="M687 1260h-8q-51 0 -75.5 17t-49.5 65l-49 104q-65 134 106 135h5q63 0 93.5 -24t39.5 -76l22 -95q24 -126 -84 -126zM436 -10q-206 0 -308 121t-59 323l125 589q28 128 156 128h12q62 0 88 -33t13 -95l-134 -628q-18 -82 22 -123.5t110 -41.5t126.5 42.5t73.5 122.5
l134 628q28 128 155 128h13q62 0 88 -33t13 -95l-125 -589q-45 -210 -175.5 -327t-327.5 -117z" />
    <glyph glyph-name="uacute" unicode="&#xfa;" horiz-adv-x="1069" 
d="M661 1226h-8q-108 0 -30 127l62 94q32 52 72.5 76t103.5 24h4q173 -1 50 -135l-94 -103q-46 -49 -78 -66t-82 -17zM436 -10q-206 0 -308 121t-59 323l125 589q28 128 156 128h12q62 0 88 -33t13 -95l-134 -628q-18 -82 22 -123.5t110 -41.5t126.5 42.5t73.5 122.5
l134 628q28 128 155 128h13q62 0 88 -33t13 -95l-125 -589q-45 -210 -175.5 -327t-327.5 -117z" />
    <glyph glyph-name="ucircumflex" unicode="&#xfb;" horiz-adv-x="1069" 
d="M470 1266q-26 0 -42.5 7.5t-22 23t7 43t43.5 63.5l89 94q70 86 171 86h62q53 0 84 -17t50 -59l50 -103q23 -51 19 -82t-22.5 -43.5t-52.5 -12.5q-89 0 -121 54l-67 101l-89 -79q-40 -41 -75 -58.5t-84 -17.5zM436 -10q-206 0 -308 121t-59 323l125 589q28 128 156 128h12
q62 0 88 -33t13 -95l-134 -628q-18 -82 22 -123.5t110 -41.5t126.5 42.5t73.5 122.5l133 628q28 128 156 128h13q62 0 88 -33t13 -95l-125 -589q-45 -210 -175.5 -327t-327.5 -117z" />
    <glyph glyph-name="udieresis" unicode="&#xfc;" horiz-adv-x="1069" 
d="M489 1274q-52 0 -80.5 36t-17.5 88t55 88.5t96 36.5t81 -36.5t18 -88.5t-55.5 -88t-96.5 -36zM864 1274q-52 0 -80.5 36t-17.5 88t55 88.5t96 36.5t80.5 -36.5t17.5 -88.5t-55 -88t-96 -36zM436 -10q-206 0 -308 121t-59 323l125 589q28 128 156 128h12q62 0 88 -33
t13 -95l-134 -628q-18 -82 22 -123.5t110 -41.5t126.5 42.5t73.5 122.5l134 628q28 128 155 128h13q62 0 88 -33t13 -95l-125 -589q-45 -210 -175.5 -327t-327.5 -117z" />
    <glyph glyph-name="yacute" unicode="&#xfd;" horiz-adv-x="1001" 
d="M641 1271h-8q-109 0 -31 127l62 94q32 52 72.5 76t103.5 24h4q173 -1 50 -135l-93 -103q-46 -49 -78 -66t-82 -17zM195 -394h-15q-66 0 -85.5 39t14.5 106l134 252l-98 1004q-5 67 30 105.5t101 38.5h20q116 0 119 -111l39 -645l314 645q51 111 165 111h31
q69 0 89.5 -38.5t-13.5 -105.5l-677 -1295q-53 -106 -168 -106z" />
    <glyph glyph-name="thorn" unicode="&#xfe;" horiz-adv-x="1089" 
d="M55 -396h-13q-62 0 -88 33t-12 95l359 1687q28 128 154 128h11q61 0 89 -32t15 -90l-90 -418q38 59 105.5 101.5t161.5 42.5q103 0 173 -44.5t102 -139t-1 -241.5l-64 -303q-90 -423 -418 -423q-179 0 -244 134l-85 -402q-28 -128 -155 -128zM481 230q77 0 132.5 52
t76.5 153l58 279q22 103 -11.5 155t-110.5 52q-76 0 -131.5 -52t-77.5 -155l-59 -284q-21 -99 13.5 -149.5t109.5 -50.5z" />
    <glyph glyph-name="ydieresis" unicode="&#xff;" horiz-adv-x="1001" 
d="M450 1276q-52 0 -80.5 36t-17.5 88t55 88.5t96 36.5t81 -36.5t18 -88.5t-55.5 -88t-96.5 -36zM824 1276q-52 0 -80 36t-17 88t54.5 88.5t95.5 36.5t81 -36.5t18 -88.5t-55.5 -88t-96.5 -36zM195 -394h-15q-66 0 -85.5 39t14.5 106l134 252l-98 1004q-5 67 30 105.5
t101 38.5h20q116 0 119 -111l39 -645l314 645q51 111 165 111h31q69 0 89.5 -38.5t-13.5 -105.5l-677 -1295q-53 -106 -168 -106z" />
    <glyph glyph-name="Amacron" unicode="&#x100;" horiz-adv-x="1173" 
d="M971 1566h-348q-61 0 -84 24t-13 72q20 94 138 94h348q61 0 84.5 -23.5t13.5 -70.5q-20 -96 -139 -96zM70 0h-30q-69 0 -90 38t12 105l605 1193q53 109 167 109h82q113 0 120 -109l91 -1193q4 -67 -33 -105t-104 -38h-21q-113 0 -117 111l-12 174h-417l-86 -175
q-51 -110 -167 -110zM711 1121l-277 -593h299z" />
    <glyph glyph-name="amacron" unicode="&#x101;" 
d="M851 1273h-348q-117 0 -97 97q20 94 138 94h348q61 0 84 -23.5t13 -70.5q-21 -97 -138 -97zM953 1151q61 0 86.5 -33t12.5 -95l-191 -896q-28 -128 -153 -128q-126 0 -99 128l3 15q-34 -56 -105.5 -99.5t-176.5 -43.5q-165 0 -242.5 103.5t-32.5 314.5l68 317
q88 417 411 417q107 0 177 -46.5t85 -98.5l4 17q28 128 153 128zM660 438l59 280q22 100 -12.5 150.5t-109.5 50.5q-76 0 -131 -51.5t-77 -153.5l-59 -276q-22 -104 11 -155.5t110 -51.5q76 0 131.5 52t77.5 155z" />
    <glyph glyph-name="Abreve" unicode="&#x102;" horiz-adv-x="1173" 
d="M794 1550q-140 0 -201 63.5t-37 175.5q17 78 113 78q48 0 64 -20t10 -59q-7 -41 14 -57t68 -16q96 0 114 72q22 80 116 80t77 -83q-50 -234 -338 -234zM70 0h-30q-69 0 -90 38t12 105l605 1193q53 109 167 109h82q113 0 120 -109l91 -1193q4 -67 -33 -105t-104 -38h-21
q-113 0 -117 111l-12 174h-417l-86 -175q-51 -110 -167 -110zM711 1121l-277 -593h299z" />
    <glyph glyph-name="abreve" unicode="&#x103;" 
d="M693 1271q-140 0 -201 63.5t-37 175.5q17 78 113 78q48 0 64 -20t10 -59q-7 -41 14 -57t68 -16q96 0 114 72q22 80 116 80q95 0 78 -83q-50 -234 -339 -234zM953 1151q61 0 86.5 -33t12.5 -95l-191 -896q-28 -128 -153 -128q-126 0 -99 128l3 15q-34 -56 -105.5 -99.5
t-176.5 -43.5q-165 0 -242.5 103.5t-32.5 314.5l68 317q88 417 411 417q107 0 177 -46.5t85 -98.5l4 17q28 128 153 128zM660 438l59 280q22 100 -12.5 150.5t-109.5 50.5q-76 0 -131 -51.5t-77 -153.5l-59 -276q-22 -104 11 -155.5t110 -51.5q76 0 131.5 52t77.5 155z" />
    <glyph glyph-name="Aogonek" unicode="&#x104;" horiz-adv-x="1173" 
d="M964 16q-63 -49 -113 -104.5t-60 -104.5q-9 -43 11.5 -61.5t72.5 -23.5q41 -5 59 -23.5t9 -58.5q-12 -59 -55 -83.5t-121 -24.5q-124 0 -177 58.5t-30 167.5q32 150 207 290q-13 26 -15 63l-12 174h-417l-86 -175q-51 -110 -167 -110h-30q-69 0 -90 38t12 105l605 1193
q53 109 167 109h82q113 0 120 -109l91 -1193q6 -92 -63 -127zM711 1121l-277 -593h299z" />
    <glyph glyph-name="aogonek" unicode="&#x105;" 
d="M953 1151q61 0 86.5 -33t12.5 -95l-191 -896q-13 -65 -57 -99q-1 -1 -3.5 -3t-3.5 -3q-161 -125 -180 -214q-9 -43 11.5 -61.5t72.5 -23.5q41 -5 59 -23.5t9 -58.5q-12 -59 -55 -84t-121 -25q-124 0 -177 59t-30 168q32 152 222 301q-8 28 1 67l3 15
q-34 -56 -105.5 -99.5t-176.5 -43.5q-165 0 -242.5 103.5t-32.5 314.5l68 317q88 417 411 417q107 0 177 -46.5t85 -98.5l4 17q28 128 153 128zM451 231q76 0 131.5 52t77.5 155l59 280q22 100 -12.5 150.5t-109.5 50.5q-76 0 -131 -51.5t-77 -153.5l-59 -276
q-22 -104 11 -155.5t110 -51.5z" />
    <glyph glyph-name="Cacute" unicode="&#x106;" horiz-adv-x="1142" 
d="M787 1547h-8q-108 0 -30 127l62 94q33 53 73 77t103 24h4q173 -1 50 -135l-94 -104q-46 -49 -78 -66t-82 -17zM494 0q-142 0 -246.5 63t-149.5 178.5t-14 259.5l94 445q48 226 197 362.5t360 136.5q204 0 321 -119.5t95 -298.5q-8 -63 -45.5 -96.5t-100.5 -33.5h-27
q-65 0 -86 26t-21 75q1 82 -34 129t-127 47q-83 0 -153 -52.5t-94 -166.5l-99 -463q-24 -114 20.5 -167.5t133.5 -53.5q171 0 241 186q20 52 52 79.5t96 27.5h27q64 0 86 -37.5t3 -102.5q-56 -194 -191.5 -309t-337.5 -115z" />
    <glyph glyph-name="cacute" unicode="&#x107;" horiz-adv-x="1019" 
d="M658 1263l-8 -1q-108 0 -30 127l62 95q32 52 72.5 76t103.5 24h4q173 -1 50 -135l-94 -104q-45 -48 -77 -65t-83 -17zM429 0q-207 0 -308.5 123t-57.5 328l51 243q46 216 175 336.5t330 120.5q186 0 287.5 -99.5t81.5 -259.5q-7 -58 -42 -89t-93 -31h-19
q-59 0 -78.5 23.5t-18.5 70.5q2 70 -30 106t-113 36q-82 0 -134 -46.5t-74 -152.5l-60 -282q-19 -90 15 -137.5t111 -47.5q79 0 125.5 35.5t76.5 105.5q21 48 50 72t89 24h19q119 0 84 -120q-48 -165 -167.5 -262t-299.5 -97z" />
    <glyph glyph-name="Ccircumflex" unicode="&#x108;" horiz-adv-x="1142" 
d="M579 1552q-36 0 -53.5 13t-9 45t49.5 80l89 94q70 86 171 86h61q53 0 84.5 -17t50.5 -59l49 -103q23 -51 19.5 -82t-22.5 -44t-52 -13q-88 0 -121 55l-67 100l-89 -79q-40 -41 -75.5 -58.5t-84.5 -17.5zM494 0q-142 0 -246.5 63t-149.5 178.5t-14 259.5l94 445
q48 226 197 362.5t360 136.5q204 0 321 -119.5t95 -298.5q-8 -63 -45.5 -96.5t-100.5 -33.5h-27q-65 0 -86 26t-21 75q1 82 -34 129t-127 47q-83 0 -153 -52.5t-94 -166.5l-99 -463q-24 -114 20.5 -167.5t133.5 -53.5q171 0 241 186q20 52 52 79.5t96 27.5h27q64 0 86 -37.5
t3 -102.5q-56 -194 -191.5 -309t-337.5 -115z" />
    <glyph glyph-name="ccircumflex" unicode="&#x109;" horiz-adv-x="1019" 
d="M460 1261q-26 0 -42.5 7.5t-22 23t7 43t43.5 63.5l90 94q70 86 171 86h61q53 0 84.5 -17t50.5 -59l49 -103q23 -51 19 -82t-22.5 -43.5t-52.5 -12.5q-88 0 -120 54l-67 100l-90 -79q-40 -41 -75 -58t-84 -17zM429 0q-207 0 -308.5 123t-57.5 328l51 243q46 216 175 336.5
t330 120.5q186 0 287.5 -99.5t81.5 -259.5q-7 -58 -42 -89t-93 -31h-19q-59 0 -78.5 23.5t-18.5 70.5q2 70 -30 106t-113 36q-82 0 -134 -46.5t-74 -152.5l-60 -282q-19 -90 15 -137.5t111 -47.5q79 0 125.5 35.5t76.5 105.5q21 48 50 72t89 24h19q119 0 84 -120
q-48 -165 -167.5 -262t-299.5 -97z" />
    <glyph glyph-name="Cdotaccent" unicode="&#x10a;" horiz-adv-x="1142" 
d="M786 1559q-57 0 -87.5 38.5t-18.5 95.5t59 96t105 39q57 0 88 -39t19 -96q-12 -56 -60 -95t-105 -39zM494 0q-142 0 -246.5 63t-149.5 178.5t-14 259.5l94 445q48 226 197 362.5t360 136.5q204 0 321 -119.5t95 -298.5q-8 -63 -45.5 -96.5t-100.5 -33.5h-27q-65 0 -86 26
t-21 75q1 82 -34 129t-127 47q-83 0 -153 -52.5t-94 -166.5l-99 -463q-24 -114 20.5 -167.5t133.5 -53.5q171 0 241 186q20 52 52 79.5t96 27.5h27q64 0 86 -37.5t3 -102.5q-56 -194 -191.5 -309t-337.5 -115z" />
    <glyph glyph-name="cdotaccent" unicode="&#x10b;" horiz-adv-x="1019" 
d="M670 1277q-58 0 -88.5 39t-18.5 95q12 57 59.5 96.5t105.5 39.5q57 0 88 -39.5t19 -96.5q-12 -56 -60 -95t-105 -39zM429 0q-207 0 -308.5 123t-57.5 328l51 243q46 216 175 336.5t330 120.5q186 0 287.5 -99.5t81.5 -259.5q-7 -58 -42 -89t-93 -31h-20q-59 0 -78 23.5
t-18 70.5q2 70 -30 106t-113 36q-82 0 -134 -46.5t-74 -152.5l-60 -282q-19 -90 15 -137.5t111 -47.5q79 0 125.5 35.5t76.5 105.5q21 48 50 72t89 24h19q119 0 84 -120q-48 -165 -167.5 -262t-299.5 -97z" />
    <glyph glyph-name="Ccaron" unicode="&#x10c;" horiz-adv-x="1142" 
d="M818 1550h-62q-55 0 -85 15.5t-49 60.5l-56 112q-22 50 -16 82q10 48 79 48q40 0 64.5 -11t41.5 -37l74 -107l119 107q52 48 147 48q32 0 48.5 -12.5t11.5 -36.5q-6 -32 -48 -81l-103 -112q-39 -45 -75 -60.5t-91 -15.5zM494 0q-142 0 -246.5 63t-149.5 178.5t-14 259.5
l94 445q48 226 197 362.5t360 136.5q204 0 321 -119.5t95 -298.5q-8 -63 -45.5 -96.5t-100.5 -33.5h-27q-65 0 -86 26t-21 75q1 82 -34 129t-127 47q-83 0 -153 -52.5t-94 -166.5l-99 -463q-24 -114 20.5 -167.5t133.5 -53.5q171 0 241 186q20 52 52 79.5t96 27.5h27
q64 0 85.5 -37.5t2.5 -102.5q-56 -194 -191 -309t-337 -115z" />
    <glyph glyph-name="ccaron" unicode="&#x10d;" horiz-adv-x="1019" 
d="M699 1263h-61q-55 0 -85 15.5t-49 60.5l-56 112q-22 49 -16 82q10 48 79 48q40 0 64.5 -11t41.5 -37l74 -107l119 107q52 48 147 48q32 0 48.5 -12.5t11.5 -36.5q-6 -32 -48 -81l-103 -112q-39 -45 -75.5 -60.5t-91.5 -15.5zM429 0q-207 0 -308.5 123t-57.5 328l51 243
q46 216 175 336.5t330 120.5q186 0 287.5 -99.5t81.5 -259.5q-7 -58 -42 -89t-93 -31h-20q-59 0 -78 23.5t-18 70.5q2 70 -30 106t-113 36q-82 0 -134 -46.5t-74 -152.5l-60 -282q-19 -90 15 -137.5t111 -47.5q79 0 125.5 35.5t76.5 105.5q21 48 50 72t89 24h19
q119 0 84 -120q-48 -165 -167.5 -262t-299.5 -97z" />
    <glyph glyph-name="Dcaron" unicode="&#x10e;" horiz-adv-x="1200" 
d="M820 1546h-62q-55 0 -85 15.5t-49 60.5l-55 112q-23 51 -17 82q10 48 79 48q75 0 107 -48l73 -107l119 107q52 48 148 48q32 0 48 -12.5t11 -36.5q-6 -32 -48 -81l-103 -112q-39 -45 -75 -60.5t-91 -15.5zM524 0h-377q-62 0 -88 33t-13 95l253 1189q28 128 155 128h315
q108 0 193.5 -35t141.5 -103t74 -168.5t-9 -232.5l-79 -370q-55 -260 -202.5 -398t-363.5 -138zM551 1174l-192 -906h157q236 0 299 293l68 322q17 70 13.5 120.5t-16.5 83.5t-40.5 52.5t-58.5 27t-72 7.5h-158z" />
    <glyph glyph-name="dcaron" unicode="&#x10f;" horiz-adv-x="1339" 
d="M1023 1547h12q62 0 88 -33t13 -95l-275 -1291q-28 -128 -153 -128q-61 0 -87 31.5t-13 90.5l5 22q-91 -144 -283 -144q-166 0 -243 103t-32 315l67 318q88 415 416 415q99 0 163.5 -39.5t82.5 -86.5l83 394q28 128 156 128zM1458 1446h15q58 0 73.5 -35.5t-17.5 -92.5
l-215 -368q-52 -88 -134 -85q-83 3 -29 122l172 365q43 94 135 94zM660 438l60 282q21 99 -13.5 149.5t-109.5 50.5q-77 0 -132.5 -52t-76.5 -153l-59 -277q-22 -103 11.5 -155t110.5 -52q76 0 131.5 52t77.5 155z" />
    <glyph glyph-name="Dcroat" unicode="&#x110;" horiz-adv-x="1200" 
d="M524 0h-377q-62 0 -88 33t-13 95l109 514h-53q-36 0 -55 22.5t-11 61.5t36.5 61t66.5 22h52l108 508q28 128 155 128h315q108 0 193.5 -35t141.5 -103t74 -168.5t-9 -232.5l-79 -370q-55 -260 -202.5 -398t-363.5 -138zM438 640l-79 -372h157q236 0 299 293l68 322
q17 70 13.5 120.5t-16.5 83.5t-40.5 52.5t-58.5 27t-72 7.5h-158l-78 -367h92q42 0 62.5 -22t12.5 -61t-38 -61.5t-71 -22.5h-93z" />
    <glyph glyph-name="dcroat" unicode="&#x111;" horiz-adv-x="1083" 
d="M1123 1360h86q31 0 44 -13t8 -38q-11 -53 -73 -53h-87l-240 -1128q-28 -128 -153 -128q-66 0 -89.5 38.5t-1.5 111.5q-39 -62 -110 -106t-177 -44q-166 0 -243 103t-32 315l67 318q45 215 148.5 315t263.5 100q99 0 165.5 -42t83.5 -90l51 238h-141q-60 0 -49 53
q11 51 72 51h140l13 62q13 60 53 92t100 32h15q126 0 100 -124zM660 438l60 282q21 99 -13.5 149.5t-109.5 50.5q-77 0 -132.5 -52t-76.5 -153l-59 -277q-22 -103 11.5 -155t110.5 -52q76 0 131.5 52t77.5 155z" />
    <glyph glyph-name="Emacron" unicode="&#x112;" horiz-adv-x="1024" 
d="M928 1570h-348q-61 0 -84 24t-13 72q20 94 137 94h349q61 0 84 -23.5t13 -70.5q-20 -96 -138 -96zM699 0h-552q-62 0 -88 33t-13 95l253 1189q28 128 155 128h552q62 0 88 -33t13 -95l-4 -17q-28 -128 -155 -128h-398l-70 -327h262q62 0 88.5 -31.5t13.5 -91.5t-52.5 -92
t-101.5 -32h-262l-70 -327h399q62 0 88 -33t12 -95l-3 -15q-28 -128 -155 -128z" />
    <glyph glyph-name="emacron" unicode="&#x113;" horiz-adv-x="1036" 
d="M845 1272h-348q-61 0 -84 24t-13 72q20 94 138 94h348q61 0 84.5 -23.5t13.5 -70.5q-20 -96 -139 -96zM421 0q-206 0 -304 122.5t-54 328.5l52 244q46 215 177 335.5t333 120.5q208 0 306 -117.5t54 -326.5l-17 -82q-28 -128 -155 -128h-472l-23 -105
q-18 -85 20.5 -128.5t109.5 -43.5q157 0 206 109q20 34 47 51t80 17h19q55 0 80.5 -18.5t14.5 -56.5q-38 -144 -161.5 -233t-312.5 -89zM395 754l-14 -70h331l13 61q21 95 -15 139.5t-112 44.5q-75 0 -129.5 -43.5t-73.5 -131.5z" />
    <glyph glyph-name="Ebreve" unicode="&#x114;" horiz-adv-x="1024" 
d="M759 1550q-140 0 -201 63.5t-37 175.5q17 78 113 78q48 0 64.5 -20t10.5 -59q-7 -41 14 -57t67 -16q96 0 114 72q22 80 116 80q95 0 78 -83q-50 -234 -339 -234zM699 0h-552q-62 0 -88 33t-13 95l253 1189q28 128 155 128h552q62 0 88 -33t13 -95l-4 -17
q-28 -128 -155 -128h-398l-70 -327h262q62 0 88.5 -31.5t13.5 -91.5t-52.5 -92t-101.5 -32h-262l-70 -327h399q62 0 88 -33t12 -95l-3 -15q-28 -128 -155 -128z" />
    <glyph glyph-name="ebreve" unicode="&#x115;" horiz-adv-x="1036" 
d="M666 1253q-140 0 -201 63.5t-37 175.5q17 78 113 78q48 0 64.5 -20t10.5 -59q-7 -41 14 -57t68 -16q95 0 113 72q22 80 116 80q95 0 78 -83q-49 -234 -339 -234zM421 0q-206 0 -304 122.5t-54 328.5l52 244q46 215 177 335.5t333 120.5q208 0 306 -117.5t54 -326.5
l-17 -82q-28 -128 -155 -128h-472l-23 -105q-18 -85 20.5 -128.5t109.5 -43.5q157 0 206 109q20 34 47 51t80 17h19q55 0 81 -18.5t15 -56.5q-38 -144 -162 -233t-313 -89zM395 754l-14 -70h331l13 61q21 95 -15 139.5t-112 44.5q-75 0 -129.5 -43.5t-73.5 -131.5z" />
    <glyph glyph-name="Edotaccent" unicode="&#x116;" horiz-adv-x="1024" 
d="M756 1550q-57 0 -88 39t-19 96t59 96t105 39q57 0 88.5 -39t19.5 -96q-12 -56 -60 -95.5t-105 -39.5zM699 0h-552q-62 0 -88 33t-13 95l253 1189q28 128 155 128h552q62 0 88 -33t13 -95l-4 -17q-28 -128 -155 -128h-398l-70 -327h262q62 0 88.5 -31.5t13.5 -91.5
t-52.5 -92t-101.5 -32h-262l-70 -327h399q62 0 88 -33t12 -95l-3 -15q-28 -128 -155 -128z" />
    <glyph glyph-name="edotaccent" unicode="&#x117;" horiz-adv-x="1036" 
d="M672 1271q-58 0 -88.5 39t-18.5 95q12 57 59 96t105 39q57 0 88.5 -39t19.5 -96q-12 -56 -60 -95t-105 -39zM421 0q-206 0 -304 122.5t-54 328.5l52 244q46 215 177 335.5t333 120.5q208 0 306 -117.5t54 -326.5l-17 -82q-28 -128 -155 -128h-472l-23 -105
q-18 -85 20.5 -128.5t109.5 -43.5q157 0 206 109q20 34 47 51t80 17h19q55 0 80.5 -18.5t14.5 -56.5q-38 -144 -161.5 -233t-312.5 -89zM395 754l-14 -70h331l13 61q21 95 -15 139.5t-112 44.5q-75 0 -129.5 -43.5t-73.5 -131.5z" />
    <glyph glyph-name="Eogonek" unicode="&#x118;" horiz-adv-x="1024" 
d="M454 1445h552q62 0 88 -33t13 -95l-4 -17q-28 -128 -155 -128h-398l-70 -327h262q62 0 88.5 -31.5t13.5 -91.5t-52.5 -92t-101.5 -32h-262l-70 -327h399q62 0 88 -33t12 -95l-3 -15q-18 -85 -84 -114q-139 -113 -156 -195q-9 -43 11.5 -61.5t72.5 -23.5q41 -5 59 -23.5
t9 -58.5q-12 -59 -55.5 -84t-121.5 -25q-124 0 -176.5 59t-29.5 168q25 119 140 230h-376q-62 0 -88 33t-13 95l253 1189q28 128 155 128z" />
    <glyph glyph-name="eogonek" unicode="&#x119;" horiz-adv-x="1036" 
d="M625 1151q208 0 306 -117.5t54 -326.5l-17 -82q-28 -128 -155 -128h-472l-23 -105q-18 -85 20.5 -128.5t109.5 -43.5q157 0 206 109q20 34 47 51t80 17h19q55 0 80.5 -18.5t14.5 -56.5q-30 -116 -117.5 -198t-222.5 -111q-115 -101 -130 -173q-9 -43 11.5 -61t72.5 -23
q84 -10 68 -83q-12 -59 -55.5 -83.5t-121.5 -24.5q-124 0 -176.5 59t-29.5 168q24 111 127 217q-157 29 -226.5 146.5t-31.5 295.5l52 244q46 215 177 335.5t333 120.5zM712 684l13 61q21 95 -15 139.5t-112 44.5q-75 0 -129.5 -43.5t-73.5 -131.5l-15 -70h332z" />
    <glyph glyph-name="Ecaron" unicode="&#x11a;" horiz-adv-x="1024" 
d="M789 1544h-62q-55 0 -85 15.5t-49 60.5l-55 112q-23 51 -17 82q11 48 79 48q75 0 107 -48l73 -107l119 107q52 48 147 48q32 0 48.5 -13t11.5 -37q-6 -31 -48 -80l-103 -112q-39 -45 -75 -60.5t-91 -15.5zM699 0h-552q-62 0 -88 33t-13 95l253 1189q28 128 155 128h552
q62 0 88 -33t13 -95l-4 -17q-28 -128 -155 -128h-398l-70 -327h262q62 0 88.5 -31.5t13.5 -91.5t-52.5 -92t-101.5 -32h-262l-70 -327h399q62 0 88 -33t12 -95l-3 -15q-28 -128 -155 -128z" />
    <glyph glyph-name="ecaron" unicode="&#x11b;" horiz-adv-x="1036" 
d="M698 1252h-61q-55 0 -85 15.5t-49 60.5l-56 112q-23 50 -16 82q11 48 79 48q40 0 64.5 -11t41.5 -37l74 -107l119 107q52 48 147 48q32 0 48 -12.5t11 -36.5q-7 -34 -47 -81l-103 -112q-39 -45 -75.5 -60.5t-91.5 -15.5zM421 0q-206 0 -304 122.5t-54 328.5l52 244
q46 215 177 335.5t333 120.5q208 0 306 -117.5t54 -326.5l-17 -82q-28 -128 -155 -128h-472l-23 -105q-18 -85 20.5 -128.5t109.5 -43.5q157 0 206 109q20 34 47 51t80 17h19q55 0 80.5 -18.5t14.5 -56.5q-38 -144 -161.5 -233t-312.5 -89zM395 754l-14 -70h331l13 61
q21 95 -15 139.5t-112 44.5q-75 0 -129.5 -43.5t-73.5 -131.5z" />
    <glyph glyph-name="Gcircumflex" unicode="&#x11c;" horiz-adv-x="1165" 
d="M579 1547q-26 0 -42.5 7.5t-22 23t7 43t43.5 63.5l90 95q70 86 171 86h61q53 0 84.5 -17t50.5 -59l49 -103q23 -51 19.5 -82t-22.5 -44t-52 -13q-88 0 -121 55l-67 100l-89 -79q-40 -41 -75.5 -58.5t-84.5 -17.5zM489 0q-106 0 -192 36.5t-140.5 102.5t-76 158t2.5 202
l95 445q48 225 197.5 363t359.5 138q177 0 293.5 -96.5t121.5 -255.5q4 -62 -37.5 -99.5t-108.5 -37.5h-23q-62 0 -84.5 20.5t-29.5 62.5q-14 135 -159 135q-199 0 -248 -233l-96 -452q-24 -112 21.5 -165t130.5 -53q87 0 155 53t92 165l7 33h-96q-113 0 -87 123t154 123
h236q62 0 88.5 -32t13.5 -92l-31 -145q-47 -224 -197.5 -361.5t-361.5 -137.5z" />
    <glyph glyph-name="gcircumflex" unicode="&#x11d;" 
d="M467 1268q-26 0 -42.5 7.5t-22 23t7 43t43.5 63.5l89 94q70 86 171 86h62q53 0 84 -17t50 -59l50 -103q23 -51 19 -82t-22.5 -43.5t-52.5 -12.5q-89 0 -121 54l-66 100l-90 -79q-40 -41 -75 -58t-84 -17zM954 1151q61 0 86.5 -33t12.5 -95l-218 -1022
q-23 -108 -58.5 -185.5t-93 -137t-143 -89t-200.5 -29.5q-103 0 -180 22t-121.5 61t-65.5 88t-18 107q1 44 35 68t92 24h17q51 0 72 -15.5t35 -54.5q15 -40 48 -62t101 -22q166 0 200 163l42 197q-99 -136 -266 -136q-165 0 -242.5 103t-32.5 314l68 320q89 414 402 414
q109 0 183.5 -44.5t88.5 -96.5l3 13q28 128 153 128zM659 429l65 307q20 93 -15.5 139.5t-109.5 46.5q-77 0 -132 -51.5t-77 -153.5l-60 -283q-22 -104 11 -155.5t110 -51.5q75 0 130.5 50.5t77.5 151.5z" />
    <glyph glyph-name="Gbreve" unicode="&#x11e;" horiz-adv-x="1165" 
d="M787 1542q-140 0 -201 63.5t-37 175.5q17 78 113 78q48 0 64 -20t10 -59q-7 -41 14 -57t68 -16q96 0 114 72q22 80 116 80q95 0 78 -83q-50 -234 -339 -234zM489 0q-106 0 -192 36.5t-140.5 102.5t-76 158t2.5 202l95 445q48 225 197.5 363t359.5 138q177 0 293.5 -96.5
t121.5 -255.5q4 -62 -37.5 -99.5t-108.5 -37.5h-23q-62 0 -84.5 20.5t-29.5 62.5q-14 135 -159 135q-199 0 -248 -233l-96 -452q-24 -112 21.5 -165t130.5 -53q87 0 155 53t92 165l7 33h-96q-113 0 -87 123t154 123h236q62 0 88.5 -32t13.5 -92l-31 -145
q-47 -224 -197.5 -361.5t-361.5 -137.5z" />
    <glyph glyph-name="gbreve" unicode="&#x11f;" 
d="M671 1261q-140 0 -201 63t-37 175q17 78 113 78q48 0 64 -20t10 -59q-7 -41 14 -57t68 -16q96 0 114 72q22 80 116 80t77 -83q-49 -233 -338 -233zM954 1151q61 0 86.5 -33t12.5 -95l-218 -1022q-23 -108 -58.5 -185.5t-93 -137t-143 -89t-200.5 -29.5q-103 0 -180 22
t-121.5 61t-65.5 88t-18 107q1 44 35 68t92 24h17q51 0 72 -15.5t35 -54.5q15 -40 48 -62t101 -22q166 0 200 163l42 197q-99 -136 -266 -136q-165 0 -242.5 103t-32.5 314l68 320q89 414 402 414q109 0 183.5 -44.5t88.5 -96.5l3 13q28 128 153 128zM659 429l65 307
q20 93 -15.5 139.5t-109.5 46.5q-76 0 -131 -51.5t-77 -153.5l-61 -283q-22 -104 11 -155.5t110 -51.5q75 0 130.5 50.5t77.5 151.5z" />
    <glyph glyph-name="Gdotaccent" unicode="&#x120;" horiz-adv-x="1165" 
d="M791 1567q-58 0 -88.5 39t-18.5 95q12 57 59.5 96t105.5 39q57 0 88 -39t19 -96q-12 -56 -60 -95t-105 -39zM489 0q-106 0 -192 36.5t-140.5 102.5t-76 158t2.5 202l95 445q48 225 197.5 363t359.5 138q177 0 293.5 -96.5t121.5 -255.5q4 -62 -37.5 -99.5t-108.5 -37.5
h-23q-62 0 -84.5 20.5t-29.5 62.5q-14 135 -159 135q-199 0 -248 -233l-96 -452q-24 -112 21.5 -165t130.5 -53q87 0 155 53t92 165l7 33h-96q-113 0 -87 123t154 123h236q62 0 88.5 -32t13.5 -92l-31 -145q-47 -224 -197.5 -361.5t-361.5 -137.5z" />
    <glyph glyph-name="gdotaccent" unicode="&#x121;" 
d="M671 1277q-57 0 -87.5 38.5t-18.5 95.5t59 96.5t105 39.5q57 0 88 -39.5t19 -96.5q-12 -56 -60 -95t-105 -39zM954 1151q61 0 86.5 -33t12.5 -95l-218 -1022q-23 -108 -58.5 -185.5t-93 -137t-143 -89t-200.5 -29.5q-103 0 -180 22t-121.5 61t-65.5 88t-18 107
q1 44 35 68t92 24h17q51 0 72 -15.5t35 -54.5q15 -40 48 -62t101 -22q166 0 200 163l42 197q-99 -136 -266 -136q-165 0 -242.5 103t-32.5 314l68 320q89 414 402 414q109 0 183.5 -44.5t88.5 -96.5l3 13q28 128 153 128zM659 429l65 307q20 93 -15.5 139.5t-109.5 46.5
q-77 0 -132 -51.5t-77 -153.5l-60 -283q-22 -104 11 -155.5t110 -51.5q75 0 130.5 50.5t77.5 151.5z" />
    <glyph glyph-name="uni0122" unicode="&#x122;" horiz-adv-x="1165" 
d="M489 0q-106 0 -192 36.5t-140.5 102.5t-76 158t2.5 202l95 445q48 225 197.5 363t359.5 138q177 0 293.5 -96.5t121.5 -255.5q4 -62 -37.5 -99.5t-108.5 -37.5h-23q-62 0 -84.5 20.5t-29.5 62.5q-14 135 -159 135q-199 0 -248 -233l-96 -452q-24 -112 21.5 -165
t130.5 -53q87 0 155 53t92 165l7 33h-96q-113 0 -87 123t154 123h236q62 0 88.5 -32t13.5 -92l-31 -145q-47 -224 -197.5 -361.5t-361.5 -137.5zM246 -524q-28 3 -39.5 13.5t-10 39t22.5 79.5l74 165q25 63 65 88.5t101 25.5q50 0 76 -14.5t22.5 -49t-41.5 -87.5l-123 -173
q-70 -96 -147 -87z" />
    <glyph glyph-name="uni0123" unicode="&#x123;" 
d="M659 1264q-50 0 -76 14.5t-22.5 49t41.5 87.5l123 173q70 95 146 87q28 -3 40 -13.5t10 -39t-22 -79.5l-74 -164q-25 -63 -65.5 -89t-100.5 -26zM954 1151q61 0 86.5 -33t12.5 -95l-218 -1022q-23 -108 -58.5 -185.5t-93 -137t-143 -89t-200.5 -29.5q-103 0 -180 22
t-121.5 61t-65.5 88t-18 107q1 44 35 68t92 24h17q51 0 72 -15.5t35 -54.5q15 -40 48 -62t101 -22q166 0 200 163l42 197q-99 -136 -266 -136q-165 0 -242.5 103t-32.5 314l69 320q89 414 401 414q109 0 183.5 -44.5t88.5 -96.5l3 13q28 128 153 128zM659 429l65 307
q20 93 -15.5 139.5t-109.5 46.5q-76 0 -131 -51.5t-77 -153.5l-61 -283q-22 -104 11 -155.5t110 -51.5q75 0 130.5 50.5t77.5 151.5z" />
    <glyph glyph-name="Hcircumflex" unicode="&#x124;" horiz-adv-x="1226" 
d="M612 1546q-26 0 -42.5 7.5t-22 23t7 43t43.5 63.5l90 95q70 86 171 86h61q53 0 84.5 -17t50.5 -59l49 -103q23 -51 19.5 -82t-22.5 -44t-53 -13q-88 0 -121 55l-66 100l-90 -79q-40 -41 -75 -58.5t-84 -17.5zM174 0h-27q-62 0 -88 33t-13 95l253 1189q28 128 155 128h27
q62 0 88 -33t13 -95l-101 -473h378l100 473q28 128 156 128h26q62 0 88 -33t13 -95l-253 -1189q-28 -128 -155 -128h-27q-62 0 -88 33t-12 95l100 470h-378l-100 -470q-28 -128 -155 -128z" />
    <glyph glyph-name="hcircumflex" unicode="&#x125;" horiz-adv-x="1089" 
d="M568 1618q-26 0 -42.5 7.5t-22 23t7 43t43.5 63.5l90 94q70 86 170 86h62q53 0 84 -17t50 -59l50 -103q23 -51 19 -82t-22.5 -43.5t-52.5 -12.5q-89 0 -121 54l-66 101l-90 -79q-40 -41 -75 -58.5t-84 -17.5zM138 0h-11q-62 0 -88 33t-13 95l274 1291q28 128 155 128h12
q62 0 88 -33t12 -95l-86 -407q42 69 117.5 107.5t164.5 38.5q55 0 101.5 -13.5t86.5 -43.5t61.5 -78t27.5 -117.5t-15 -162.5l-131 -615q-28 -128 -155 -128h-14q-62 0 -88 33t-13 95l125 589q22 102 -8 150.5t-116 48.5t-135.5 -48.5t-73.5 -158.5l-123 -581
q-28 -128 -155 -128z" />
    <glyph glyph-name="Hbar" unicode="&#x126;" horiz-adv-x="1247" 
d="M184 0h-27q-62 0 -88 33t-13 95l195 914h-67q-37 0 -55.5 24t-10.5 61q8 39 36.5 60.5t66.5 21.5h65l23 108q28 128 155 128h27q62 0 88 -33t13 -95l-23 -108h378l23 108q28 128 155 128h26q62 0 88 -33t13 -95l-23 -108h58q42 0 62 -21.5t12 -60.5q-10 -40 -38.5 -62.5
t-70.5 -22.5h-58l-194 -914q-28 -128 -156 -128h-26q-62 0 -88 33t-13 95l100 470h-378l-100 -470q-28 -128 -155 -128zM533 1042l-42 -198h378l42 198h-378z" />
    <glyph glyph-name="hbar" unicode="&#x127;" horiz-adv-x="1089" 
d="M138 0h-12q-62 0 -88 33t-12 95l240 1132h-84q-55 0 -44 52q11 51 67 51h83l12 56q28 128 155 128h12q62 0 88.5 -31t13.5 -90l-14 -64h144q57 0 46 -51q-11 -53 -67 -53h-145l-52 -246q99 146 287 146q56 0 102 -13.5t85 -43.5t59.5 -78t26 -117.5t-15.5 -162.5
l-131 -615q-28 -128 -155 -128h-14q-62 0 -88 33t-13 95l125 589q22 102 -8 150.5t-116 48.5t-135.5 -48.5t-73.5 -158.5l-123 -581q-28 -128 -155 -128z" />
    <glyph glyph-name="Itilde" unicode="&#x128;" horiz-adv-x="565" 
d="M678 1551q-53 -7 -110 6.5t-109 25.5t-97 1q-31 -7 -46 -9.5t-40.5 -6.5t-38.5 -2.5t-29 5.5t-25 14t-14 25q-18 56 44.5 104.5t141.5 59.5q41 6 86.5 -2t78 -20t74.5 -19t77 1q13 3 39.5 9.5t37.5 8.5t31 5.5t29 1.5t21 -6.5t19 -14.5t11 -25q15 -57 -44 -105t-137 -57z
M173 0h-26q-62 0 -88 33t-13 95l253 1189q28 128 155 128h26q62 0 88 -33t13 -95l-253 -1189q-28 -128 -155 -128z" />
    <glyph glyph-name="itilde" unicode="&#x129;" horiz-adv-x="503" 
d="M567 1261q-50 -7 -104.5 6.5t-103.5 25t-92 0.5q-29 -7 -43.5 -9.5t-38.5 -6.5t-36.5 -2.5t-27.5 5.5t-23.5 14t-13.5 25q-12 38 14.5 74.5t71 59.5t91.5 30q48 7 102.5 -8t104.5 -28.5t92 -3.5q12 3 37.5 9.5t35.5 8.5t29 5.5t28 1.5t20.5 -6.5t18 -14.5t10.5 -25
q14 -57 -42 -104.5t-130 -56.5zM135 0h-12q-62 0 -88 33t-12 95l190 895q28 128 155 128h11q62 0 88 -33t13 -95l-190 -895q-28 -128 -155 -128z" />
    <glyph glyph-name="Imacron" unicode="&#x12a;" horiz-adv-x="565" 
d="M669 1566h-348q-61 0 -84 24t-13 72q20 94 138 94h348q61 0 84 -23.5t13 -70.5q-20 -96 -138 -96zM173 0h-26q-62 0 -88 33t-13 95l253 1189q28 128 155 128h26q62 0 88 -33t13 -95l-253 -1189q-28 -128 -155 -128z" />
    <glyph glyph-name="imacron" unicode="&#x12b;" horiz-adv-x="501" 
d="M546 1270h-295q-62 0 -87.5 24.5t-15.5 71.5q20 94 143 94h295q62 0 88 -24t16 -70q-20 -96 -144 -96zM135 0h-12q-62 0 -88 33t-12 95l190 895q28 128 155 128h11q62 0 88 -33t13 -95l-190 -895q-28 -128 -155 -128z" />
    <glyph glyph-name="Ibreve" unicode="&#x12c;" horiz-adv-x="565" 
d="M480 1548q-140 0 -201 63.5t-37 175.5q17 78 113 78q48 0 64.5 -20t10.5 -59q-7 -41 14 -57t67 -16q96 0 114 72q22 80 116 80q95 0 78 -83q-49 -234 -339 -234zM173 0h-26q-62 0 -88 33t-13 95l253 1189q28 128 155 128h26q62 0 88 -33t13 -95l-253 -1189
q-28 -128 -155 -128z" />
    <glyph glyph-name="ibreve" unicode="&#x12d;" horiz-adv-x="503" 
d="M400 1266q-140 0 -201 63t-37 175q17 78 112 78q48 0 64.5 -20t10.5 -59q-7 -41 14 -56.5t68 -15.5q46 0 74.5 15t38.5 56q22 80 116 80q95 0 78 -83q-49 -233 -338 -233zM135 0h-12q-62 0 -88 33t-12 95l190 895q28 128 155 128h11q62 0 88 -33t13 -95l-190 -895
q-28 -128 -155 -128z" />
    <glyph glyph-name="Iogonek" unicode="&#x12e;" horiz-adv-x="565" 
d="M454 1445h26q62 0 88 -33t12 -95l-252 -1189q-16 -81 -79 -112q-147 -120 -163 -200q-9 -43 11.5 -61.5t72.5 -23.5q41 -5 59 -23.5t9 -58.5q-12 -59 -55.5 -84t-121.5 -25q-124 0 -176.5 59t-29.5 168q30 142 195 280q-15 31 -4 81l253 1189q28 128 155 128z" />
    <glyph glyph-name="iogonek" unicode="&#x12f;" horiz-adv-x="505" 
d="M471 1606q68 0 105.5 -47.5t23.5 -115.5t-72 -115t-126 -47t-105.5 47.5t-23.5 114.5t72 115t126 48zM368 1151h11q62 0 88 -33t13 -95l-190 -895q-17 -75 -71 -107q-154 -124 -172 -208q-9 -43 11.5 -61.5t72.5 -23.5q41 -5 59 -23.5t9 -58.5q-12 -59 -55.5 -84
t-121.5 -25q-124 0 -176.5 59t-29.5 168q31 147 208 290q-10 29 -1 74l190 895q28 128 155 128z" />
    <glyph glyph-name="Idotaccent" unicode="&#x130;" horiz-adv-x="565" 
d="M492 1561q-58 0 -88.5 39t-18.5 95q12 57 59 96t105 39q57 0 88.5 -39t19.5 -96q-12 -56 -60 -95t-105 -39zM173 0h-26q-62 0 -88 33t-13 95l253 1189q28 128 155 128h26q62 0 88 -33t13 -95l-253 -1189q-28 -128 -155 -128z" />
    <glyph glyph-name="dotlessi" unicode="&#x131;" horiz-adv-x="505" 
d="M135 0h-12q-62 0 -88 33t-12 95l190 895q28 128 155 128h11q62 0 88 -33t13 -95l-190 -895q-28 -128 -155 -128z" />
    <glyph glyph-name="Jcircumflex" unicode="&#x134;" horiz-adv-x="1124" 
d="M535 1550q-36 0 -53.5 13t-9.5 45t49 80l90 94q70 86 171 86h61q53 0 84.5 -17t50.5 -59l49 -103q23 -51 19.5 -82t-22.5 -44t-53 -13q-87 0 -120 55l-67 100l-90 -79q-40 -41 -75 -58.5t-84 -17.5zM440 0q-214 0 -325.5 126.5t-72.5 335.5q10 61 48 100t104 39h25
q67 0 86.5 -29t14.5 -83q-17 -119 19 -168.5t128 -49.5q84 0 148.5 54.5t90.5 176.5l174 815q28 128 155 128h26q62 0 88 -33t13 -95l-170 -799q-52 -246 -197.5 -382t-354.5 -136z" />
    <glyph glyph-name="jcircumflex" unicode="&#x135;" horiz-adv-x="514" 
d="M192 1268q-26 0 -42.5 7.5t-22 23t7 43t43.5 63.5l90 94q70 86 171 86h61q53 0 84.5 -17t50.5 -59l49 -103q23 -51 19 -82t-22.5 -43.5t-52.5 -12.5q-88 0 -120 54l-67 100l-89 -79q-40 -41 -75.5 -58t-84.5 -17zM-87 -411q-69 -13 -106.5 18.5t-24.5 93.5q10 44 34 68
t64 42q46 18 74 58.5t44 114.5l221 1039q28 128 155 128h12q62 0 88 -33t12 -95l-209 -984q-44 -205 -130 -314t-234 -136z" />
    <glyph glyph-name="uni0136" unicode="&#x136;" horiz-adv-x="1148" 
d="M174 0h-27q-62 0 -88 33t-13 95l253 1189q28 128 155 128h27q62 0 88 -33t12 -95l-99 -467h104l349 497q61 98 167 98h47q73 0 91.5 -42.5t-25.5 -107.5l-411 -568l168 -577q16 -66 -17.5 -108t-102.5 -42h-45q-55 0 -85 23.5t-40 74.5l-139 502h-114l-100 -472
q-28 -128 -155 -128zM233 -534q-28 3 -39.5 13.5t-9.5 39.5t22 80l74 164q25 63 65.5 89t100.5 26q50 0 76 -14.5t22.5 -49t-41.5 -87.5l-123 -173q-70 -97 -147 -88z" />
    <glyph glyph-name="uni0137" unicode="&#x137;" horiz-adv-x="1030" 
d="M470 463h-104l-71 -335q-28 -128 -155 -128h-14q-62 0 -88 33t-12 95l274 1291q28 128 155 128h14q62 0 88 -33t12 -95l-156 -734h79l269 368q61 98 168 98h44q73 0 89.5 -42.5t-28.5 -108.5l-328 -441l143 -408q19 -66 -13.5 -108.5t-103.5 -42.5h-22q-106 0 -126 98z
M194 -522q-28 3 -40 13.5t-10 39t22 79.5l74 165q25 63 65 88.5t101 25.5q50 0 76 -14.5t22.5 -49t-41.5 -87.5l-123 -173q-70 -95 -146 -87z" />
    <glyph glyph-name="kgreenlandic" unicode="&#x138;" horiz-adv-x="1030" 
d="M470 463h-104l-71 -335q-28 -128 -155 -128h-14q-62 0 -88 33t-12 95l189 895q28 128 155 128h14q62 0 88 -33t13 -95l-72 -338h79l269 368q61 98 168 98h44q73 0 89.5 -42.5t-28.5 -108.5l-328 -441l143 -408q19 -66 -13.5 -108.5t-103.5 -42.5h-22q-106 0 -126 98z" />
    <glyph glyph-name="Lacute" unicode="&#x139;" horiz-adv-x="940" 
d="M480 1552h-8q-109 0 -31 127l63 95q32 53 72 76.5t103 23.5h5q173 -1 50 -135l-94 -104q-46 -49 -78 -66t-82 -17zM651 0h-504q-62 0 -88 33t-13 95l253 1189q28 128 155 128h27q62 0 88 -33t13 -95l-223 -1046h349q62 0 88 -33t13 -95l-3 -15q-28 -128 -155 -128z" />
    <glyph glyph-name="lacute" unicode="&#x13a;" horiz-adv-x="512" 
d="M473 1638h-8q-109 0 -31 127l62 94q32 52 72.5 76t103.5 24h4q174 -1 51 -135l-94 -103q-46 -49 -78 -66t-82 -17zM141 0h-14q-62 0 -88 33t-13 95l274 1291q28 128 155 128h15q62 0 88 -33t13 -95l-275 -1291q-28 -128 -155 -128z" />
    <glyph glyph-name="uni013B" unicode="&#x13b;" horiz-adv-x="940" 
d="M651 0h-504q-62 0 -88 33t-13 95l253 1189q28 128 155 128h27q62 0 88 -33t13 -95l-223 -1046h349q62 0 88 -33t13 -95l-3 -15q-28 -128 -155 -128zM147 -528q-28 3 -39.5 13.5t-10 39t22.5 79.5l74 165q25 63 65 88.5t101 25.5q50 0 76 -14.5t22.5 -49t-41.5 -87.5
l-123 -173q-70 -96 -147 -87z" />
    <glyph glyph-name="uni013C" unicode="&#x13c;" horiz-adv-x="512" 
d="M141 0h-14q-62 0 -88 33t-13 95l274 1291q28 128 155 128h15q62 0 88 -33t13 -95l-275 -1291q-28 -128 -155 -128zM-93 -538q-28 3 -39.5 13.5t-10 39t22.5 79.5l73 165q25 63 65.5 89t100.5 26q50 0 76 -15t22.5 -49.5t-41.5 -87.5l-123 -173q-70 -95 -146 -87z" />
    <glyph glyph-name="Lcaron" unicode="&#x13d;" horiz-adv-x="1026" 
d="M651 0h-504q-62 0 -88 33t-13 95l253 1189q28 128 155 128h27q62 0 88 -33t13 -95l-223 -1046h349q62 0 88 -33t13 -95l-3 -15q-28 -128 -155 -128zM713 776q-107 5 -46 133l210 425q29 61 72 85.5t111 24.5q71 0 90 -41.5t-21 -107.5l-257 -421q-60 -102 -159 -98z" />
    <glyph glyph-name="lcaron" unicode="&#x13e;" horiz-adv-x="778" 
d="M141 0h-14q-62 0 -88 33t-13 95l274 1291q28 128 155 128h15q62 0 88 -33t13 -95l-275 -1291q-28 -128 -155 -128zM619 865q-83 3 -29 122l172 365q43 94 136 94h14q58 0 73.5 -35.5t-17.5 -92.5l-215 -368q-52 -88 -134 -85z" />
    <glyph glyph-name="Ldot" unicode="&#x13f;" horiz-adv-x="970" 
d="M651 0h-504q-62 0 -88 33t-13 95l253 1189q28 128 155 128h27q62 0 88 -33t13 -95l-223 -1046h349q62 0 88 -33t13 -95l-3 -15q-28 -128 -155 -128zM716 570q-60 0 -93.5 42t-20.5 101q13 60 64 102.5t111 42.5q61 0 94 -42.5t20 -102.5q-13 -59 -63.5 -101t-111.5 -42z
" />
    <glyph glyph-name="ldot" unicode="&#x140;" horiz-adv-x="741" 
d="M141 0h-14q-62 0 -88 33t-13 95l274 1291q28 128 155 128h15q62 0 88 -33t13 -95l-275 -1291q-28 -128 -155 -128zM620 603q-53 0 -82.5 36.5t-18.5 88.5q11 53 56.5 90.5t98.5 37.5t82 -37.5t18 -90.5q-11 -52 -56 -88.5t-98 -36.5z" />
    <glyph glyph-name="Lslash" unicode="&#x141;" horiz-adv-x="948" 
d="M659 0h-504q-62 0 -88 33t-13 95l97 455l-49 -15q-53 -17 -76.5 5t-14.5 73q17 98 114 126l71 22l111 523q28 128 155 128h27q62 0 88 -33t13 -95l-91 -429l51 15q53 15 76.5 -4.5t15.5 -67.5q-9 -53 -35.5 -83.5t-79.5 -47.5l-73 -23l-87 -406h350q62 0 88 -33t12 -95
l-3 -15q-28 -128 -155 -128z" />
    <glyph glyph-name="lslash" unicode="&#x142;" horiz-adv-x="542" 
d="M156 0h-14q-62 0 -88 33t-13 95l101 475l-30 -9q-57 -16 -82.5 4t-17.5 71q10 55 39.5 84.5t90.5 47.5l45 13l129 605q28 128 155 128h14q62 0 88 -33t13 -95l-110 -515l30 10q58 18 84 -0.5t17 -70.5q-10 -59 -39 -86.5t-91 -48.5l-45 -15l-121 -565q-28 -128 -155 -128
z" />
    <glyph glyph-name="Nacute" unicode="&#x143;" horiz-adv-x="1255" 
d="M838 1553h-9q-108 0 -30 127l62 95q32 52 72.5 76t103.5 24h4q173 -1 50 -135l-93 -104q-46 -49 -78 -66t-82 -17zM174 0h-27q-62 0 -88 33t-13 95l253 1189q28 128 155 128h30q110 0 130 -95l213 -808l160 775q13 62 53 95t102 33h28q62 0 88 -33t13 -95l-253 -1189
q-28 -128 -155 -128h-33q-110 0 -130 95l-214 787l-157 -754q-13 -62 -53 -95t-102 -33z" />
    <glyph glyph-name="nacute" unicode="&#x144;" horiz-adv-x="1089" 
d="M701 1266h-8q-109 0 -31 127l62 94q32 52 72.5 76t103.5 24h4q174 -1 51 -135l-94 -103q-46 -49 -78 -66t-82 -17zM745 1151q166 0 244 -103.5t34 -313.5l-129 -606q-28 -128 -155 -128h-15q-62 0 -88 33t-12 95l124 587q43 202 -122 202q-84 0 -134.5 -49t-74.5 -158
l-124 -582q-28 -128 -155 -128h-12q-62 0 -88 33t-12 95l190 895q28 128 153 128q61 0 86.5 -32.5t12.5 -95.5l-4 -19q35 55 107.5 101t173.5 46z" />
    <glyph glyph-name="uni0145" unicode="&#x145;" horiz-adv-x="1255" 
d="M174 0h-27q-62 0 -88 33t-13 95l253 1189q28 128 155 128h30q110 0 130 -95l213 -808l160 775q13 62 53 95t102 33h28q62 0 88 -33t13 -95l-253 -1189q-28 -128 -155 -128h-33q-110 0 -130 95l-214 787l-157 -754q-13 -62 -53 -95t-102 -33zM288 -529q-28 3 -39.5 13.5
t-10 39t22.5 79.5l74 165q25 63 65 88.5t101 25.5q50 0 76 -14.5t22.5 -49t-41.5 -87.5l-123 -173q-70 -96 -147 -87z" />
    <glyph glyph-name="uni0146" unicode="&#x146;" horiz-adv-x="1089" 
d="M745 1151q166 0 244 -103.5t34 -313.5l-129 -606q-28 -128 -155 -128h-15q-62 0 -88 33t-12 95l124 587q44 203 -122 203q-84 0 -134.5 -49.5t-74.5 -158.5l-124 -582q-28 -128 -155 -128h-12q-62 0 -88 33t-12 95l190 895q28 128 153 128q61 0 86.5 -32.5t12.5 -95.5
l-4 -19q35 55 107.5 101t173.5 46zM427 -114q50 0 76 -14.5t22.5 -49t-41.5 -87.5l-123 -173q-70 -95 -146 -87q-28 3 -40 13.5t-10 39t22 79.5l74 165q25 63 65 88.5t101 25.5z" />
    <glyph glyph-name="Ncaron" unicode="&#x147;" horiz-adv-x="1255" 
d="M867 1552h-61q-55 0 -85.5 15.5t-49.5 60.5l-55 112q-22 50 -16 82q10 48 79 48q40 0 64.5 -11t41.5 -37l74 -107l119 107q52 48 147 48q32 0 48 -12.5t11 -36.5q-6 -32 -48 -81l-102 -112q-39 -45 -75.5 -60.5t-91.5 -15.5zM174 0h-27q-62 0 -88 33t-13 95l253 1189
q28 128 155 128h30q110 0 130 -95l213 -808l160 775q13 62 53 95t102 33h28q62 0 88 -33t13 -95l-253 -1189q-28 -128 -155 -128h-33q-110 0 -130 95l-214 787l-157 -754q-13 -62 -53 -95t-102 -33z" />
    <glyph glyph-name="ncaron" unicode="&#x148;" horiz-adv-x="1089" 
d="M980 1581q32 0 48 -12.5t11 -36.5q-6 -32 -48 -81l-102 -111q-39 -45 -75.5 -60.5t-91.5 -15.5h-61q-55 0 -85.5 15.5t-49.5 60.5l-55 111q-23 49 -16 82q11 48 79 48q40 0 64.5 -11t41.5 -37l74 -106l119 106q52 48 147 48zM745 1151q166 0 244 -103.5t34 -313.5
l-129 -606q-28 -128 -155 -128h-15q-62 0 -88 33t-12 95l124 587q44 203 -122 203q-84 0 -134.5 -49.5t-74.5 -158.5l-124 -582q-28 -128 -155 -128h-12q-62 0 -88 33t-12 95l190 895q28 128 153 128q61 0 86.5 -32.5t12.5 -95.5l-4 -19q35 55 107.5 101t173.5 46z" />
    <glyph glyph-name="Eng" unicode="&#x14a;" horiz-adv-x="1255" 
d="M627 -416q-67 -16 -102.5 15.5t-21.5 94.5q10 46 35 72t66 46q54 27 78 66.5t42 123.5l-238 880l-157 -754q-13 -62 -53 -95t-102 -33h-27q-62 0 -88 33t-13 95l253 1189q28 128 155 128h32q110 0 130 -95l211 -808l160 775q13 62 53 95t102 33h28q62 0 88 -33t13 -95
l-277 -1300q-40 -189 -129 -295.5t-238 -137.5z" />
    <glyph glyph-name="eng" unicode="&#x14b;" horiz-adv-x="1089" 
d="M745 1151q166 0 244 -103.5t34 -313.5l-152 -717q-40 -190 -123.5 -295.5t-229.5 -130.5q-69 -13 -108 16t-29 90q6 43 29.5 68.5t65.5 44.5q45 18 73 58t43 113l156 734q44 203 -122 203q-84 0 -134.5 -49.5t-74.5 -158.5l-124 -582q-28 -128 -155 -128h-11
q-62 0 -88 33t-13 95l190 895q28 128 153 128q63 0 90.5 -34t11.5 -96q45 52 116.5 91t157.5 39z" />
    <glyph glyph-name="Omacron" unicode="&#x14c;" horiz-adv-x="1167" 
d="M965 1555h-348q-117 0 -97 97q20 94 137 94h349q61 0 84 -23.5t13 -70.5q-21 -97 -138 -97zM491 0q-106 0 -193 36.5t-141.5 102.5t-76 158t2.5 202l95 445q48 225 198 363t361 138q141 0 244.5 -63t148.5 -178.5t14 -259.5l-94 -445q-47 -224 -198.5 -361.5
t-360.5 -137.5zM518 270q83 0 152.5 52t93.5 166l99 466q24 114 -21 167.5t-132 53.5q-54 0 -101 -19t-88 -70.5t-58 -130.5l-99 -466q-24 -113 21.5 -166t132.5 -53z" />
    <glyph glyph-name="omacron" unicode="&#x14d;" horiz-adv-x="1046" 
d="M846 1276h-348q-61 0 -84 24t-13 72q20 94 138 94h348q61 0 84 -23.5t13 -70.5q-20 -96 -138 -96zM432 0q-209 0 -311 123.5t-57 333.5l52 243q45 212 171.5 331.5t327.5 119.5q205 0 308.5 -124t60.5 -327l-52 -243q-46 -216 -173.5 -336.5t-326.5 -120.5zM452 241
q73 0 129.5 45t74.5 133l67 315q19 87 -18.5 131.5t-110.5 44.5q-74 0 -129 -44t-74 -132l-67 -315q-19 -89 17.5 -133.5t110.5 -44.5z" />
    <glyph glyph-name="Obreve" unicode="&#x14e;" horiz-adv-x="1167" 
d="M788 1553q-140 0 -201 63.5t-37 175.5q17 78 113 78q48 0 64.5 -20t10.5 -59q-7 -41 14 -57t68 -16q95 0 113 72q22 80 116 80q95 0 78 -83q-49 -234 -339 -234zM491 0q-106 0 -193 36.5t-141.5 102.5t-76 158t2.5 202l95 445q48 225 198 363t361 138q141 0 244.5 -63
t148.5 -178.5t14 -259.5l-94 -445q-47 -224 -198.5 -361.5t-360.5 -137.5zM518 270q83 0 152.5 52t93.5 166l99 466q24 114 -21 167.5t-132 53.5q-54 0 -101 -19t-88 -70.5t-58 -130.5l-99 -466q-24 -113 21.5 -166t132.5 -53z" />
    <glyph glyph-name="obreve" unicode="&#x14f;" horiz-adv-x="1046" 
d="M669 1261q-140 0 -201 63t-37 175q17 78 113 78q48 0 64 -20t10 -59q-7 -41 14 -57t68 -16q96 0 114 72q22 80 116 80t77 -83q-49 -233 -338 -233zM432 0q-209 0 -311 123.5t-57 333.5l52 243q45 212 171.5 331.5t327.5 119.5q205 0 308.5 -124t60.5 -327l-52 -243
q-46 -216 -173.5 -336.5t-326.5 -120.5zM452 241q73 0 129.5 45t74.5 133l67 315q19 87 -18.5 131.5t-110.5 44.5q-74 0 -129 -44t-74 -132l-67 -315q-19 -89 17.5 -133.5t110.5 -44.5z" />
    <glyph glyph-name="Ohungarumlaut" unicode="&#x150;" horiz-adv-x="1167" 
d="M615 1550q-42 2 -45.5 31t33.5 97l45 78q28 52 64.5 74t97.5 22q65 -1 74 -32t-45 -96l-81 -94q-40 -47 -70.5 -64.5t-72.5 -15.5zM932 1550q-28 2 -38.5 15t-4 40.5t31.5 72.5l45 78q30 53 65.5 74.5t96.5 21.5q65 -1 73.5 -32t-44.5 -96l-82 -94q-40 -47 -70.5 -64.5
t-72.5 -15.5zM491 0q-106 0 -193 36.5t-141.5 102.5t-76 158t2.5 202l95 445q48 225 198 363t361 138q141 0 244.5 -63t148.5 -178.5t14 -259.5l-94 -445q-47 -224 -198.5 -361.5t-360.5 -137.5zM518 270q83 0 152.5 52t93.5 166l99 466q24 114 -21 167.5t-132 53.5
q-54 0 -101 -19t-88 -70.5t-58 -130.5l-99 -466q-24 -113 21.5 -166t132.5 -53z" />
    <glyph glyph-name="ohungarumlaut" unicode="&#x151;" horiz-adv-x="1046" 
d="M493 1264q-42 2 -45.5 31t33.5 97l46 78q28 52 64.5 74t97.5 22q65 -1 73.5 -32t-45.5 -96l-81 -94q-40 -47 -70.5 -64.5t-72.5 -15.5zM811 1264q-28 2 -39 15t-4.5 40.5t31.5 72.5l45 78q30 53 66 74.5t97 21.5q65 -1 73 -32t-45 -96l-82 -94q-40 -47 -70 -64.5
t-72 -15.5zM432 0q-209 0 -311 123.5t-57 333.5l52 243q45 212 171.5 331.5t327.5 119.5q205 0 308.5 -124t60.5 -327l-52 -243q-46 -216 -173.5 -336.5t-326.5 -120.5zM452 241q73 0 129.5 45t74.5 133l67 315q19 87 -18.5 131.5t-110.5 44.5q-74 0 -129 -44t-74 -132
l-67 -315q-19 -89 17.5 -133.5t110.5 -44.5z" />
    <glyph glyph-name="OE" unicode="&#x152;" horiz-adv-x="1681" 
d="M424 -1q-188 0 -287.5 142t-54.5 355l101 474q46 216 185.5 346.5t336.5 130.5q184 0 245 -98l1 6q9 42 45 66t86 24h566q62 0 88 -33t13 -95l-4 -17q-28 -128 -155 -128h-397l-70 -327h262q62 0 88.5 -31.5t13.5 -91.5t-52.5 -92t-101.5 -32h-262l-70 -327h398
q62 0 88 -33t12 -95l-3 -15q-28 -128 -155 -128h-566q-45 0 -66.5 26t-13.5 63l1 4q-84 -94 -272 -94zM516 261q87 0 155 53t92 166l103 487q24 116 -22.5 167.5t-131.5 51.5t-154 -52t-93 -167l-103 -487q-24 -113 21.5 -166t132.5 -53z" />
    <glyph glyph-name="oe" unicode="&#x153;" horiz-adv-x="1636" 
d="M411 0q-207 0 -299.5 122.5t-47.5 334.5l51 241q45 213 167 332t322 119q118 0 200 -51t100 -123q43 75 131.5 125.5t209.5 50.5q205 0 294.5 -116.5t44.5 -327.5l-17 -82q-28 -128 -155 -128h-472l-23 -105q-18 -85 20.5 -128.5t109.5 -43.5q158 0 206 104
q20 35 47.5 53t79.5 18h19q54 0 80 -20t16 -59q-37 -143 -149.5 -229.5t-304.5 -86.5q-121 0 -199 48t-104 125q-105 -173 -327 -173zM994 754l-15 -70h332l13 61q21 95 -15 139.5t-112 44.5q-75 0 -129.5 -43.5t-73.5 -131.5zM452 241q72 0 128.5 44.5t75.5 133.5l66 313
q19 87 -18 131.5t-110 44.5q-74 0 -129 -44t-74 -132l-67 -313q-19 -89 17.5 -133.5t110.5 -44.5z" />
    <glyph glyph-name="Racute" unicode="&#x154;" horiz-adv-x="1155" 
d="M776 1544h-8q-108 0 -30 127l62 95q32 52 72.5 76t103.5 24h4q173 -1 50 -135l-94 -104q-46 -49 -78 -66t-82 -17zM174 0h-27q-62 0 -88 33t-13 95l253 1189q28 128 155 128h298q225 0 339.5 -139t62.5 -384l-9 -40q-33 -157 -115.5 -266.5t-203.5 -162.5l108 -301
q20 -65 -12 -108.5t-99 -43.5h-51q-106 0 -128 97l-89 276h-174l-52 -245q-28 -128 -155 -128zM551 1173l-113 -532h140q49 0 91.5 12t82.5 38.5t70 75.5t44 118l9 41q15 60 9.5 102.5t-19.5 70.5t-42.5 44.5t-60 23t-71.5 6.5h-140z" />
    <glyph glyph-name="racute" unicode="&#x155;" horiz-adv-x="729" 
d="M538 1253h-8q-108 0 -30 127l62 94q33 53 73 77t103 24h4q173 -1 50 -135l-94 -104q-46 -49 -78 -66t-82 -17zM701 1151q129 0 104 -118l-2 -9q-13 -60 -54.5 -91.5t-109.5 -47.5q-97 -10 -155.5 -74t-84.5 -185l-106 -498q-28 -128 -155 -128h-11q-62 0 -88 33t-13 95
l190 895q28 128 153 128q61 0 86.5 -33t12.5 -95l-8 -37q32 65 96 115t145 50z" />
    <glyph glyph-name="uni0156" unicode="&#x156;" horiz-adv-x="1155" 
d="M174 0h-27q-62 0 -88 33t-13 95l253 1189q28 128 155 128h298q225 0 339.5 -139t62.5 -384l-9 -40q-33 -157 -115.5 -266.5t-203.5 -162.5l108 -301q20 -65 -12 -108.5t-99 -43.5h-51q-106 0 -128 97l-89 276h-174l-52 -245q-28 -128 -155 -128zM551 1174l-113 -533h140
q49 0 91.5 12t82.5 38.5t70 75.5t44 118l9 41q9 50 10 88t-11 65.5t-28 45.5t-42 29t-53 15.5t-60 4.5h-140zM245 -525q-28 3 -39.5 13.5t-10 39t22.5 79.5l74 165q25 63 65 88.5t101 25.5q165 0 56 -151l-122 -173q-70 -96 -147 -87z" />
    <glyph glyph-name="uni0157" unicode="&#x157;" horiz-adv-x="729" 
d="M701 1151q129 0 104 -118l-2 -9q-13 -60 -54.5 -91.5t-109.5 -47.5q-97 -10 -155.5 -74t-84.5 -185l-106 -498q-28 -128 -155 -128h-11q-62 0 -88 33t-13 95l190 895q28 128 153 128q61 0 86.5 -33t12.5 -95l-8 -37q32 65 96 115t145 50zM121 -125q50 0 76 -14.5
t22.5 -49t-41.5 -87.5l-123 -174q-70 -95 -146 -87q-28 3 -40 13.5t-10 39.5t22 80l74 164q25 63 65.5 89t100.5 26z" />
    <glyph glyph-name="Rcaron" unicode="&#x158;" horiz-adv-x="1155" 
d="M812 1556h-62q-55 0 -85 15.5t-49 60.5l-55 111q-23 51 -17 82q10 48 79 48q75 0 107 -48l73 -106l119 106q52 48 147 48q32 0 48.5 -12.5t11.5 -36.5q-6 -32 -48 -81l-103 -111q-39 -45 -75 -60.5t-91 -15.5zM174 0h-27q-62 0 -88 33t-13 95l253 1189q28 128 155 128
h298q225 0 339.5 -139t62.5 -384l-9 -40q-33 -157 -115.5 -266.5t-203.5 -162.5l108 -301q20 -65 -12 -108.5t-99 -43.5h-51q-106 0 -128 97l-89 276h-174l-52 -245q-28 -128 -155 -128zM551 1174l-113 -533h140q49 0 91.5 12t82.5 38.5t70 75.5t44 118l9 41q9 50 10 88
t-11 65.5t-28 45.5t-42 29t-53 15.5t-60 4.5h-140z" />
    <glyph glyph-name="rcaron" unicode="&#x159;" horiz-adv-x="729" 
d="M837 1582q32 0 48 -12.5t11 -36.5q-6 -32 -48 -81l-102 -112q-38 -45 -75 -60t-92 -15h-61q-56 0 -86 15t-49 60l-55 112q-22 50 -16 82q10 48 78 48q75 0 107 -48l74 -107l118 107q52 48 148 48zM701 1151q129 0 104 -118l-2 -9q-13 -60 -54.5 -91.5t-109.5 -47.5
q-97 -10 -155.5 -74t-84.5 -185l-106 -498q-28 -128 -155 -128h-12q-62 0 -88 33t-12 95l190 895q28 128 153 128q61 0 86.5 -33t12.5 -95l-8 -37q32 65 96 115t145 50z" />
    <glyph glyph-name="Sacute" unicode="&#x15a;" horiz-adv-x="1130" 
d="M776 1551h-8q-109 0 -31 127l62 95q32 52 72.5 76t103.5 24h4q173 -1 50 -135l-93 -104q-46 -49 -78 -66t-82 -17zM491 0q-123 0 -224.5 45.5t-161 129.5t-57.5 190q-1 68 37 106.5t106 38.5h8q56 0 81 -22.5t34 -65.5q8 -73 60.5 -115t140.5 -42q90 0 153 43t67 121
q1 25 -4 46.5t-13 37t-27 30.5t-32.5 24t-43 20.5t-46.5 17.5t-54 18q-58 19 -104 41t-92 58t-75 80t-43.5 108.5t-7.5 141.5q18 188 157 290.5t349 102.5q110 0 207.5 -40.5t161 -121.5t64.5 -187q4 -65 -36.5 -105.5t-110.5 -40.5h-8q-49 0 -72.5 21.5t-34.5 62.5
q-12 67 -61.5 108t-132.5 41q-88 0 -143 -42.5t-60 -117.5q-2 -23 0.5 -42t12 -35t18 -27.5t28 -23.5t32 -19t40 -17t42.5 -15t49 -16q59 -19 103.5 -39t91.5 -54t75.5 -77t44 -107t9.5 -143q-15 -195 -161 -301.5t-367 -106.5z" />
    <glyph glyph-name="sacute" unicode="&#x15b;" horiz-adv-x="1015" 
d="M645 1263h-8q-109 0 -31 127l62 94q32 52 72.5 76t103.5 24h4q173 -1 50 -135l-93 -103q-46 -49 -78 -66t-82 -17zM410 0q-165 0 -273.5 71.5t-116.5 196.5q-7 58 34.5 96t108.5 38h9q44 0 66.5 -17t36.5 -53q31 -111 166 -111q75 0 127 28t58 83q4 32 -11 57t-43.5 42
t-66.5 31.5t-80.5 30t-85 33t-79.5 44t-64.5 60t-40.5 84t-7 113.5q15 154 139.5 239t318.5 85q168 0 268.5 -65.5t110.5 -189.5q7 -56 -33.5 -94t-102.5 -38h-10q-48 0 -71.5 17.5t-35.5 53.5q-11 51 -47 75t-103 24q-71 0 -116 -28t-52 -79q-7 -44 17.5 -75.5t69 -52
t99.5 -39t109.5 -43.5t99 -58t69.5 -91t18 -135q-14 -164 -142 -248.5t-344 -84.5z" />
    <glyph glyph-name="Scircumflex" unicode="&#x15c;" horiz-adv-x="1130" 
d="M579 1546q-26 0 -42.5 7.5t-22 23t7 43t43.5 63.5l90 95q70 86 171 86h61q53 0 84.5 -17t50.5 -59l49 -103q23 -51 19.5 -82t-22.5 -44t-53 -13q-87 0 -120 55l-67 100l-89 -79q-40 -41 -75.5 -58.5t-84.5 -17.5zM491 0q-123 0 -224.5 45.5t-161 129.5t-57.5 190
q-1 68 37 106.5t106 38.5h8q56 0 81 -22.5t34 -65.5q8 -73 60.5 -115t140.5 -42q90 0 153 43t67 121q1 25 -4 46.5t-13 37t-27 30.5t-32.5 24t-43 20.5t-46.5 17.5t-54 18q-58 19 -104 41t-92 58t-75 80t-43.5 108.5t-7.5 141.5q18 188 157 290.5t349 102.5
q110 0 207.5 -40.5t161 -121.5t64.5 -187q4 -65 -36.5 -105.5t-110.5 -40.5h-8q-49 0 -72.5 21.5t-34.5 62.5q-12 67 -61.5 108t-132.5 41q-88 0 -143 -42.5t-60 -117.5q-2 -23 0.5 -42t12 -35t18 -27.5t28 -23.5t32 -19t40 -17t42.5 -15t49 -16q59 -19 103.5 -39t91.5 -54
t75.5 -77t44 -107t9.5 -143q-15 -195 -161 -301.5t-367 -106.5z" />
    <glyph glyph-name="scircumflex" unicode="&#x15d;" horiz-adv-x="1015" 
d="M452 1263q-26 0 -42.5 7.5t-22 23t7.5 43t44 63.5l89 94q70 86 171 86h62q53 0 84 -17t50 -59l50 -103q23 -51 19 -82t-22.5 -43.5t-52.5 -12.5q-89 0 -121 54l-67 100l-89 -79q-40 -41 -75.5 -58t-84.5 -17zM410 0q-165 0 -273.5 71.5t-116.5 196.5q-7 58 34.5 96
t108.5 38h9q44 0 66.5 -17t36.5 -53q31 -111 166 -111q75 0 127 28t58 83q4 32 -11 57t-43.5 42t-66.5 31.5t-80.5 30t-85 33t-79.5 44t-64.5 60t-40.5 84t-7 113.5q15 154 139.5 239t318.5 85q168 0 268.5 -65.5t110.5 -189.5q7 -56 -33.5 -94t-102.5 -38h-10
q-48 0 -71.5 17.5t-35.5 53.5q-11 51 -47 75t-103 24q-71 0 -116 -28t-52 -79q-7 -44 17.5 -75.5t69 -52t99.5 -39t109.5 -43.5t99 -58t69.5 -91t18 -135q-14 -164 -142 -248.5t-344 -84.5z" />
    <glyph glyph-name="Scedilla" unicode="&#x15e;" horiz-adv-x="1130" 
d="M676 1183q-88 0 -143 -42.5t-60 -117.5q-2 -23 0.5 -42t12 -35t18 -27.5t28 -23.5t32 -19t40 -17t42.5 -15t49 -16q59 -19 103.5 -39t91.5 -54t75.5 -77t44 -107t9.5 -143q-15 -182 -142.5 -287t-325.5 -119q-2 -6 -7.5 -18t-7.5 -18l-87 -183q-47 -114 -164 -114
q-75 0 -91 39.5t34 113.5l137 192q-143 32 -231 126t-86 225q-1 68 37 106.5t106 38.5h8q56 0 81 -22.5t34 -65.5q8 -73 60.5 -115t140.5 -42q90 0 153 43t67 121q1 25 -4 46.5t-13 37t-27 30.5t-32.5 24t-43 20.5t-46.5 17.5t-54 18q-58 19 -104 41t-92 58t-75 80
t-43.5 108.5t-7.5 141.5q18 188 157 290.5t349 102.5q110 0 207.5 -40.5t161 -121.5t64.5 -187q4 -65 -36.5 -105.5t-110.5 -40.5h-8q-49 0 -72.5 21.5t-34.5 62.5q-12 67 -61.5 108t-132.5 41z" />
    <glyph glyph-name="scedilla" unicode="&#x15f;" horiz-adv-x="1015" 
d="M582 934q-71 0 -116 -28t-52 -79q-7 -44 17.5 -75.5t69 -52t99.5 -39t109.5 -43.5t99 -58t69.5 -91t18 -135q-12 -148 -119 -231.5t-287 -98.5q-2 -5 -4.5 -11.5t-6 -15t-5.5 -13.5l-87 -183q-47 -114 -164 -114q-75 0 -91 40t34 113l136 190q-123 22 -199 89t-83 170
q-7 58 34.5 96t108.5 38h9q44 0 66.5 -17t36.5 -53q31 -111 166 -111q75 0 127 28t58 83q4 32 -11 57t-43.5 42t-66.5 31.5t-80.5 30t-85 33t-79.5 44t-64.5 60t-40.5 84t-7 113.5q15 154 139.5 239t318.5 85q168 0 268.5 -65.5t110.5 -189.5q7 -56 -33.5 -94t-102.5 -38
h-10q-48 0 -71.5 17.5t-35.5 53.5q-11 51 -47 75t-103 24z" />
    <glyph glyph-name="Scaron" unicode="&#x160;" horiz-adv-x="1130" 
d="M821 1550h-62q-55 0 -85 15.5t-49 60.5l-55 112q-23 51 -17 82q11 48 79 48q75 0 107 -48l73 -107l119 107q52 48 148 48q32 0 48 -12.5t11 -36.5q-6 -32 -48 -81l-103 -112q-39 -45 -75 -60.5t-91 -15.5zM491 0q-123 0 -224.5 45.5t-161 129.5t-57.5 190q-1 68 37 106.5
t106 38.5h8q56 0 81 -22.5t34 -65.5q8 -73 60.5 -115t140.5 -42q90 0 153 43t67 121q1 25 -4 46.5t-13 37t-27 30.5t-32.5 24t-43 20.5t-46.5 17.5t-54 18q-58 19 -104 41t-92 58t-75 80t-43.5 108.5t-7.5 141.5q18 188 157 290.5t349 102.5q110 0 207 -40.5t160.5 -121.5
t64.5 -187q4 -65 -36 -105.5t-110 -40.5h-8q-49 0 -72.5 21.5t-34.5 62.5q-12 67 -61.5 108t-132.5 41q-88 0 -143.5 -42.5t-60.5 -117.5q-2 -26 3.5 -47.5t13 -37t26.5 -30.5t32.5 -24t44.5 -21t47.5 -17.5t55.5 -17.5q59 -19 103.5 -39t91.5 -54t75.5 -77t44 -107
t9.5 -143q-15 -195 -161 -301.5t-367 -106.5z" />
    <glyph glyph-name="scaron" unicode="&#x161;" horiz-adv-x="1015" 
d="M692 1267h-61q-55 0 -85.5 15t-49.5 60l-55 112q-23 50 -16 82q11 48 79 48q40 0 64.5 -11t41.5 -37l74 -106l119 106q52 48 147 48q32 0 48 -12.5t11 -36.5q-6 -32 -48 -81l-102 -112q-38 -45 -75 -60t-92 -15zM410 0q-165 0 -273.5 71.5t-116.5 196.5q-7 58 34.5 96
t108.5 38h9q44 0 66.5 -17t36.5 -53q31 -111 166 -111q75 0 127 28t58 83q4 32 -11 57t-43.5 42t-66.5 31.5t-80.5 30t-85 33t-79.5 44t-64.5 60t-40.5 84t-7 113.5q15 154 139.5 239t318.5 85q168 0 268.5 -65.5t110.5 -189.5q7 -56 -33.5 -94t-102.5 -38h-10
q-48 0 -71.5 17.5t-35.5 53.5q-11 51 -47 75t-103 24q-71 0 -116 -28t-52 -79q-7 -44 17.5 -75.5t69 -52t99.5 -39t109.5 -43.5t99 -58t69.5 -91t18 -135q-14 -164 -142 -248.5t-344 -84.5z" />
    <glyph glyph-name="uni0162" unicode="&#x162;" horiz-adv-x="978" 
d="M361 1445h625q62 0 88 -33t12 -95l-3 -16q-28 -128 -135 -128h-191l-222 -1045q-18 -88 -89 -116q-3 -12 -25 -64l-87 -183q-46 -114 -164 -114q-75 0 -91 39.5t34 112.5l139 194q14 21 20 27q-36 32 -21 104l222 1044h-170q-62 0 -88 33t-13 95l4 17q28 128 155 128z
" />
    <glyph glyph-name="uni0163" unicode="&#x163;" horiz-adv-x="702" 
d="M550 1151h87q124 0 99 -118t-146 -118h-90l-97 -458q-25 -118 -9.5 -160t87.5 -53q42 -12 60.5 -38t7.5 -79q-13 -64 -49.5 -94t-102.5 -33q-3 -8 -21 -52l-87 -184q-46 -113 -164 -113q-75 0 -91 39.5t34 112.5l139 194q16 22 28 37q-84 47 -110.5 154t5.5 246l102 482
h-15q-47 0 -66 28t-8 80q7 33 26.5 56.5t37 34t62.5 31.5l12 6q32 13 59 41q23 24 42 69q31 65 60 94t70 29q88 0 68 -96z" />
    <glyph glyph-name="Tcaron" unicode="&#x164;" horiz-adv-x="978" 
d="M725 1544h-61q-55 0 -85.5 15.5t-49.5 60.5l-55 112q-22 50 -16 82q11 48 79 48q40 0 64.5 -11t41.5 -37l74 -107l119 107q52 48 147 48q32 0 48 -13t11 -37q-6 -31 -48 -80l-102 -112q-39 -45 -75.5 -60.5t-91.5 -15.5zM379 0h-27q-62 0 -88 33t-13 95l222 1044h-170
q-62 0 -88 33t-13 95l4 17q28 128 155 128h625q62 0 88 -33t12 -95l-3 -17q-28 -128 -135 -128h-191l-222 -1044q-28 -128 -156 -128z" />
    <glyph glyph-name="tcaron" unicode="&#x165;" horiz-adv-x="702" 
d="M560 1506h-61q-55 0 -85.5 15t-49.5 60l-55 112q-23 49 -16 82q11 48 79 48q40 0 64.5 -11t41.5 -37l74 -107l119 107q52 48 147 48q32 0 48 -12.5t11 -36.5q-6 -32 -48 -81l-102 -112q-38 -45 -75 -60t-92 -15zM382 0q-168 0 -230.5 119t-21.5 315l102 482h-15
q-47 0 -66 28t-8 80q7 33 26.5 56.5t37 34t62.5 31.5l12 6q32 13 59 41q23 24 42 69q31 65 60 94t70 29q88 0 68 -96l-30 -138h87q124 0 99 -118t-146 -118h-90l-97 -458q-25 -118 -9.5 -160t87.5 -53q42 -12 60.5 -38t7.5 -79q-14 -67 -54 -97t-113 -30z" />
    <glyph glyph-name="Tbar" unicode="&#x166;" horiz-adv-x="978" 
d="M379 0h-27q-62 0 -88 33t-13 95l109 513h-89q-36 0 -55 22.5t-11 61.5q8 38 36 60.5t66 22.5h88l78 365h-170q-62 0 -88 33t-13 95l4 16q28 128 155 128h625q62 0 88 -33t12 -95l-3 -16q-28 -128 -135 -128h-191l-78 -366h85q42 0 62 -22t12 -61q-8 -38 -37.5 -61
t-71.5 -23h-86l-108 -512q-28 -128 -156 -128z" />
    <glyph glyph-name="tbar" unicode="&#x167;" horiz-adv-x="700" 
d="M550 1151h87q124 0 99 -118t-146 -118h-90l-56 -263h109q60 0 49 -51q-11 -52 -70 -52h-110l-19 -92q-25 -118 -9.5 -160t87.5 -53q42 -12 60.5 -38t7.5 -79q-14 -68 -53.5 -97.5t-112.5 -29.5q-168 0 -231 119t-22 315l24 115h-57q-26 0 -37 13.5t-6 38.5q11 51 67 51
h55l56 264h-15q-47 0 -66 28t-8 80q7 33 26.5 56.5t37 34t62.5 31.5l12 6q32 13 59 41q23 24 42 69q31 65 60 94t70 29q88 0 68 -96z" />
    <glyph glyph-name="Utilde" unicode="&#x168;" horiz-adv-x="1208" 
d="M999 1545q-53 -7 -110 6.5t-109.5 25.5t-97.5 1q-31 -7 -46 -9.5t-40.5 -6.5t-38.5 -2.5t-29 5.5t-25 14t-14 25q-18 56 44 104t142 59q41 6 86.5 -2t78 -20t74.5 -19t77 1q13 3 39 9.5t38 9t31.5 5.5t29 1t21.5 -6t19 -14t11 -25q15 -57 -44 -105t-137 -57zM512 0
q-106 0 -192.5 36.5t-141 102.5t-76 158t2.5 202l173 818q28 128 156 128h25q62 0 88 -33t13 -95l-176 -828q-24 -115 23 -167t131 -52q86 0 155 53.5t93 165.5l175 828q28 128 156 128h26q62 0 88 -33t13 -95l-174 -818q-47 -224 -198 -361.5t-360 -137.5z" />
    <glyph glyph-name="utilde" unicode="&#x169;" horiz-adv-x="1069" 
d="M867 1266q-42 -6 -88 1t-78 18t-74 16.5t-77 -3.5q-31 -7 -46 -9.5t-40.5 -6.5t-38.5 -2.5t-29 5.5t-25 14t-14 25q-18 56 44.5 104.5t141.5 59.5q41 6 86.5 -2t78 -20t74.5 -19t77 1q13 3 39.5 9.5t37.5 8.5t31 5.5t29 1.5t21 -6.5t19 -14.5t11 -25q15 -57 -43.5 -104.5
t-136.5 -56.5zM436 -10q-206 0 -308 121t-59 323l125 589q28 128 156 128h12q62 0 88 -33t13 -95l-134 -628q-18 -82 22 -123.5t110 -41.5t126.5 42.5t73.5 122.5l134 628q28 128 155 128h13q62 0 88 -33t13 -95l-125 -589q-45 -210 -175.5 -327t-327.5 -117z" />
    <glyph glyph-name="Umacron" unicode="&#x16a;" horiz-adv-x="1208" 
d="M988 1564h-348q-61 0 -84 24t-13 72q20 94 138 94h348q61 0 84.5 -23.5t13.5 -70.5q-20 -96 -139 -96zM512 0q-106 0 -193 36.5t-141.5 102.5t-76 158t2.5 202l174 818q28 128 156 128h25q62 0 88 -33t13 -95l-176 -828q-24 -115 23 -167t131 -52q86 0 155 53.5t93 165.5
l175 828q28 128 156 128h26q62 0 88 -33t13 -95l-174 -818q-47 -224 -198 -361.5t-360 -137.5z" />
    <glyph glyph-name="umacron" unicode="&#x16b;" horiz-adv-x="1069" 
d="M859 1286h-348q-61 0 -84 24t-13 72q21 95 137 95h349q61 0 84 -24t13 -71q-20 -96 -138 -96zM436 -10q-206 0 -308 121t-59 323l125 589q28 128 156 128h12q62 0 88 -33t13 -95l-134 -628q-18 -82 22 -123.5t110 -41.5t126.5 42.5t73.5 122.5l134 628q28 128 155 128h13
q62 0 88 -33t13 -95l-125 -589q-45 -210 -175.5 -327t-327.5 -117z" />
    <glyph glyph-name="Ubreve" unicode="&#x16c;" horiz-adv-x="1208" 
d="M812 1553q-140 0 -201 63.5t-37 175.5q17 78 113 78q48 0 64 -20t10 -59q-7 -41 14 -57t68 -16q96 0 114 72q22 80 116 80t77 -83q-50 -234 -338 -234zM512 0q-106 0 -192.5 36.5t-141 102.5t-76 158t2.5 202l173 818q28 128 156 128h25q62 0 88 -33t13 -95l-176 -828
q-24 -115 23 -167t131 -52q86 0 155 53.5t93 165.5l175 828q28 128 156 128h26q62 0 88 -33t13 -95l-174 -818q-47 -224 -198 -361.5t-360 -137.5z" />
    <glyph glyph-name="ubreve" unicode="&#x16d;" horiz-adv-x="1069" 
d="M677 1260q-140 0 -201 63t-37 175q17 78 113 78q48 0 64 -20t10 -59q-7 -41 14 -57t68 -16q96 0 114 72q22 80 116 80t77 -83q-49 -233 -338 -233zM436 -10q-206 0 -308 121t-59 323l125 589q28 128 156 128h12q62 0 88 -33t13 -95l-134 -628q-18 -82 22 -123.5
t110 -41.5t126.5 42.5t73.5 122.5l134 628q28 128 155 128h13q62 0 88 -33t13 -95l-125 -589q-45 -210 -175.5 -327t-327.5 -117z" />
    <glyph glyph-name="Uring" unicode="&#x16e;" horiz-adv-x="1208" 
d="M822 1544q-77 0 -123 55.5t-35 132.5q10 77 72.5 129.5t140.5 52.5q77 0 123 -54.5t36 -132.5q-10 -76 -73.5 -129.5t-140.5 -53.5zM843 1680q21 0 38 15.5t21 37.5q4 21 -8 35.5t-33 14.5q-22 0 -39.5 -14.5t-21.5 -35.5q-4 -22 8.5 -37.5t34.5 -15.5zM512 0
q-106 0 -193 36.5t-141.5 102.5t-76 158t2.5 202l174 818q28 128 156 128h25q62 0 88 -33t13 -95l-176 -828q-24 -115 23 -167t131 -52q86 0 155 53.5t93 165.5l175 828q28 128 156 128h26q62 0 88 -33t13 -95l-174 -818q-47 -224 -198 -361.5t-360 -137.5z" />
    <glyph glyph-name="uring" unicode="&#x16f;" horiz-adv-x="1069" 
d="M683 1220q-77 0 -123.5 55t-35.5 132q10 77 73 129.5t141 52.5q77 0 122.5 -54t35.5 -132q-10 -76 -73 -129.5t-140 -53.5zM703 1356q21 0 38.5 15t21.5 37q4 21 -8.5 35.5t-33.5 14.5q-22 0 -39.5 -14.5t-21.5 -35.5q-4 -22 8.5 -37t34.5 -15zM436 -10q-206 0 -308 121
t-59 323l125 589q28 128 156 128h12q62 0 88 -33t13 -95l-134 -628q-18 -82 22 -123.5t110 -41.5t126.5 42.5t73.5 122.5l133 628q28 128 156 128h13q62 0 88 -33t13 -95l-125 -589q-45 -210 -175.5 -327t-327.5 -117z" />
    <glyph glyph-name="Uhungarumlaut" unicode="&#x170;" horiz-adv-x="1208" 
d="M638 1551q-42 2 -45.5 31t33.5 97l45 78q28 52 64.5 74t97.5 22q65 -1 74 -32t-45 -96l-82 -94q-40 -47 -70 -64.5t-72 -15.5zM955 1551q-28 2 -39 15t-4.5 40.5t31.5 72.5l45 78q30 53 66 74.5t97 21.5q65 -1 73 -32t-45 -96l-81 -94q-40 -47 -70.5 -64.5t-72.5 -15.5z
M512 0q-106 0 -192.5 36.5t-141 102.5t-76 158t2.5 202l173 818q28 128 156 128h25q62 0 88 -33t13 -95l-176 -828q-24 -115 23 -167t131 -52q86 0 155 53.5t93 165.5l175 828q28 128 156 128h26q62 0 88 -33t13 -95l-174 -818q-47 -224 -198 -361.5t-360 -137.5z" />
    <glyph glyph-name="uhungarumlaut" unicode="&#x171;" horiz-adv-x="1069" 
d="M506 1260q-42 2 -45.5 31t33.5 97l45 78q28 52 65 74t98 22q65 -1 73.5 -32t-45.5 -96l-81 -94q-40 -47 -70.5 -64.5t-72.5 -15.5zM823 1260q-28 2 -38.5 15t-4 40.5t31.5 72.5l45 78q30 53 66 74.5t97 21.5q65 -1 73 -32t-45 -96l-82 -94q-40 -47 -70.5 -64.5
t-72.5 -15.5zM436 -10q-206 0 -308 121t-59 323l125 589q28 128 156 128h12q62 0 88 -33t13 -95l-134 -628q-18 -82 22 -123.5t110 -41.5t126.5 42.5t73.5 122.5l134 628q28 128 155 128h13q62 0 88 -33t13 -95l-125 -589q-45 -210 -175.5 -327t-327.5 -117z" />
    <glyph glyph-name="Uogonek" unicode="&#x172;" horiz-adv-x="1208" 
d="M1117 1445h26q62 0 88 -33t13 -95l-174 -818q-43 -203 -172.5 -336.5t-312.5 -157.5q-105 -96 -121 -166q-9 -43 11 -61t72 -23q84 -10 68 -83q-12 -59 -55 -83.5t-121 -24.5q-124 0 -176.5 58.5t-29.5 167.5q26 119 137 229q-154 44 -228.5 173t-37.5 307l174 818
q28 128 156 128h25q62 0 88 -33t13 -95l-176 -828q-24 -115 23 -167t131 -52q86 0 155 53.5t93 165.5l175 828q28 128 156 128z" />
    <glyph glyph-name="uogonek" unicode="&#x173;" horiz-adv-x="1069" 
d="M950 1151h13q62 0 88 -33t13 -95l-125 -589q-42 -197 -159 -312.5t-295 -129.5q-99 -90 -114 -159q-9 -43 11.5 -61.5t72.5 -23.5q41 -5 59 -23.5t9 -58.5q-12 -59 -55.5 -83.5t-121.5 -24.5q-124 0 -176.5 58.5t-29.5 167.5q25 118 138 229q-129 43 -185.5 153
t-23.5 268l125 589q28 128 156 128h12q62 0 88 -33t13 -95l-134 -628q-18 -82 22 -123.5t110 -41.5t126.5 42.5t73.5 122.5l134 628q28 128 155 128z" />
    <glyph glyph-name="Wcircumflex" unicode="&#x174;" horiz-adv-x="1675" 
d="M836 1546q-26 0 -42.5 7.5t-22 23t7 43t43.5 63.5l90 94q70 86 171 86h61q53 0 84.5 -17t50.5 -59l49 -103q23 -51 19 -82t-22.5 -43.5t-52.5 -12.5q-88 0 -120 54l-67 100l-89 -78q-40 -41 -75.5 -58.5t-84.5 -17.5zM402 0h-55q-117 0 -117 113l-25 1191
q-1 66 36.5 103.5t103.5 37.5h19q59 0 87.5 -28t27.5 -86l3 -859l362 859q46 114 162 114h19q59 0 87.5 -28t27.5 -86l-5 -859l370 859q47 114 164 114h28q68 0 90 -37.5t-7 -103.5l-533 -1191q-50 -113 -164 -113h-57q-117 0 -114 114l6 843l-354 -843q-47 -114 -162 -114z
" />
    <glyph glyph-name="wcircumflex" unicode="&#x175;" horiz-adv-x="1499" 
d="M688 1256q-26 0 -42.5 7.5t-22 23t7 43t43.5 63.5l90 94q70 86 171 86h61q53 0 84.5 -17t50.5 -59l49 -103q60 -138 -55 -138q-89 0 -121 54l-67 100l-89 -79q-40 -41 -75.5 -58t-84.5 -17zM347 0h-36q-115 0 -120 111l-46 897q-2 67 34 105t100 38h15q117 0 117 -114
l10 -629l278 630q48 113 164 113h3q116 0 116 -113l10 -631l281 630q49 114 164 114h19q68 0 90 -37.5t-9 -105.5l-429 -897q-52 -111 -165 -111h-39q-57 0 -87 28.5t-29 85.5l-9 603l-268 -604q-48 -113 -164 -113z" />
    <glyph glyph-name="Ycircumflex" unicode="&#x176;" horiz-adv-x="1132" 
d="M565 1546q-26 0 -42.5 7.5t-22 23t7 43t43.5 63.5l89 94q70 86 171 86h62q53 0 84 -17t50 -59l50 -103q23 -51 19 -82t-22.5 -43.5t-52.5 -12.5q-89 0 -121 54l-66 100l-90 -79q-40 -41 -75 -58t-84 -17zM456 0h-26q-62 0 -88 33t-13 95l82 387l-177 781q-13 67 21 108
t102 41h22q110 0 126 -100l103 -512l329 512q61 100 168 100h32q72 0 91 -41.5t-24 -107.5l-510 -781l-83 -387q-28 -128 -155 -128z" />
    <glyph glyph-name="ycircumflex" unicode="&#x177;" horiz-adv-x="1001" 
d="M442 1269q-26 0 -42.5 7.5t-22 23t7 43t43.5 63.5l90 95q70 86 171 86h61q53 0 84.5 -17t50.5 -59l49 -103q23 -51 19.5 -82t-22.5 -44t-53 -13q-88 0 -120 54l-67 101l-89 -79q-40 -41 -75.5 -58.5t-84.5 -17.5zM195 -394h-15q-66 0 -85 39t15 106l133 252l-98 1004
q-5 67 30 105.5t101 38.5h20q116 0 119 -111l39 -645l315 645q51 111 164 111h31q69 0 89.5 -38.5t-13.5 -105.5l-677 -1295q-53 -106 -168 -106z" />
    <glyph glyph-name="Ydieresis" unicode="&#x178;" horiz-adv-x="1132" 
d="M588 1556q-52 0 -80 36t-17 88t54.5 88.5t95.5 36.5t81 -36.5t18 -88.5t-55.5 -88t-96.5 -36zM963 1556q-52 0 -80.5 36t-17.5 88t55 88.5t96 36.5t80.5 -36.5t17.5 -88.5t-55 -88t-96 -36zM456 0h-26q-62 0 -88 33t-13 95l82 387l-177 781q-13 67 21 108t102 41h22
q110 0 126 -100l103 -512l329 512q61 100 168 100h32q72 0 91 -41.5t-24 -107.5l-510 -781l-83 -387q-28 -128 -155 -128z" />
    <glyph glyph-name="Zacute" unicode="&#x179;" horiz-adv-x="989" 
d="M683 1555h-8q-108 0 -30 127l62 94q33 53 73 77t103 24h4q174 -1 50 -136l-94 -103q-46 -49 -78 -66t-82 -17zM660 0h-585q-71 0 -90 40t21 108l637 1024h-301q-62 0 -88 33t-13 95l4 17q28 128 155 128h545q71 0 89.5 -40.5t-21.5 -108.5l-644 -1025h349q62 0 88 -33
t12 -95l-3 -15q-28 -128 -155 -128z" />
    <glyph glyph-name="zacute" unicode="&#x17a;" horiz-adv-x="864" 
d="M553 1265h-8q-108 0 -30 127l62 94q32 52 72.5 76t103.5 24h4q173 -1 50 -135l-94 -103q-46 -49 -78 -66t-82 -17zM558 0h-499q-73 0 -91.5 41t25.5 108l515 761h-249q-62 0 -89 31.5t-14 89.5q12 58 52 89t102 31h475q72 0 90.5 -41.5t-25.5 -108.5l-516 -760h275
q62 0 88.5 -31t13.5 -89q-13 -59 -52 -90t-101 -31z" />
    <glyph glyph-name="Zdotaccent" unicode="&#x17b;" horiz-adv-x="989" 
d="M699 1561q-57 0 -87.5 38.5t-18.5 95.5t59 96t105 39q57 0 88 -39t19 -96q-12 -56 -60 -95t-105 -39zM660 0h-585q-71 0 -90 40t21 108l637 1024h-301q-62 0 -88 33t-13 95l4 17q28 128 155 128h545q71 0 89.5 -40.5t-21.5 -108.5l-643 -1025h348q62 0 88 -33t13 -95
l-4 -15q-28 -128 -155 -128z" />
    <glyph glyph-name="zdotaccent" unicode="&#x17c;" horiz-adv-x="864" 
d="M569 1269q-57 0 -87.5 39t-18.5 96t59 96t105 39q57 0 88 -39t19 -96q-12 -56 -60 -95.5t-105 -39.5zM558 0h-499q-72 0 -91 41t25 109l515 760h-249q-62 0 -89 31.5t-14 89.5q12 58 52 89t102 31h475q72 0 90.5 -41.5t-25.5 -108.5l-516 -760h275q62 0 88.5 -31
t13.5 -89q-13 -59 -52 -90t-101 -31z" />
    <glyph glyph-name="Zcaron" unicode="&#x17d;" horiz-adv-x="989" 
d="M729 1546h-62q-55 0 -85 15.5t-49 60.5l-55 111q-23 51 -17 82q10 48 79 48q75 0 107 -48l73 -106l119 106q52 48 148 48q32 0 48 -12.5t11 -36.5q-6 -32 -48 -81l-103 -111q-39 -45 -75 -60.5t-91 -15.5zM660 0h-585q-71 0 -90 40t21 108l637 1024h-301q-62 0 -88 33
t-13 95l4 17q28 128 155 128h545q71 0 89.5 -40.5t-21.5 -108.5l-643 -1025h348q62 0 88 -33t12 -95l-3 -15q-28 -128 -155 -128z" />
    <glyph glyph-name="zcaron" unicode="&#x17e;" horiz-adv-x="864" 
d="M613 1270h-62q-55 0 -85 15.5t-49 60.5l-55 112q-23 51 -17 82q11 48 79 48q75 0 107 -48l73 -107l119 107q52 48 148 48q32 0 48 -12.5t11 -36.5q-6 -32 -48 -81l-103 -112q-39 -45 -75 -60.5t-91 -15.5zM558 0h-499q-72 0 -91 41t25 109l515 760h-249q-62 0 -89 31.5
t-14 89.5q12 58 52 89t102 31h475q72 0 90.5 -41.5t-25.5 -108.5l-516 -760h275q62 0 88.5 -31t13.5 -89q-13 -59 -52 -90t-101 -31z" />
    <glyph glyph-name="florin" unicode="&#x192;" horiz-adv-x="706" 
d="M-36 -411q-69 -13 -106 18.5t-24 93.5q10 44 33.5 68t63.5 42q46 18 74 58t44 115l198 930h-22q-51 0 -69 30t-7 82l2 9q23 113 124 113h22l2 8q29 137 77 220.5t133 128.5t214 45q68 0 96 -28t15 -89q-12 -53 -40.5 -75t-73.5 -31q-66 -7 -99 -39.5t-52 -122.5l-4 -16
h91q58 0 81.5 -29t11.5 -85l-2 -10q-11 -54 -47.5 -83t-93.5 -29h-91l-186 -874q-46 -216 -130 -319.5t-235 -130.5z" />
    <glyph glyph-name="uni0218" unicode="&#x218;" horiz-adv-x="1130" 
d="M491 0q-123 0 -224.5 45.5t-161 129.5t-57.5 190q-1 68 37 106.5t106 38.5h8q56 0 81 -22.5t34 -65.5q8 -73 60.5 -115t140.5 -42q90 0 153 43t67 121q1 25 -4 46.5t-13 37t-27 30.5t-32.5 24t-43 20.5t-46.5 17.5t-54 18q-58 19 -104 41t-92 58t-75 80t-43.5 108.5
t-7.5 141.5q18 188 157 290.5t349 102.5q110 0 207 -40.5t160.5 -121.5t64.5 -187q4 -65 -36 -105.5t-110 -40.5h-8q-49 0 -72.5 21.5t-34.5 62.5q-12 67 -61.5 108t-132.5 41q-88 0 -143 -42.5t-60 -117.5q-2 -23 0.5 -42t12 -35t18 -27.5t28 -23.5t32 -19t40 -17t42.5 -15
t49 -16q59 -19 103.5 -39t91.5 -54t75.5 -77t44 -107t9.5 -143q-15 -195 -161 -301.5t-367 -106.5zM221 -532q-28 3 -39.5 13.5t-10 39t22.5 79.5l74 164q25 63 65.5 89t100.5 26q165 0 56 -151l-122 -173q-70 -96 -147 -87z" />
    <glyph glyph-name="uni0219" unicode="&#x219;" horiz-adv-x="1015" 
d="M410 0q-165 0 -273.5 71.5t-116.5 196.5q-7 58 34.5 96t108.5 38h9q44 0 66.5 -17t36.5 -53q31 -111 166 -111q75 0 127 28t58 83q4 32 -11 57t-43.5 42t-66.5 31.5t-80.5 30t-85 33t-79.5 44t-64.5 60t-40.5 84t-7 113.5q15 154 139.5 239t318.5 85q168 0 268.5 -65.5
t110.5 -189.5q7 -56 -33.5 -94t-102.5 -38h-10q-48 0 -71.5 17.5t-35.5 53.5q-11 51 -47 75t-103 24q-71 0 -116 -28t-52 -79q-7 -44 17.5 -75.5t69 -52t99.5 -39t109.5 -43.5t99 -58t69.5 -91t18 -135q-14 -164 -142 -248.5t-344 -84.5zM170 -541q-28 3 -39.5 13.5t-10 39
t22.5 79.5l74 165q25 63 65.5 89t100.5 26q50 0 76 -15t22.5 -49.5t-41.5 -87.5l-123 -173q-70 -96 -147 -87z" />
    <glyph glyph-name="uni021A" unicode="&#x21a;" horiz-adv-x="978" 
d="M379 0h-27q-62 0 -88 33t-13 95l222 1044h-170q-62 0 -88 33t-13 95l4 17q28 128 155 128h625q62 0 88 -33t12 -95l-3 -17q-28 -128 -135 -128h-191l-222 -1044q-28 -128 -156 -128zM148 -526q-28 3 -39.5 13.5t-10 39t22.5 79.5l73 165q25 63 65 88.5t101 25.5
q50 0 76 -14.5t22.5 -49t-41.5 -87.5l-123 -173q-70 -95 -146 -87z" />
    <glyph glyph-name="uni021B" unicode="&#x21b;" horiz-adv-x="702" 
d="M383 0q-168 0 -231 119t-22 315l102 482h-15q-47 0 -66 28t-8 80q7 33 26.5 56.5t37 34t62.5 31.5l12 6q32 13 59 41q23 24 42 69q31 65 60 94t70 29q88 0 68 -96l-30 -138h87q124 0 99 -118t-146 -118h-90l-97 -458q-25 -118 -9.5 -160t87.5 -53q42 -12 60.5 -38
t7.5 -79q-14 -68 -53.5 -97.5t-112.5 -29.5zM43 -522q-28 3 -39.5 13.5t-10 39t22.5 79.5l74 165q25 63 65 88.5t101 25.5q165 0 56 -151l-122 -173q-70 -96 -147 -87z" />
    <glyph glyph-name="circumflex" unicode="&#x2c6;" horiz-adv-x="1165" 
d="M504 1192q-26 0 -42.5 7.5t-22 23t7 43t43.5 63.5l90 94q70 86 170 86h62q53 0 84 -17t50 -59l50 -103q23 -51 19 -82t-22.5 -43.5t-52.5 -12.5q-89 0 -121 54l-66 101l-90 -79q-40 -41 -75 -58.5t-84 -17.5z" />
    <glyph glyph-name="caron" unicode="&#x2c7;" horiz-adv-x="1165" 
d="M744 1192h-61q-55 0 -85.5 15.5t-49.5 60.5l-55 111q-22 49 -16 82q11 48 79 48q40 0 64.5 -11t41.5 -37l74 -106l119 106q52 48 147 48q32 0 48.5 -12.5t11.5 -36.5q-6 -32 -48 -81l-103 -111q-39 -45 -75.5 -60.5t-91.5 -15.5z" />
    <glyph glyph-name="breve" unicode="&#x2d8;" horiz-adv-x="1134" 
d="M696 1186q-140 0 -201 63t-37 175q17 78 113 78q48 0 64 -20t10 -59q-7 -41 14 -56.5t68 -15.5q46 0 75 15t39 56q22 80 116 80t77 -83q-49 -233 -338 -233z" />
    <glyph glyph-name="dotaccent" unicode="&#x2d9;" horiz-adv-x="1110" 
d="M687 1198q-57 0 -87.5 38.5t-18.5 95.5t59 96.5t105 39.5q57 0 88 -39.5t19 -96.5q-12 -56 -60 -95t-105 -39z" />
    <glyph glyph-name="ring" unicode="&#x2da;" horiz-adv-x="1126" 
d="M705 1183q-77 0 -123.5 55t-35.5 132q10 77 73 129.5t141 52.5q77 0 122.5 -54t35.5 -132q-10 -76 -73 -129.5t-140 -53.5zM725 1319q21 0 38.5 15t21.5 37q4 21 -8.5 35.5t-33.5 14.5q-22 0 -39.5 -14.5t-21.5 -35.5q-4 -22 8.5 -37t34.5 -15z" />
    <glyph glyph-name="ogonek" unicode="&#x2db;" horiz-adv-x="1136" 
d="M346 -442q-124 0 -176.5 58.5t-29.5 167.5q22 102 104 193t219 181q99 64 132 6q28 -49 -45 -117q-160 -124 -179 -214q-9 -44 11.5 -62t71.5 -23q41 -5 59 -23.5t9 -58.5q-12 -59 -55 -83.5t-121 -24.5z" />
    <glyph glyph-name="tilde" unicode="&#x2dc;" horiz-adv-x="1163" 
d="M902 1205q-53 -7 -110 6.5t-109.5 25.5t-97.5 1q-31 -7 -46 -9.5t-40.5 -6.5t-38.5 -2.5t-29 5.5t-25 14t-14 25q-18 56 44 104t142 59q51 7 108.5 -7.5t111 -28t97.5 -3.5q13 3 39.5 9.5t37.5 8.5t31 5.5t29 1.5t21 -6.5t19 -14.5t11 -25q15 -57 -44 -105t-137 -57z" />
    <glyph glyph-name="hungarumlaut" unicode="&#x2dd;" horiz-adv-x="1105" 
d="M521 1186q-42 2 -45.5 31t33.5 97l45 78q28 52 65 74t98 22q65 -1 73.5 -32t-45.5 -96l-81 -94q-40 -47 -70.5 -64.5t-72.5 -15.5zM838 1186q-28 2 -38.5 15t-4 40.5t31.5 72.5l45 78q30 53 66 74.5t97 21.5q65 -1 73 -32t-45 -96l-82 -94q-40 -47 -70.5 -64.5
t-72.5 -15.5z" />
    <glyph glyph-name="uni0326" unicode="&#x326;" horiz-adv-x="0" 
d="M-983 -563q-28 3 -40 13.5t-10 39t22 79.5l74 165q25 63 65 88.5t101 25.5q50 0 76 -14.5t22.5 -49t-41.5 -87.5l-123 -173q-70 -95 -146 -87z" />
    <glyph glyph-name="pi" unicode="&#x3c0;" horiz-adv-x="1482" 
d="M623 -108q-195 0 -330 80t-189 225.5t-14 333.5l81 382q30 143 96.5 261.5t162.5 205t225 134t277 47.5q193 0 326.5 -82.5t184.5 -230t11 -335.5l-81 -382q-62 -292 -258.5 -465.5t-491.5 -173.5zM641 86q431 0 526 445l81 382q49 232 -41.5 343t-292.5 111
q-205 0 -347 -111.5t-191 -342.5l-81 -382q-49 -231 45 -338t301 -107zM487 267q-102 0 -77 123l141 662q13 64 54.5 99t103.5 35h111q181 0 263 -91t45 -265l-5 -24q-36 -169 -133.5 -255t-249.5 -86h-111l-16 -78q-25 -120 -126 -120zM741 990l-71 -332h71q75 0 119.5 34
t63.5 124l3 15q19 89 -11.5 124t-107.5 35h-67z" />
    <glyph glyph-name="uni1E02" unicode="&#x1e02;" horiz-adv-x="1153" 
d="M787 1560q-58 0 -88.5 39t-18.5 95q12 57 59 96t105 39q57 0 88.5 -39t19.5 -96q-12 -56 -60 -95t-105 -39zM515 0h-368q-62 0 -88 33t-13 95l253 1189q28 128 155 128h271q86 0 160 -15.5t133 -46.5t96.5 -78.5t50.5 -110.5t-4 -143l-5 -21q-48 -227 -245 -304
q176 -86 128 -312l-4 -18q-85 -396 -520 -396zM550 1174l-72 -340h174q181 0 214 154l7 33q10 46 0.5 77t-36 47t-60 22.5t-79.5 6.5h-148zM431 614l-73 -346h162q207 0 241 160l7 32q33 154 -164 154h-173z" />
    <glyph glyph-name="uni1E03" unicode="&#x1e03;" horiz-adv-x="1079" 
d="M747 1151q165 0 242.5 -102.5t33.5 -312.5l-67 -318q-46 -217 -149.5 -317.5t-263.5 -100.5q-113 0 -179.5 44.5t-82.5 101.5l-3 -18q-13 -62 -53 -95t-101 -33t-86 33t-12 95l274 1291q28 128 155 128h12q62 0 88 -33t12 -95l-83 -394q38 51 104 88.5t159 37.5z
M807 1265q-58 0 -88.5 39t-18.5 95q12 57 59 96t105 39q57 0 88.5 -39t19.5 -96q-12 -56 -60 -95t-105 -39zM690 438l58 277q21 101 -12 153t-110 52q-75 0 -130.5 -50.5t-76.5 -149.5l-60 -282q-22 -103 11.5 -155t109.5 -52q77 0 132.5 52t77.5 155z" />
    <glyph glyph-name="uni1E0A" unicode="&#x1e0a;" horiz-adv-x="1200" 
d="M784 1559q-57 0 -87.5 38.5t-18.5 95.5t59 96t105 39q57 0 88 -39t19 -96q-12 -56 -60 -95t-105 -39zM524 0h-377q-62 0 -88 33t-13 95l253 1189q28 128 155 128h315q108 0 193.5 -35t141.5 -103t74 -168.5t-9 -232.5l-79 -370q-55 -260 -202.5 -398t-363.5 -138z
M551 1174l-192 -906h157q236 0 299 293l68 322q17 70 13.5 120.5t-16.5 83.5t-40.5 52.5t-58.5 27t-72 7.5h-158z" />
    <glyph glyph-name="uni1E0B" unicode="&#x1e0b;" 
d="M1023 1547h12q62 0 88 -33t13 -95l-275 -1291q-28 -128 -153 -128q-61 0 -87 31.5t-13 90.5l5 22q-91 -144 -283 -144q-166 0 -243 103t-32 315l67 318q88 415 416 415q99 0 163.5 -39.5t82.5 -86.5l83 394q28 128 156 128zM556 1266q-58 0 -88.5 39t-18.5 95
q12 57 59.5 96t105.5 39q57 0 88 -39t19 -96q-12 -56 -60 -95t-105 -39zM660 438l60 282q21 99 -13.5 149.5t-109.5 50.5q-77 0 -132.5 -52t-76.5 -153l-59 -277q-22 -103 11.5 -155t110.5 -52q76 0 131.5 52t77.5 155z" />
    <glyph glyph-name="uni1E1E" unicode="&#x1e1e;" horiz-adv-x="987" 
d="M739 1556q-57 0 -88 39t-19 96t59 96t105 39q57 0 88.5 -39t19.5 -96q-12 -56 -60 -95.5t-105 -39.5zM173 0h-26q-62 0 -88 33t-13 95l253 1189q28 128 155 128h520q62 0 88 -33t13 -95l-3 -17q-28 -128 -156 -128h-366l-70 -327h234q62 0 88.5 -31.5t13.5 -91.5t-52 -92
t-100 -32h-236l-100 -470q-28 -128 -155 -128z" />
    <glyph glyph-name="uni1E1F" unicode="&#x1e1f;" horiz-adv-x="706" 
d="M636 1638q-57 0 -88 39t-19 96t59 96t105 39q57 0 88 -39t19 -96q-12 -56 -59.5 -95.5t-104.5 -39.5zM193 0h-12q-62 0 -88 33t-13 95l167 786h-21q-49 0 -68.5 30t-8.5 81l3 10q11 52 43 82.5t81 30.5h21q32 147 78.5 231t130.5 127.5t217 43.5q68 0 96 -28t15 -89
q-12 -53 -40.5 -75t-73.5 -31q-74 -11 -104 -45t-51 -133h91q117 0 92 -114l-2 -11q-11 -53 -47.5 -82t-92.5 -29h-91l-167 -785q-28 -128 -155 -128z" />
    <glyph glyph-name="uni1E40" unicode="&#x1e40;" horiz-adv-x="1484" 
d="M950 1554q-57 0 -87.5 39t-18.5 96t59 96t105 39q57 0 88 -39t19 -96q-12 -56 -60 -95.5t-105 -39.5zM173 0h-26q-62 0 -88 33t-13 95l253 1189q28 128 155 128h35q109 0 125 -102l131 -715l436 715q61 102 168 102h51q62 0 88 -33t13 -95l-253 -1189q-28 -128 -155 -128
h-25q-62 0 -88 33t-13 95l150 708l-290 -463q-32 -53 -67 -78t-83 -25t-73.5 25t-34.5 78l-92 457l-149 -702q-28 -128 -155 -128z" />
    <glyph glyph-name="uni1E41" unicode="&#x1e41;" horiz-adv-x="1574" 
d="M945 1279q-58 0 -88.5 39t-18.5 95q12 57 59 96.5t105 39.5q57 0 88.5 -39.5t19.5 -96.5q-12 -56 -60 -95t-105 -39zM1267 1151q151 0 218.5 -100.5t24.5 -302.5l-132 -620q-28 -128 -155 -128h-14q-62 0 -88 33t-13 95l135 635q17 80 -10.5 119.5t-91.5 39.5
q-63 0 -107.5 -39t-60.5 -116l-136 -639q-28 -128 -156 -128h-14q-62 0 -88 33t-13 95l135 635q33 159 -102 159q-137 0 -170 -155l-136 -639q-28 -128 -155 -128h-12q-62 0 -88 33t-12 95l190 895q28 128 153 128q61 0 86.5 -32.5t12.5 -94.5l-3 -13q26 52 89.5 96
t159.5 44q94 0 163.5 -40t93.5 -119q109 159 296 159z" />
    <glyph glyph-name="uni1E56" unicode="&#x1e56;" horiz-adv-x="1155" 
d="M778 1563q-58 0 -88.5 39t-18.5 95q12 57 59.5 96t105.5 39q57 0 88 -39t19 -96q-12 -56 -60 -95t-105 -39zM174 0h-27q-62 0 -88 33t-13 95l253 1189q28 128 155 128h293q107 0 193 -34.5t143 -101t76.5 -164.5t-6.5 -225l-12 -58q-53 -250 -204 -383.5t-367 -133.5
h-195l-46 -217q-28 -128 -155 -128zM551 1174l-119 -561h140q49 0 91.5 12.5t83 39.5t71 78t45.5 122l12 54q16 63 9.5 108t-21 73.5t-44 45t-60 22.5t-68.5 6h-140z" />
    <glyph glyph-name="uni1E57" unicode="&#x1e57;" horiz-adv-x="1089" 
d="M707 1277q-58 0 -88.5 39t-18.5 95q12 57 59 96.5t105 39.5q57 0 88.5 -39.5t19.5 -96.5q-12 -56 -60 -95t-105 -39zM747 1151q76 0 135.5 -23.5t100.5 -74.5t51 -130t-11 -190l-68 -318q-88 -415 -416 -415q-168 0 -245 126l-84 -394q-28 -128 -155 -128h-13
q-62 0 -88 33t-13 95l275 1291q28 128 153 128q61 0 87 -31.5t13 -90.5l-5 -22q91 144 283 144zM689 436l59 277q22 103 -11.5 155t-110.5 52q-76 0 -131.5 -52t-77.5 -155l-60 -282q-21 -99 13.5 -149.5t109.5 -50.5q77 0 132.5 52t76.5 153z" />
    <glyph glyph-name="uni1E60" unicode="&#x1e60;" horiz-adv-x="1130" 
d="M774 1559q-58 0 -88.5 39t-18.5 95q12 57 59.5 96t105.5 39q57 0 88 -39t19 -96q-12 -56 -60 -95t-105 -39zM491 0q-123 0 -224.5 45.5t-161 129.5t-57.5 190q-1 68 37 106.5t106 38.5h8q56 0 81 -22.5t34 -65.5q8 -73 60.5 -115t140.5 -42q90 0 153 43t67 121
q1 25 -4 46.5t-13 37t-27 30.5t-32.5 24t-43 20.5t-46.5 17.5t-54 18q-58 19 -104 41t-92 58t-75 80t-43.5 108.5t-7.5 141.5q18 188 157 290.5t349 102.5q110 0 207.5 -40.5t161 -121.5t64.5 -187q4 -65 -36.5 -105.5t-110.5 -40.5h-8q-49 0 -72.5 21.5t-34.5 62.5
q-12 67 -61.5 108t-132.5 41q-88 0 -143 -42.5t-60 -117.5q-2 -23 0.5 -42t12 -35t18 -27.5t28 -23.5t32 -19t40 -17t42.5 -15t49 -16q59 -19 103.5 -39t91.5 -54t75.5 -77t44 -107t9.5 -143q-15 -195 -161 -301.5t-367 -106.5z" />
    <glyph glyph-name="uni1E61" unicode="&#x1e61;" horiz-adv-x="1015" 
d="M658 1278q-58 0 -88.5 39t-18.5 95q12 57 59.5 96.5t105.5 39.5q57 0 88 -39.5t19 -96.5q-12 -56 -60 -95t-105 -39zM410 0q-165 0 -273.5 71.5t-116.5 196.5q-7 58 34.5 96t108.5 38h9q44 0 66.5 -17t36.5 -53q31 -111 166 -111q75 0 127 28t58 83q4 32 -11 57t-43.5 42
t-66.5 31.5t-80.5 30t-85 33t-79.5 44t-64.5 60t-40.5 84t-7 113.5q15 154 139.5 239t318.5 85q168 0 268.5 -65.5t110.5 -189.5q7 -56 -33.5 -94t-102.5 -38h-10q-48 0 -71.5 17.5t-35.5 53.5q-11 51 -47 75t-103 24q-71 0 -116 -28t-52 -79q-7 -44 17.5 -75.5t69 -52
t99.5 -39t109.5 -43.5t99 -58t69.5 -91t18 -135q-14 -164 -142 -248.5t-344 -84.5z" />
    <glyph glyph-name="uni1E6A" unicode="&#x1e6a;" horiz-adv-x="978" 
d="M709 1556q-57 0 -88 39t-19 96t59.5 96t105.5 39q57 0 88 -39t19 -96q-12 -56 -60 -95.5t-105 -39.5zM379 0h-27q-62 0 -88 33t-13 95l222 1044h-170q-62 0 -88 33t-13 95l4 17q28 128 155 128h625q62 0 88 -33t12 -95l-3 -17q-28 -128 -135 -128h-191l-222 -1044
q-28 -128 -156 -128z" />
    <glyph glyph-name="uni1E6B" unicode="&#x1e6b;" horiz-adv-x="702" 
d="M541 1489q-58 0 -88.5 39t-18.5 95q12 57 59.5 96.5t105.5 39.5q57 0 88 -39.5t19 -96.5q-12 -56 -60 -95t-105 -39zM383 0q-168 0 -231 119t-22 315l102 482h-15q-47 0 -66 28t-8 80q7 33 26.5 56.5t37 34t62.5 31.5l12 6q32 13 59 41q23 24 42 69q31 65 60 94t70 29
q88 0 68 -96l-30 -138h87q124 0 99 -118t-146 -118h-90l-97 -458q-25 -118 -9.5 -160t87.5 -53q42 -12 60.5 -38t7.5 -79q-14 -68 -53.5 -97.5t-112.5 -29.5z" />
    <glyph glyph-name="Wgrave" unicode="&#x1e80;" horiz-adv-x="1675" 
d="M1050 1548h-8q-51 0 -75.5 17t-49.5 66l-50 104q-65 134 107 135h5q63 0 93.5 -24.5t39.5 -76.5l22 -94q24 -127 -84 -127zM402 0h-55q-117 0 -117 113l-25 1191q-1 66 36.5 103.5t103.5 37.5h19q59 0 87.5 -28t27.5 -86l3 -859l362 859q46 114 162 114h19q59 0 87.5 -28
t27.5 -86l-5 -859l370 859q47 114 164 114h28q68 0 90 -37.5t-7 -103.5l-533 -1191q-50 -113 -164 -113h-57q-118 0 -115 114l7 843l-354 -843q-47 -114 -162 -114z" />
    <glyph glyph-name="wgrave" unicode="&#x1e81;" horiz-adv-x="1499" 
d="M902 1270h-9q-50 0 -74.5 17t-49.5 66l-50 103q-65 134 106 135h6q63 0 93.5 -24t39.5 -76l22 -94q24 -127 -84 -127zM347 0h-36q-115 0 -120 111l-46 897q-2 67 34 105t100 38h15q116 0 116 -114l11 -629l278 630q48 113 164 113h3q116 0 116 -113l10 -631l281 630
q49 114 164 114h19q68 0 90 -37.5t-9 -105.5l-429 -897q-52 -111 -165 -111h-39q-57 0 -87 28.5t-29 85.5l-9 603l-268 -604q-48 -113 -164 -113z" />
    <glyph glyph-name="Wacute" unicode="&#x1e82;" horiz-adv-x="1675" 
d="M1044 1554h-9q-108 0 -30 127l62 94q32 52 72.5 76t103.5 24h4q173 -1 50 -135l-93 -103q-46 -49 -78 -66t-82 -17zM402 0h-55q-117 0 -117 113l-25 1191q-1 66 36.5 103.5t103.5 37.5h19q59 0 87.5 -28t27.5 -86l3 -859l362 859q46 114 162 114h19q59 0 87.5 -28
t27.5 -86l-5 -859l370 859q47 114 164 114h28q68 0 90 -37.5t-7 -103.5l-533 -1191q-50 -113 -164 -113h-57q-117 0 -114 114l6 843l-354 -843q-47 -114 -162 -114z" />
    <glyph glyph-name="wacute" unicode="&#x1e83;" horiz-adv-x="1499" 
d="M913 1269h-9q-108 0 -30 127l62 95q32 52 72.5 76t103.5 24h4q173 -1 50 -135l-93 -104q-46 -49 -78 -66t-82 -17zM347 0h-36q-115 0 -120 111l-46 897q-2 67 34 105t100 38h15q116 0 116 -114l11 -629l278 630q48 113 164 113h3q116 0 116 -113l10 -631l281 630
q49 114 164 114h19q68 0 90 -37.5t-9 -105.5l-429 -897q-52 -111 -165 -111h-39q-57 0 -87 28.5t-29 85.5l-9 603l-268 -604q-48 -113 -164 -113z" />
    <glyph glyph-name="Wdieresis" unicode="&#x1e84;" horiz-adv-x="1675" 
d="M858 1555q-52 0 -80.5 36t-17.5 88t55 88.5t96 36.5t81 -36.5t18 -88.5t-55.5 -88t-96.5 -36zM1233 1555q-52 0 -80.5 36t-17.5 88t55 88.5t96 36.5t80.5 -36.5t17.5 -88.5t-55 -88t-96 -36zM402 0h-55q-117 0 -117 113l-25 1191q-1 66 36.5 103.5t103.5 37.5h19
q59 0 87.5 -28t27.5 -86l3 -859l362 859q46 114 162 114h20q59 0 87 -28t27 -86l-5 -859l370 859q47 114 164 114h28q68 0 90 -37.5t-7 -103.5l-533 -1191q-50 -113 -164 -113h-57q-117 0 -114 114l6 843l-354 -843q-47 -114 -162 -114z" />
    <glyph glyph-name="wdieresis" unicode="&#x1e85;" horiz-adv-x="1499" 
d="M708 1267q-52 0 -80.5 36t-17.5 88t55 88.5t96 36.5t81 -36.5t18 -88.5t-55.5 -88t-96.5 -36zM1083 1267q-52 0 -80.5 36t-17.5 88t55 88.5t96 36.5t80.5 -36.5t17.5 -88.5t-55 -88t-96 -36zM347 0h-36q-115 0 -120 111l-46 897q-2 67 34 105t100 38h15q116 0 116 -114
l11 -629l278 630q48 113 164 113h3q116 0 116 -113l10 -631l281 630q49 114 164 114h19q68 0 90 -37.5t-9 -105.5l-429 -897q-52 -111 -165 -111h-39q-57 0 -87 28.5t-29 85.5l-9 603l-268 -604q-48 -113 -164 -113z" />
    <glyph glyph-name="Ygrave" unicode="&#x1ef2;" horiz-adv-x="1132" 
d="M784 1548h-8q-51 0 -75.5 17t-49.5 66l-49 104q-65 134 106 135h5q63 0 94 -24.5t40 -76.5l22 -94q24 -127 -85 -127zM456 0h-26q-62 0 -88 33t-13 95l82 387l-177 781q-13 67 21 108t102 41h22q110 0 126 -100l103 -512l329 512q61 100 168 100h32q72 0 91 -41.5
t-24 -107.5l-510 -781l-83 -387q-28 -128 -155 -128z" />
    <glyph glyph-name="ygrave" unicode="&#x1ef3;" horiz-adv-x="1001" 
d="M644 1267l-8 1q-51 0 -75.5 17t-49.5 65l-49 104q-65 134 106 135h5q63 0 94 -24t40 -76l22 -95q24 -127 -85 -127zM195 -394h-15q-66 0 -85.5 39t14.5 106l134 252l-98 1004q-5 67 30 105.5t101 38.5h20q116 0 119 -111l39 -645l314 645q51 111 165 111h31
q69 0 89.5 -38.5t-13.5 -105.5l-677 -1295q-53 -106 -168 -106z" />
    <glyph glyph-name="endash" unicode="&#x2013;" horiz-adv-x="1040" 
d="M812 478h-626q-62 0 -89 28t-16 79q21 104 150 104h626q62 0 89 -26.5t17 -77.5q-11 -52 -50 -79.5t-101 -27.5z" />
    <glyph glyph-name="emdash" unicode="&#x2014;" horiz-adv-x="1523" 
d="M1296 478h-1110q-62 0 -89 28t-16 79q21 104 150 104h1110q62 0 89 -26.5t16 -77.5q-23 -107 -150 -107z" />
    <glyph glyph-name="quoteleft" unicode="&#x2018;" horiz-adv-x="538" 
d="M240 769h-22q-69 0 -86.5 41.5t23.5 107.5l261 428q34 57 72.5 79.5t92.5 20.5q50 -2 60 -32t-24 -110l-212 -425q-51 -110 -165 -110z" />
    <glyph glyph-name="quoteright" unicode="&#x2019;" horiz-adv-x="532" 
d="M182 769q-101 3 -35 142l210 425q51 110 166 110h17q71 0 90.5 -41.5t-21.5 -107.5l-263 -429q-61 -102 -164 -99z" />
    <glyph glyph-name="quotesinglbase" unicode="&#x201a;" horiz-adv-x="532" 
d="M-78 -263q-50 2 -60.5 32t25.5 111l206 411q51 108 165 108h18q72 0 91 -40.5t-23 -107.5l-258 -415q-35 -56 -73 -78.5t-91 -20.5z" />
    <glyph glyph-name="quotedblleft" unicode="&#x201c;" horiz-adv-x="964" 
d="M242 778h-22q-69 0 -86 41.5t24 107.5l258 420q34 56 72.5 78.5t91.5 20.5q33 -2 48.5 -14.5t13.5 -44.5t-27 -84l-208 -416q-52 -109 -165 -109zM668 778h-22q-69 0 -86 41.5t24 107.5l258 420q34 56 72.5 78.5t91.5 20.5q33 -2 48.5 -14.5t13.5 -44.5t-27 -84
l-208 -416q-52 -109 -165 -109z" />
    <glyph glyph-name="quotedblright" unicode="&#x201d;" horiz-adv-x="958" 
d="M185 778q-50 2 -60.5 32.5t25.5 111.5l208 415q52 109 165 109h17q71 0 90 -41.5t-22 -107.5l-259 -419q-34 -56 -72.5 -79t-91.5 -21zM611 778q-50 2 -60.5 32.5t25.5 111.5l208 415q52 109 165 109h17q71 0 90 -41.5t-22 -107.5l-259 -419q-34 -56 -72.5 -79t-91.5 -21
z" />
    <glyph glyph-name="quotedblbase" unicode="&#x201e;" horiz-adv-x="958" 
d="M-79 -268q-33 2 -48.5 14.5t-13.5 44.5t27 84l206 411q51 108 165 108h18q72 0 91 -40.5t-23 -107.5l-259 -415q-35 -56 -72.5 -78.5t-90.5 -20.5zM347 -268q-33 2 -48.5 14.5t-13.5 44.5t27 84l206 411q51 108 165 108h18q72 0 91 -40.5t-23 -107.5l-259 -415
q-35 -56 -72.5 -78.5t-90.5 -20.5z" />
    <glyph glyph-name="dagger" unicode="&#x2020;" horiz-adv-x="864" 
d="M208 24l202 949h-151q-96 0 -77 90q19 88 114 88h152l59 275q15 68 47.5 98t85.5 30t72.5 -30t4.5 -98l-58 -275h154q95 0 76 -88q-19 -90 -114 -90h-154l-202 -949q-28 -128 -131 -128q-52 0 -72.5 33t-7.5 95z" />
    <glyph glyph-name="daggerdbl" unicode="&#x2021;" horiz-adv-x="862" 
d="M288 -104q-52 0 -72.5 33t-7.5 95l129 603h-150q-97 0 -78 90q19 88 116 88h149l36 168h-151q-96 0 -77 90q19 88 114 88h152l59 275q15 68 47.5 98t85.5 30t72.5 -30t4.5 -98l-58 -275h150q98 0 79 -88q-19 -90 -116 -90h-151l-36 -168h151q95 0 76 -88
q-19 -90 -114 -90h-151l-128 -603q-28 -128 -131 -128z" />
    <glyph glyph-name="bullet" unicode="&#x2022;" horiz-adv-x="993" 
d="M413 180q-189 0 -269.5 111t-39.5 307l3 12q41 191 169 302.5t316 111.5q185 0 266.5 -112t40.5 -302l-2 -12q-41 -195 -169.5 -306.5t-314.5 -111.5z" />
    <glyph glyph-name="ellipsis" unicode="&#x2026;" horiz-adv-x="1458" 
d="M119 0q-67 0 -104.5 47.5t-23.5 114.5q14 68 72.5 116t125.5 48q68 0 105.5 -48t23.5 -116q-14 -67 -72.5 -114.5t-126.5 -47.5zM606 0q-67 0 -105 47.5t-24 114.5q14 68 72.5 116t125.5 48q68 0 106 -48.5t24 -115.5t-72.5 -114.5t-126.5 -47.5zM1093 0q-68 0 -105 47.5
t-23 114.5q14 68 71.5 116t125.5 48q67 0 105 -48t24 -116q-14 -67 -72.5 -114.5t-125.5 -47.5z" />
    <glyph glyph-name="perthousand" unicode="&#x2030;" horiz-adv-x="3301" 
d="M836 -104q-66 0 -87 37.5t10 104.5l650 1406q51 110 165 110q69 0 90 -36.5t-11 -105.5l-652 -1406q-51 -110 -165 -110zM507 475q-197 0 -292 124t-50 333l13 62q45 211 166 331t311 120q194 0 289.5 -124t52.5 -327l-13 -62q-46 -217 -167 -337t-310 -120zM528 716
q71 0 124 46.5t73 141.5l24 113q20 95 -13 141t-104 46q-154 0 -194 -187l-24 -113q-20 -96 11 -142t103 -46zM1753 0q-197 0 -292.5 123.5t-50.5 332.5l15 67q45 211 165.5 331t310.5 120q194 0 291 -124t54 -327l-15 -67q-46 -216 -168 -336t-310 -120zM2708 0
q-198 0 -292.5 123t-49.5 333l14 67q45 212 166 331.5t311 119.5q194 0 290.5 -124t53.5 -327l-14 -67q-46 -216 -168.5 -336t-310.5 -120zM1774 241q70 0 123 46t74 142l25 117q20 93 -13 140t-104 47q-70 0 -122.5 -46.5t-72.5 -140.5l-25 -117q-21 -96 11.5 -142
t103.5 -46zM2729 241q70 0 123 46t74 142l25 117q20 93 -13 140t-104 47t-123 -46.5t-72 -140.5l-25 -117q-21 -97 11 -142.5t104 -45.5z" />
    <glyph glyph-name="guilsinglleft" unicode="&#x2039;" horiz-adv-x="632" 
d="M354 171h-3q-50 0 -77.5 19t-46.5 64l-108 243q-39 89 38 178l211 244q38 44 74 63t87 19h3q55 0 63.5 -35.5t-32.5 -102.5l-192 -288l67 -266q14 -66 -8 -102t-76 -36z" />
    <glyph glyph-name="guilsinglright" unicode="&#x203a;" horiz-adv-x="632" 
d="M112 171h-4q-55 0 -64.5 35.5t32.5 102.5l191 287l-69 267q-15 65 8 101.5t77 36.5h4q51 0 78.5 -18.5t46.5 -63.5l106 -244q39 -89 -38 -178l-209 -243q-38 -44 -74 -63.5t-85 -19.5z" />
    <glyph glyph-name="fraction" unicode="&#x2044;" horiz-adv-x="741" 
d="M-27 -7h-25q-46 0 -55.5 29.5t20.5 77.5l795 1282q43 71 122 71h12q52 0 65.5 -29.5t-16.5 -77.5l-796 -1282q-43 -71 -122 -71z" />
    <glyph glyph-name="Euro" unicode="&#x20ac;" horiz-adv-x="1224" 
d="M546 955l-16 -74h142q62 0 51 -52q-11 -53 -72 -53h-143l-26 -120h143q61 0 50 -51q-11 -53 -72 -53h-143l-13 -60q-24 -114 20.5 -167.5t133.5 -53.5q171 0 241 186q20 52 52 79.5t96 27.5h27q64 0 86 -37.5t3 -102.5q-58 -190 -196 -307t-339 -117q-142 0 -245 63
t-146.5 178t-12.5 260l10 51h-58q-35 0 -47.5 13.5t-6.5 39.5q11 51 77 51h58l25 120h-58q-35 0 -47.5 13.5t-7.5 39.5q11 52 78 52h57l14 65q47 224 198 361.5t362 137.5q204 0 319.5 -119t93.5 -299q-8 -63 -45.5 -96.5t-100.5 -33.5h-27q-65 0 -86 26t-21 75
q1 82 -34 129t-127 47q-83 0 -153 -52.5t-94 -166.5z" />
    <glyph glyph-name="trademark" unicode="&#x2122;" horiz-adv-x="1513" 
d="M353 700q-85 0 -63 103l102 481h-53q-61 0 -81 20t-11 61q9 40 36 60t81 20h296q54 0 72 -19.5t9 -60.5t-36.5 -61t-88.5 -20h-56l-102 -481q-12 -55 -37.5 -79t-67.5 -24zM781 700q-84 0 -63 101l113 533q14 63 39 87t67 24q43 0 65 -21t33 -77l75 -328l213 328
q34 55 68.5 76.5t78.5 21.5q43 0 60 -24.5t4 -86.5l-113 -533q-21 -101 -104 -101q-85 0 -64 101l58 274l-124 -183q-29 -47 -56 -64.5t-58 -17.5q-32 0 -52 17.5t-29 65.5l-46 181l-58 -273q-21 -101 -107 -101z" />
    <glyph glyph-name="minus" unicode="&#x2212;" horiz-adv-x="1017" 
d="M795 602h-562q-62 0 -88.5 31.5t-13.5 90.5t52.5 90.5t101.5 31.5h562q62 0 88.5 -31.5t13.5 -90.5t-52.5 -90.5t-101.5 -31.5z" />
    <glyph glyph-name="notequal" unicode="&#x2260;" horiz-adv-x="1566" 
d="M347 1282l-70 -12q-9 -2 -14 1.5t-4 12.5q0 16 18 19l22 4q-1 9 -7.5 14t-14.5 7t-14 10.5t-5 25.5q1 23 20 66t23 61q-20 6 -15 27q2 12 12.5 20t24.5 8q11 0 18 -8t5 -20q-2 -8 -13 -21q3 -14 20.5 -52.5t16.5 -62.5q0 -27 -20 -42t-21 -27l19 4q17 3 17 -14
q0 -18 -18 -21zM308 10l-60 -10l35 1262l58 2l-18 -672l34 614q70 -67 149 -89.5t157.5 -9.5t162.5 40.5t176 53.5t185 37t203 -16.5t217 -99.5q-112 -229 -210.5 -461.5t-140.5 -350.5l-43 -117q-59 66 -128.5 97t-135.5 31t-135 -12t-136 -26.5t-129 -19t-122.5 17
t-108.5 75.5zM412 645l31 -31l71 66q40 -34 96 -40.5t116 17.5q30 12 54 31l62 -65l38 36l-60 64q41 44 60.5 99.5t7.5 103.5q-19 73 -90.5 100.5t-152.5 -6.5q-17 -7 -41 -21q4 1 9.5 4t6.5 3q66 28 124 5t76 -83q10 -39 -2.5 -81.5t-42.5 -76.5l-76 78l87 82l-107 18
l-155 -145l60 -62l74 70l76 -76q-14 -12 -41 -22q-80 -35 -141 2q-21 11 -35 28z" />
    <glyph glyph-name="i.loclTRK" horiz-adv-x="505" 
d="M406 1264q-57 0 -88 39t-19 96t59 96t105 39q57 0 88.5 -39t19.5 -96q-12 -56 -60 -95.5t-105 -39.5zM135 0h-12q-62 0 -88 33t-12 95l190 895q28 128 155 128h11q62 0 88 -33t13 -95l-190 -895q-28 -128 -155 -128z" />
    <glyph glyph-name="a.ss01" horiz-adv-x="1067" 
d="M627 1151q102 0 178.5 -23t128 -71t67 -123t-4.5 -179l-134 -627q-28 -128 -153 -128q-63 0 -88.5 30t-11.5 96l3 15q-35 -54 -113.5 -97.5t-195.5 -43.5q-62 0 -116.5 18t-98.5 54t-65.5 98.5t-11.5 143.5q11 91 54.5 156.5t105 100t134 58t144.5 39t133.5 32.5
t104.5 48.5t53 79.5q11 51 -24.5 79.5t-110.5 28.5q-132 0 -205 -100q-58 -66 -133 -66h-9q-66 0 -88.5 37t7.5 96q46 115 163 181.5t287 66.5zM658 431l29 132q-38 -29 -110.5 -50t-131 -33t-107 -48t-53.5 -97q-6 -66 27 -92.5t104 -26.5q97 0 159.5 60.5t82.5 154.5z" />
    <glyph glyph-name="aacute.ss01" horiz-adv-x="1067" 
d="M665 1268h-8q-108 0 -30 127l62 94q32 52 72.5 76t103.5 24h4q173 -1 50 -135l-94 -103q-46 -49 -78 -66t-82 -17zM627 1151q102 0 178.5 -23t128 -71t67 -123t-4.5 -179l-134 -627q-28 -128 -153 -128q-63 0 -88.5 30t-11.5 96l3 15q-35 -54 -113.5 -97.5t-195.5 -43.5
q-62 0 -116.5 18t-98.5 54t-65.5 98.5t-11.5 143.5q11 91 54.5 156.5t105 100t134 58t144.5 39t133.5 32.5t104.5 48.5t53 79.5q11 51 -24.5 79.5t-110.5 28.5q-132 0 -205 -100q-58 -66 -133 -66h-9q-66 0 -88.5 37t7.5 96q46 115 163 181.5t287 66.5zM658 431l29 132
q-38 -29 -110.5 -50t-131 -33t-107 -48t-53.5 -97q-6 -66 27 -92.5t104 -26.5q97 0 159.5 60.5t82.5 154.5z" />
    <glyph glyph-name="abreve.ss01" horiz-adv-x="1067" 
d="M943 1584q95 0 78 -83q-49 -233 -338 -233q-140 0 -201 63t-37 175q17 78 112 78q48 0 64.5 -20t10.5 -59q-7 -41 14 -56.5t68 -15.5q46 0 74.5 15t38.5 56q22 80 116 80zM627 1151q102 0 178.5 -23t128 -71t67 -123t-4.5 -179l-134 -627q-28 -128 -153 -128
q-63 0 -88.5 30t-11.5 96l3 15q-35 -54 -113.5 -97.5t-195.5 -43.5q-62 0 -116.5 18t-98.5 54t-65.5 98.5t-11.5 143.5q11 91 54.5 156.5t105 100t134 58t144.5 39t133.5 32.5t104.5 48.5t53 79.5q11 51 -24.5 79.5t-110.5 28.5q-132 0 -205 -100q-58 -66 -133 -66h-9
q-66 0 -88.5 37t7.5 96q46 115 163 181.5t287 66.5zM658 431l29 132q-38 -29 -110.5 -50t-131 -33t-107 -48t-53.5 -97q-6 -66 27 -92.5t104 -26.5q97 0 159.5 60.5t82.5 154.5z" />
    <glyph glyph-name="acircumflex.ss01" horiz-adv-x="1067" 
d="M463 1263q-26 0 -42.5 7.5t-22 23t7.5 43t44 63.5l89 94q70 86 171 86h62q53 0 84 -17t50 -59l50 -103q23 -51 19 -82t-22.5 -43.5t-52.5 -12.5q-89 0 -121 54l-67 100l-89 -79q-40 -41 -75.5 -58t-84.5 -17zM627 1151q102 0 178.5 -23t128 -71t67 -123t-4.5 -179
l-134 -627q-28 -128 -153 -128q-63 0 -88.5 30t-11.5 96l3 15q-35 -54 -113.5 -97.5t-195.5 -43.5q-62 0 -116.5 18t-98.5 54t-65.5 98.5t-11.5 143.5q11 91 54.5 156.5t105 100t134 58t144.5 39t133.5 32.5t104.5 48.5t53 79.5q11 51 -24.5 79.5t-110.5 28.5
q-132 0 -205 -100q-58 -66 -133 -66h-9q-66 0 -88.5 37t7.5 96q46 115 163 181.5t287 66.5zM658 431l29 132q-38 -29 -110.5 -50t-131 -33t-107 -48t-53.5 -97q-6 -66 27 -92.5t104 -26.5q97 0 159.5 60.5t82.5 154.5z" />
    <glyph glyph-name="adieresis.ss01" horiz-adv-x="1067" 
d="M487 1276q-52 0 -80.5 36t-17.5 88t55 88.5t96 36.5t81 -36.5t18 -88.5t-55.5 -88t-96.5 -36zM914 1525q52 0 81 -36.5t18 -88.5t-55 -88t-96 -36t-80.5 36t-17.5 88t54.5 88.5t95.5 36.5zM627 1151q102 0 178.5 -23t128 -71t67 -123t-4.5 -179l-134 -627
q-28 -128 -153 -128q-63 0 -88.5 30t-11.5 96l3 15q-35 -54 -113.5 -97.5t-195.5 -43.5q-62 0 -116.5 18t-98.5 54t-65.5 98.5t-11.5 143.5q11 91 54.5 156.5t105 100t134 58t144.5 39t133.5 32.5t104.5 48.5t53 79.5q11 51 -24.5 79.5t-110.5 28.5q-132 0 -205 -100
q-58 -66 -133 -66h-9q-66 0 -88.5 37t7.5 96q46 115 163 181.5t287 66.5zM658 431l29 132q-38 -29 -110.5 -50t-131 -33t-107 -48t-53.5 -97q-6 -66 27 -92.5t104 -26.5q97 0 159.5 60.5t82.5 154.5z" />
    <glyph glyph-name="agrave.ss01" horiz-adv-x="1067" 
d="M563 1351l-50 103q-65 134 107 135h5q63 0 93.5 -24t39.5 -76l22 -94q24 -127 -84 -127h-8q-51 0 -75.5 17t-49.5 66zM627 1151q102 0 178.5 -23t128 -71t67 -123t-4.5 -179l-134 -627q-28 -128 -153 -128q-63 0 -88.5 30t-11.5 96l3 15q-35 -54 -113.5 -97.5
t-195.5 -43.5q-62 0 -116.5 18t-98.5 54t-65.5 98.5t-11.5 143.5q11 91 54.5 156.5t105 100t134 58t144.5 39t133.5 32.5t104.5 48.5t53 79.5q11 51 -24.5 79.5t-110.5 28.5q-132 0 -205 -100q-58 -66 -133 -66h-9q-66 0 -88.5 37t7.5 96q46 115 163 181.5t287 66.5z
M658 431l29 132q-38 -29 -110.5 -50t-131 -33t-107 -48t-53.5 -97q-6 -66 27 -92.5t104 -26.5q97 0 159.5 60.5t82.5 154.5z" />
    <glyph glyph-name="amacron.ss01" horiz-adv-x="1067" 
d="M847 1279h-348q-61 0 -84.5 24t-13.5 72q20 94 138 94h348q61 0 84.5 -23.5t13.5 -70.5q-20 -96 -138 -96zM627 1151q102 0 178.5 -23t128 -71t67 -123t-4.5 -179l-134 -627q-28 -128 -153 -128q-63 0 -88.5 30t-11.5 96l3 15q-35 -54 -113.5 -97.5t-195.5 -43.5
q-62 0 -116.5 18t-98.5 54t-65.5 98.5t-11.5 143.5q11 91 54.5 156.5t105 100t134 58t144.5 39t133.5 32.5t104.5 48.5t53 79.5q11 51 -24.5 79.5t-110.5 28.5q-132 0 -205 -100q-58 -66 -133 -66h-9q-66 0 -88.5 37t7.5 96q46 115 163 181.5t287 66.5zM658 431l29 132
q-38 -29 -110.5 -50t-131 -33t-107 -48t-53.5 -97q-6 -66 27 -92.5t104 -26.5q97 0 159.5 60.5t82.5 154.5z" />
    <glyph glyph-name="aogonek.ss01" horiz-adv-x="1067" 
d="M627 1151q102 0 178.5 -23t128 -71t67 -123t-4.5 -179l-134 -627q-16 -80 -77 -111q-146 -120 -164 -202q-9 -43 11.5 -61.5t72.5 -23.5q41 -5 59 -23.5t9 -58.5q-12 -59 -55.5 -84t-121.5 -25q-124 0 -176.5 59t-29.5 168q33 153 216 297q-4 25 3 63l3 15
q-35 -54 -113.5 -97.5t-195.5 -43.5q-62 0 -116.5 18t-98.5 54t-65.5 98.5t-11.5 143.5q11 91 54.5 156.5t105 100t134 58t144.5 39t133.5 32.5t104.5 48.5t53 79.5q11 51 -24.5 79.5t-110.5 28.5q-132 0 -205 -100q-58 -66 -133 -66h-9q-66 0 -88.5 37t7.5 96
q46 115 163 181.5t287 66.5zM416 216q97 0 159.5 60.5t82.5 154.5l29 132q-38 -29 -110.5 -50t-131 -33t-107 -48t-53.5 -97q-6 -66 27 -92.5t104 -26.5z" />
    <glyph glyph-name="aring.ss01" horiz-adv-x="1067" 
d="M690 1265q-77 0 -123 55t-35 132q10 77 72.5 129.5t140.5 52.5q77 0 123 -54t36 -132q-10 -76 -73.5 -129.5t-140.5 -53.5zM668 1453q-4 -22 8.5 -37t34.5 -15q21 0 38 15t21 37q4 21 -8 35.5t-33 14.5q-22 0 -39.5 -14.5t-21.5 -35.5zM627 1151q102 0 178.5 -23t128 -71
t67 -123t-4.5 -179l-134 -627q-28 -128 -153 -128q-63 0 -88.5 30t-11.5 96l3 15q-35 -54 -113.5 -97.5t-195.5 -43.5q-62 0 -116.5 18t-98.5 54t-65.5 98.5t-11.5 143.5q11 91 54.5 156.5t105 100t134 58t144.5 39t133.5 32.5t104.5 48.5t53 79.5q11 51 -24.5 79.5
t-110.5 28.5q-132 0 -205 -100q-58 -66 -133 -66h-9q-66 0 -88.5 37t7.5 96q46 115 163 181.5t287 66.5zM658 431l29 132q-38 -29 -110.5 -50t-131 -33t-107 -48t-53.5 -97q-6 -66 27 -92.5t104 -26.5q97 0 159.5 60.5t82.5 154.5z" />
    <glyph glyph-name="atilde.ss01" horiz-adv-x="1067" 
d="M540 1305q-33 -7 -46.5 -9.5t-40 -6.5t-39 -2.5t-28.5 5t-25 13.5t-14 25q-18 56 44.5 104.5t141.5 59.5q41 6 86.5 -2t78 -20t74.5 -19t77 1q13 3 39 9.5t38 9t31 5.5t28.5 1t21.5 -6t19 -14t11 -25q15 -57 -43.5 -105t-136.5 -57q-53 -7 -110 6.5t-109.5 25.5t-97.5 1z
M627 1151q102 0 178.5 -23t128 -71t67 -123t-4.5 -179l-134 -627q-28 -128 -153 -128q-63 0 -88.5 30t-11.5 96l3 15q-35 -54 -113.5 -97.5t-195.5 -43.5q-62 0 -116.5 18t-98.5 54t-65.5 98.5t-11.5 143.5q11 91 54.5 156.5t105 100t134 58t144.5 39t133.5 32.5t104.5 48.5
t53 79.5q11 51 -24.5 79.5t-110.5 28.5q-132 0 -205 -100q-58 -66 -133 -66h-9q-66 0 -88.5 37t7.5 96q46 115 163 181.5t287 66.5zM658 431l29 132q-38 -29 -110.5 -50t-131 -33t-107 -48t-53.5 -97q-6 -66 27 -92.5t104 -26.5q97 0 159.5 60.5t82.5 154.5z" />
    <glyph glyph-name="ae.ss01" horiz-adv-x="1638" 
d="M1227 1151q208 0 306.5 -117.5t54.5 -326.5l-18 -82q-28 -128 -155 -128h-472l-22 -105q-18 -85 20 -128.5t109 -43.5q157 0 206 109q20 34 47.5 51t80.5 17h18q55 0 80.5 -18.5t15.5 -56.5q-38 -144 -161.5 -233t-312.5 -89q-236 0 -316 161q-146 -161 -380 -161
q-69 0 -128 18t-106 54t-70 98.5t-13 143.5q11 91 54.5 156.5t105 100t134 58t144.5 39t133.5 32.5t104.5 48.5t53 79.5q11 51 -24.5 79.5t-110.5 28.5q-132 0 -205 -100q-58 -66 -133 -66h-9q-66 0 -88.5 37t7.5 96q46 115 163 181.5t287 66.5q207 0 287 -113
q122 113 313 113zM1315 684l13 61q21 95 -15 139.5t-112 44.5q-75 0 -129.5 -43.5t-73.5 -131.5l-15 -70h332zM416 216q97 0 159.5 60.5t82.5 154.5l29 132q-38 -29 -110.5 -50t-131 -33t-107 -48t-53.5 -97q-6 -66 27 -92.5t104 -26.5z" />
    <glyph glyph-name="one.numr" horiz-adv-x="491" 
d="M273 637h-7q-92 0 -72 92l102 480h-16q-36 1 -52 22.5t-8 56.5l1 6q6 27 20.5 43t41.5 31q49 27 82 56q34 31 78 31h9q87 0 67 -92l-135 -634q-20 -92 -111 -92z" />
    <glyph glyph-name="two.numr" horiz-adv-x="729" 
d="M329 821h249q93 0 73 -91l-1 -4q-9 -43 -38 -66t-73 -23h-348q-93 0 -73 92l5 21q12 58 34 101.5t59 77.5t68.5 55.5t88.5 52.5q16 9 47 25.5t46 24.5t37.5 23t34 26.5t22 27.5t14.5 34q8 38 -11 60t-58 22q-60 0 -96 -53q-15 -21 -25.5 -32t-28.5 -20t-41 -9h-25
q-87 0 -49 96q34 90 109 143.5t174 53.5q122 0 191 -72t48 -186q-8 -40 -27 -75t-37.5 -56.5t-54 -47.5t-53 -36t-57.5 -33q-31 -19 -85.5 -46.5t-82.5 -46t-36 -39.5z" />
    <glyph glyph-name="three.numr" horiz-adv-x="727" 
d="M382 628q-111 0 -179 49.5t-73 132.5q-2 45 27 70.5t76 25.5h15q36 0 53 -14t29 -44q17 -42 76 -42q45 0 75 22t38 62q8 36 -11.5 55t-66.5 19h-19q-87 0 -72 72l2 10q17 80 100 80h20q86 0 103 80q8 37 -10.5 58t-60.5 21q-49 0 -84 -39q-28 -32 -50 -46t-57 -14h-16
q-46 0 -61.5 25.5t3.5 71.5q32 80 107.5 128.5t174.5 48.5q123 0 195 -66.5t54 -170.5q-18 -113 -126 -168q87 -45 68 -171q-17 -113 -110 -184.5t-220 -71.5z" />
    </font>
</defs>
</svg>
