<?xml version="1.0" standalone="no"?>
<!DOCTYPE svg PUBLIC "-//W3C//DTD SVG 1.1//EN" "http://www.w3.org/Graphics/SVG/1.1/DTD/svg11.dtd" >
<svg xmlns="http://www.w3.org/2000/svg" xmlns:xlink="http://www.w3.org/1999/xlink" version="1.1">
<metadata>
Created by FontForge 20170731 at Wed Dec  7 13:22:35 2022
 By Aleksey,,,
Copyright (c) 2010, 2019 by Rian Hughes . All rights reserved.
</metadata>
<defs>
<font id="KorolevRounded-HeavyItalic" horiz-adv-x="1142" >
  <font-face 
    font-family="Korolev Rounded Heavy"
    font-weight="900"
    font-style="italic"
    font-stretch="normal"
    units-per-em="2048"
    panose-1="0 0 10 0 0 0 0 0 0 0"
    ascent="1638"
    descent="-410"
    x-height="1151"
    cap-height="1446"
    bbox="-1078.63 -573.508 3229.11 1966"
    underline-thickness="102"
    underline-position="-307"
    slope="-12"
    unicode-range="U+0020-FB02"
  />
<missing-glyph horiz-adv-x="1122" 
d="M979 0h-776v1434h776v-1434zM248 1393v-1348l317 672zM297 1393l293 -625l295 625h-588zM617 717l319 -672v1348zM590 666l-293 -621h588z" />
    <glyph glyph-name="fi" unicode="fi" horiz-adv-x="1220" 
d="M211 0h-16q-80 0 -113 42.5t-16 121.5l145 680h-9q-49 0 -69.5 41.5t-5.5 111.5q15 71 53.5 112.5t87.5 41.5h8l4 21q18 83 43 146t68.5 121t103 95t147.5 58.5t201 21.5q174 0 267.5 -54t120.5 -137q25 -75 -21.5 -121.5t-135.5 -46.5h-32q-30 0 -57.5 7.5t-40 14
t-37.5 20.5q-61 36 -115 36q-74 0 -111.5 -36.5t-54.5 -116.5l-6 -29h7q68 0 96.5 -40.5t13.5 -113.5q-15 -72 -60.5 -112.5t-113.5 -40.5h-8l-145 -680q-17 -80 -68.5 -122t-130.5 -42zM826 0h-16q-80 0 -113 42.5t-16 121.5l175 823q17 80 68 122t130 42h17
q80 0 113 -42.5t16 -121.5l-175 -823q-17 -80 -68.5 -122t-130.5 -42z" />
    <glyph glyph-name="fl" unicode="fl" horiz-adv-x="1220" 
d="M211 0h-16q-80 0 -113 42.5t-16 121.5l145 680h-11q-50 0 -71 42.5t-7 110.5q14 69 53 111.5t89 42.5h12q18 87 43 152.5t68 126.5t101 99.5t144 61.5t197 23q116 0 199 -21.5t131.5 -60t71 -97.5t22.5 -127.5t-19 -156.5l-209 -987q-17 -80 -68.5 -122t-130.5 -42h-16
q-80 0 -113.5 42.5t-16.5 121.5l210 987q25 97 8.5 139.5t-100.5 42.5q-87 0 -121 -37.5t-57 -144.5h12q66 0 93 -41t12 -113q-15 -71 -59.5 -112t-108.5 -41h-14l-145 -680q-17 -80 -68.5 -122t-130.5 -42z" />
    <glyph glyph-name=".notdef" horiz-adv-x="1122" 
d="M979 0h-776v1434h776v-1434zM248 1393v-1348l317 672zM297 1393l293 -625l295 625h-588zM617 717l319 -672v1348zM590 666l-293 -621h588z" />
    <glyph glyph-name=".null" horiz-adv-x="0" 
 />
    <glyph glyph-name="nonmarkingreturn" horiz-adv-x="682" 
 />
    <glyph glyph-name="space" unicode=" " horiz-adv-x="454" 
 />
    <glyph glyph-name="exclam" unicode="!" horiz-adv-x="544" 
d="M262 526q-13 0 -21.5 3t-18 13t-14 31.5t-4.5 55.5l-5 422q-4 131 12 206q18 86 84 137.5t160 51.5q96 0 139.5 -51.5t25.5 -137.5q-16 -74 -78 -215l-180 -413q-28 -64 -50.5 -83.5t-49.5 -19.5zM148 0q-85 0 -132.5 59t-29.5 144t91 145t158 60q86 0 133.5 -60
t29.5 -145t-91 -144t-159 -59z" />
    <glyph glyph-name="quotedbl" unicode="&#x22;" horiz-adv-x="956" 
d="M269 764q-130 0 -109 158l46 354q11 83 61.5 126.5t132.5 43.5h31q82 0 114 -44.5t7 -125.5l-106 -356q-45 -156 -177 -156zM763 764q-63 0 -91.5 40.5t-18.5 117.5l47 354q11 83 61.5 126.5t132.5 43.5h28q82 0 114.5 -44.5t7.5 -125.5l-107 -356q-45 -156 -174 -156z
" />
    <glyph glyph-name="numbersign" unicode="#" horiz-adv-x="1595" 
d="M165 -104q-85 0 -111 48.5t14 133.5l115 241h-16q-65 0 -91 41.5t-11 114.5q16 75 55 115.5t96 40.5h117l89 188h-120q-79 0 -113 40.5t-18 115.5t66.5 115t130.5 40h203l138 285q67 139 212 139q85 0 110 -48t-16 -134l-115 -242h201l136 285q65 139 212 139
q85 0 111.5 -48t-14.5 -134l-117 -242h11q69 0 98 -41t13 -114q-16 -75 -55.5 -115.5t-96.5 -40.5h-118l-90 -188h123q79 0 113 -40.5t18 -115.5t-67 -115.5t-130 -40.5h-207l-134 -282q-66 -141 -212 -141q-85 0 -111 48t15 134l115 241h-201l-136 -284q-65 -139 -212 -139
zM750 819l-89 -188h201l89 188h-201z" />
    <glyph glyph-name="dollar" unicode="$" horiz-adv-x="1099" 
d="M653 1108q-51 0 -85.5 -29.5t-39.5 -72.5q-7 -59 40 -94t140 -63q53 -15 97.5 -37.5t87.5 -59t71.5 -82.5t43 -112t7.5 -144q-14 -166 -122.5 -269.5t-275.5 -133.5l-22 -105q-15 -72 -77 -72q-63 0 -48 70l20 96h-4q-50 0 -96 9l-22 -103q-15 -72 -77 -72q-30 0 -43 18
t-6 52l30 140q-101 44 -166.5 118.5t-71.5 159.5q-7 91 40 142.5t137 51.5h6q37 0 63.5 -6.5t43 -21.5t24 -25.5t19.5 -32.5q22 -43 52.5 -66.5t93.5 -23.5q51 0 90.5 29.5t44.5 74.5q7 58 -39 93t-139 66q-66 22 -120.5 56t-101.5 86.5t-69 130t-12 171.5q18 167 126 266.5
t275 124.5l23 108q15 70 79 70q61 0 46 -72l-21 -98q47 -1 99 -14l25 114q15 70 78 70q61 0 46 -72l-32 -153q85 -41 141.5 -105.5t67.5 -144.5q11 -85 -39.5 -140t-143.5 -55h-10q-39 0 -67 13.5t-38.5 26.5t-26.5 39q-16 25 -29.5 40.5t-43 29t-69.5 13.5z" />
    <glyph glyph-name="percent" unicode="%" horiz-adv-x="2361" 
d="M853 -104q-85 0 -112.5 48t11.5 134l618 1335q68 141 210 141q87 0 114.5 -48t-11.5 -134l-620 -1335q-67 -141 -210 -141zM496 479q-197 0 -293 123.5t-51 331.5l13 63q45 211 165 330t310 119q195 0 291.5 -123.5t53.5 -325.5l-14 -63q-46 -216 -166 -335.5
t-309 -119.5zM530 786q34 0 65 22t42 75l34 159q12 53 -9 75t-57 22q-81 0 -102 -97l-34 -159q-12 -53 7.5 -75t53.5 -22zM1782 0q-197 0 -292.5 123t-50.5 332l14 67q45 211 165 330t309 119q194 0 292 -123.5t55 -325.5l-14 -67q-46 -215 -168 -335t-310 -120zM1817 307
q33 0 63 21.5t41 74.5l35 164q12 53 -8.5 75t-54.5 22t-62.5 -22t-40.5 -75l-35 -164q-12 -53 8 -74.5t54 -21.5z" />
    <glyph glyph-name="ampersand" unicode="&#x26;" horiz-adv-x="1284" 
d="M500 0q-257 0 -375 113.5t-89 322.5q9 63 38 117.5t69.5 91t81.5 60.5t81 36q-147 116 -115 308q30 177 171 287t349 110q163 0 278 -83.5t133 -221.5q11 -80 -36 -127t-139 -47q-69 0 -98 14t-62 58q-16 22 -26 32.5t-31.5 21.5t-49.5 11q-48 0 -88 -26t-52 -81
q-23 -109 86 -118l9 -1q53 -5 69 -45t-1 -110q-16 -75 -46.5 -112.5t-87.5 -42.5l-10 -1q-70 -5 -107 -33.5t-50 -91.5q-7 -35 2.5 -60.5t31 -38t44.5 -18.5t49 -6q31 0 60 7.5t60.5 26t55.5 56.5t35 91l45 215q17 80 68.5 122t130.5 42h135q80 0 113 -42.5t16 -121.5
q-35 -166 -133 -166h-10l-2 -9q-26 -126 -69.5 -220.5t-98 -155t-125.5 -98t-145.5 -52t-164.5 -14.5z" />
    <glyph glyph-name="quotesingle" unicode="'" horiz-adv-x="462" 
d="M269 764q-130 0 -109 158l46 354q11 83 61.5 126.5t132.5 43.5h31q82 0 114 -44.5t7 -125.5l-106 -356q-45 -156 -177 -156z" />
    <glyph glyph-name="parenleft" unicode="(" horiz-adv-x="626" 
d="M246 -88q-101 21 -156.5 86.5t-63 158t14.5 207.5l153 721q47 223 136 321.5t262 131.5q84 17 122 -22t22 -115q-9 -42 -21 -71.5t-28.5 -46t-28 -24t-31.5 -16.5t-30.5 -16t-22.5 -24.5t-18 -43.5l-184 -868q-3 -16 -4 -29t2 -23.5t5.5 -18t10 -16t11 -12t13.5 -12.5
q11 -10 17 -16t13.5 -18t10.5 -24t3 -31t-5 -42q-16 -76 -71 -115t-132 -22z" />
    <glyph glyph-name="parenright" unicode=")" horiz-adv-x="626" 
d="M99 -88q-84 -17 -122.5 22t-22.5 115q8 37 25 64.5t30.5 38.5t38.5 28q20 13 28 19t22.5 20t22.5 31.5t13 40.5l185 868q8 38 -1.5 54.5t-33.5 29.5q-13 7 -19.5 12t-16 17t-12.5 27t-2.5 41.5t7.5 60.5q16 76 70.5 114.5t132.5 22.5q100 -21 156 -86.5t63.5 -158.5
t-14.5 -208l-153 -720q-33 -152 -83 -243.5t-124 -139t-190 -70.5z" />
    <glyph glyph-name="asterisk" unicode="*" horiz-adv-x="1120" 
d="M578 639q-58 0 -83 30.5t-11 86.5l30 123l-127 -70q-116 -64 -157 33q-19 46 3.5 87.5t81.5 69.5l122 58l-98 55q-49 28 -55.5 59.5t31.5 79.5q40 49 86.5 57t92.5 -26l92 -68l21 107q15 76 49 104.5t96 28.5t84 -28.5t4 -104.5l-24 -107l121 68q123 68 162 -35
q19 -47 -3 -88t-82 -69l-122 -56l99 -57q48 -27 51 -68t-36 -86q-37 -45 -78 -47t-86 33l-98 70l-22 -123q-10 -55 -47.5 -86t-96.5 -31z" />
    <glyph glyph-name="plus" unicode="+" horiz-adv-x="1120" 
d="M493 256q-76 0 -108 41.5t-16 116.5l33 155h-153q-79 0 -113 40.5t-18 115.5t66 115.5t127 40.5h157l32 149q17 79 67.5 121.5t125.5 42.5t106.5 -40.5t15.5 -115.5l-33 -157h153q79 0 113 -40.5t18 -115.5t-67 -115.5t-130 -40.5h-154l-31 -149q-17 -79 -66.5 -121.5
t-124.5 -42.5z" />
    <glyph glyph-name="comma" unicode="," horiz-adv-x="561" 
d="M-65 -268q-44 0 -64.5 13.5t-19 55t34.5 113.5l154 340q65 141 210 141h21q92 0 115.5 -52.5t-29.5 -137.5l-214 -346q-45 -74 -92 -100.5t-116 -26.5z" />
    <glyph glyph-name="hyphen" unicode="-" horiz-adv-x="684" 
d="M429 453h-226q-79 0 -114 35t-21 100q13 64 62.5 98.5t129.5 34.5h226q79 0 114 -34t21 -99q-29 -135 -192 -135z" />
    <glyph glyph-name="period" unicode="." horiz-adv-x="544" 
d="M148 0q-85 0 -132.5 59t-29.5 144t91 145t158 60q86 0 133.5 -60t29.5 -145t-91 -144t-159 -59z" />
    <glyph glyph-name="slash" unicode="/" horiz-adv-x="796" 
d="M64 -104h-16q-88 0 -115 48t14 134l637 1335q66 141 212 141h16q88 0 115 -48t-14 -134l-637 -1337q-65 -139 -212 -139z" />
    <glyph glyph-name="zero" unicode="0" 
d="M482 0q-107 0 -194.5 36.5t-143 102.5t-77.5 157.5t2 201.5l96 448q48 226 197 363t360 137q216 0 337 -141.5t75 -358.5l-96 -448q-47 -223 -197 -360.5t-359 -137.5zM523 348q119 0 148 137l101 473q18 84 -9.5 112t-80.5 28q-54 0 -93 -28t-57 -112l-101 -473
q-17 -82 12 -109.5t80 -27.5z" />
    <glyph glyph-name="one" unicode="1" horiz-adv-x="720" 
d="M142 164l169 796h-14q-75 0 -105 34.5t-14 109.5l2 12q10 49 39 85t85 71q83 52 139 100q32 27 48.5 39t48 23.5t67.5 11.5h8q80 0 113 -42.5t16 -121.5l-238 -1118q-17 -80 -68 -122t-130 -42h-37q-80 0 -113 42.5t-16 121.5z" />
    <glyph glyph-name="two" unicode="2" horiz-adv-x="1103" 
d="M723 0h-610q-79 0 -113.5 36.5t-20.5 104.5l30 142q16 76 52 143.5t78.5 115t102.5 92.5t109 73t114 60q19 9 66 31.5t65 32t50.5 29.5t47.5 36t30 40.5t21 52.5q11 51 -15.5 83t-78.5 32q-28 0 -55.5 -12t-42 -23t-42.5 -36t-45.5 -38t-49.5 -26t-67 -13h-26
q-90 0 -118 48t7 137q54 137 190 221t303 84q210 0 317.5 -125.5t80.5 -327.5q-8 -57 -29 -108.5t-45.5 -89.5t-66.5 -76t-73 -61.5t-84.5 -53t-82 -43t-84.5 -39.5l-3 -1.5l-3 -1.5t-3.5 -1.5t-3.5 -1.5q-48 -22 -69.5 -32.5t-56.5 -30t-51.5 -33t-32 -33t-19.5 -39.5h401
q80 0 113.5 -42.5t16.5 -121.5l-5 -20q-17 -80 -68.5 -122t-130.5 -42z" />
    <glyph glyph-name="three" unicode="3" horiz-adv-x="1093" 
d="M453 0q-173 0 -291 93t-134 229q-10 86 34.5 140t126.5 54h22q15 0 27.5 -2t24 -8.5t18.5 -10.5t17.5 -15.5t14 -15.5t14 -18.5t12.5 -17.5q58 -78 154 -78q54 0 92 26.5t48 76.5q12 58 -17.5 86t-111.5 28h-12q-66 0 -93 40.5t-11 115.5q15 72 60.5 114t109.5 42h12
q134 0 159 120q10 50 -15.5 77.5t-78.5 27.5q-29 0 -59 -13.5t-46.5 -26t-47.5 -39.5q-32 -28 -47 -40t-44 -25.5t-56 -13.5h-47q-81 0 -110.5 55t4.5 140q53 135 187.5 220t313.5 85q208 0 325.5 -106t91.5 -283q-16 -111 -84 -197t-163 -119q84 -32 120.5 -111.5
t21.5 -189.5q-27 -204 -174.5 -322t-367.5 -118z" />
    <glyph glyph-name="four" unicode="4" horiz-adv-x="1136" 
d="M1094 1282l-143 -676h8q62 0 87 -41.5t10 -109.5l-5 -23q-16 -73 -58 -114.5t-103 -41.5h-9l-24 -112q-17 -80 -68.5 -122t-130.5 -42h-23q-79 0 -113.5 35.5t-20.5 103.5l30 140h-385q-80 0 -113 42t-16 121l12 56q12 59 36 104.5t68 97.5l554 639q48 57 100.5 82
t118.5 25h59q80 0 113 -42.5t16 -121.5zM676 963l-304 -355h229z" />
    <glyph glyph-name="five" unicode="5" horiz-adv-x="1130" 
d="M463 0q-114 0 -207 38t-150 113t-57 173q1 81 51.5 127.5t134.5 46.5h25q54 0 80.5 -19.5t47.5 -55.5q15 -25 25 -37.5t36 -25t64 -12.5q118 0 148 139l9 41q16 76 -10.5 105t-82.5 29q-41 0 -109 -28q-23 -10 -34 -14t-35 -10.5t-37.5 -4.5t-42.5 5l-55 13
q-71 15 -94.5 65t6.5 127l191 483q59 148 207 148h426q80 0 113 -42.5t16 -121.5l-4 -20q-17 -80 -68.5 -122t-130.5 -42h-280l-81 -189q62 37 163 37q174 0 256.5 -102.5t48.5 -315.5l-6 -41q-36 -222 -187 -354.5t-377 -132.5z" />
    <glyph glyph-name="six" unicode="6" horiz-adv-x="1099" 
d="M449 0q-217 0 -331.5 140t-68.5 358l11 53q44 203 202 430l239 344q83 121 217 121h38q95 0 117 -55t-39 -140l-169 -237h14q202 -4 298.5 -132t50.5 -343l-12 -60q-47 -223 -195.5 -351t-371.5 -128zM503 348q119 0 148 137l17 84q18 84 -9 112t-80 28q-54 0 -93 -28
t-57 -112l-18 -84q-10 -37 -5.5 -61.5t11.5 -39.5t23.5 -23t30.5 -10.5t32 -2.5z" />
    <glyph glyph-name="seven" unicode="7" horiz-adv-x="966" 
d="M265 0h-49q-84 0 -108 49t18 135l456 912h-242q-80 0 -113 42.5t-16 121.5l5 22q17 80 68 122t130 42h523q88 0 114.5 -49t-16.5 -135l-558 -1123q-69 -139 -212 -139z" />
    <glyph glyph-name="eight" unicode="8" horiz-adv-x="1120" 
d="M459 0q-221 0 -338 107.5t-92 295.5q14 108 81.5 187t166.5 125q-131 126 -87 336q39 185 182.5 290t353.5 105q137 0 236 -48.5t144.5 -141t22.5 -214.5q-43 -224 -229 -327q149 -98 118 -312q-28 -193 -182 -298t-377 -105zM622 862h3q112 2 139 129q16 73 -4 105
t-81 32q-62 0 -96 -32t-50 -105q-9 -34 -5 -57.5t11 -37.5t22.5 -21.5t29 -10t31.5 -2.5zM505 313q66 0 100.5 35t50.5 107q17 78 -9.5 104t-79.5 27h-4q-26 0 -45.5 -4t-41.5 -16.5t-38 -40t-25 -70.5q-16 -76 5 -109t87 -33z" />
    <glyph glyph-name="nine" unicode="9" horiz-adv-x="1099" 
d="M447 2h-39q-95 0 -116.5 55t39.5 140l169 237h-15q-202 4 -298.5 132t-50.5 343l13 60q47 223 195 351t371 128q217 0 332 -140t69 -358l-12 -53q-44 -203 -202 -430l-239 -344q-84 -121 -216 -121zM585 739q54 0 93.5 28t57.5 112l18 84q10 37 5.5 61.5t-11.5 39.5
t-23.5 23t-30.5 10.5t-32 2.5q-119 0 -148 -137l-18 -84q-18 -84 9 -112t80 -28z" />
    <glyph glyph-name="colon" unicode=":" horiz-adv-x="544" 
d="M306 743q-85 0 -132.5 59t-29.5 144t91 145t158 60q86 0 133.5 -60t29.5 -145t-91 -144t-159 -59zM148 0q-85 0 -132.5 59t-29.5 144t91 145t158 60q86 0 133.5 -60t29.5 -145t-91 -144t-159 -59z" />
    <glyph glyph-name="semicolon" unicode=";" horiz-adv-x="581" 
d="M327 743q-85 0 -132.5 59t-29.5 144t90.5 145t157.5 60q86 0 133.5 -60t29.5 -145t-90.5 -144t-158.5 -59zM-65 -268q-44 0 -64.5 13.5t-19 55t34.5 113.5l154 340q65 141 210 141h21q92 0 115.5 -52.5t-29.5 -137.5l-214 -346q-45 -74 -92 -100.5t-116 -26.5z" />
    <glyph glyph-name="less" unicode="&#x3c;" horiz-adv-x="907" 
d="M557 217l-383 156q-121 49 -91 188l11 53q30 140 171 189l449 155q91 32 136.5 1t28.5 -113q-30 -146 -178 -187l-299 -81l266 -72q130 -35 100 -180q-18 -87 -75 -115t-136 6z" />
    <glyph glyph-name="equal" unicode="=" horiz-adv-x="1038" 
d="M840 819h-538q-79 0 -113 40.5t-18 115.5t66.5 115t130.5 40h538q79 0 113 -40t18 -115t-67 -115.5t-130 -40.5zM734 319h-539q-79 0 -112.5 40.5t-17.5 115.5t67 115.5t130 40.5h538q79 0 113 -40.5t18 -115.5t-67 -115.5t-130 -40.5z" />
    <glyph glyph-name="greater" unicode="&#x3e;" horiz-adv-x="907" 
d="M211 516l299 84l-266 70q-131 34 -101 176q17 82 76 113t137 -1l383 -155q121 -49 91 -189l-12 -53q-30 -139 -171 -188l-449 -156q-93 -34 -138 -6t-27 115q31 148 178 190z" />
    <glyph glyph-name="question" unicode="?" horiz-adv-x="1011" 
d="M400 500q-35 0 -53.5 34.5t-5.5 94.5q8 37 26.5 68.5t53 61t55.5 44.5t67 44q37 23 55.5 36t43.5 34t38.5 41.5t18.5 44.5q10 47 -14 79t-73 32q-28 0 -56.5 -11.5t-45.5 -23t-46 -35.5q-32 -25 -51 -38t-52 -26t-67 -13h-22q-84 0 -108 48.5t11 125.5q53 125 184.5 215
t294.5 90q207 0 321 -112.5t93 -282.5q-6 -48 -21 -89t-33.5 -72t-48 -59t-54 -46.5t-62 -38.5t-62 -31.5t-63.5 -28.5q-9 -4 -14 -6q-79 -35 -126 -62.5t-103 -76.5q-25 -23 -41.5 -32t-39.5 -9zM310 0q-85 0 -133.5 59.5t-30.5 143.5q18 85 91.5 145t158.5 60
q86 0 133 -60t29 -145t-90 -144t-158 -59z" />
    <glyph glyph-name="at" unicode="@" horiz-adv-x="1501" 
d="M941 1565q146 0 260 -38.5t191.5 -116.5t103 -197t-6.5 -279l-71 -333q-14 -68 -38 -120.5t-51 -87.5t-65.5 -60t-72.5 -38t-83.5 -20.5t-86.5 -9t-92 -1.5q-66 0 -102 18.5t-44 47.5q-65 -78 -182 -78q-105 0 -148 64.5t-12 213.5l80 377q32 151 103 216t176 65
q127 0 148 -71q36 61 116 61q124 0 88 -164l-115 -541q67 0 92 24.5t42 104.5l70 332q14 78 15.5 138t-16 104.5t-45 75.5t-71 49.5t-94 27t-114.5 8.5q-422 0 -512 -424l-82 -385q-23 -101 -21 -177t36 -126.5t115.5 -76t217.5 -25.5h348q32 0 53 -13.5t27.5 -33t8.5 -40.5
t-3 -36q-9 -42 -43 -82.5t-95 -40.5h-299q-133 0 -237.5 24t-174 68t-115 103t-65 133t-19 153.5t19.5 169.5l82 385q67 314 277.5 483t505.5 169zM808 543l75 354q7 36 -7.5 52t-37.5 16q-61 0 -75 -68l-76 -354q-15 -68 47 -68q59 0 74 68z" />
    <glyph glyph-name="A" unicode="A" horiz-adv-x="1144" 
d="M105 0h-35q-88 0 -115 48.5t13 133.5l531 1123q66 141 212 141h99q146 0 152 -141l48 -1123q3 -86 -43 -134t-131 -48h-29q-148 0 -149 143l-2 101h-296l-44 -101q-62 -143 -211 -143zM673 1006l-179 -449h162z" />
    <glyph glyph-name="B" unicode="B" horiz-adv-x="1144" 
d="M513 0h-342q-80 0 -113 42.5t-16 121.5l237 1118q17 80 68.5 122t130.5 42h246q145 0 252.5 -46.5t159.5 -141t25 -222.5l-4 -20q-43 -204 -218 -291q150 -93 105 -305l-4 -19q-42 -196 -177.5 -298.5t-349.5 -102.5zM603 1098l-51 -238h74q135 0 156 101l8 36
q7 31 -0.5 52.5t-26.5 31.5t-39.5 13.5t-47.5 3.5h-73zM493 582l-51 -238h88q136 0 157 100l8 37q7 32 0 53.5t-26.5 31t-39.5 13t-48 3.5h-88z" />
    <glyph glyph-name="C" unicode="C" horiz-adv-x="1120" 
d="M490 0q-219 0 -342.5 141.5t-77.5 358.5l95 448q48 225 193.5 361.5t356.5 136.5q210 0 331.5 -116.5t98.5 -282.5q-10 -79 -59.5 -121.5t-129.5 -42.5h-37q-38 0 -64 7.5t-39 16.5t-20 27.5t-8 30t-1 34.5q0 24 -2.5 37.5t-12 30t-32 24t-58.5 7.5q-121 0 -150 -137
l-100 -474q-10 -37 -6 -62.5t10 -40.5t22.5 -23t30.5 -10.5t34 -2.5q36 0 61.5 8t42.5 27t25 33.5t20 41.5q10 25 16.5 38t21.5 32.5t32.5 29.5t46.5 18t67 8h35q84 0 112 -50.5t4 -134.5t-68 -154.5t-107 -126t-150.5 -87t-191.5 -31.5z" />
    <glyph glyph-name="D" unicode="D" horiz-adv-x="1185" 
d="M533 0h-362q-80 0 -113 42.5t-16 121.5l237 1118q17 80 68.5 122t130.5 42h280q108 0 194.5 -35.5t144.5 -104.5t77.5 -170.5t-7.5 -232.5l-78 -368q-55 -260 -198.5 -397.5t-357.5 -137.5zM605 1098l-161 -754h76q168 0 209 195l77 362q7 44 9 75.5t-8 53t-21 35
t-30.5 21t-36.5 10t-39 2.5h-75z" />
    <glyph glyph-name="E" unicode="E" horiz-adv-x="1007" 
d="M656 0h-485q-80 0 -113 42.5t-16 121.5l237 1118q17 80 68.5 122t130.5 42h485q80 0 113 -42.5t16 -121.5l-5 -22q-17 -80 -68 -122t-130 -42h-287l-47 -222h178q80 0 113.5 -40.5t17.5 -116.5q-17 -77 -68 -117.5t-130 -40.5h-178l-45 -211h287q80 0 113 -42.5
t16 -121.5l-4 -20q-17 -80 -68.5 -122t-130.5 -42z" />
    <glyph glyph-name="F" unicode="F" horiz-adv-x="966" 
d="M205 0h-34q-80 0 -113 42.5t-16 121.5l237 1118q17 80 68.5 122t130.5 42h452q80 0 113 -42.5t16 -121.5l-4 -22q-17 -80 -68.5 -122t-130.5 -42h-254l-47 -222h154q80 0 113 -40.5t17 -116.5q-17 -77 -66 -117.5t-125 -40.5h-160l-84 -395q-17 -80 -68.5 -122
t-130.5 -42z" />
    <glyph glyph-name="G" unicode="G" horiz-adv-x="1140" 
d="M488 0q-106 0 -194.5 36.5t-145 102.5t-80 157.5t0.5 201.5l96 448q48 226 193.5 363t354.5 137q167 0 288.5 -85.5t139.5 -225.5q10 -80 -44 -128.5t-141 -48.5h-35q-43 0 -72 6.5t-44.5 20t-21 24t-12.5 29.5q-7 20 -13 30.5t-26 20t-52 9.5q-54 0 -92 -28t-56 -112
l-101 -473q-10 -37 -5.5 -61.5t11.5 -39.5t23.5 -23t30 -10.5t30.5 -2.5q119 0 148 137l2 11h-3q-135 0 -101 157q17 77 68 117.5t130 40.5h174q79 0 113 -40.5t18 -115.5l-34 -157q-48 -225 -193.5 -361.5t-354.5 -136.5z" />
    <glyph glyph-name="H" unicode="H" horiz-adv-x="1212" 
d="M207 0h-36q-80 0 -113 42.5t-16 121.5l237 1118q17 80 68.5 122t130.5 42h37q80 0 113 -42.5t16 -121.5l-87 -408h225l87 408q17 80 68.5 122t130.5 42h37q80 0 113 -42.5t16 -121.5l-238 -1118q-17 -80 -68.5 -122t-130.5 -42h-37q-80 0 -113 42.5t-16 121.5l84 395
h-225l-84 -395q-17 -80 -68.5 -122t-130.5 -42z" />
    <glyph glyph-name="I" unicode="I" horiz-adv-x="620" 
d="M205 0h-34q-80 0 -113 42.5t-16 121.5l237 1118q17 80 68.5 122t130.5 42h35q80 0 113 -42.5t16 -121.5l-238 -1118q-17 -80 -68.5 -122t-130.5 -42z" />
    <glyph glyph-name="J" unicode="J" horiz-adv-x="1120" 
d="M449 0q-210 0 -331 116.5t-98 282.5q11 83 61 134t134 51h35q31 0 54 -4.5t37 -14.5t22.5 -19.5t11.5 -26.5t4 -28t1 -31q0 -23 0.5 -34t5.5 -29t15.5 -26.5t30.5 -15.5t50 -7q119 0 148 137l169 797q17 80 68.5 122t130.5 42h37q80 0 113 -42.5t16 -121.5l-167 -784
q-48 -225 -193.5 -361.5t-354.5 -136.5z" />
    <glyph glyph-name="K" unicode="K" horiz-adv-x="1173" 
d="M207 0h-37q-80 0 -113 42.5t-16 121.5l238 1118q17 80 68.5 122t130.5 42h37q80 0 113 -42.5t16 -121.5l-87 -408h78l230 437q72 135 213 135h55q91 0 116.5 -52t-23.5 -137l-307 -532l80 -537q13 -85 -34.5 -136.5t-136.5 -51.5h-57q-143 0 -156 135l-47 424h-78
l-84 -395q-17 -80 -68.5 -122t-130.5 -42z" />
    <glyph glyph-name="L" unicode="L" horiz-adv-x="917" 
d="M607 0h-436q-80 0 -113 42.5t-16 121.5l237 1118q17 80 68.5 122t130.5 42h37q80 0 113 -42.5t16 -121.5l-199 -934h236q80 0 113 -42.5t16 -121.5l-5 -20q-17 -80 -68 -122t-130 -42z" />
    <glyph glyph-name="M" unicode="M" horiz-adv-x="1464" 
d="M205 0h-34q-80 0 -113 42.5t-16 121.5l237 1118q17 80 68.5 122t130.5 42h51q141 0 158 -133l76 -570l315 570q74 133 215 133h63q80 0 113 -42.5t16 -121.5l-237 -1118q-17 -80 -68.5 -122t-130.5 -42h-35q-80 0 -113 42.5t-16 121.5l107 504l-137 -242
q-40 -70 -82.5 -102.5t-101.5 -32.5t-88 32.5t-39 102.5l-34 236l-106 -498q-17 -80 -68.5 -122t-130.5 -42z" />
    <glyph glyph-name="N" unicode="N" horiz-adv-x="1230" 
d="M207 0h-36q-80 0 -113 42.5t-16 121.5l237 1118q17 80 68.5 122t130.5 42h43q144 0 163 -127l89 -589l114 552q16 80 67.5 122t131.5 42h37q80 0 113 -42.5t16 -121.5l-238 -1118q-17 -80 -68 -122t-130 -42h-43q-142 0 -164 127l-94 551l-109 -514q-17 -80 -68.5 -122
t-130.5 -42z" />
    <glyph glyph-name="O" unicode="O" 
d="M490 0q-107 0 -195.5 36.5t-145.5 102.5t-80.5 157.5t0.5 201.5l96 448q48 227 193.5 363.5t356.5 136.5q105 0 193.5 -36.5t145.5 -102.5t80.5 -158t-0.5 -203l-96 -448q-47 -224 -193.5 -361t-354.5 -137zM523 348q119 0 148 137l101 473q18 84 -9.5 112t-80.5 28
q-54 0 -93 -28t-57 -112l-101 -473q-17 -82 12 -109.5t80 -27.5z" />
    <glyph glyph-name="P" unicode="P" horiz-adv-x="1157" 
d="M207 0h-36q-80 0 -113 42.5t-16 121.5l237 1118q17 80 68.5 122t130.5 42h274q107 0 193.5 -35.5t144 -104.5t77 -170.5t-7.5 -232.5l-12 -59q-55 -261 -198 -398t-356 -137h-156l-31 -145q-17 -80 -68.5 -122t-130.5 -42zM605 1098l-95 -445h68q170 0 211 195l11 53
q7 44 9 75.5t-8 53t-21.5 35t-31.5 21t-37 10t-39 2.5h-67z" />
    <glyph glyph-name="Q" unicode="Q" 
d="M557 -285h-33q-134 0 -170 119l-48 160q-156 47 -218.5 170.5t-24.5 300.5l102 481q48 226 194 363t356 137q218 0 341.5 -141.5t77.5 -358.5l-103 -481q-37 -176 -129 -297t-244 -166l35 -90q39 -102 -3.5 -149.5t-132.5 -47.5zM516 315q119 0 148 138l108 505
q18 84 -9.5 112t-80.5 28q-54 0 -93 -28t-57 -112l-108 -505q-10 -37 -5.5 -62t12 -40t23.5 -23t30 -10.5t32 -2.5z" />
    <glyph glyph-name="R" unicode="R" horiz-adv-x="1157" 
d="M207 0h-36q-80 0 -113 42.5t-16 121.5l237 1118q17 80 68.5 122t130.5 42h272q108 0 194.5 -35.5t144.5 -104.5t77.5 -170.5t-7.5 -232.5l-8 -39q-58 -277 -247 -420l53 -254q17 -85 -26.5 -137.5t-131.5 -52.5h-57q-142 0 -158 133l-24 197h-119l-35 -166
q-17 -80 -68.5 -122t-130.5 -42zM605 1098l-91 -424h68q25 0 46 3.5t47.5 15t47 31.5t39 57t29.5 87l7 33q7 44 9 75.5t-8 53t-21 35t-30.5 21t-36.5 10t-39 2.5h-67z" />
    <glyph glyph-name="S" unicode="S" horiz-adv-x="1099" 
d="M486 0q-172 0 -307 96.5t-145 225.5q-7 91 40 142.5t137 51.5h6q37 0 63.5 -6.5t43 -21.5t24 -25.5t19.5 -32.5q22 -43 52.5 -66.5t93.5 -23.5q51 0 90.5 29.5t44.5 74.5q7 58 -39 93t-139 66q-66 22 -120.5 56t-101.5 86.5t-69 130t-12 171.5q22 194 162.5 296.5
t349.5 102.5q96 0 191.5 -36t166.5 -107.5t83 -161.5q11 -85 -39.5 -140t-143.5 -55h-10q-39 0 -67 13.5t-38.5 26.5t-26.5 39q-16 25 -29.5 40.5t-43 29t-69.5 13.5q-51 0 -85.5 -29.5t-39.5 -72.5q-7 -59 40 -94t140 -63q53 -15 97.5 -37.5t87.5 -59t71.5 -82.5t43 -112
t7.5 -144q-12 -133 -87 -228.5t-188.5 -140.5t-253.5 -45z" />
    <glyph glyph-name="T" unicode="T" horiz-adv-x="933" 
d="M363 0h-39q-80 0 -113 42.5t-16 121.5l198 932h-84q-80 0 -113 42.5t-16 121.5l5 22q17 80 68.5 122t130.5 42h534q80 0 113 -42.5t16 -121.5l-5 -22q-36 -164 -157 -164h-125l-198 -932q-17 -80 -68.5 -122t-130.5 -42z" />
    <glyph glyph-name="U" unicode="U" horiz-adv-x="1183" 
d="M502 0q-107 0 -194 36.5t-142 102.5t-76.5 157.5t2.5 201.5l167 784q17 80 68 122t130 42h35q80 0 113 -42.5t16 -121.5l-169 -797q-17 -82 12 -109.5t80 -27.5q119 0 148 137l169 797q17 80 68.5 122t130.5 42h36q80 0 113 -42.5t16 -121.5l-166 -784
q-47 -223 -197.5 -360.5t-359.5 -137.5z" />
    <glyph glyph-name="V" unicode="V" horiz-adv-x="1060" 
d="M451 0h-92q-147 0 -150 143l-17 1123q-1 85 46.5 132.5t132.5 47.5h25q74 0 112 -37.5t35 -110.5l-31 -761l293 761q57 148 207 148h39q86 0 114 -47.5t-9 -132.5l-494 -1123q-64 -143 -211 -143z" />
    <glyph glyph-name="W" unicode="W" horiz-adv-x="1654" 
d="M414 0h-75q-148 0 -148 145l-1 1121q-1 84 47.5 132t133.5 48h27q151 0 145 -148l-28 -700l272 700q57 148 207 148h25q150 0 144 -148l-28 -700l272 700q57 148 207 148h37q86 0 115 -47.5t-8 -132.5l-477 -1121q-61 -145 -209 -145h-76q-151 0 -145 147l27 668
l-256 -668q-57 -147 -208 -147z" />
    <glyph glyph-name="X" unicode="X" horiz-adv-x="1110" 
d="M152 0h-55q-94 0 -117.5 54t35.5 139l384 552l-136 508q-23 85 16 139t125 54h43q139 0 164 -125l43 -217l133 215q78 127 217 127h51q94 0 117.5 -54t-35.5 -139l-351 -508l146 -552q22 -85 -17.5 -139t-123.5 -54h-37q-136 0 -163 127l-58 262l-164 -264
q-78 -125 -217 -125z" />
    <glyph glyph-name="Y" unicode="Y" horiz-adv-x="1101" 
d="M447 0h-37q-80 0 -113 42.5t-16 121.5l72 340l-130 753q-14 85 28 137t126 52h35q144 0 158 -133l42 -383l216 383q76 133 215 133h37q91 0 115 -52t-26 -137l-451 -753l-72 -340q-17 -80 -68.5 -122t-130.5 -42z" />
    <glyph glyph-name="Z" unicode="Z" horiz-adv-x="946" 
d="M603 0h-502q-90 0 -114 51t23 137l494 908h-154q-80 0 -113 42.5t-16 121.5l5 22q17 80 68.5 122t130.5 42h450q90 0 114.5 -52t-23.5 -137l-502 -909h213q80 0 113 -42.5t16 -121.5l-5 -20q-17 -80 -68 -122t-130 -42z" />
    <glyph glyph-name="bracketleft" unicode="[" horiz-adv-x="708" 
d="M335 -104h-187q-80 0 -113 42t-16 121l283 1332q17 79 68 121t131 42h186q87 0 117 -38.5t14 -114.5q-33 -154 -176 -154h-26l-222 -1044h26q144 0 111 -154q-16 -76 -62.5 -114.5t-133.5 -38.5z" />
    <glyph glyph-name="backslash" unicode="\" horiz-adv-x="796" 
d="M453 -104h-10q-146 0 -152 141l-68 1335q-4 86 39.5 134t125.5 48h8q146 0 153 -139l68 -1337q4 -86 -39 -134t-125 -48z" />
    <glyph glyph-name="bracketright" unicode="]" horiz-adv-x="708" 
d="M273 -104h-186q-87 0 -117 38.5t-14 114.5q33 154 176 154h26l222 1044h-26q-144 0 -111 154q16 76 62.5 114.5t133.5 38.5h187q80 0 113 -42t16 -121l-283 -1332q-17 -79 -68 -121t-131 -42z" />
    <glyph glyph-name="asciicircum" unicode="^" horiz-adv-x="1021" 
d="M654 858l-21 277l-135 -277q-67 -139 -218 -139q-83 0 -102.5 51.5t30.5 136.5l245 410q75 129 215 129h56q140 0 161 -129l70 -410q15 -90 -23 -139t-131 -49q-71 0 -106.5 34.5t-40.5 104.5z" />
    <glyph glyph-name="underscore" unicode="_" horiz-adv-x="1075" 
d="M642 -383h-616q-79 0 -114.5 34t-21.5 99q14 66 63.5 100.5t129.5 34.5h616q79 0 114 -35t21 -100q-13 -64 -62.5 -98.5t-129.5 -34.5z" />
    <glyph glyph-name="grave" unicode="`" 
d="M713 1186h-2q-68 0 -103.5 20.5t-66.5 83.5l-29 58q-40 78 -9.5 118t137.5 41h9q88 0 127 -31t48 -100l4 -28q13 -89 -17.5 -125.5t-97.5 -36.5z" />
    <glyph glyph-name="a" unicode="a" horiz-adv-x="1052" 
d="M905 1151q78 0 111 -42.5t16 -121.5l-176 -825q-17 -80 -67.5 -122t-128.5 -42q-133 0 -133 115q-26 -43 -87.5 -79t-152.5 -36q-334 0 -252 385l81 383q46 214 137 299.5t238 85.5q95 0 155.5 -38.5t74.5 -80.5q47 119 184 119zM563 399l74 351q11 53 -10.5 74.5
t-57.5 21.5q-87 0 -108 -96l-75 -351q-11 -53 10.5 -74.5t57.5 -21.5q88 0 109 96z" />
    <glyph glyph-name="b" unicode="b" horiz-adv-x="1052" 
d="M765 1151q335 0 253 -383l-82 -383q-46 -214 -136.5 -299.5t-237.5 -85.5q-95 0 -156 38.5t-75 80.5q-47 -119 -183 -119q-78 0 -111 42.5t-16 121.5l261 1227q17 80 68 121.5t130 41.5h17q80 0 113 -42t16 -121l-72 -336q35 36 89.5 66t121.5 30zM592 401l74 351
q12 53 -9.5 74.5t-57.5 21.5q-88 0 -109 -96l-74 -351q-12 -53 9.5 -74.5t57.5 -21.5q88 0 109 96z" />
    <glyph glyph-name="c" unicode="c" horiz-adv-x="987" 
d="M422 0q-208 0 -312 122.5t-61 326.5l52 247q46 216 172 335.5t327 119.5q184 0 289 -102.5t84 -249.5q-11 -71 -53 -107.5t-112 -36.5h-31q-41 0 -66 8t-35.5 24.5t-13.5 30t-3 36.5q-1 23 -2.5 34.5t-9.5 27t-27.5 22t-52.5 6.5q-88 0 -108 -94l-74 -347
q-11 -53 10.5 -74.5t57.5 -21.5q42 0 69 14t37 28.5t23 43.5q11 26 18.5 38.5t25.5 30.5t46.5 26t70.5 8h31q70 0 97 -36.5t7 -107.5q-42 -155 -160 -253.5t-296 -98.5z" />
    <glyph glyph-name="d" unicode="d" horiz-adv-x="1052" 
d="M972 1554h16q80 0 113 -42t16 -121l-260 -1227q-17 -79 -68 -121.5t-129 -42.5q-133 0 -133 115q-26 -43 -87.5 -79t-152.5 -36q-334 0 -252 385l82 383q23 110 60 185.5t86.5 118.5t106.5 61t129 18q124 0 203 -96l71 336q17 79 68 121t131 42zM563 401l75 351
q11 53 -10.5 74.5t-57.5 21.5q-88 0 -109 -96l-74 -351q-11 -53 10.5 -74.5t57.5 -21.5q87 0 108 96z" />
    <glyph glyph-name="e" unicode="e" horiz-adv-x="1011" 
d="M408 0q-206 0 -304 122t-55 327l52 247q46 215 177.5 335t333.5 120q208 0 307 -117t55 -325l-15 -74q-17 -80 -68.5 -122t-130.5 -42h-360l-22 -100q-11 -50 11 -70t58 -20q33 0 58 8.5t36.5 18t28.5 27.5q20 21 32.5 31t44.5 20.5t75 10.5h31q70 0 100 -22.5t16 -65.5
q-38 -131 -160 -220t-301 -89zM464 774l-14 -67h178l14 67q20 94 -70 94q-88 0 -108 -94z" />
    <glyph glyph-name="f" unicode="f" horiz-adv-x="712" 
d="M211 0h-16q-80 0 -113 42.5t-16 121.5l145 682h-5q-57 0 -77 39.5t-6 103.5l3 15q13 63 51.5 103t92.5 40h5q46 218 142.5 312.5t292.5 94.5q83 0 116.5 -36t17.5 -113q-7 -32 -18.5 -54.5t-30.5 -37.5t-31.5 -21.5t-37.5 -17.5q-54 -22 -74.5 -46.5t-31.5 -78.5h34
q71 0 100.5 -37.5t14.5 -107.5l-3 -15q-15 -70 -60.5 -107.5t-116.5 -37.5h-34l-145 -680q-17 -80 -68.5 -122t-130.5 -42z" />
    <glyph glyph-name="g" unicode="g" horiz-adv-x="1052" 
d="M907 1151q78 0 111 -42.5t16 -121.5l-207 -975q-46 -219 -163 -337.5t-328 -118.5q-207 0 -305.5 88.5t-85.5 220.5q9 88 154 88h31q43 0 70 -10t35.5 -20.5t19.5 -30.5q10 -19 17 -28t28 -18.5t55 -9.5q37 0 67.5 20t41.5 70l36 170q-18 -18 -31.5 -30t-40.5 -29.5
t-62.5 -27t-76.5 -9.5q-334 0 -252 383l81 383q46 214 137 299.5t238 85.5q95 0 155.5 -38.5t74.5 -80.5q47 119 184 119zM565 399l74 351q12 53 -9.5 74.5t-57.5 21.5q-88 0 -109 -96l-74 -351q-12 -53 9.5 -74.5t57.5 -21.5q88 0 109 96z" />
    <glyph glyph-name="h" unicode="h" horiz-adv-x="1062" 
d="M166 0h-16q-80 0 -113 42.5t-16 121.5l261 1227q17 80 68 121.5t130 41.5h17q80 0 113 -42t16 -121l-72 -340q37 50 103.5 82t134.5 32q40 0 74 -7.5t66.5 -24.5t54.5 -48t35.5 -74t12.5 -106t-18 -141l-128 -600q-17 -80 -68 -122t-130 -42h-21q-80 0 -113 42.5
t-16 121.5l124 584q12 53 -9.5 74.5t-57.5 21.5q-88 0 -109 -96l-124 -584q-17 -80 -68.5 -122t-130.5 -42z" />
    <glyph glyph-name="i" unicode="i" horiz-adv-x="565" 
d="M427 1264q-85 0 -132.5 59t-29.5 143q18 85 90.5 145t157.5 60q86 0 134 -60t30 -145t-91 -143.5t-159 -58.5zM166 0h-16q-80 0 -113 42.5t-16 121.5l175 823q17 80 68.5 122t130.5 42h16q80 0 113 -42.5t16 -121.5l-175 -823q-17 -80 -68.5 -122t-130.5 -42z" />
    <glyph glyph-name="j" unicode="j" horiz-adv-x="569" 
d="M431 1264q-85 0 -132.5 59t-29.5 143q18 85 91 145t158 60q86 0 133.5 -60t29.5 -145t-91 -143.5t-159 -58.5zM6 -399q-90 -21 -143.5 19t-35.5 122q7 33 22.5 58.5t27.5 36.5t35 28q20 15 30 24.5t22.5 28.5t17.5 43l218 1026q17 80 68.5 122t130.5 42h16
q80 0 113 -42.5t16 -121.5l-202 -952q-41 -193 -120.5 -297.5t-215.5 -136.5z" />
    <glyph glyph-name="k" unicode="k" horiz-adv-x="1056" 
d="M506 430h-82l-57 -266q-17 -80 -68 -122t-130 -42h-19q-80 0 -113 42.5t-16 121.5l261 1227q17 80 68 121.5t130 41.5h19q80 0 113 -42t16 -121l-144 -678h65l154 301q70 137 214 137h51q90 0 113.5 -51t-24.5 -137l-231 -422l58 -353q14 -85 -29 -136.5t-129 -51.5h-37
q-142 0 -155 137z" />
    <glyph glyph-name="l" unicode="l" horiz-adv-x="565" 
d="M171 0h-21q-80 0 -113 42.5t-16 121.5l261 1227q17 80 68 121.5t130 41.5h21q80 0 113 -42t16 -121l-261 -1227q-17 -80 -68 -122t-130 -42z" />
    <glyph glyph-name="m" unicode="m" horiz-adv-x="1554" 
d="M1265 1151q324 0 239 -399l-125 -588q-17 -80 -68.5 -122t-130.5 -42h-20q-80 0 -113 42.5t-16 121.5l124 584q21 96 -60 96q-31 0 -59 -22.5t-39 -73.5l-124 -584q-17 -80 -68.5 -122t-130.5 -42h-20q-80 0 -113 42.5t-16 121.5l124 584q21 96 -59 96t-101 -96
l-124 -584q-17 -80 -68 -122t-130 -42h-17q-80 0 -113 42.5t-16 121.5l175 823q17 79 68 121.5t129 42.5q135 0 132 -119q25 45 85.5 82t144.5 37q192 0 242 -133q16 19 28 31.5t38 34t52 34.5t66 23t84 10z" />
    <glyph glyph-name="n" unicode="n" horiz-adv-x="1062" 
d="M765 1151q335 0 252 -387l-128 -600q-17 -80 -68 -122t-130 -42h-21q-80 0 -113 42.5t-16 121.5l124 584q12 53 -9.5 74.5t-57.5 21.5q-88 0 -109 -96l-124 -584q-17 -80 -68.5 -122t-130.5 -42h-16q-80 0 -113 42.5t-16 121.5l175 823q17 79 68 121.5t129 42.5
q67 0 100.5 -31t31.5 -90q29 44 92.5 82.5t147.5 38.5z" />
    <glyph glyph-name="o" unicode="o" horiz-adv-x="1021" 
d="M429 0q-210 0 -316.5 123.5t-62.5 331.5l53 247q45 212 166.5 330.5t321.5 118.5q207 0 316 -124t66 -325l-53 -247q-46 -217 -169 -336t-322 -119zM453 307q36 0 67.5 21.5t42.5 74.5l74 345q12 53 -10 74.5t-60 21.5q-88 0 -109 -96l-73 -345q-11 -53 10.5 -74.5
t57.5 -21.5z" />
    <glyph glyph-name="p" unicode="p" horiz-adv-x="1062" 
d="M765 1151q334 0 252 -385l-81 -383q-24 -110 -59 -185.5t-83.5 -118.5t-104 -61t-127.5 -18q-77 0 -130 30t-81 66l-72 -336q-17 -80 -68 -121.5t-130 -41.5h-17q-80 0 -113 42t-16 121l261 1227q17 79 68 121.5t129 42.5q132 0 132 -115q26 43 87.5 79t152.5 36z
M591 399l75 351q11 53 -10.5 74.5t-57.5 21.5q-87 0 -108 -96l-75 -351q-11 -53 10.5 -74.5t57.5 -21.5q87 0 108 96z" />
    <glyph glyph-name="q" unicode="q" horiz-adv-x="1062" 
d="M915 1151q78 0 111 -42.5t16 -121.5l-261 -1227q-17 -79 -68 -121t-131 -42h-16q-80 0 -113 42t-16 121l71 336q-18 -18 -32 -30t-42.5 -29.5t-68.5 -27t-88 -9.5q-52 0 -93.5 11t-77.5 37.5t-54 70.5t-23 109.5t16 154.5l82 383q46 214 136.5 299.5t237.5 85.5
q95 0 156 -38.5t75 -80.5q47 119 183 119zM573 399l74 351q12 53 -9.5 74.5t-57.5 21.5q-88 0 -109 -96l-74 -351q-12 -53 9.5 -74.5t57.5 -21.5q88 0 109 96z" />
    <glyph glyph-name="r" unicode="r" horiz-adv-x="735" 
d="M700 1151q67 0 94 -37.5t13 -105.5l-3 -13q-16 -75 -63 -113t-136 -73q-113 -44 -147 -209l-93 -436q-17 -80 -68.5 -122t-130.5 -42h-16q-80 0 -113 42.5t-16 121.5l175 823q17 79 68 121.5t129 42.5q132 0 132 -115q23 46 68 80.5t107 34.5z" />
    <glyph glyph-name="s" unicode="s" horiz-adv-x="1001" 
d="M400 0q-149 0 -259.5 57.5t-132.5 159.5q-16 71 36.5 121.5t141.5 50.5h12q32 0 57 -9t37 -18t31 -28t31 -28t37 -18t56 -9q39 0 65.5 18t33.5 53q6 29 -15 51.5t-59.5 40t-86.5 36t-95.5 45.5t-86 62.5t-60 93t-14.5 130.5q14 157 143 249.5t321 92.5q155 0 262 -53
t127 -152q14 -71 -36.5 -120.5t-138.5 -49.5h-13q-37 0 -64.5 9.5t-39.5 19t-30 28.5q-15 16 -24.5 24t-30 16t-45.5 8q-32 0 -56.5 -18.5t-30.5 -47.5q-7 -32 13.5 -56.5t59 -43.5t86 -38t95.5 -46t87 -62t61.5 -92t18.5 -129q-10 -167 -143.5 -257.5t-350.5 -90.5z" />
    <glyph glyph-name="t" unicode="t" horiz-adv-x="712" 
d="M375 0q-155 0 -225 116.5t-29 307.5l90 422h-7q-49 0 -67 37t-4 104q3 16 7.5 29.5t12.5 25.5t13 20.5t18 19t19 16t23.5 16t24 14t28.5 15.5t29 16q19 10 40 31q19 21 32 45q45 83 81 119t91 36q60 0 84 -27t10 -91l-26 -121h14q156 0 123 -154q-33 -153 -182 -153h-20
l-86 -402q-4 -20 -5 -37t3 -29.5t8 -21.5t13.5 -18t15.5 -14t18 -13q13 -9 19 -13.5t17 -14.5t15 -20t8.5 -24.5t3.5 -34t-6 -42.5q-18 -84 -66.5 -122t-137.5 -38z" />
    <glyph glyph-name="u" unicode="u" horiz-adv-x="1042" 
d="M429 0q-211 0 -312.5 123t-56.5 332l114 532q17 80 68 122t130 42h19q80 0 113 -42.5t16 -121.5l-124 -584q-12 -53 10 -74.5t59 -21.5q35 0 66.5 21.5t42.5 74.5l124 584q17 80 68 122t130 42h19q80 0 113 -42.5t16 -121.5l-113 -532q-47 -221 -174 -338t-328 -117z" />
    <glyph glyph-name="v" unicode="v" horiz-adv-x="991" 
d="M412 0h-82q-146 0 -152 141l-41 828q-4 85 41.5 133.5t130.5 48.5h24q74 0 112 -37.5t35 -109.5l-21 -545l216 545q59 147 209 147h35q88 0 116 -48t-13 -134l-398 -830q-67 -139 -212 -139z" />
    <glyph glyph-name="w" unicode="w" horiz-adv-x="1476" 
d="M355 0h-49q-149 0 -152 143l-23 826q-1 86 44.5 134t127.5 48h20q153 0 147 -147l-18 -490l194 492q57 145 207 145h2q74 0 112 -37t36 -108l-15 -492l192 490q58 147 210 147h18q87 0 115 -48t-10 -134l-374 -826q-65 -143 -213 -143h-53q-153 0 -147 147l20 467
l-182 -467q-56 -147 -209 -147z" />
    <glyph glyph-name="x" unicode="x" horiz-adv-x="942" 
d="M91 0h-37q-97 0 -117.5 55t43.5 140l308 409l-127 352q-30 84 6 139.5t119 55.5h41q69 0 108.5 -30t55.5 -93l35 -137l86 135q80 125 217 125h41q96 0 116 -54.5t-43 -140.5l-276 -372l133 -389q29 -84 -15 -139.5t-141 -55.5h-11q-69 0 -108.5 29.5t-55.5 93.5l-46 178
l-116 -178q-81 -123 -216 -123z" />
    <glyph glyph-name="y" unicode="y" horiz-adv-x="948" 
d="M185 -403h-12q-88 0 -114.5 49t14.5 135l106 219l-61 967q-5 86 40 135t130 49h25q74 0 112 -36.5t37 -108.5l-5 -478l198 478q60 145 209 145h32q88 0 115 -49t-14 -135l-598 -1231q-67 -139 -214 -139z" />
    <glyph glyph-name="z" unicode="z" horiz-adv-x="790" 
d="M488 0h-424q-91 0 -115.5 51t26.5 137l393 656h-110q-79 0 -113 39.5t-18 113.5t66.5 114t129.5 40h383q91 0 115.5 -51t-26.5 -137l-393 -656h151q80 0 113.5 -39t17.5 -114q-16 -74 -66.5 -114t-129.5 -40z" />
    <glyph glyph-name="braceleft" unicode="{" horiz-adv-x="712" 
d="M387 719q71 -24 97.5 -107t2.5 -194l-28 -131q-3 -15 -3.5 -27.5t2.5 -23.5t6 -19t10.5 -17.5t11.5 -14t13 -13.5q10 -10 15 -15.5t13.5 -17.5t9.5 -20t4 -24.5t-3 -30.5q-18 -84 -74 -129t-133 -27q-285 66 -203 453l28 131q6 15 3 30.5t-4 23t-9.5 17.5t-13.5 14
l-15 12q-10 7 -15 11.5t-12.5 12.5t-11 16.5t-6.5 20.5t-2.5 27t4.5 34l5 24q6 28 15.5 48.5t24.5 34t25 21t29 17.5q24 13 35.5 21t26 28.5t20.5 48.5l27 131q44 209 131 315.5t265 137.5q85 15 122.5 -23.5t21.5 -113.5q-9 -43 -27 -73t-32 -41.5t-40 -27.5
q-22 -14 -33.5 -23t-25.5 -29t-20 -48l-28 -131q-24 -113 -86 -199t-143 -110z" />
    <glyph glyph-name="bar" unicode="|" horiz-adv-x="565" 
d="M148 -104h-20q-80 0 -113 42t-16 121l283 1332q17 80 68 121.5t130 41.5h21q80 0 113 -42t16 -121l-283 -1332q-17 -79 -68 -121t-131 -42z" />
    <glyph glyph-name="braceright" unicode="}" horiz-adv-x="712" 
d="M98 -92q-85 -15 -122 28t-19 127q6 27 21 49t27.5 32.5t37.5 27.5q25 18 38 29t28.5 34t21.5 52l28 131q24 111 85 194t143 107q-71 24 -96.5 110t-1.5 199l27 131q2 25 3.5 37.5t-7 26.5t-14.5 20t-18 16q-11 9 -17 15t-14 18.5t-11 26t-2.5 34.5t5.5 48q16 76 71 115
t132 22q285 -66 203 -453l-28 -131q-6 -16 -3.5 -31.5t3.5 -24t9.5 -17.5t13.5 -13.5t16 -11.5q10 -7 14.5 -11t13 -12t11.5 -16.5t6.5 -20t2.5 -27t-5 -34.5l-5 -24q-7 -36 -24.5 -61.5t-31 -35.5t-39.5 -25q-23 -13 -35 -21.5t-25.5 -28.5t-19.5 -47l-28 -132
q-44 -209 -130.5 -314.5t-264.5 -137.5z" />
    <glyph glyph-name="uni00A0" unicode="&#xa0;" horiz-adv-x="454" 
 />
    <glyph glyph-name="exclamdown" unicode="&#xa1;" horiz-adv-x="544" 
d="M369 1038q-85 0 -132.5 60t-29.5 145t90.5 144t157.5 59q86 0 134 -59t30 -144t-91 -145t-159 -60zM148 0q-95 0 -139 51.5t-26 136.5q4 18 9.5 37.5t10 33t14 36t13 31.5t15.5 35.5t15 33.5l184 422q28 64 51.5 83.5t50.5 19.5t41.5 -19.5t14.5 -83.5l4 -414
q4 -135 -13 -215q-18 -86 -83.5 -137t-161.5 -51z" />
    <glyph glyph-name="cent" unicode="&#xa2;" horiz-adv-x="1011" 
d="M453 307q42 0 69 14t37 28.5t23 43.5q11 26 18.5 38.5t25.5 30.5t46.5 26t70.5 8h31q137 0 104 -144q-28 -118 -104.5 -210t-198.5 -119l-25 -117q-15 -72 -77 -72q-30 0 -43 18t-6 52l22 99q-28 -3 -58 -3q-17 0 -45 2l-20 -96q-15 -72 -77 -72q-30 0 -43 18t-6 52
l26 123q-118 43 -163 153t-11 269l52 247q42 198 125 304.5t231 134.5l26 112q16 70 78 70q61 0 46 -72l-20 -96q30 2 45 2q30 0 57 -3l21 99q15 70 78 70q62 0 47 -72l-28 -127q94 -42 137 -127t29 -192q-11 -71 -53 -107.5t-112 -36.5h-31q-41 0 -66 8t-35.5 24.5
t-13.5 30t-3 36.5q-1 23 -2.5 34.5t-9.5 27t-27.5 22t-52.5 6.5q-88 0 -108 -94l-74 -347q-11 -53 10.5 -74.5t57.5 -21.5z" />
    <glyph glyph-name="sterling" unicode="&#xa3;" horiz-adv-x="1101" 
d="M717 0h-589q-80 0 -113 42.5t-16 121.5l4 20q17 79 62.5 121.5t113.5 42.5h139q7 68 -4 156h-178q-69 0 -56 63q13 62 85 62h119q-1 5 -26 102h-73q-34 0 -48.5 17t-8.5 47q13 61 85 61h21q-16 116 -3 197q29 197 165 308.5t329 111.5q177 0 286.5 -81.5t123.5 -224.5
q8 -77 -42.5 -125.5t-139.5 -48.5h-22q-44 0 -73.5 13.5t-40 26.5t-23.5 38q-11 21 -18 30.5t-24.5 19t-41.5 9.5q-41 0 -71.5 -27.5t-40.5 -74.5q-13 -63 6 -172h228q71 0 58 -61q-13 -64 -83 -64h-174q13 -59 17 -102h133q72 0 59 -62q-13 -63 -83 -63h-98q0 -80 -11 -156
h141q80 0 113 -42.5t16 -121.5l-4 -20q-17 -80 -68.5 -122t-130.5 -42z" />
    <glyph glyph-name="yen" unicode="&#xa5;" horiz-adv-x="1101" 
d="M570 1313l46 -381l212 381q74 133 215 133h37q91 0 115 -52t-26 -137l-450 -751h81q72 0 59 -62q-13 -63 -83 -63h-84l-22 -102h82q72 0 59 -62q-13 -63 -84 -63h-84l-2 -9q-15 -70 -66.5 -107.5t-127.5 -37.5h-37q-77 0 -112 38t-20 109l1 9h-90q-69 0 -56 63
q13 62 85 62h88l22 102h-90q-70 0 -57 63q13 62 85 62h87l-130 749q-14 85 28 137t127 52h34q142 0 158 -133z" />
    <glyph glyph-name="brokenbar" unicode="&#xa6;" horiz-adv-x="565" 
d="M349 842h-20q-80 0 -113 42.5t-16 121.5l82 385q17 80 68 121.5t130 41.5h21q80 0 113 -42t16 -121l-82 -385q-17 -80 -68.5 -122t-130.5 -42zM148 -104h-20q-80 0 -113 42t-16 121l84 396q17 80 68 121.5t130 41.5h21q80 0 113 -42t16 -121l-84 -396q-17 -79 -68 -121
t-131 -42z" />
    <glyph glyph-name="section" unicode="&#xa7;" horiz-adv-x="1003" 
d="M385 -159q-160 0 -276 58.5t-131 158.5q-13 81 40 126.5t137 45.5h13q22 0 35.5 -2t38 -14.5t51.5 -38.5q16 -16 25.5 -24.5t36.5 -20t57 -11.5q41 0 69 18t34 48q7 31 -15.5 55.5t-62.5 43t-89 37.5t-97.5 45.5t-87 60.5t-57.5 89.5t-8 125.5q12 80 63.5 139.5
t145.5 108.5q-122 100 -112 250q10 153 138 238t329 85q165 0 282 -58t132 -159q13 -82 -41 -127t-137 -45h-12q-22 0 -36 2t-38.5 15t-51.5 39q-55 55 -119 55q-41 0 -68.5 -18t-33.5 -48q-7 -31 15.5 -55.5t62.5 -43t89.5 -37.5t98 -45.5t86.5 -60.5t57 -89.5t8 -126.5
q-23 -145 -196 -247q52 -46 79 -102.5t21 -140.5q-12 -154 -144.5 -242t-330.5 -88zM519 583q37 0 61.5 17.5t30.5 47.5q7 34 -15.5 53.5t-60.5 19.5q-37 0 -61.5 -17.5t-30.5 -47.5q-7 -34 15.5 -53.5t60.5 -19.5z" />
    <glyph glyph-name="dieresis" unicode="&#xa8;" 
d="M498 1174q-64 0 -100 44t-22 107t68.5 108.5t118.5 45.5q63 0 99.5 -45.5t23.5 -108.5t-69 -107t-119 -44zM899 1174q-64 0 -99.5 44t-21.5 107t68 108.5t118 45.5q63 0 98.5 -45.5t22.5 -108.5t-68 -107t-118 -44z" />
    <glyph glyph-name="copyright" unicode="&#xa9;" horiz-adv-x="1501" 
d="M631 -118q-150 0 -268.5 47t-191 132.5t-100 205t5.5 265.5l82 385q63 296 273.5 476.5t508.5 180.5q199 0 337.5 -82.5t193.5 -232.5t14 -342l-82 -385q-63 -296 -269 -473t-504 -177zM654 108q412 0 502 424l82 385q48 224 -39 328t-281 104q-129 0 -229.5 -42
t-176.5 -140.5t-108 -249.5l-82 -385q-47 -222 43.5 -323t288.5 -101zM692 209q-150 0 -223.5 86t-42.5 231l82 387q33 156 124.5 241t237.5 85q152 0 226.5 -83.5t42.5 -231.5q-12 -60 -48.5 -85.5t-100.5 -25.5q-63 0 -88.5 25.5t-14.5 85.5q12 52 3.5 74t-46.5 22
q-64 0 -78 -68l-97 -456q-8 -37 7.5 -53.5t41.5 -16.5q38 0 55 23.5t29 74.5q14 60 50.5 85.5t100.5 25.5q63 0 88 -27.5t12 -87.5q-32 -150 -123 -230.5t-238 -80.5z" />
    <glyph glyph-name="ordfeminine" unicode="&#xaa;" horiz-adv-x="1062" 
d="M980 1446q78 0 111 -42.5t16 -121.5l-133 -623q-17 -79 -67.5 -121t-128.5 -42q-120 0 -134 82q-85 -82 -262 -82q-43 0 -79 8t-68 25t-54 47.5t-35 72t-12 100.5t17 132l38 180q46 214 137 299.5t238 85.5q93 0 156.5 -27t89.5 -57q49 84 170 84zM679 897l31 147
q11 53 -10 75t-56 22q-89 0 -110 -97l-31 -147q-12 -53 9.5 -74.5t59.5 -21.5q35 0 65.5 21.5t41.5 74.5zM489 408q85 0 133 -60t30 -145q-18 -84 -91.5 -143.5t-158.5 -59.5q-86 0 -133 59t-29 144t90.5 145t158.5 60z" />
    <glyph glyph-name="guillemotleft" unicode="&#xab;" horiz-adv-x="1191" 
d="M362 170h-4q-64 0 -95.5 23.5t-57.5 82.5l-88 195q-51 114 49 229l170 195q51 59 93 82.5t106 23.5h4q72 0 81 -51t-43 -137l-137 -227l40 -228q15 -88 -15.5 -138t-102.5 -50zM889 170h-5q-64 0 -96.5 24t-56.5 82l-86 195q-51 114 49 229l168 195q51 59 93 82.5
t106 23.5h4q72 0 81 -51.5t-43 -136.5l-134 -227l37 -228q15 -87 -15 -137.5t-102 -50.5z" />
    <glyph glyph-name="registered" unicode="&#xae;" horiz-adv-x="1501" 
d="M941 1574q199 0 337.5 -82.5t193.5 -232.5t14 -342l-82 -385q-63 -296 -269 -473t-504 -177q-150 0 -268.5 47t-191 132.5t-100 205t5.5 265.5l82 385q63 296 273.5 476.5t508.5 180.5zM1156 532l82 385q48 224 -39 328t-281 104q-129 0 -229.5 -42t-176.5 -140.5
t-108 -249.5l-82 -385q-47 -222 43.5 -323t288.5 -101q412 0 502 424zM724 1178h121q146 0 225 -95.5t44 -259.5l-3 -12q-38 -181 -150 -274l17 -70q25 -101 2.5 -147t-96.5 -46q-64 0 -92 22t-37 73l-17 94h-76l-9 -45q-17 -77 -53.5 -110.5t-96.5 -33.5q-61 0 -84 33.5
t-6 110.5l131 614q17 77 61.5 111.5t118.5 34.5zM794 950h-28l-56 -264h28q109 0 136 127l2 8q16 77 -9 103t-73 26z" />
    <glyph glyph-name="macron" unicode="&#xaf;" 
d="M854 1194h-305q-77 0 -103.5 30t-13.5 91q13 59 52 89t116 30h305q77 0 104 -29.5t14 -89.5q-13 -61 -52.5 -91t-116.5 -30z" />
    <glyph glyph-name="degree" unicode="&#xb0;" horiz-adv-x="802" 
d="M465 780q-152 0 -225 89t-40 241l2 10q32 154 124.5 240t239.5 86q149 0 222.5 -89t42.5 -237l-3 -10q-34 -157 -126 -243.5t-237 -86.5zM492 1004q64 0 79 69l17 80q15 70 -49 70q-63 0 -78 -70l-17 -80q-15 -69 48 -69z" />
    <glyph glyph-name="acute" unicode="&#xb4;" 
d="M693 1186h-2q-44 0 -65.5 14t-18.5 51t38 97l17 28q40 69 91.5 100t138.5 31h7q108 -1 122 -40.5t-60 -118.5l-53 -58q-58 -63 -102.5 -83.5t-112.5 -20.5z" />
    <glyph glyph-name="paragraph" unicode="&#xb6;" horiz-adv-x="860" 
d="M317 55l140 658h-147q-196 0 -142 250l52 241q28 133 90.5 187.5t155.5 54.5h309q80 0 113 -42.5t16 -121.5l-261 -1227q-17 -79 -68 -121.5t-129 -42.5q-80 0 -113 42.5t-16 121.5z" />
    <glyph glyph-name="periodcentered" unicode="&#xb7;" horiz-adv-x="544" 
d="M230 387q-85 0 -132 59t-29 144t90.5 145t157.5 60q86 0 133.5 -60t29.5 -145t-91 -144t-159 -59z" />
    <glyph glyph-name="cedilla" unicode="&#xb8;" 
d="M292 -373q-94 0 -112.5 53t41.5 142l102 153q43 65 82 90t106 25q23 0 38 -4.5t22 -16t9 -24.5t-3 -35t-11 -42t-18 -52l-50 -137q-55 -152 -206 -152z" />
    <glyph glyph-name="ordmasculine" unicode="&#xba;" horiz-adv-x="1021" 
d="M510 479q-208 0 -305.5 122.5t-52.5 332.5l13 63q45 209 176 329t333 120q205 0 305 -123t57 -326l-14 -63q-46 -214 -178.5 -334.5t-333.5 -120.5zM555 786q36 0 67 22t43 75l34 159q12 53 -10 75t-59 22q-88 0 -109 -97l-34 -159q-12 -53 10 -75t58 -22zM384 -18
q-85 0 -132.5 59t-29.5 143q18 85 90.5 145t157.5 60q86 0 134 -60t30 -145t-91 -143.5t-159 -58.5z" />
    <glyph glyph-name="guillemotright" unicode="&#xbb;" horiz-adv-x="1191" 
d="M133 170h-4q-72 0 -81 51.5t43 136.5l134 228l-37 227q-15 87 15.5 137.5t102.5 50.5h4q64 0 95.5 -23.5t57.5 -82.5l86 -195q51 -114 -49 -229l-168 -195q-49 -58 -92 -82t-107 -24zM659 170h-4q-72 0 -81.5 51t43.5 137l137 228l-40 227q-16 87 14.5 137.5t103.5 50.5
h4q64 0 96 -23.5t58 -82.5l87 -195q51 -114 -49 -229l-170 -195q-51 -59 -93 -82.5t-106 -23.5z" />
    <glyph glyph-name="onequarter" unicode="&#xbc;" horiz-adv-x="1482" 
d="M288 637h-10q-102 0 -81 102l94 443h-12q-84 6 -64 97l1 6q7 32 22.5 48.5t45.5 33.5q58 31 95 62q33 27 77 27h12q95 0 74 -102l-130 -615q-21 -102 -124 -102zM258 -6h-27q-50 0 -61 33t23 86l786 1260q50 79 135 79h11q58 0 73 -33t-19 -86l-786 -1260
q-50 -79 -135 -79zM1108 0h-8q-92 0 -73 88l19 88h-279q-92 0 -75 81l4 18q14 63 62 114l399 423q54 57 124 57h12q45 0 64 -24t9 -69l-89 -415h12q45 0 64 -24t9 -69q-20 -92 -112 -92h-12l-18 -84q-20 -92 -112 -92zM1130 574l-199 -213h154z" />
    <glyph glyph-name="onehalf" unicode="&#xbd;" horiz-adv-x="1527" 
d="M288 637h-10q-102 0 -81 102l94 443h-12q-84 6 -64 97l1 6q7 32 22.5 48.5t45.5 33.5q58 31 95 62q33 27 77 27h12q95 0 74 -102l-130 -615q-21 -102 -124 -102zM265 -6h-27q-50 0 -61 33t23 86l785 1260q50 79 136 79h10q58 0 73 -33t-19 -86l-785 -1260
q-50 -79 -135 -79zM1040 208h209q50 0 71 -26.5t10 -76.5l-1 -2q-21 -102 -124 -102h-323q-50 0 -71 26t-10 76l3 16q23 108 62.5 164.5t135.5 118.5q27 17 74 42.5t72 40.5t47.5 37t27.5 44q6 27 -7 41t-37 14q-40 0 -71 -33q-38 -42 -89 -42h-43q-50 0 -58.5 28t16.5 80
q36 79 107.5 124.5t163.5 45.5q119 0 184.5 -70.5t47.5 -183.5q-19 -115 -143 -201q-35 -25 -84 -50.5t-82 -40.5t-59 -33.5t-29 -36.5z" />
    <glyph glyph-name="threequarters" unicode="&#xbe;" horiz-adv-x="1691" 
d="M354 625q-104 0 -172.5 47t-72.5 127q-2 50 29 79t84 29h21q68 0 90 -44q19 -36 58 -36q27 0 49.5 16t28.5 44q6 31 -8.5 46t-54.5 15h-8q-45 0 -64.5 18t-10.5 61l2 13q18 88 103 88h12q70 0 83 64q6 29 -6.5 45t-37.5 16q-32 0 -60 -27q-26 -24 -50 -36t-60 -12h-20
q-53 0 -71 28t5 80q36 78 110.5 124t168.5 46q120 0 190.5 -65.5t57.5 -171.5q-7 -57 -41.5 -102.5t-84.5 -69.5q88 -40 68 -170q-17 -110 -113.5 -181t-224.5 -71zM471 -6h-27q-50 0 -61 33t23 86l785 1260q50 79 136 79h10q58 0 73 -33t-19 -86l-785 -1260
q-50 -79 -135 -79zM1317 0h-8q-92 0 -73 88l18 88h-278q-92 0 -75 81l4 18q14 63 62 114l399 423q53 56 124 56h12q92 0 72 -92l-88 -416h12q93 0 73 -92t-112 -92h-12l-18 -84q-20 -92 -112 -92zM1339 574l-199 -213h154z" />
    <glyph glyph-name="questiondown" unicode="&#xbf;" horiz-adv-x="1011" 
d="M769 1446q85 0 133.5 -59.5t30.5 -143.5q-18 -85 -92 -145t-159 -60q-86 0 -132.5 60t-28.5 145t90 144t158 59zM679 946q35 0 53.5 -34.5t5.5 -94.5q-8 -37 -26.5 -68.5t-53 -61t-55.5 -44.5t-67 -44q-36 -23 -55 -36t-44.5 -34t-39 -42t-18.5 -45q-10 -46 14.5 -78
t73.5 -32q28 0 56.5 11.5t45.5 23t46 35.5q32 25 51 38t52 26t67 13h22q84 0 108 -48.5t-12 -125.5q-53 -125 -184 -215t-294 -90q-206 0 -320 113.5t-94 281.5q6 47 20.5 88.5t32.5 72t46.5 58.5t53 46.5t61 38t61 31t62.5 27.5l21 9q79 35 126 62.5t103 76.5
q25 23 41.5 32t39.5 9z" />
    <glyph glyph-name="Agrave" unicode="&#xc0;" horiz-adv-x="1144" 
d="M791 1552h-2q-68 0 -103 21t-67 84l-29 57q-40 78 -9.5 118.5t137.5 41.5h9q88 0 126.5 -31t47.5 -100l5 -29q13 -89 -17.5 -125.5t-97.5 -36.5zM105 0h-35q-88 0 -115 48.5t13 133.5l531 1123q66 141 212 141h99q146 0 152 -141l48 -1123q3 -86 -43 -134t-131 -48h-29
q-148 0 -149 143l-1 101h-297l-44 -101q-62 -143 -211 -143zM673 1006l-179 -449h162z" />
    <glyph glyph-name="Aacute" unicode="&#xc1;" horiz-adv-x="1144" 
d="M771 1552h-2q-44 0 -65.5 14t-18.5 51t38 97l17 29q40 69 91.5 100t138.5 31h6q108 -1 122.5 -41t-59.5 -119l-53 -57q-59 -63 -103 -84t-112 -21zM105 0h-35q-88 0 -115 48.5t13 133.5l531 1123q66 141 212 141h99q146 0 152 -141l48 -1123q3 -86 -43 -134t-131 -48h-29
q-148 0 -149 143l-2 101h-296l-44 -101q-62 -143 -211 -143zM673 1006l-179 -449h161z" />
    <glyph glyph-name="Acircumflex" unicode="&#xc2;" horiz-adv-x="1144" 
d="M592 1548q-31 0 -51.5 7.5t-30.5 24.5t3 50t50 80l33 43q86 117 218 117h73q67 0 103 -22t57 -75l24 -60q64 -165 -88 -165q-63 0 -94.5 13t-48.5 47l-29 57l-13 -14q-55 -59 -98.5 -81t-107.5 -22zM105 0h-35q-88 0 -115 48.5t13 133.5l531 1123q66 141 212 141h99
q146 0 152 -141l48 -1123q3 -86 -43 -134t-131 -48h-29q-148 0 -149 143l-2 101h-296l-44 -101q-62 -143 -211 -143zM673 1006l-179 -449h161z" />
    <glyph glyph-name="Atilde" unicode="&#xc3;" horiz-adv-x="1144" 
d="M989 1556q-48 -10 -99.5 -2.5t-85 20.5t-78 17t-79.5 -14q-67 -31 -120.5 -16.5t-64.5 69.5q-10 57 42.5 107.5t125.5 66.5q45 10 93.5 1.5t82 -22.5t78 -19.5t81.5 10.5q73 32 121 19t59 -69q12 -58 -37 -106.5t-119 -61.5zM105 0h-35q-88 0 -115 48.5t13 133.5
l531 1123q66 141 212 141h99q146 0 152 -141l48 -1123q3 -86 -43 -134t-131 -48h-29q-148 0 -149 143l-2 101h-296l-44 -101q-62 -143 -211 -143zM673 1006l-179 -449h161z" />
    <glyph glyph-name="Adieresis" unicode="&#xc4;" horiz-adv-x="1144" 
d="M580 1548q-64 0 -100 44.5t-22 107.5t68 108t118 45q63 0 99.5 -45t23.5 -108t-68.5 -107.5t-118.5 -44.5zM981 1548q-64 0 -99.5 44.5t-21.5 107.5t68 108t118 45q63 0 98.5 -45t22.5 -108t-68 -107.5t-118 -44.5zM105 0h-35q-88 0 -115 48.5t13 133.5l531 1123
q66 141 212 141h99q146 0 152 -141l48 -1123q3 -86 -43 -134t-131 -48h-29q-148 0 -149 143l-1 101h-297l-44 -101q-62 -143 -211 -143zM673 1006l-179 -449h162z" />
    <glyph glyph-name="Aring" unicode="&#xc5;" horiz-adv-x="1144" 
d="M788 1546q-86 0 -136 59t-36 144q14 86 83 145.5t155 59.5q85 0 136 -60t38 -145q-13 -84 -84 -143.5t-156 -59.5zM813 1704q20 0 36.5 14.5t21.5 34.5q4 20 -6.5 33.5t-30.5 13.5t-37.5 -13.5t-21.5 -33.5q-5 -20 6.5 -34.5t31.5 -14.5zM105 0h-35q-88 0 -115 48.5
t13 133.5l531 1123q66 141 212 141h99q146 0 152 -141l48 -1123q3 -86 -43 -134t-131 -48h-29q-148 0 -149 143l-2 101h-296l-44 -101q-62 -143 -211 -143zM673 1006l-179 -449h162z" />
    <glyph glyph-name="AE" unicode="&#xc6;" horiz-adv-x="1685" 
d="M130 0h-52q-94 0 -117 54t35 139l759 1130q43 64 95 93.5t121 29.5h660q80 0 113 -42.5t16 -121.5l-5 -22q-17 -80 -68.5 -122t-130.5 -42h-284l-47 -222h176q80 0 113 -40.5t17 -116.5q-17 -77 -67.5 -117.5t-129.5 -40.5h-176l-45 -211h285q80 0 113 -42.5t16 -121.5
l-5 -20q-17 -80 -68 -122t-130 -42h-486q-79 0 -115 32t-23 91l26 121h-303l-76 -119q-80 -125 -217 -125zM878 958l-253 -401h166z" />
    <glyph glyph-name="Ccedilla" unicode="&#xc7;" horiz-adv-x="1120" 
d="M715 1446q210 0 331.5 -116.5t98.5 -282.5q-10 -79 -59.5 -121.5t-129.5 -42.5h-37q-38 0 -64 7.5t-39 16.5t-20 27.5t-8 30t-1 34.5q0 24 -2.5 37.5t-12 30t-32 24t-58.5 7.5q-121 0 -150 -138l-100 -473q-10 -37 -6 -62.5t10 -40.5t22.5 -23t30.5 -10.5t34 -2.5
q36 0 61.5 8t42.5 27t25 33.5t20 41.5q10 25 16.5 38t21.5 32.5t32.5 29.5t46.5 18t67 8h35q84 0 112 -50.5t4 -134.5q-30 -105 -88.5 -187.5t-154 -140t-215.5 -68.5q-9 -27 -18 -53l-50 -137q-55 -152 -206 -152q-94 0 -112.5 53t40.5 142l103 154l12 18
q-145 50 -214.5 176.5t-33.5 295.5l95 448q48 225 193.5 361.5t356.5 136.5z" />
    <glyph glyph-name="Egrave" unicode="&#xc8;" horiz-adv-x="1007" 
d="M760 1542h-2q-68 0 -103 21t-67 84l-29 57q-40 78 -9.5 118.5t137.5 41.5h9q88 0 127 -31t48 -100l4 -29q13 -89 -17.5 -125.5t-97.5 -36.5zM656 0h-485q-80 0 -113 42.5t-16 121.5l237 1118q17 80 68.5 122t130.5 42h485q80 0 113 -42.5t16 -121.5l-4 -22
q-17 -80 -68.5 -122t-130.5 -42h-287l-47 -221h178q80 0 113.5 -41t17.5 -117q-17 -77 -68 -117.5t-130 -40.5h-178l-45 -211h287q80 0 113 -42.5t16 -121.5l-4 -20q-17 -80 -68.5 -122t-130.5 -42z" />
    <glyph glyph-name="Eacute" unicode="&#xc9;" horiz-adv-x="1007" 
d="M729 1546h-2q-44 0 -65.5 14t-18.5 51t38 97l16 29q40 69 91.5 100t139.5 31h6q108 -1 122 -41t-60 -119l-53 -57q-59 -63 -102.5 -84t-111.5 -21zM656 0h-485q-80 0 -113 42.5t-16 121.5l237 1118q17 80 68.5 122t130.5 42h485q80 0 113 -42.5t16 -121.5l-5 -22
q-17 -80 -68 -122t-130 -42h-287l-47 -222h178q80 0 113.5 -40.5t17.5 -116.5q-17 -77 -68 -117.5t-130 -40.5h-178l-45 -211h287q80 0 113 -42.5t16 -121.5l-4 -20q-17 -80 -68.5 -122t-130.5 -42z" />
    <glyph glyph-name="Ecircumflex" unicode="&#xca;" horiz-adv-x="1007" 
d="M559 1550q-31 0 -51.5 7.5t-30.5 24.5t3 50t50 80l34 43q45 61 97 89t120 28h74q67 0 103 -22t57 -75l24 -60q64 -165 -88 -165q-63 0 -94.5 13t-48.5 47l-29 57l-13 -14q-55 -59 -99 -81t-108 -22zM656 0h-485q-80 0 -113 42.5t-16 121.5l237 1118q17 80 68.5 122
t130.5 42h485q80 0 113 -42.5t16 -121.5l-5 -22q-17 -80 -68 -122t-130 -42h-287l-47 -222h178q80 0 113.5 -40.5t17.5 -116.5q-17 -77 -68 -117.5t-130 -40.5h-178l-45 -211h287q80 0 113 -42.5t16 -121.5l-4 -20q-17 -80 -68.5 -122t-130.5 -42z" />
    <glyph glyph-name="Edieresis" unicode="&#xcb;" horiz-adv-x="1007" 
d="M539 1542q-64 0 -99.5 44.5t-21.5 107.5t68 108t118 45q63 0 99.5 -45t23.5 -108t-69 -107.5t-119 -44.5zM941 1542q-64 0 -100 44.5t-22 107.5t68.5 108t118.5 45q63 0 98.5 -45t22.5 -108t-68 -107.5t-118 -44.5zM656 0h-485q-80 0 -113 42.5t-16 121.5l237 1118
q17 80 68.5 122t130.5 42h485q80 0 113 -42.5t16 -121.5l-4 -22q-17 -80 -68.5 -122t-130.5 -42h-287l-47 -222h178q80 0 113.5 -40.5t17.5 -116.5q-17 -77 -68 -117.5t-130 -40.5h-178l-45 -211h287q80 0 113 -42.5t16 -121.5l-4 -20q-17 -80 -68.5 -122t-130.5 -42z" />
    <glyph glyph-name="Igrave" unicode="&#xcc;" horiz-adv-x="620" 
d="M529 1552h-2q-68 0 -103 21t-67 84l-29 57q-40 78 -9.5 118.5t137.5 41.5h8q88 0 127 -31t48 -100l4 -29q13 -89 -17.5 -125.5t-96.5 -36.5zM205 0h-34q-80 0 -113 42.5t-16 121.5l237 1118q17 80 68.5 122t130.5 42h35q80 0 113 -42.5t16 -121.5l-238 -1118
q-17 -80 -68.5 -122t-130.5 -42z" />
    <glyph glyph-name="Iacute" unicode="&#xcd;" horiz-adv-x="620" 
d="M512 1550h-2q-43 0 -64.5 14t-18.5 51t38 97l16 29q40 69 91.5 100t139.5 31h6q108 -1 122 -41t-60 -119l-53 -57q-59 -63 -103 -84t-112 -21zM205 0h-34q-80 0 -113 42.5t-16 121.5l237 1118q17 80 68.5 122t130.5 42h35q80 0 113 -42.5t16 -121.5l-238 -1118
q-17 -80 -68.5 -122t-130.5 -42z" />
    <glyph glyph-name="Icircumflex" unicode="&#xce;" horiz-adv-x="620" 
d="M309 1546q-31 0 -51.5 7.5t-30.5 24.5t3 50t50 80l33 43q86 117 218 117h73q67 0 103 -22t57 -75l24 -61q64 -164 -88 -164q-63 0 -94.5 13t-48.5 47l-29 57l-13 -14q-55 -59 -98.5 -81t-107.5 -22zM205 0h-34q-80 0 -113 42.5t-16 121.5l237 1118q17 80 68.5 122
t130.5 42h35q80 0 113 -42.5t16 -121.5l-238 -1118q-17 -80 -68.5 -122t-130.5 -42z" />
    <glyph glyph-name="Idieresis" unicode="&#xcf;" horiz-adv-x="620" 
d="M316 1550q-64 0 -100 44.5t-22 107.5t68.5 108t118.5 45q63 0 99.5 -45t23.5 -108t-69 -107.5t-119 -44.5zM717 1550q-64 0 -99.5 44.5t-21.5 107.5t68 108t118 45q63 0 98.5 -45t22.5 -108t-68 -107.5t-118 -44.5zM205 0h-34q-80 0 -113 42.5t-16 121.5l237 1118
q17 80 68.5 122t130.5 42h35q80 0 113 -42.5t16 -121.5l-238 -1118q-17 -80 -68.5 -122t-130.5 -42z" />
    <glyph glyph-name="Eth" unicode="&#xd0;" horiz-adv-x="1185" 
d="M533 0h-362q-80 0 -113 42.5t-16 121.5l98 465h-34q-37 0 -58 27.5t-12 70.5t41.5 68.5t70.5 25.5h33l98 461q17 80 68.5 122t130.5 42h280q108 0 194.5 -35.5t144.5 -104.5t77.5 -170.5t-7.5 -232.5l-78 -368q-55 -260 -198.5 -397.5t-357.5 -137.5zM504 626l-60 -282
h76q168 0 209 195l77 362q7 44 9 75.5t-8 53t-21 35t-30.5 21t-36.5 10t-39 2.5h-75l-60 -280h29q39 0 60 -25.5t12 -68.5q-9 -44 -41.5 -71t-69.5 -27h-31z" />
    <glyph glyph-name="Ntilde" unicode="&#xd1;" horiz-adv-x="1230" 
d="M1043 1563q-48 -10 -99 -2.5t-84.5 20t-78 16.5t-79.5 -14q-67 -31 -121 -16.5t-65 69.5q-10 57 42.5 107.5t125.5 66.5q45 10 94 1.5t82.5 -22.5t78 -19.5t81.5 10.5q73 32 121 19t59 -68q12 -58 -37.5 -106.5t-119.5 -61.5zM207 0h-36q-80 0 -113.5 42.5t-16.5 121.5
l238 1118q17 80 68.5 122t130.5 42h43q144 0 163 -127l89 -589l114 552q16 80 67.5 122t131.5 42h37q80 0 113 -42.5t16 -121.5l-238 -1118q-17 -80 -68 -122t-130 -42h-43q-142 0 -164 127l-94 551l-109 -514q-17 -80 -68.5 -122t-130.5 -42z" />
    <glyph glyph-name="Ograve" unicode="&#xd2;" 
d="M764 1538h-2q-68 0 -104 21t-67 84l-28 57q-40 78 -10 118.5t137 41.5h9q88 0 127 -31t48 -100l4 -29q13 -89 -17.5 -125.5t-96.5 -36.5zM490 0q-107 0 -195.5 36.5t-145.5 102.5t-80 157.5t1 201.5l95 448q48 227 193.5 363.5t356.5 136.5q105 0 193.5 -36.5
t145.5 -102.5t80.5 -158t-0.5 -203l-96 -448q-47 -224 -193.5 -361t-354.5 -137zM523 348q119 0 148 137l101 474q18 84 -9.5 111.5t-80.5 27.5q-54 0 -93 -27.5t-57 -111.5l-101 -474q-17 -82 12 -109.5t80 -27.5z" />
    <glyph glyph-name="Oacute" unicode="&#xd3;" 
d="M770 1546h-3q-43 0 -64.5 14t-18.5 51t38 97l16 29q40 69 91.5 100t139.5 31h6q108 -1 122 -41t-60 -119l-53 -57q-59 -63 -102.5 -84t-111.5 -21zM490 0q-107 0 -195.5 36.5t-145.5 102.5t-80.5 157.5t0.5 201.5l96 448q48 227 193.5 363.5t356.5 136.5
q105 0 193.5 -36.5t145.5 -102.5t80.5 -158t-0.5 -203l-96 -448q-47 -224 -193.5 -361t-354.5 -137zM523 348q119 0 148 137l101 473q18 84 -9.5 112t-80.5 28q-54 0 -93 -28t-57 -112l-101 -473q-17 -82 12 -109.5t80 -27.5z" />
    <glyph glyph-name="Ocircumflex" unicode="&#xd4;" 
d="M586 1542q-31 0 -51.5 7.5t-30.5 24.5t3 50t50 80l34 43q45 61 97 89t120 28h74q67 0 103 -22t57 -75l23 -61q64 -164 -87 -164q-63 0 -94.5 13t-48.5 47l-29 57l-14 -14q-55 -59 -98.5 -81t-107.5 -22zM490 0q-107 0 -195.5 36.5t-145.5 102.5t-80 157.5t1 201.5l95 448
q48 227 193.5 363.5t356.5 136.5q105 0 193.5 -36.5t145.5 -102.5t80.5 -158t-0.5 -203l-96 -448q-47 -224 -193.5 -361t-354.5 -137zM523 348q119 0 148 137l101 473q18 84 -9.5 112t-80.5 28q-54 0 -93 -28t-57 -112l-101 -473q-17 -82 12 -109.5t80 -27.5z" />
    <glyph glyph-name="Otilde" unicode="&#xd5;" 
d="M989 1556q-48 -10 -99.5 -2.5t-85 20.5t-78 17t-79.5 -14q-67 -31 -120.5 -16.5t-64.5 69.5q-10 57 42.5 107.5t125.5 66.5q45 10 93.5 1.5t82 -22.5t78 -19.5t81.5 10.5q73 32 121 19t59 -69q12 -58 -37 -106.5t-119 -61.5zM490 0q-107 0 -195.5 36.5t-145.5 102.5
t-80.5 157.5t0.5 201.5l96 448q48 227 193.5 363.5t356.5 136.5q105 0 193.5 -36.5t145.5 -102.5t80.5 -158t-0.5 -203l-96 -448q-47 -224 -193.5 -361t-354.5 -137zM523 348q119 0 148 137l101 473q18 84 -9.5 112t-80.5 28q-54 0 -93 -28t-57 -112l-101 -473
q-17 -82 12 -109.5t80 -27.5z" />
    <glyph glyph-name="Odieresis" unicode="&#xd6;" 
d="M577 1546q-64 0 -99.5 44.5t-21.5 107.5t68 108t118 45q63 0 99.5 -45t23.5 -108t-69 -107.5t-119 -44.5zM978 1546q-64 0 -99.5 44.5t-21.5 107.5t68 108t118 45q63 0 98.5 -45t22.5 -108t-68 -107.5t-118 -44.5zM490 0q-107 0 -195.5 36.5t-145.5 102.5t-80 157.5
t1 201.5l95 448q48 227 193.5 363.5t356.5 136.5q105 0 193.5 -36.5t145.5 -102.5t80.5 -158t-0.5 -203l-96 -448q-47 -224 -193.5 -361t-354.5 -137zM523 348q119 0 148 137l101 473q18 84 -9.5 112t-80.5 28q-54 0 -93 -28t-57 -112l-101 -473q-17 -82 12 -109.5t80 -27.5
z" />
    <glyph glyph-name="multiply" unicode="&#xd7;" horiz-adv-x="1067" 
d="M160 395q-86 111 47 221l134 111l-84 104q-45 56 -33.5 115t77.5 113q136 112 224 0l88 -113l132 109q67 56 126.5 57t101.5 -53q85 -110 -49 -221l-136 -111l86 -106q91 -116 -42 -226q-136 -110 -226 4l-86 107l-131 -107q-69 -57 -128 -57.5t-101 53.5z" />
    <glyph glyph-name="Oslash" unicode="&#xd8;" 
d="M1095 1507l-86 -157q84 -68 118 -172.5t7 -231.5l-96 -448q-47 -224 -193.5 -361t-354.5 -137q-110 0 -200 38l-81 -149q-36 -64 -94 -43q-52 19 -14 88l90 164q-82 68 -115 171.5t-7 228.5l96 448q48 227 193.5 363.5t356.5 136.5q106 0 194 -37l76 139q35 63 92 47
q26 -8 31 -31t-13 -57zM532 958l-82 -388l284 520q-21 8 -52 8q-54 0 -93 -28t-57 -112zM523 348q119 0 148 137l86 406l-291 -532q22 -11 57 -11z" />
    <glyph glyph-name="Ugrave" unicode="&#xd9;" horiz-adv-x="1183" 
d="M829 1554h-2q-68 0 -104 21t-67 84l-28 57q-40 78 -10 118.5t137 41.5h9q88 0 127 -31t48 -100l4 -29q13 -89 -17.5 -125.5t-96.5 -36.5zM502 0q-107 0 -194 36.5t-142 102.5t-76.5 157.5t2.5 201.5l167 784q17 80 68 122t130 42h35q80 0 113 -42.5t16 -121.5l-169 -797
q-17 -82 12 -109.5t80 -27.5q119 0 148 137l169 797q17 80 68.5 122t130.5 42h36q80 0 113 -42.5t16 -121.5l-166 -784q-47 -223 -197.5 -360.5t-359.5 -137.5z" />
    <glyph glyph-name="Uacute" unicode="&#xda;" horiz-adv-x="1183" 
d="M789 1550h-2q-44 0 -65.5 14t-18.5 51t38 97l17 29q40 69 91.5 100t138.5 31h6q108 -1 122.5 -41t-59.5 -119l-53 -57q-59 -63 -103 -84t-112 -21zM502 0q-107 0 -194 36.5t-142 102.5t-76.5 157.5t2.5 201.5l167 784q17 80 68 122t130 42h35q80 0 113 -42.5t16 -121.5
l-169 -797q-17 -82 12 -109.5t80 -27.5q119 0 148 137l169 797q17 80 68.5 122t130.5 42h36q80 0 113 -42.5t16 -121.5l-166 -784q-47 -223 -197.5 -360.5t-359.5 -137.5z" />
    <glyph glyph-name="Ucircumflex" unicode="&#xdb;" horiz-adv-x="1183" 
d="M613 1552q-31 0 -51.5 7.5t-30.5 24.5t3 50t50 80l34 43q45 61 97 89t120 28h74q67 0 103 -22t57 -75l23 -60q64 -165 -88 -165q-63 0 -94.5 13t-48.5 47l-28 57l-14 -14q-55 -59 -98.5 -81t-107.5 -22zM502 0q-107 0 -194 36.5t-142 102.5t-76.5 157.5t2.5 201.5
l167 784q17 80 68 122t130 42h35q80 0 113 -42.5t16 -121.5l-169 -797q-17 -82 12 -109.5t80 -27.5q119 0 148 137l169 797q17 80 68.5 122t130.5 42h36q80 0 113 -42.5t16 -121.5l-166 -784q-47 -223 -197.5 -360.5t-359.5 -137.5z" />
    <glyph glyph-name="Udieresis" unicode="&#xdc;" horiz-adv-x="1183" 
d="M599 1552q-64 0 -100 44.5t-22 107.5t68.5 108.5t118.5 45.5q63 0 99.5 -45.5t23.5 -108.5t-69 -107.5t-119 -44.5zM1000 1552q-64 0 -99.5 44.5t-21.5 107.5t68 108.5t118 45.5q63 0 99 -45.5t22 -108.5q-13 -63 -68 -107.5t-118 -44.5zM502 0q-107 0 -194 36.5
t-142 102.5t-76.5 157.5t2.5 201.5l167 784q17 80 68 122t130 42h35q80 0 113 -42.5t16 -121.5l-169 -797q-17 -82 12 -109.5t80 -27.5q119 0 148 137l169 797q17 80 68.5 122t130.5 42h36q80 0 113 -42.5t16 -121.5l-166 -784q-47 -223 -197.5 -360.5t-359.5 -137.5z" />
    <glyph glyph-name="Yacute" unicode="&#xdd;" horiz-adv-x="1101" 
d="M756 1548h-2q-44 0 -65.5 14t-18.5 51t38 97l16 29q40 69 91.5 100t139.5 31h6q108 -1 122 -41t-60 -119l-53 -57q-59 -63 -102.5 -84t-111.5 -21zM447 0h-37q-80 0 -113 42.5t-16 121.5l72 340l-130 753q-14 85 28 137t126 52h35q144 0 158 -133l42 -383l216 383
q76 133 215 133h37q91 0 115 -52t-26 -137l-451 -753l-72 -340q-17 -80 -68.5 -122t-130.5 -42z" />
    <glyph glyph-name="Thorn" unicode="&#xde;" horiz-adv-x="1157" 
d="M207 0h-36q-80 0 -113 42.5t-16 121.5l237 1118q17 80 68.5 122t130.5 42h35q79 0 113 -36.5t20 -107.5l-1 -4h76q107 0 193.5 -35.5t144 -104.5t77 -170t-7.5 -232l-13 -60q-55 -260 -203 -397t-363 -137h-143l-1 -5q-17 -76 -68 -116.5t-130 -40.5zM573 950l-94 -444
h67q171 0 212 194l11 54q7 44 9 75t-8.5 53t-21.5 35.5t-31 20.5t-37 9.5t-39 2.5h-68z" />
    <glyph glyph-name="germandbls" unicode="&#xdf;" horiz-adv-x="1271" 
d="M66 164l145 680h-8q-48 0 -65 42t-2 115q31 148 132 148h8q19 87 45 154.5t69 127.5t100.5 99t141 61.5t189.5 22.5h8q242 0 358 -84.5t81 -251.5l-5 -21q-23 -109 -77.5 -164t-157.5 -77q259 -64 194 -369l-44 -203q-96 -447 -505 -462q-81 -3 -121.5 38t-24.5 115
q14 63 50.5 97t120.5 71q29 13 51.5 28t38.5 37t26 37.5t19 47t13 47t12 55.5l3 14q27 107 25.5 169.5t-45.5 84.5q-96 46 -119 81.5t-7 113.5q7 32 19.5 56t32.5 40.5t37.5 26.5t45.5 22q44 18 54 64l3 14q8 39 -13 62.5t-95 23.5h-17q-41 0 -70 -13t-46.5 -40.5t-27 -54.5
t-18.5 -70l-210 -985q-17 -80 -68 -122t-130 -42h-17q-80 0 -113 42.5t-16 121.5z" />
    <glyph glyph-name="agrave" unicode="&#xe0;" horiz-adv-x="1052" 
d="M524 1356l-29 57q-40 78 -9.5 118.5t137.5 41.5h9q88 0 126.5 -31t47.5 -100l5 -29q13 -89 -17.5 -125t-97.5 -36h-2q-68 0 -103.5 20.5t-66.5 83.5zM905 1151q78 0 111 -42.5t16 -121.5l-176 -825q-17 -80 -67.5 -122t-128.5 -42q-133 0 -133 115q-26 -43 -87.5 -79
t-152.5 -36q-334 0 -252 385l81 383q46 214 137 299.5t238 85.5q95 0 155.5 -38.5t74.5 -80.5q47 119 184 119zM563 399l74 351q11 53 -10.5 74.5t-57.5 21.5q-87 0 -108 -96l-75 -351q-11 -53 10.5 -74.5t57.5 -21.5q88 0 109 96z" />
    <glyph glyph-name="aacute" unicode="&#xe1;" horiz-adv-x="1052" 
d="M662 1253h-2q-44 0 -65.5 14t-18.5 51t38 97l16 29q40 69 91.5 100t139.5 31h6q108 -1 122.5 -41t-59.5 -119l-54 -57q-59 -63 -102.5 -84t-111.5 -21zM905 1151q78 0 111 -42.5t16 -121.5l-176 -825q-17 -80 -67.5 -122t-128.5 -42q-133 0 -133 115q-26 -43 -87.5 -79
t-152.5 -36q-334 0 -252 385l81 383q46 214 137 299.5t238 85.5q95 0 155.5 -38.5t74.5 -80.5q47 119 184 119zM563 399l74 351q11 53 -10.5 74.5t-57.5 21.5q-87 0 -108 -96l-75 -351q-11 -53 10.5 -74.5t57.5 -21.5q88 0 109 96z" />
    <glyph glyph-name="acircumflex" unicode="&#xe2;" horiz-adv-x="1052" 
d="M476 1248q-31 0 -51.5 7.5t-30.5 24.5t3 50t50 80l34 43q85 116 217 116h74q67 0 103 -22t57 -75l23 -60q64 -164 -87 -164q-63 0 -94.5 12.5t-48.5 46.5l-29 58l-14 -15q-55 -59 -98 -80.5t-108 -21.5zM905 1151q78 0 111 -42.5t16 -121.5l-176 -825q-17 -80 -67.5 -122
t-128.5 -42q-133 0 -133 115q-26 -43 -87.5 -79t-152.5 -36q-334 0 -252 385l81 383q46 214 137 299.5t238 85.5q95 0 155.5 -38.5t74.5 -80.5q47 119 184 119zM563 399l74 351q11 53 -10.5 74.5t-57.5 21.5q-87 0 -108 -96l-75 -351q-11 -53 10.5 -74.5t57.5 -21.5
q88 0 109 96z" />
    <glyph glyph-name="atilde" unicode="&#xe3;" horiz-adv-x="1052" 
d="M517 1272q-67 -31 -121 -16.5t-65 69.5q-10 57 42.5 107.5t125.5 66.5q45 10 94 1.5t82.5 -23t78 -20t81.5 10.5q73 32 121 19t59 -68q12 -58 -37.5 -106.5t-119.5 -61.5q-48 -10 -99 -2.5t-84.5 20.5t-78 17t-79.5 -14zM905 1151q78 0 111 -42.5t16 -121.5l-176 -825
q-17 -80 -67.5 -122t-128.5 -42q-133 0 -133 115q-26 -43 -87.5 -79t-152.5 -36q-334 0 -252 385l81 383q46 214 137 299.5t238 85.5q95 0 155.5 -38.5t74.5 -80.5q47 119 184 119zM563 399l74 351q11 53 -10.5 74.5t-57.5 21.5q-87 0 -108 -96l-75 -351q-11 -53 10.5 -74.5
t57.5 -21.5q88 0 109 96z" />
    <glyph glyph-name="adieresis" unicode="&#xe4;" horiz-adv-x="1052" 
d="M465 1250q-64 0 -100 44.5t-22 107.5t68.5 108t118.5 45q63 0 99.5 -45t23.5 -108t-69 -107.5t-119 -44.5zM931 1555q63 0 98.5 -45t22.5 -108t-68 -107.5t-118 -44.5q-64 0 -99.5 44.5t-21.5 107.5t68 108t118 45zM905 1151q78 0 111 -42.5t16 -121.5l-176 -825
q-17 -80 -67.5 -122t-128.5 -42q-133 0 -133 115q-26 -43 -87.5 -79t-152.5 -36q-334 0 -252 385l81 383q46 214 137 299.5t238 85.5q95 0 155.5 -38.5t74.5 -80.5q47 119 184 119zM563 399l74 351q11 53 -10.5 74.5t-57.5 21.5q-87 0 -108 -96l-75 -351q-11 -53 10.5 -74.5
t57.5 -21.5q88 0 109 96z" />
    <glyph glyph-name="aring" unicode="&#xe5;" horiz-adv-x="1052" 
d="M664 1244q-86 0 -136 58.5t-36 143.5q14 86 83 145.5t155 59.5q85 0 136 -60t38 -145q-13 -84 -84 -143t-156 -59zM651 1450q-4 -20 7.5 -34.5t31.5 -14.5t36 14t21 35q5 20 -6 34t-31 14t-37.5 -14t-21.5 -34zM905 1151q78 0 111 -42.5t16 -121.5l-176 -825
q-17 -80 -67.5 -122t-128.5 -42q-133 0 -133 115q-26 -43 -87.5 -79t-152.5 -36q-334 0 -252 385l81 383q46 214 137 299.5t238 85.5q95 0 155.5 -38.5t74.5 -80.5q47 119 184 119zM563 399l74 351q11 53 -10.5 74.5t-57.5 21.5q-87 0 -108 -96l-75 -351q-11 -53 10.5 -74.5
t57.5 -21.5q88 0 109 96z" />
    <glyph glyph-name="ae" unicode="&#xe6;" horiz-adv-x="1533" 
d="M1257 1151q151 0 220 -107t25 -311l-21 -98q-17 -80 -68.5 -122t-130.5 -42h-360l-17 -78q-12 -54 12.5 -83t64.5 -29q28 0 51 8.5t34.5 17.5t29.5 26q24 24 34.5 32.5t41.5 20t71 11.5h31q70 0 98.5 -22t17.5 -66q-31 -132 -120 -220.5t-218 -88.5q-93 0 -153.5 34.5
t-77.5 87.5q-18 -59 -63.5 -91.5t-109.5 -32.5t-94 27.5t-29 82.5q-28 -42 -89.5 -76t-149.5 -34q-334 0 -252 385l81 383q46 214 137 299.5t238 85.5q95 0 155 -39.5t74 -82.5q43 122 174 122q60 0 91.5 -31.5t29.5 -85.5q36 52 102.5 84.5t139.5 32.5zM1150 707l15 67
q20 94 -71 94q-88 0 -108 -94l-14 -67h178zM563 399l74 351q11 53 -10.5 74.5t-57.5 21.5q-87 0 -108 -96l-74 -351q-12 -53 9.5 -74.5t57.5 -21.5q88 0 109 96z" />
    <glyph glyph-name="ccedilla" unicode="&#xe7;" horiz-adv-x="987" 
d="M600 1151q184 0 289 -102.5t84 -249.5q-11 -71 -53 -107.5t-112 -36.5h-31q-33 0 -56 6t-34.5 14.5t-17.5 23.5t-7.5 25.5t-1.5 29.5q0 23 -2 34.5t-10.5 27t-28 22t-52.5 6.5q-88 0 -108 -94l-74 -346q-12 -53 10 -75t58 -22q42 0 69 14t37 28.5t23 43.5
q11 26 18.5 38.5t25.5 30.5t46.5 26t70.5 8h31q70 0 97 -36.5t7 -107.5q-38 -137 -135.5 -231.5t-244.5 -115.5q-3 -11 -19 -56l-50 -137q-55 -152 -206 -152q-94 0 -112.5 53t41.5 142l102 153q2 2 5 7t5 8q-132 43 -190.5 155t-24.5 271l52 247q46 216 172 335.5
t327 119.5z" />
    <glyph glyph-name="egrave" unicode="&#xe8;" horiz-adv-x="1011" 
d="M702 1259h-2q-68 0 -103.5 20.5t-66.5 83.5l-29 58q-40 78 -9.5 118t137.5 41h9q88 0 126.5 -31t47.5 -100l5 -28q13 -89 -17.5 -125.5t-97.5 -36.5zM408 0q-206 0 -304 122t-55 327l52 247q46 215 177.5 335t333.5 120q208 0 307 -117t55 -325l-15 -74
q-17 -80 -68.5 -122t-130.5 -42h-360l-22 -100q-11 -50 11 -70t58 -20q33 0 58 8.5t36.5 18t28.5 27.5q20 21 32.5 31t44.5 20.5t75 10.5h31q70 0 100 -22.5t16 -65.5q-38 -131 -160 -220t-301 -89zM464 774l-14 -67h178l14 67q20 94 -70 94q-88 0 -108 -94z" />
    <glyph glyph-name="eacute" unicode="&#xe9;" horiz-adv-x="1011" 
d="M629 1253h-2q-43 0 -64.5 14t-18.5 51t38 97l16 29q40 69 91.5 100t139.5 31h6q108 -1 122 -41t-60 -119l-53 -57q-59 -63 -103 -84t-112 -21zM408 0q-206 0 -304 121.5t-55 326.5l52 248q46 215 177.5 335t333.5 120q208 0 307 -117t55 -325l-15 -74q-17 -80 -68.5 -122
t-130.5 -42h-360l-22 -100q-11 -50 11 -70t58 -20q33 0 58 8.5t36.5 18t28.5 27.5q20 21 32.5 31t44.5 20.5t75 10.5h31q70 0 100 -22.5t16 -65.5q-38 -131 -160 -220t-301 -89zM464 774l-14 -67h178l14 67q20 94 -70 94q-88 0 -108 -94z" />
    <glyph glyph-name="ecircumflex" unicode="&#xea;" horiz-adv-x="1011" 
d="M468 1252q-31 0 -51.5 7.5t-30.5 24.5t3 50t50 80l33 43q85 116 218 116h73q67 0 103.5 -22t57.5 -75l23 -60q64 -164 -88 -164q-63 0 -94.5 12.5t-48.5 46.5l-29 58l-13 -15q-55 -59 -98 -80.5t-108 -21.5zM408 0q-206 0 -304 122t-55 327l52 247q46 215 177.5 335
t333.5 120q208 0 307 -117t55 -325l-15 -74q-17 -80 -68.5 -122t-130.5 -42h-360l-22 -100q-11 -50 11 -70t58 -20q33 0 58 8.5t36.5 18t28.5 27.5q20 21 32.5 31t44.5 20.5t75 10.5h31q70 0 100 -22.5t16 -65.5q-38 -131 -160 -220t-301 -89zM464 774l-14 -67h178l14 67
q20 94 -70 94q-88 0 -108 -94z" />
    <glyph glyph-name="edieresis" unicode="&#xeb;" horiz-adv-x="1011" 
d="M453 1246q-64 0 -100 44.5t-22 107.5t68.5 108t118.5 45q63 0 99.5 -45t23.5 -108t-69 -107.5t-119 -44.5zM854 1246q-64 0 -99.5 44.5t-21.5 107.5t68 108t118 45q63 0 98.5 -45t22.5 -108t-68 -107.5t-118 -44.5zM408 0q-206 0 -304 122t-55 327l52 247
q46 215 177.5 335t333.5 120q208 0 307 -117t55 -325l-15 -74q-17 -80 -68.5 -122t-130.5 -42h-360l-22 -100q-11 -50 11 -70t58 -20q33 0 58 8.5t36.5 18t28.5 27.5q20 21 32.5 31t44.5 20.5t75 10.5h31q70 0 100 -22.5t16 -65.5q-38 -131 -160 -220t-301 -89zM464 774
l-14 -67h178l14 67q20 94 -70 94q-88 0 -108 -94z" />
    <glyph glyph-name="igrave" unicode="&#xec;" horiz-adv-x="573" 
d="M446 1260h-2q-68 0 -103.5 20.5t-66.5 83.5l-29 57q-40 78 -9.5 118.5t137.5 41.5h9q88 0 127 -31t48 -100l4 -29q13 -89 -17.5 -125t-97.5 -36zM166 0h-16q-80 0 -113 42.5t-16 121.5l175 823q17 80 68.5 122t130.5 42h16q80 0 113 -42.5t16 -121.5l-175 -823
q-17 -80 -68.5 -122t-130.5 -42z" />
    <glyph glyph-name="iacute" unicode="&#xed;" horiz-adv-x="565" 
d="M404 1262h-2q-44 0 -65 13.5t-18.5 50.5t37.5 97l17 29q40 69 91.5 100t138.5 31h7q108 -1 122 -41t-60 -119l-53 -57q-58 -63 -102.5 -83.5t-112.5 -20.5zM166 0h-16q-80 0 -113 42.5t-16 121.5l175 823q17 80 68.5 122t130.5 42h16q80 0 113 -42.5t16 -121.5l-175 -823
q-17 -80 -68.5 -122t-130.5 -42z" />
    <glyph glyph-name="icircumflex" unicode="&#xee;" horiz-adv-x="550" 
d="M237 1257q-31 0 -51.5 7.5t-30.5 24.5t3 50t50 80l34 43q45 61 97 89t120 28h74q67 0 103 -22t57 -75l23 -60q64 -165 -88 -165q-63 0 -94.5 13t-48.5 47l-29 57l-13 -14q-55 -59 -98.5 -81t-107.5 -22zM166 0h-16q-80 0 -113 42.5t-16 121.5l175 823q17 80 68.5 122
t130.5 42h16q80 0 113 -42.5t16 -121.5l-175 -823q-17 -80 -68.5 -122t-130.5 -42z" />
    <glyph glyph-name="idieresis" unicode="&#xef;" horiz-adv-x="550" 
d="M233 1257q-64 0 -99.5 44.5t-21.5 107.5t68 108.5t118 45.5q63 0 99.5 -45.5t23.5 -108.5t-69 -107.5t-119 -44.5zM634 1257q-64 0 -99.5 44.5t-21.5 107.5t68 108.5t118 45.5q63 0 99 -45.5t22 -108.5q-13 -63 -68 -107.5t-118 -44.5zM166 0h-16q-80 0 -113 42.5
t-16 121.5l175 823q17 80 68.5 122t130.5 42h16q80 0 113 -42.5t16 -121.5l-175 -823q-17 -80 -68.5 -122t-130.5 -42z" />
    <glyph glyph-name="eth" unicode="&#xf0;" horiz-adv-x="1026" 
d="M410 0q-197 0 -300.5 123t-59.5 332l54 254q46 217 159 327t328 117h25l-35 102h-117q-73 0 -60 64q13 61 76 61h64l-5 17q-18 72 14 114.5t114 42.5h43q69 0 108.5 -29t56.5 -91l15 -54h121q32 0 46 -16t8 -45q-14 -64 -75 -64h-61l37 -133q58 -201 11 -420l-52 -247
q-46 -213 -183 -334t-332 -121zM456 311q40 0 70.5 26t46.5 103l59 275q16 78 -2.5 103.5t-60.5 25.5q-39 0 -69 -26t-46 -103l-59 -275q-27 -129 61 -129z" />
    <glyph glyph-name="ntilde" unicode="&#xf1;" horiz-adv-x="1062" 
d="M555 1272q-67 -31 -121 -16.5t-65 69.5q-10 57 42.5 107.5t125.5 66.5q45 10 94 1.5t82.5 -23t78 -20t81.5 10.5q73 32 121 19t59 -68q12 -58 -37.5 -106.5t-119.5 -61.5q-48 -10 -99 -2.5t-84.5 20.5t-78 17t-79.5 -14zM765 1151q335 0 252 -387l-128 -600
q-17 -80 -68 -122t-130 -42h-21q-80 0 -113 42.5t-16 121.5l124 584q12 53 -9.5 74.5t-57.5 21.5q-88 0 -109 -96l-124 -584q-17 -80 -68.5 -122t-130.5 -42h-16q-80 0 -113 42.5t-16 121.5l175 823q17 79 68 121.5t129 42.5q67 0 100.5 -31t31.5 -90q29 44 92.5 82.5
t147.5 38.5z" />
    <glyph glyph-name="ograve" unicode="&#xf2;" horiz-adv-x="1021" 
d="M668 1261h-2q-68 0 -103.5 20.5t-66.5 83.5l-29 58q-40 78 -10 118t137 41h9q88 0 127 -31t48 -100l4 -28q13 -89 -17.5 -125.5t-96.5 -36.5zM429 0q-210 0 -316.5 123.5t-62.5 331.5l53 248q45 212 166.5 330t321.5 118q207 0 316 -123.5t66 -324.5l-52 -248
q-46 -217 -169.5 -336t-322.5 -119zM453 307q36 0 67.5 22t43.5 75l73 344q12 53 -10 74.5t-60 21.5q-88 0 -109 -96l-73 -344q-12 -53 10 -75t58 -22z" />
    <glyph glyph-name="oacute" unicode="&#xf3;" horiz-adv-x="1021" 
d="M660 1252h-2q-44 0 -65.5 14t-18.5 51t38 97l17 28q40 69 91.5 100t138.5 31h7q108 -1 122 -40.5t-60 -118.5l-53 -58q-58 -63 -102.5 -83.5t-112.5 -20.5zM429 0q-210 0 -316.5 123.5t-62.5 331.5l53 247q45 212 166.5 330.5t321.5 118.5q207 0 316 -124t66 -325
l-52 -247q-46 -217 -169.5 -336t-322.5 -119zM453 307q36 0 68 21.5t43 74.5l73 345q12 53 -10 74.5t-60 21.5q-88 0 -109 -96l-73 -345q-11 -53 10.5 -74.5t57.5 -21.5z" />
    <glyph glyph-name="ocircumflex" unicode="&#xf4;" horiz-adv-x="1021" 
d="M467 1247q-31 0 -51.5 7.5t-30.5 24.5t3 50t50 80l33 43q85 116 218 116h73q67 0 103 -22t57 -75l24 -60q64 -164 -88 -164q-63 0 -94.5 12.5t-48.5 46.5l-29 58l-13 -15q-55 -59 -98 -80.5t-108 -21.5zM429 0q-210 0 -316.5 123.5t-62.5 331.5l53 247
q45 212 166.5 330.5t321.5 118.5q207 0 316 -124t66 -325l-53 -247q-46 -217 -169 -336t-322 -119zM453 307q36 0 67.5 21.5t42.5 74.5l74 345q12 53 -10 74.5t-60 21.5q-88 0 -109 -96l-73 -345q-11 -53 10.5 -74.5t57.5 -21.5z" />
    <glyph glyph-name="otilde" unicode="&#xf5;" horiz-adv-x="1021" 
d="M865 1251q-48 -10 -99.5 -2.5t-85 20.5t-78 17t-79.5 -14q-67 -31 -120.5 -16.5t-64.5 69.5q-10 57 42.5 107.5t125.5 66.5q45 10 93.5 1.5t82 -23t78 -20t81.5 10.5q73 32 121 19t59 -68q12 -58 -37 -106.5t-119 -61.5zM429 0q-210 0 -316.5 123.5t-62.5 331.5l53 247
q45 212 166.5 330.5t321.5 118.5q207 0 316 -124t66 -325l-53 -247q-46 -217 -169 -336t-322 -119zM453 307q36 0 67.5 21.5t42.5 74.5l74 345q12 53 -10 74.5t-60 21.5q-88 0 -109 -96l-73 -345q-11 -53 10.5 -74.5t57.5 -21.5z" />
    <glyph glyph-name="odieresis" unicode="&#xf6;" horiz-adv-x="1021" 
d="M454 1253q-64 0 -99.5 44.5t-21.5 107.5t68 108t118 45q63 0 99.5 -45t23.5 -108t-69 -107.5t-119 -44.5zM856 1253q-64 0 -100 44.5t-22 107.5t68.5 108t118.5 45q63 0 98.5 -45t22.5 -108t-68 -107.5t-118 -44.5zM429 0q-210 0 -316.5 123.5t-62.5 331.5l53 247
q45 212 166.5 330.5t321.5 118.5q207 0 316 -124t66 -325l-53 -247q-46 -217 -169 -336t-322 -119zM453 307q36 0 67.5 21.5t42.5 74.5l74 345q12 53 -10 74.5t-60 21.5q-88 0 -109 -96l-73 -345q-11 -53 10.5 -74.5t57.5 -21.5z" />
    <glyph glyph-name="divide" unicode="&#xf7;" horiz-adv-x="1038" 
d="M600 950q-77 0 -119.5 53.5t-26.5 129.5q17 77 81.5 130.5t142.5 53.5q75 0 118 -54t27 -130q-16 -75 -82 -129t-141 -54zM787 569h-538q-79 0 -113 40.5t-18 115.5t67 115.5t130 40.5h538q79 0 113 -40.5t18 -115.5t-67 -115.5t-130 -40.5zM426 131q-78 0 -120 53.5
t-26 128.5q17 77 81.5 131t142.5 54q75 0 118 -54.5t27 -130.5q-16 -75 -82 -128.5t-141 -53.5z" />
    <glyph glyph-name="oslash" unicode="&#xf8;" horiz-adv-x="1028" 
d="M923 1206l-71 -129q82 -58 114.5 -155t6.5 -220l-53 -247q-46 -217 -169 -336t-322 -119q-84 0 -153 21l-72 -132q-17 -31 -41.5 -41.5t-51.5 -1.5q-52 19 -14 88l74 136q-83 58 -115.5 157t-5.5 228l53 247q45 212 166.5 330.5t321.5 118.5q85 0 157 -23l64 119
q35 63 92 47q26 -8 31.5 -31t-12.5 -57zM458 748l-52 -247l185 340q-12 3 -24 3q-88 0 -109 -96zM453 307q36 0 67.5 21.5t42.5 74.5l51 237l-181 -331q14 -2 20 -2z" />
    <glyph glyph-name="ugrave" unicode="&#xf9;" horiz-adv-x="1042" 
d="M665 1247h-2q-68 0 -103 21t-67 84l-29 57q-40 78 -9.5 118.5t137.5 41.5h8q88 0 127 -31t48 -100l4 -29q13 -89 -17.5 -125.5t-96.5 -36.5zM429 0q-211 0 -312.5 123t-56.5 332l114 532q17 80 68 122t130 42h19q80 0 113 -42.5t16 -121.5l-124 -584q-12 -53 10 -74.5
t59 -21.5q35 0 66.5 21.5t42.5 74.5l124 584q17 80 68 122t130 42h19q80 0 113 -42.5t16 -121.5l-113 -532q-47 -221 -174 -338t-328 -117z" />
    <glyph glyph-name="uacute" unicode="&#xfa;" horiz-adv-x="1042" 
d="M654 1255h-2q-43 0 -64.5 14t-18.5 51t38 97l16 29q40 69 91.5 100t139.5 31h6q108 -1 122 -41t-60 -119l-53 -57q-59 -63 -103 -84t-112 -21zM429 0q-211 0 -312.5 123t-56.5 332l114 532q17 80 68 122t130 42h19q80 0 113 -42.5t16 -121.5l-124 -584q-12 -53 10 -74.5
t59 -21.5q35 0 66.5 21.5t42.5 74.5l124 584q17 80 68 122t130 42h19q80 0 113 -42.5t16 -121.5l-113 -532q-47 -221 -174 -338t-328 -117z" />
    <glyph glyph-name="ucircumflex" unicode="&#xfb;" horiz-adv-x="1042" 
d="M471 1252q-31 0 -51.5 7.5t-30.5 24.5t3 50t50 80l34 43q85 116 217 116h74q67 0 103 -22t57 -75l23 -60q64 -164 -87 -164q-63 0 -94.5 12.5t-48.5 46.5l-29 58l-13 -15q-55 -59 -98.5 -80.5t-108.5 -21.5zM429 0q-211 0 -312.5 123t-56.5 332l114 532q17 80 68 122
t130 42h19q80 0 113 -42.5t16 -121.5l-124 -584q-12 -53 10 -74.5t59 -21.5q35 0 66.5 21.5t42.5 74.5l124 584q17 80 68 122t130 42h19q80 0 113 -42.5t16 -121.5l-113 -532q-47 -221 -174 -338t-328 -117z" />
    <glyph glyph-name="udieresis" unicode="&#xfc;" horiz-adv-x="1042" 
d="M453 1253q-64 0 -99.5 44.5t-21.5 107.5t68 108.5t118 45.5q63 0 99.5 -45.5t23.5 -108.5t-69 -107.5t-119 -44.5zM855 1253q-64 0 -100 44.5t-22 107.5t68.5 108.5t118.5 45.5q63 0 98.5 -45.5t22.5 -108.5t-68 -107.5t-118 -44.5zM429 0q-211 0 -312.5 123t-56.5 332
l114 532q17 80 68 122t130 42h19q80 0 113 -42.5t16 -121.5l-124 -584q-12 -53 10 -74.5t59 -21.5q35 0 66.5 21.5t42.5 74.5l124 584q17 80 68 122t130 42h19q80 0 113 -42.5t16 -121.5l-113 -532q-47 -221 -174 -338t-328 -117z" />
    <glyph glyph-name="yacute" unicode="&#xfd;" horiz-adv-x="948" 
d="M606 1259h-2q-43 0 -64.5 14t-18.5 51t38 97l16 28q40 69 91.5 100t138.5 31h7q108 -1 122 -40.5t-60 -118.5l-53 -58q-58 -63 -102.5 -83.5t-112.5 -20.5zM185 -403h-12q-88 0 -114.5 49t14.5 135l106 219l-61 967q-5 86 40 135t130 49h25q74 0 112 -36.5t37 -108.5
l-5 -478l198 478q60 145 209 145h32q88 0 115 -49t-14 -135l-598 -1231q-67 -139 -214 -139z" />
    <glyph glyph-name="thorn" unicode="&#xfe;" horiz-adv-x="1062" 
d="M81 -403h-17q-80 0 -113 42t-16 121l347 1631q17 80 68 121.5t130 41.5h17q80 0 113 -42t16 -121l-75 -353q29 43 87.5 78t126.5 35q72 0 125.5 -20.5t92 -67t45.5 -123t-14 -188.5l-75 -353q-46 -216 -139 -307.5t-238 -91.5q-80 0 -134.5 35t-73.5 78l-75 -353
q-17 -80 -68 -121.5t-130 -41.5zM484 301q36 0 67 21.5t42 74.5l72 355q11 53 -10.5 74.5t-57.5 21.5q-88 0 -108 -96l-72 -355q-11 -53 10 -74.5t57 -21.5z" />
    <glyph glyph-name="ydieresis" unicode="&#xff;" horiz-adv-x="948" 
d="M416 1253q-64 0 -100 44t-22 107t68 108.5t118 45.5q63 0 99.5 -45.5t23.5 -108.5t-68.5 -107t-118.5 -44zM817 1253q-64 0 -99.5 44t-21.5 107t68 108.5t118 45.5q63 0 99 -45.5t22 -108.5q-13 -63 -68 -107t-118 -44zM185 -403h-12q-88 0 -114.5 49t14.5 135l106 219
l-61 967q-5 86 40 135t130 49h25q74 0 112 -36.5t37 -108.5l-5 -478l198 478q60 145 209 145h32q88 0 115 -49t-14 -135l-598 -1231q-67 -139 -214 -139z" />
    <glyph glyph-name="Amacron" unicode="&#x100;" horiz-adv-x="1144" 
d="M934 1556h-306q-77 0 -103.5 30t-13.5 91q13 59 52 89t116 30h305q77 0 104.5 -29.5t14.5 -89.5q-13 -61 -52.5 -91t-116.5 -30zM105 0h-35q-88 0 -115 48.5t13 133.5l531 1123q66 141 212 141h99q146 0 152 -141l48 -1123q3 -86 -43 -134t-131 -48h-29q-148 0 -149 143
l-1 101h-297l-44 -101q-62 -143 -211 -143zM673 1006l-179 -449h162z" />
    <glyph glyph-name="amacron" unicode="&#x101;" horiz-adv-x="1052" 
d="M813 1256h-305q-77 0 -104 30t-14 91q12 59 52 89t117 30h305q77 0 104 -29.5t14 -89.5q-13 -61 -52.5 -91t-116.5 -30zM905 1151q78 0 111 -42.5t16 -121.5l-176 -825q-17 -80 -67.5 -122t-128.5 -42q-133 0 -133 115q-26 -43 -87.5 -79t-152.5 -36q-334 0 -252 385
l81 383q46 214 137 299.5t238 85.5q95 0 155.5 -38.5t74.5 -80.5q47 119 184 119zM563 399l74 351q11 53 -10.5 74.5t-57.5 21.5q-87 0 -108 -96l-75 -351q-11 -53 10.5 -74.5t57.5 -21.5q88 0 109 96z" />
    <glyph glyph-name="Abreve" unicode="&#x102;" horiz-adv-x="1144" 
d="M781 1550q-141 0 -206 58.5t-41 169.5q11 51 44 74.5t94 23.5t76 -21t11 -69q-2 -24 14 -32.5t41 -8.5q59 0 72 41q30 90 142 90q64 0 84 -25.5t9 -78.5q-47 -222 -340 -222zM105 0h-35q-88 0 -115 48.5t13 133.5l531 1123q66 141 212 141h99q146 0 152 -141l48 -1123
q3 -86 -43 -134t-131 -48h-29q-148 0 -149 143l-2 101h-297l-43 -101q-62 -143 -211 -143zM673 1006l-179 -449h161z" />
    <glyph glyph-name="abreve" unicode="&#x103;" horiz-adv-x="1052" 
d="M674 1258q-141 0 -205.5 58t-40.5 169q11 51 43.5 75t93.5 24t76.5 -21.5t11.5 -69.5q-2 -24 14 -32.5t41 -8.5q59 0 72 41q30 91 142 91q63 0 83 -25.5t9 -79.5q-47 -221 -340 -221zM905 1151q78 0 111 -42.5t16 -121.5l-176 -825q-17 -80 -67.5 -122t-128.5 -42
q-133 0 -133 115q-26 -43 -87.5 -79t-152.5 -36q-334 0 -252 385l81 383q46 214 137 299.5t238 85.5q95 0 155.5 -38.5t74.5 -80.5q47 119 184 119zM563 399l74 351q11 53 -10.5 74.5t-57.5 21.5q-87 0 -108 -96l-75 -351q-11 -53 10.5 -74.5t57.5 -21.5q88 0 109 96z" />
    <glyph glyph-name="Aogonek" unicode="&#x104;" horiz-adv-x="1144" 
d="M968 49q-4 -6 -47 -58t-74.5 -97.5t-37.5 -74.5q-8 -38 6.5 -54t49.5 -27q23 -7 36 -14t22.5 -26t3.5 -47q-28 -133 -192 -133q-121 0 -180 57t-36 163q31 148 178 297q-38 35 -39 108l-1 101h-297l-44 -101q-62 -143 -211 -143h-35q-88 0 -115 48.5t13 133.5l531 1123
q66 141 212 141h99q146 0 152 -141l48 -1123q1 -29 -5 -58q-3 -12 -4 -17q-10 -32 -32 -57zM494 557h162l17 449z" />
    <glyph glyph-name="aogonek" unicode="&#x105;" horiz-adv-x="1052" 
d="M905 1151q78 0 111 -42.5t16 -121.5l-176 -825q-8 -36 -19 -59q-8 -21 -33 -57q-4 -5 -47 -58t-74 -98t-37 -74q-8 -38 6 -54t49 -27q17 -5 27 -9.5t23 -15.5t14 -25t-1 -37q-28 -133 -193 -133q-121 0 -180 57t-36 163q32 155 190 309q-18 27 -18 69q-26 -43 -87.5 -79
t-152.5 -36q-334 0 -252 385l81 383q46 214 137 299.5t238 85.5q95 0 155.5 -38.5t74.5 -80.5q47 119 184 119zM454 303q88 0 109 96l74 351q11 53 -10.5 74.5t-57.5 21.5q-87 0 -108 -96l-74 -351q-12 -53 9.5 -74.5t57.5 -21.5z" />
    <glyph glyph-name="Cacute" unicode="&#x106;" horiz-adv-x="1120" 
d="M770 1550h-2q-43 0 -64.5 14t-18.5 51t38 97l16 29q40 69 91.5 100t139.5 31h6q108 -1 122 -41t-60 -119l-53 -57q-59 -63 -103 -84t-112 -21zM490 0q-219 0 -342.5 141.5t-77.5 358.5l95 448q48 225 193.5 361.5t356.5 136.5q210 0 331.5 -116.5t98.5 -282.5
q-10 -79 -59.5 -121.5t-129.5 -42.5h-37q-38 0 -64 7.5t-39 16.5t-20 27.5t-8 30t-1 34.5q0 24 -2.5 37.5t-12 30t-32 24t-58.5 7.5q-121 0 -150 -138l-100 -473q-10 -37 -6 -62.5t10 -40.5t22.5 -23t30.5 -10.5t34 -2.5q36 0 61.5 8t42.5 27t25 33.5t20 41.5q10 25 16.5 38
t21.5 32.5t32.5 29.5t46.5 18t67 8h35q84 0 112 -50.5t4 -134.5t-68 -154.5t-107 -126t-150.5 -87t-191.5 -31.5z" />
    <glyph glyph-name="cacute" unicode="&#x107;" horiz-adv-x="987" 
d="M631 1252h-2q-43 0 -64.5 14t-18.5 51t38 97l16 28q40 69 91.5 100t139.5 31h6q108 -1 122 -40.5t-60 -118.5l-53 -58q-58 -63 -102.5 -83.5t-112.5 -20.5zM422 0q-208 0 -312 122.5t-61 326.5l52 247q46 216 172 335.5t327 119.5q184 0 289 -102.5t84 -249.5
q-11 -71 -53 -107.5t-112 -36.5h-31q-41 0 -66 8t-35.5 24.5t-13.5 30t-3 36.5q-1 23 -2.5 34.5t-9.5 27t-27.5 22t-52.5 6.5q-88 0 -108 -94l-74 -347q-11 -53 10.5 -74.5t57.5 -21.5q42 0 69 14t37 28.5t23 43.5q11 26 18.5 38.5t25.5 30.5t46.5 26t70.5 8h31
q70 0 97 -36.5t7 -107.5q-42 -155 -160 -253.5t-296 -98.5z" />
    <glyph glyph-name="Ccircumflex" unicode="&#x108;" horiz-adv-x="1120" 
d="M587 1554q-31 0 -51.5 7.5t-30.5 24.5t3 50t50 80l34 43q45 61 97 89t120 28h74q67 0 103 -22t57 -75l23 -60q64 -165 -88 -165q-63 0 -94.5 13t-48.5 47l-29 57l-13 -14q-55 -59 -98.5 -81t-107.5 -22zM490 0q-219 0 -342.5 141.5t-77.5 358.5l95 448
q48 225 193.5 361.5t356.5 136.5q210 0 331.5 -116.5t98.5 -282.5q-10 -79 -59.5 -121.5t-129.5 -42.5h-37q-38 0 -64 7.5t-39 16.5t-20 27.5t-8 30t-1 34.5q0 24 -2.5 37.5t-12 30t-32 24t-58.5 7.5q-121 0 -150 -137l-100 -474q-10 -37 -6 -62.5t10 -40.5t22.5 -23
t30.5 -10.5t34 -2.5q36 0 61.5 8t42.5 27t25 33.5t20 41.5q10 25 16.5 38t21.5 32.5t32.5 29.5t46.5 18t67 8h35q84 0 112 -50.5t4 -134.5t-68 -154.5t-107 -126t-150.5 -87t-191.5 -31.5z" />
    <glyph glyph-name="ccircumflex" unicode="&#x109;" horiz-adv-x="987" 
d="M475 1257q-31 0 -51.5 7.5t-30.5 24.5t3 50t50 80l33 43q86 117 218 117h73q67 0 103 -22t57 -75l24 -60q64 -165 -88 -165q-63 0 -94.5 13t-48.5 47l-29 57l-13 -14q-55 -59 -98.5 -81t-107.5 -22zM422 0q-208 0 -312 122.5t-61 326.5l52 247q46 216 172 335.5
t327 119.5q184 0 289 -102.5t84 -249.5q-11 -71 -53 -107.5t-112 -36.5h-31q-41 0 -66 8t-35.5 24.5t-13.5 30t-3 36.5q-1 23 -2.5 34.5t-9.5 27t-27.5 22t-52.5 6.5q-88 0 -108 -94l-74 -347q-11 -53 10.5 -74.5t57.5 -21.5q42 0 69 14t37 28.5t23 43.5q11 26 18.5 38.5
t25.5 30.5t46.5 26t70.5 8h31q70 0 97 -36.5t7 -107.5q-42 -155 -160 -253.5t-296 -98.5z" />
    <glyph glyph-name="Cdotaccent" unicode="&#x10a;" horiz-adv-x="1120" 
d="M771 1542q-69 0 -105.5 47t-22.5 113q14 68 70.5 115t125.5 47q68 0 106 -47.5t24 -114.5q-14 -66 -72.5 -113t-125.5 -47zM490 0q-219 0 -342.5 141.5t-77.5 358.5l95 448q48 225 193.5 361.5t356.5 136.5q210 0 331.5 -116.5t98.5 -282.5q-10 -79 -59.5 -121.5
t-129.5 -42.5h-37q-38 0 -64 7.5t-39 16.5t-20 27.5t-8 30t-1 34.5q0 24 -2.5 37.5t-12 30t-32 24t-58.5 7.5q-121 0 -150 -137l-100 -474q-10 -37 -6 -62.5t10 -40.5t22.5 -23t30.5 -10.5t34 -2.5q36 0 61.5 8t42.5 27t25 33.5t20 41.5q10 25 16.5 38t21.5 32.5t32.5 29.5
t46.5 18t67 8h35q84 0 112 -50.5t4 -134.5t-68 -154.5t-107 -126t-150.5 -87t-191.5 -31.5z" />
    <glyph glyph-name="cdotaccent" unicode="&#x10b;" horiz-adv-x="987" 
d="M665 1255q-69 0 -105.5 47t-22.5 113q14 68 70.5 115t125.5 47q68 0 106 -47.5t24 -114.5q-14 -66 -72.5 -113t-125.5 -47zM422 0q-208 0 -312 122.5t-61 326.5l52 247q46 216 172 335.5t327 119.5q184 0 289 -102.5t84 -249.5q-11 -71 -53 -107.5t-112 -36.5h-31
q-41 0 -66 8t-35.5 24.5t-13.5 30t-3 36.5q-1 23 -2.5 34.5t-9.5 27t-27.5 22t-52.5 6.5q-88 0 -108 -94l-74 -347q-11 -53 10.5 -74.5t57.5 -21.5q42 0 69 14t37 28.5t23 43.5q11 26 18.5 38.5t25.5 30.5t46.5 26t70.5 8h31q70 0 97 -36.5t7 -107.5q-42 -155 -160 -253.5
t-296 -98.5z" />
    <glyph glyph-name="Ccaron" unicode="&#x10c;" horiz-adv-x="1120" 
d="M808 1546h-73q-73 0 -110.5 19t-57.5 77l-27 78q-19 55 -11 92q12 56 94 56q55 0 85 -8.5t48 -38.5l43 -70l72 70q48 47 186 47q39 0 57.5 -14.5t12.5 -41.5q-8 -37 -50 -92l-60 -78q-44 -58 -90 -77t-119 -19zM490 0q-219 0 -342.5 141.5t-77.5 358.5l95 448
q48 225 193.5 361.5t356.5 136.5q210 0 331.5 -116.5t98.5 -282.5q-10 -79 -59.5 -121.5t-129.5 -42.5h-37q-38 0 -64 7.5t-39 16.5t-20 27.5t-8 30t-1 34.5q0 24 -2.5 37.5t-12 30t-32 24t-58.5 7.5q-121 0 -150 -137l-100 -474q-10 -37 -6 -62.5t10 -40.5t22.5 -23
t30.5 -10.5t34 -2.5q36 0 61.5 8t42.5 27t25 33.5t20 41.5q10 25 16.5 38t21.5 32.5t32.5 29.5t46.5 18t67 8h35q84 0 112 -50.5t4 -134.5t-68 -154.5t-107 -126t-150.5 -87t-191.5 -31.5z" />
    <glyph glyph-name="ccaron" unicode="&#x10d;" horiz-adv-x="987" 
d="M692 1245h-73q-73 0 -110.5 19t-57.5 77l-27 78q-19 55 -11 92q12 56 94 56q55 0 85 -8.5t48 -38.5l43 -70l72 70q48 47 186 47q39 0 57.5 -14.5t12.5 -41.5q-8 -37 -50 -92l-60 -78q-44 -58 -90 -77t-119 -19zM422 0q-208 0 -312 122.5t-61 326.5l52 247
q46 216 172 335.5t327 119.5q184 0 289 -102.5t84 -249.5q-11 -71 -53 -107.5t-112 -36.5h-31q-41 0 -66 8t-35.5 24.5t-13.5 30t-3 36.5q-1 23 -2.5 34.5t-9.5 27t-27.5 22t-52.5 6.5q-88 0 -108 -94l-74 -347q-11 -53 10.5 -74.5t57.5 -21.5q42 0 69 14t37 28.5t23 43.5
q11 26 18.5 38.5t25.5 30.5t46.5 26t70.5 8h31q70 0 97 -36.5t7 -107.5q-42 -155 -160 -253.5t-296 -98.5z" />
    <glyph glyph-name="Dcaron" unicode="&#x10e;" horiz-adv-x="1185" 
d="M814 1542h-74q-73 0 -110.5 19t-57.5 77l-26 78q-20 57 -12 92q12 56 94 56q55 0 85 -8.5t48 -38.5l43 -70l72 70q48 47 186 47q39 0 57.5 -14.5t12.5 -41.5q-8 -37 -50 -92l-59 -78q-44 -58 -90 -77t-119 -19zM533 0h-362q-80 0 -113 42.5t-16 121.5l237 1118
q17 80 68.5 122t130.5 42h280q108 0 194.5 -35.5t144.5 -104.5t77.5 -170.5t-7.5 -232.5l-78 -368q-55 -260 -198.5 -397.5t-357.5 -137.5zM605 1098l-161 -754h76q168 0 209 195l78 362q7 44 9 75.5t-8 53t-21.5 35t-31 21t-36.5 10t-39 2.5h-75z" />
    <glyph glyph-name="dcaron" unicode="&#x10f;" horiz-adv-x="1374" 
d="M972 1554h16q80 0 113 -42t16 -121l-260 -1227q-17 -79 -68 -121.5t-129 -42.5q-133 0 -133 115q-26 -43 -87.5 -79t-152.5 -36q-334 0 -252 385l82 383q23 110 60 185.5t86.5 118.5t106.5 61t129 18q124 0 203 -96l71 336q17 79 68 121t131 42zM1453 1446h17
q75 0 94.5 -45.5t-22.5 -118.5l-182 -313q-63 -109 -169 -109q-56 0 -66 36t25 119l131 308q52 123 172 123zM563 401l74 351q12 53 -9.5 74.5t-57.5 21.5q-88 0 -109 -96l-74 -351q-11 -53 10.5 -74.5t57.5 -21.5q87 0 108 96z" />
    <glyph glyph-name="Dcroat" unicode="&#x110;" horiz-adv-x="1185" 
d="M533 0h-362q-80 0 -113 42.5t-16 121.5l98 465h-34q-37 0 -58 27.5t-12 70.5t41.5 68.5t70.5 25.5h33l98 461q17 80 68.5 122t130.5 42h280q108 0 194.5 -35.5t144.5 -104.5t77.5 -170.5t-7.5 -232.5l-78 -368q-55 -260 -198.5 -397.5t-357.5 -137.5zM504 626l-60 -282
h76q168 0 209 195l77 362q7 44 9 75.5t-8 53t-21 35t-30.5 21t-36.5 10t-39 2.5h-75l-60 -280h29q39 0 60 -25.5t12 -68.5q-9 -44 -41.5 -71t-69.5 -27h-31z" />
    <glyph glyph-name="dcroat" unicode="&#x111;" horiz-adv-x="1062" 
d="M1110 1358h72q72 0 59 -62q-13 -63 -83 -63h-74l-227 -1069q-17 -79 -68 -121.5t-129 -42.5q-64 0 -98 28.5t-35 82.5q-81 -111 -240 -111q-334 0 -252 385l82 383q24 110 59 185.5t83.5 118.5t104 61t127.5 18q77 0 132 -31.5t79 -64.5l38 180h-84q-69 0 -56 63
q13 62 85 62h82l6 31q17 79 68 121t131 42h16q80 0 113 -42t16 -121zM563 401l75 351q11 53 -10.5 74.5t-57.5 21.5q-88 0 -109 -96l-74 -351q-11 -53 10.5 -74.5t57.5 -21.5q87 0 108 96z" />
    <glyph glyph-name="Emacron" unicode="&#x112;" horiz-adv-x="1007" 
d="M893 1559h-305q-77 0 -104 29.5t-14 90.5q12 59 52 89t117 30h305q77 0 104 -29.5t14 -89.5q-13 -61 -52.5 -90.5t-116.5 -29.5zM656 0h-485q-80 0 -113 42.5t-16 121.5l237 1118q17 80 68.5 122t130.5 42h485q80 0 113 -42.5t16 -121.5l-5 -22q-17 -80 -68 -122
t-130 -42h-287l-47 -222h178q80 0 113.5 -40.5t17.5 -116.5q-17 -77 -68 -117.5t-130 -40.5h-178l-45 -211h287q80 0 113 -42.5t16 -121.5l-4 -20q-17 -80 -68.5 -122t-130.5 -42z" />
    <glyph glyph-name="emacron" unicode="&#x113;" horiz-adv-x="1011" 
d="M805 1241h-305q-77 0 -104 30t-14 91q12 59 52 89t117 30h305q77 0 104 -29.5t14 -89.5q-13 -61 -52.5 -91t-116.5 -30zM408 0q-206 0 -304 122t-55 327l52 247q46 215 177.5 335t333.5 120q208 0 307 -117t55 -325l-15 -74q-17 -80 -68.5 -122t-130.5 -42h-360l-22 -100
q-11 -50 11 -70t58 -20q33 0 58 8.5t36.5 18t28.5 27.5q20 21 32.5 31t44.5 20.5t75 10.5h31q70 0 100 -22.5t16 -65.5q-38 -131 -160 -220t-301 -89zM464 774l-14 -67h178l14 67q20 94 -70 94q-88 0 -108 -94z" />
    <glyph glyph-name="Ebreve" unicode="&#x114;" horiz-adv-x="1007" 
d="M749 1546q-141 0 -206 58.5t-41 169.5q11 51 44 74.5t94 23.5t76.5 -21t11.5 -69q-2 -24 14 -32.5t41 -8.5q59 0 72 41q30 90 141 90q63 0 83.5 -25.5t9.5 -79.5q-47 -221 -340 -221zM656 0h-485q-80 0 -113 42.5t-16 121.5l237 1118q17 80 68.5 122t130.5 42h485
q80 0 113 -42.5t16 -121.5l-5 -22q-17 -80 -68 -122t-130 -42h-287l-47 -222h178q80 0 113.5 -40.5t17.5 -116.5q-17 -77 -68 -117.5t-130 -40.5h-178l-45 -211h287q80 0 113 -42.5t16 -121.5l-4 -20q-17 -80 -68.5 -122t-130.5 -42z" />
    <glyph glyph-name="ebreve" unicode="&#x115;" horiz-adv-x="1011" 
d="M651 1239q-141 0 -206 58t-41 169q11 51 44 75t94 24t76.5 -21t11.5 -69q-2 -24 14 -32.5t41 -8.5q59 0 72 41q30 90 141 90q63 0 83.5 -25.5t9.5 -79.5q-47 -221 -340 -221zM408 0q-206 0 -304 122t-55 327l52 247q46 215 177.5 335t333.5 120q208 0 307 -117t55 -325
l-15 -74q-17 -80 -68.5 -122t-130.5 -42h-360l-22 -100q-11 -50 11 -70t58 -20q33 0 58 8.5t36.5 18t28.5 27.5q20 21 32.5 31t44.5 20.5t75 10.5h31q70 0 100 -22.5t16 -65.5q-38 -131 -160 -220t-301 -89zM464 774l-14 -67h178l14 67q20 94 -70 94q-88 0 -108 -94z" />
    <glyph glyph-name="Edotaccent" unicode="&#x116;" horiz-adv-x="1007" 
d="M731 1538q-69 0 -105.5 47t-22.5 113q14 68 70.5 115t125.5 47q68 0 106 -47.5t24 -114.5q-14 -66 -72.5 -113t-125.5 -47zM656 0h-485q-80 0 -113 42.5t-16 121.5l237 1118q17 80 68.5 122t130.5 42h485q80 0 113 -42.5t16 -121.5l-5 -22q-17 -80 -68 -122t-130 -42
h-287l-47 -222h178q80 0 113.5 -40.5t17.5 -116.5q-17 -77 -68 -117.5t-130 -40.5h-178l-45 -211h287q80 0 113 -42.5t16 -121.5l-4 -20q-17 -80 -68.5 -122t-130.5 -42z" />
    <glyph glyph-name="edotaccent" unicode="&#x117;" horiz-adv-x="1011" 
d="M653 1250q-68 0 -104.5 46.5t-22.5 113.5q14 68 70.5 115t125.5 47q68 0 105.5 -47.5t23.5 -114.5q-14 -66 -72.5 -113t-125.5 -47zM408 0q-206 0 -304 122t-55 327l52 247q46 215 177.5 335t333.5 120q208 0 307 -117t55 -325l-15 -74q-17 -80 -68.5 -122t-130.5 -42
h-360l-22 -100q-11 -50 11 -70t58 -20q33 0 58 8.5t36.5 18t28.5 27.5q20 21 32.5 31t44.5 20.5t75 10.5h31q70 0 100 -22.5t16 -65.5q-38 -131 -160 -220t-301 -89zM464 774l-14 -67h178l14 67q20 94 -70 94q-88 0 -108 -94z" />
    <glyph glyph-name="Eogonek" unicode="&#x118;" horiz-adv-x="1007" 
d="M478 1446h485q80 0 113 -42.5t16 -121.5l-4 -22q-17 -80 -68.5 -122t-130.5 -42h-287l-47 -222h178q80 0 113.5 -40.5t17.5 -116.5q-17 -77 -68 -117.5t-130 -40.5h-178l-45 -211h287q80 0 113 -42.5t16 -121.5l-4 -20q-6 -24 -10 -35q-6 -15 -7 -17q-12 -28 -30 -49
q-5 -7 -48 -59.5t-72.5 -96t-35.5 -71.5q-8 -38 6 -54t49 -27q17 -5 27 -9.5t23 -15.5t14 -25t-1 -37q-28 -133 -193 -133q-121 0 -180 57t-36 163q26 120 131 245h-321q-80 0 -113 42.5t-16 121.5l237 1118q17 80 68.5 122t130.5 42z" />
    <glyph glyph-name="eogonek" unicode="&#x119;" horiz-adv-x="1011" 
d="M612 1151q208 0 307 -117t55 -325l-15 -74q-17 -80 -68.5 -122t-130.5 -42h-360l-22 -100q-11 -50 11 -70t58 -20q33 0 58 8.5t36.5 18t28.5 27.5q20 21 32.5 31t44.5 20.5t75 10.5h31q70 0 100 -22.5t16 -65.5q-26 -92 -97 -166.5t-177 -111.5q-102 -125 -112 -172
q-8 -38 6 -54t49 -27q17 -5 27 -9.5t23 -15.5t14 -25t-1 -37q-28 -133 -193 -133q-121 0 -180 57t-36 163q24 112 119 230q-159 28 -229.5 145t-32.5 296l52 247q46 215 177.5 335t333.5 120zM628 707l14 67q20 94 -70 94q-88 0 -108 -94l-14 -67h178z" />
    <glyph glyph-name="Ecaron" unicode="&#x11a;" horiz-adv-x="1007" 
d="M787 1550h-74q-73 0 -110.5 19.5t-57.5 77.5l-26 77q-19 55 -11 93q12 55 93 55q55 0 85.5 -8.5t48.5 -38.5l42 -70l72 70q48 47 186 47q39 0 58 -14t13 -41q-8 -36 -51 -93l-59 -77q-44 -58 -90 -77.5t-119 -19.5zM656 0h-485q-80 0 -113 42.5t-16 121.5l237 1118
q17 80 68.5 122t130.5 42h485q80 0 113 -42.5t16 -121.5l-5 -22q-17 -80 -68 -122t-130 -42h-287l-47 -222h178q80 0 113.5 -40.5t17.5 -116.5q-17 -77 -68 -117.5t-130 -40.5h-178l-45 -211h287q80 0 113 -42.5t16 -121.5l-4 -20q-17 -80 -68.5 -122t-130.5 -42z" />
    <glyph glyph-name="ecaron" unicode="&#x11b;" horiz-adv-x="1011" 
d="M690 1245h-74q-73 0 -110 19.5t-57 77.5l-27 77q-19 55 -11 92q12 56 94 56q55 0 85 -8.5t48 -38.5l42 -70l73 70q48 47 186 47q39 0 57.5 -14.5t12.5 -41.5q-8 -37 -50 -92l-60 -77q-44 -58 -90 -77.5t-119 -19.5zM408 0q-206 0 -304 122t-55 327l52 247
q46 215 177.5 335t333.5 120q208 0 307 -117t55 -325l-15 -74q-17 -80 -68.5 -122t-130.5 -42h-360l-22 -100q-11 -50 11 -70t58 -20q33 0 58 8.5t36.5 18t28.5 27.5q20 21 32.5 31t44.5 20.5t75 10.5h31q70 0 100 -22.5t16 -65.5q-38 -131 -160 -220t-301 -89zM464 774
l-14 -67h178l14 67q20 94 -70 94q-88 0 -108 -94z" />
    <glyph glyph-name="Gcircumflex" unicode="&#x11c;" horiz-adv-x="1140" 
d="M587 1544q-31 0 -51.5 7.5t-30.5 24.5t3 50t50 80l33 43q86 117 218 117h73q67 0 103.5 -22t57.5 -75l23 -61q64 -164 -88 -164q-63 0 -94.5 13t-48.5 47l-29 57l-13 -14q-55 -59 -98.5 -81t-107.5 -22zM488 0q-106 0 -194.5 36.5t-145 102.5t-80 157.5t0.5 201.5l96 448
q48 226 193.5 363t354.5 137q167 0 288.5 -85.5t139.5 -225.5q10 -80 -44 -128.5t-141 -48.5h-35q-43 0 -72 6.5t-44.5 20t-21 24t-12.5 29.5q-7 20 -13 30.5t-26 20t-52 9.5q-54 0 -92 -28t-56 -112l-101 -473q-10 -37 -5.5 -61.5t11.5 -39.5t23.5 -23t30 -10.5t30.5 -2.5
q119 0 148 137l2 11h-3q-135 0 -101 157q17 77 68 117.5t130 40.5h174q79 0 113 -40.5t18 -115.5l-34 -157q-48 -225 -193.5 -361.5t-354.5 -136.5z" />
    <glyph glyph-name="gcircumflex" unicode="&#x11d;" horiz-adv-x="1052" 
d="M475 1257q-31 0 -51.5 7.5t-30.5 24.5t3 50t50 80l33 43q86 117 218 117h73q67 0 103 -22t57 -75l24 -60q64 -165 -88 -165q-63 0 -94.5 13t-48.5 47l-29 57l-13 -14q-55 -59 -98.5 -81t-107.5 -22zM907 1151q78 0 111 -42.5t16 -121.5l-207 -975q-46 -219 -163 -337.5
t-328 -118.5q-207 0 -305.5 88.5t-85.5 220.5q9 88 154 88h31q43 0 70 -10t35.5 -20.5t19.5 -30.5q10 -19 17 -28t28 -18.5t55 -9.5q37 0 67.5 20t41.5 70l36 170q-18 -18 -31.5 -30t-40.5 -29.5t-62.5 -27t-76.5 -9.5q-334 0 -252 383l81 383q46 214 137 299.5t238 85.5
q95 0 155.5 -38.5t74.5 -80.5q47 119 184 119zM565 399l74 351q12 53 -9.5 74.5t-57.5 21.5q-88 0 -109 -96l-74 -351q-12 -53 9.5 -74.5t57.5 -21.5q88 0 109 96z" />
    <glyph glyph-name="Gbreve" unicode="&#x11e;" horiz-adv-x="1140" 
d="M774 1538q-141 0 -206 58t-41 169q11 51 44 75t94 24t76.5 -21t11.5 -69q-2 -24 14 -32.5t41 -8.5q59 0 72 41q30 90 141 90q63 0 83.5 -25.5t9.5 -79.5q-47 -221 -340 -221zM488 0q-106 0 -194.5 36.5t-145 102.5t-80 157.5t0.5 201.5l96 448q48 226 193.5 363
t354.5 137q167 0 288.5 -85.5t139.5 -225.5q10 -80 -44 -128.5t-141 -48.5h-35q-43 0 -72 6.5t-44.5 20t-21 24t-12.5 29.5q-7 20 -13 30.5t-26 20t-52 9.5q-54 0 -92 -28t-56 -112l-101 -473q-10 -37 -5.5 -61.5t11.5 -39.5t23.5 -23t30 -10.5t30.5 -2.5q119 0 148 137
l2 11h-3q-135 0 -101 157q17 77 68 117.5t130 40.5h174q79 0 113 -40.5t18 -115.5l-34 -157q-48 -225 -193.5 -361.5t-354.5 -136.5z" />
    <glyph glyph-name="gbreve" unicode="&#x11f;" horiz-adv-x="1052" 
d="M656 1245q-141 0 -205.5 58.5t-40.5 169.5q11 51 43.5 74.5t93.5 23.5t76.5 -21t11.5 -69q-2 -24 14 -32.5t41 -8.5q59 0 72 41q30 90 142 90q63 0 83 -25.5t9 -79.5q-47 -221 -340 -221zM907 1151q78 0 111 -42.5t16 -121.5l-208 -975q-46 -219 -162.5 -337.5
t-327.5 -118.5q-207 0 -305.5 88.5t-85.5 220.5q9 88 154 88h31q43 0 70 -10t35.5 -20.5t19.5 -30.5q10 -19 17 -28t28 -18.5t55 -9.5q37 0 67.5 20t41.5 70l36 170q-18 -18 -31.5 -30t-40.5 -29.5t-62.5 -27t-76.5 -9.5q-334 0 -252 383l81 383q46 214 137 299.5t238 85.5
q95 0 155.5 -38.5t74.5 -80.5q47 119 184 119zM565 399l74 351q12 53 -9.5 74.5t-57.5 21.5q-88 0 -109 -96l-74 -351q-12 -53 9.5 -74.5t57.5 -21.5q88 0 109 96z" />
    <glyph glyph-name="Gdotaccent" unicode="&#x120;" horiz-adv-x="1140" 
d="M775 1554q-68 0 -104.5 46.5t-22.5 113.5q14 68 70.5 115t125.5 47q68 0 105.5 -47.5t23.5 -114.5q-14 -66 -72.5 -113t-125.5 -47zM488 0q-106 0 -194.5 36.5t-145 102.5t-80 157.5t0.5 201.5l96 448q48 226 193.5 363t354.5 137q167 0 288.5 -85.5t139.5 -225.5
q10 -80 -44 -128.5t-141 -48.5h-35q-43 0 -72 6.5t-44.5 20t-21 24t-12.5 29.5q-7 20 -13 30.5t-26 20t-52 9.5q-54 0 -92 -28t-56 -112l-101 -473q-10 -37 -5.5 -61.5t11.5 -39.5t23.5 -23t30 -10.5t30.5 -2.5q119 0 148 137l2 11h-3q-135 0 -101 157q17 77 68 117.5
t130 40.5h174q79 0 113 -40.5t18 -115.5l-34 -157q-48 -225 -193.5 -361.5t-354.5 -136.5z" />
    <glyph glyph-name="gdotaccent" unicode="&#x121;" horiz-adv-x="1052" 
d="M650 1255q-68 0 -104.5 46.5t-22.5 113.5q14 68 70.5 115t125.5 47q68 0 105.5 -47.5t23.5 -114.5q-14 -66 -72.5 -113t-125.5 -47zM907 1151q78 0 111 -42.5t16 -121.5l-207 -975q-46 -219 -163 -337.5t-328 -118.5q-207 0 -305.5 88.5t-85.5 220.5q9 88 154 88h31
q43 0 70 -10t35.5 -20.5t19.5 -30.5q10 -19 17 -28t28 -18.5t55 -9.5q37 0 67.5 20t41.5 70l36 170q-18 -18 -31.5 -30t-40.5 -29.5t-62.5 -27t-76.5 -9.5q-334 0 -252 383l81 383q46 214 137 299.5t238 85.5q95 0 155.5 -38.5t74.5 -80.5q47 119 184 119zM565 399l74 351
q12 53 -9.5 74.5t-57.5 21.5q-88 0 -109 -96l-74 -351q-12 -53 9.5 -74.5t57.5 -21.5q88 0 109 96z" />
    <glyph glyph-name="uni0122" unicode="&#x122;" horiz-adv-x="1140" 
d="M488 0q-106 0 -194.5 36.5t-145 102.5t-80 157.5t0.5 201.5l96 448q48 226 193.5 363t354.5 137q167 0 288.5 -85.5t139.5 -225.5q10 -80 -44 -128.5t-141 -48.5h-35q-43 0 -72 6.5t-44.5 20t-21 24t-12.5 29.5q-7 20 -13 30.5t-26 20t-52 9.5q-54 0 -92 -28t-56 -112
l-101 -473q-10 -37 -5.5 -61.5t11.5 -39.5t23.5 -23t30 -10.5t30.5 -2.5q119 0 148 137l2 11h-3q-135 0 -101 157q17 77 68 117.5t130 40.5h174q79 0 113 -40.5t18 -115.5l-34 -157q-48 -225 -193.5 -361.5t-354.5 -136.5zM248 -532q-37 3 -52.5 15t-14 50t27.5 109l35 96
q30 83 79 117t127 34q49 0 79.5 -9t44.5 -30.5t0.5 -60.5t-55.5 -94l-85 -113q-47 -63 -90.5 -90.5t-95.5 -23.5z" />
    <glyph glyph-name="uni0123" unicode="&#x123;" horiz-adv-x="1052" 
d="M649 1250q-50 0 -80 9t-44 30.5t-1 60.5t55 94l86 113q47 63 90.5 91t95.5 24q37 -3 52.5 -15.5t14 -50.5t-27.5 -109l-35 -96q-30 -83 -79 -117t-127 -34zM907 1151q78 0 111 -42.5t16 -121.5l-207 -975q-46 -219 -163 -337.5t-328 -118.5q-207 0 -305.5 88.5
t-85.5 220.5q9 88 154 88h31q43 0 70 -10t35.5 -20.5t19.5 -30.5q10 -19 17 -28t28 -18.5t55 -9.5q37 0 67.5 20t41.5 70l36 170q-18 -18 -31.5 -30t-40.5 -29.5t-62.5 -27t-76.5 -9.5q-334 0 -252 383l81 383q46 214 137 299.5t238 85.5q95 0 155.5 -38.5t74.5 -80.5
q47 119 184 119zM565 399l74 351q12 53 -9.5 74.5t-57.5 21.5q-88 0 -109 -96l-74 -351q-12 -53 9.5 -74.5t57.5 -21.5q88 0 109 96z" />
    <glyph glyph-name="Hcircumflex" unicode="&#x124;" horiz-adv-x="1212" 
d="M627 1550q-31 0 -51.5 7.5t-30.5 24.5t3 50t50 80l34 43q45 61 97 89t120 28h74q67 0 103 -22t57 -75l23 -60q64 -165 -88 -165q-63 0 -94.5 13t-48.5 47l-29 57l-13 -14q-55 -59 -98.5 -81t-107.5 -22zM207 0h-36q-80 0 -113 42.5t-16 121.5l237 1118q17 80 68.5 122
t130.5 42h37q80 0 113 -42.5t16 -121.5l-87 -408h225l87 408q17 80 68.5 122t130.5 42h37q80 0 113 -42.5t16 -121.5l-238 -1118q-17 -80 -68.5 -122t-130.5 -42h-37q-80 0 -113 42.5t-16 121.5l84 395h-225l-84 -395q-17 -80 -68.5 -122t-130.5 -42z" />
    <glyph glyph-name="hcircumflex" unicode="&#x125;" horiz-adv-x="1062" 
d="M572 1618q-31 0 -51.5 7.5t-30.5 24.5t3 50t50 80l33 43q85 116 218 116h73q67 0 103 -22t57 -75l24 -60q64 -164 -88 -164q-63 0 -94.5 12.5t-48.5 46.5l-29 58l-13 -15q-55 -59 -98 -80.5t-108 -21.5zM166 0h-16q-80 0 -113 42.5t-16 121.5l261 1227q17 80 68 121.5
t130 41.5h17q80 0 113 -42t16 -121l-72 -340q37 50 103.5 82t134.5 32q40 0 74 -7.5t66.5 -24.5t54.5 -48t35.5 -74t12.5 -106t-18 -141l-128 -600q-17 -80 -68 -122t-130 -42h-21q-80 0 -113 42.5t-16 121.5l124 584q12 53 -9.5 74.5t-57.5 21.5q-88 0 -109 -96l-124 -584
q-17 -80 -68.5 -122t-130.5 -42z" />
    <glyph glyph-name="Hbar" unicode="&#x126;" horiz-adv-x="1216" 
d="M207 0h-36q-80 0 -113 42.5t-16 121.5l183 865h-36q-39 0 -58.5 28.5t-11.5 69.5q9 43 41.5 68.5t70.5 25.5h35l13 61q17 80 68.5 122t130.5 42h37q80 0 113 -42.5t16 -121.5l-13 -61h225l13 61q17 80 68.5 122t130.5 42h37q80 0 113 -42.5t16 -121.5l-13 -61h36
q39 0 60.5 -25.5t12.5 -68.5q-8 -40 -40.5 -69t-70.5 -29h-39l-184 -865q-17 -80 -68.5 -122t-130.5 -42h-37q-80 0 -113 42.5t-16 121.5l84 395h-225l-84 -395q-17 -80 -68.5 -122t-130.5 -42zM590 1029l-33 -155h225l33 155h-225z" />
    <glyph glyph-name="hbar" unicode="&#x127;" horiz-adv-x="1062" 
d="M166 0h-16q-80 0 -113 42.5t-16 121.5l233 1096h-55q-70 0 -57 63q13 61 85 61h53l2 7q17 80 68 121.5t130 41.5h17q80 0 113 -42t16 -121l-2 -9h80q72 0 59 -61q-13 -64 -84 -64h-81l-44 -206q36 35 61.5 55t76 39.5t109.5 19.5q301 0 216 -401l-128 -600
q-17 -80 -68 -122t-130 -42h-21q-80 0 -113 42.5t-16 121.5l124 584q12 53 -9.5 74.5t-57.5 21.5q-88 0 -109 -96l-124 -584q-17 -80 -68.5 -122t-130.5 -42z" />
    <glyph glyph-name="Itilde" unicode="&#x128;" horiz-adv-x="620" 
d="M730 1554q-48 -10 -99 -2.5t-84.5 20.5t-78 17t-79.5 -14q-67 -31 -121 -16.5t-65 69.5q-10 57 42.5 107.5t125.5 66.5q45 10 94 1.5t82.5 -22.5t78 -19.5t81.5 10.5q73 32 121 19t59 -69q12 -58 -37.5 -106.5t-119.5 -61.5zM205 0h-35q-80 0 -113 42.5t-16 121.5
l238 1118q17 80 68.5 122t130.5 42h35q80 0 113 -42.5t16 -121.5l-238 -1118q-17 -80 -68.5 -122t-130.5 -42z" />
    <glyph glyph-name="itilde" unicode="&#x129;" horiz-adv-x="559" 
d="M636 1266q-48 -10 -99.5 -2.5t-85 20t-78 16.5t-79.5 -14q-67 -31 -120.5 -16.5t-64.5 69.5q-10 57 42.5 107.5t125.5 66.5q45 10 94 1.5t82.5 -22.5t78 -19.5t81.5 10.5q73 32 121 19t59 -68q12 -58 -37.5 -106.5t-119.5 -61.5zM166 0h-16q-80 0 -113 42.5t-16 121.5
l175 823q17 80 68.5 122t130.5 42h16q80 0 113 -42.5t16 -121.5l-175 -823q-17 -80 -68.5 -122t-130.5 -42z" />
    <glyph glyph-name="Imacron" unicode="&#x12a;" horiz-adv-x="620" 
d="M675 1554h-305q-77 0 -104 30t-14 91q12 59 52 89t117 30h305q77 0 104 -29.5t14 -89.5q-13 -61 -52.5 -91t-116.5 -30zM205 0h-34q-80 0 -113 42.5t-16 121.5l237 1118q17 80 68.5 122t130.5 42h35q80 0 113 -42.5t16 -121.5l-238 -1118q-17 -80 -68.5 -122t-130.5 -42z
" />
    <glyph glyph-name="imacron" unicode="&#x12b;" horiz-adv-x="557" 
d="M555 1260h-264q-80 0 -115.5 31t-22.5 89q12 57 61 88t128 31h264q80 0 116 -30.5t23 -88.5t-61.5 -89t-128.5 -31zM166 0h-16q-80 0 -113 42.5t-16 121.5l175 823q17 80 68.5 122t130.5 42h16q80 0 113 -42.5t16 -121.5l-175 -823q-17 -80 -68.5 -122t-130.5 -42z" />
    <glyph glyph-name="Ibreve" unicode="&#x12c;" horiz-adv-x="620" 
d="M508 1550q-141 0 -205.5 58.5t-40.5 169.5q11 51 43.5 74.5t93.5 23.5t76.5 -21t11.5 -69q-2 -24 14 -32.5t41 -8.5q59 0 72 41q30 90 142 90q63 0 83 -25t9 -79q-47 -222 -340 -222zM205 0h-35q-80 0 -113 42.5t-16 121.5l238 1118q17 80 68.5 122t130.5 42h35
q80 0 113 -42.5t16 -121.5l-238 -1118q-17 -80 -68.5 -122t-130.5 -42z" />
    <glyph glyph-name="ibreve" unicode="&#x12d;" horiz-adv-x="559" 
d="M428 1257q-141 0 -206 58.5t-41 169.5q11 51 44 74.5t94 23.5t76 -21t11 -69q-2 -24 14 -32.5t41 -8.5q59 0 72 41q30 90 142 90q63 0 83 -25t9 -79q-47 -222 -339 -222zM166 0h-16q-80 0 -113 42.5t-16 121.5l175 823q17 80 68.5 122t130.5 42h16q80 0 113 -42.5
t16 -121.5l-175 -823q-17 -80 -68.5 -122t-130.5 -42z" />
    <glyph glyph-name="Iogonek" unicode="&#x12e;" horiz-adv-x="620" 
d="M478 1446h35q80 0 113 -42.5t16 -121.5l-238 -1118q-14 -63 -48 -102q-6 -8 -48 -59t-73 -96.5t-37 -74.5q-8 -38 6 -54t49 -27q17 -5 27 -9.5t23 -15.5t14 -25t-1 -37q-28 -133 -192 -133q-121 0 -180.5 57t-36.5 163q29 137 162 279q-47 41 -27 134l237 1118
q17 80 68.5 122t130.5 42z" />
    <glyph glyph-name="iogonek" unicode="&#x12f;" horiz-adv-x="565" 
d="M513 1671q86 0 134 -60t30 -145t-91 -143.5t-159 -58.5q-85 0 -132.5 59t-29.5 143q18 85 90.5 145t157.5 60zM395 1151h16q80 0 113 -42.5t16 -121.5l-175 -823q-6 -28 -11 -40q-7 -21 -35 -62q-4 -5 -47 -58t-74 -98t-37 -74q-8 -38 6 -54t49 -27q17 -5 27 -9.5
t23 -15.5t14 -25t-1 -37q-28 -133 -193 -133q-121 0 -180 57t-36 163q31 143 170 288q-37 43 -19 125l175 823q17 80 68.5 122t130.5 42z" />
    <glyph glyph-name="Idotaccent" unicode="&#x130;" horiz-adv-x="620" 
d="M516 1550q-68 0 -104.5 46.5t-22.5 113.5q14 68 70.5 115t125.5 47q68 0 105.5 -47.5t23.5 -114.5q-14 -66 -72.5 -113t-125.5 -47zM205 0h-34q-80 0 -113 42.5t-16 121.5l237 1118q17 80 68.5 122t130.5 42h35q80 0 113 -42.5t16 -121.5l-238 -1118q-17 -80 -68.5 -122
t-130.5 -42z" />
    <glyph glyph-name="dotlessi" unicode="&#x131;" horiz-adv-x="565" 
d="M166 0h-16q-80 0 -113 42.5t-16 121.5l175 823q17 80 68.5 122t130.5 42h16q80 0 113 -42.5t16 -121.5l-175 -823q-17 -80 -68.5 -122t-130.5 -42z" />
    <glyph glyph-name="Jcircumflex" unicode="&#x134;" horiz-adv-x="1120" 
d="M555 1550q-31 0 -51.5 7.5t-30.5 24.5t3 50t50 80l34 43q45 61 97 89t120 28h74q67 0 103 -22t57 -75l23 -60q64 -165 -87 -165q-63 0 -94.5 13t-48.5 47l-29 57l-14 -14q-55 -59 -98.5 -81t-107.5 -22zM449 0q-210 0 -331 116.5t-98 282.5q11 83 61 134t134 51h35
q31 0 54 -4.5t37 -14.5t22.5 -19.5t11.5 -26.5t4 -28t1 -31q0 -23 0.5 -34t5.5 -29t15.5 -26.5t30.5 -15.5t50 -7q119 0 148 137l169 797q17 80 68.5 122t130.5 42h37q80 0 113 -42.5t16 -121.5l-167 -784q-48 -225 -193.5 -361.5t-354.5 -136.5z" />
    <glyph glyph-name="jcircumflex" unicode="&#x135;" horiz-adv-x="575" 
d="M237 1257q-31 0 -51.5 7.5t-30.5 24.5t3 50t50 80l34 43q45 61 97 89t120 28h74q67 0 103 -22t57 -75l23 -60q64 -165 -88 -165q-63 0 -94.5 13t-48.5 47l-29 57l-13 -14q-55 -59 -98.5 -81t-107.5 -22zM6 -399q-90 -21 -143.5 19t-35.5 122q7 33 22.5 58.5t27.5 36.5
t35 28q20 15 30 24.5t22.5 28.5t17.5 43l218 1026q17 80 68.5 122t130.5 42h16q80 0 113 -42.5t16 -121.5l-202 -952q-41 -193 -120.5 -297.5t-215.5 -136.5z" />
    <glyph glyph-name="uni0136" unicode="&#x136;" horiz-adv-x="1173" 
d="M207 0h-37q-80 0 -113 42.5t-16 121.5l238 1118q17 80 68.5 122t130.5 42h37q80 0 113 -42.5t16 -121.5l-87 -408h78l230 437q72 135 213 135h55q91 0 116.5 -52t-23.5 -137l-307 -532l80 -537q13 -85 -34.5 -136.5t-136.5 -51.5h-57q-143 0 -156 135l-47 424h-78
l-84 -395q-17 -80 -68.5 -122t-130.5 -42zM244 -543q-37 3 -52.5 15t-14 50t27.5 109l35 97q30 83 79 117t127 34q49 0 79.5 -9t44.5 -30.5t0.5 -60.5t-55.5 -94l-85 -113q-47 -63 -90.5 -91t-95.5 -24z" />
    <glyph glyph-name="uni0137" unicode="&#x137;" horiz-adv-x="1056" 
d="M506 430h-82l-57 -266q-17 -80 -68 -122t-130 -42h-19q-80 0 -113 42.5t-16 121.5l261 1227q17 80 68 121.5t130 41.5h19q80 0 113 -42t16 -121l-144 -678h65l154 301q70 137 214 137h51q90 0 113.5 -51t-24.5 -137l-231 -422l58 -353q14 -85 -29 -136.5t-129 -51.5h-37
q-142 0 -155 137zM205 -532q-37 3 -52.5 15t-14 50t27.5 109l35 96q30 83 79 117t127 34q49 0 79.5 -9t44.5 -30.5t0.5 -60.5t-55.5 -94l-85 -113q-47 -63 -90.5 -90.5t-95.5 -23.5z" />
    <glyph glyph-name="kgreenlandic" unicode="&#x138;" horiz-adv-x="1056" 
d="M506 430h-82l-57 -266q-17 -80 -68.5 -122t-130.5 -42h-18q-80 0 -113 42.5t-16 121.5l175 823q17 80 68.5 122t130.5 42h18q80 0 113 -42.5t16 -121.5l-58 -274h65l154 301q70 137 214 137h51q90 0 113.5 -51t-24.5 -137l-231 -422l58 -353q14 -85 -29 -136.5
t-129 -51.5h-37q-142 0 -155 137z" />
    <glyph glyph-name="Lacute" unicode="&#x139;" horiz-adv-x="917" 
d="M507 1552h-2q-44 0 -65.5 14t-18.5 51t38 97l16 29q40 69 91.5 100t139.5 31h6q108 -1 122.5 -41t-59.5 -119l-54 -57q-59 -63 -102.5 -84t-111.5 -21zM607 0h-436q-80 0 -113 42.5t-16 121.5l237 1118q17 80 68.5 122t130.5 42h37q80 0 113 -42.5t16 -121.5l-199 -934
h236q80 0 113 -42.5t16 -121.5l-5 -20q-17 -80 -68 -122t-130 -42z" />
    <glyph glyph-name="lacute" unicode="&#x13a;" horiz-adv-x="565" 
d="M494 1644h-2q-44 0 -65.5 14t-18.5 51t38 97l17 28q40 69 91.5 100.5t138.5 31.5h6q108 -1 122.5 -41t-59.5 -119l-53 -58q-58 -63 -102.5 -83.5t-112.5 -20.5zM171 0h-21q-80 0 -113 42.5t-16 121.5l261 1227q17 80 68 121.5t130 41.5h21q80 0 113 -42t16 -121
l-261 -1227q-17 -80 -68 -122t-130 -42z" />
    <glyph glyph-name="uni013B" unicode="&#x13b;" horiz-adv-x="917" 
d="M607 0h-436q-80 0 -113 42.5t-16 121.5l237 1118q17 80 68.5 122t130.5 42h37q80 0 113 -42.5t16 -121.5l-199 -934h236q80 0 113 -42.5t16 -121.5l-5 -20q-17 -80 -68 -122t-130 -42zM135 -532q-37 3 -52.5 15t-14 50t27.5 109l35 96q30 83 79 117t127 34q50 0 80 -9
t44 -30.5t1 -60.5t-55 -94l-86 -113q-47 -63 -90.5 -90.5t-95.5 -23.5z" />
    <glyph glyph-name="uni013C" unicode="&#x13c;" horiz-adv-x="565" 
d="M171 0h-21q-80 0 -113 42.5t-16 121.5l261 1227q17 80 68 121.5t130 41.5h21q80 0 113 -42t16 -121l-261 -1227q-17 -80 -68 -122t-130 -42zM-64 -545q-37 3 -52.5 15t-14 50t27.5 109l35 97q30 83 79 117t127 34q50 0 80 -9t44 -30.5t1 -60.5t-55 -94l-86 -113
q-47 -63 -90.5 -91t-95.5 -24z" />
    <glyph glyph-name="Lcaron" unicode="&#x13d;" horiz-adv-x="1089" 
d="M607 0h-436q-80 0 -113 42.5t-16 121.5l237 1118q17 80 68.5 122t130.5 42h37q80 0 113 -42.5t16 -121.5l-199 -934h236q80 0 113 -42.5t16 -121.5l-5 -20q-17 -80 -68 -122t-130 -42zM797 780q-145 0 -72 162l160 358q35 79 89.5 111.5t141.5 32.5q92 0 116 -53
t-27 -138l-209 -348q-38 -65 -85.5 -95t-113.5 -30z" />
    <glyph glyph-name="lcaron" unicode="&#x13e;" horiz-adv-x="890" 
d="M171 0h-21q-80 0 -113 42.5t-16 121.5l261 1227q17 80 68 121.5t130 41.5h21q80 0 113 -42t16 -121l-261 -1227q-17 -80 -68 -122t-130 -42zM709 860q-56 0 -66 36t25 119l131 308q52 123 172 123h17q75 0 94.5 -45.5t-22.5 -118.5l-182 -313q-63 -109 -169 -109z" />
    <glyph glyph-name="Ldot" unicode="&#x13f;" horiz-adv-x="978" 
d="M607 0h-436q-80 0 -113 42.5t-16 121.5l237 1118q17 80 68.5 122t130.5 42h37q80 0 113 -42.5t16 -121.5l-199 -934h236q80 0 113 -42.5t16 -121.5l-5 -20q-17 -80 -68 -122t-130 -42zM778 576q-65 0 -101.5 45.5t-23.5 110.5t69.5 111.5t121.5 46.5q66 0 103 -46.5
t23 -111.5q-13 -65 -69.5 -110.5t-122.5 -45.5z" />
    <glyph glyph-name="ldot" unicode="&#x140;" horiz-adv-x="851" 
d="M171 0h-21q-80 0 -113 42.5t-16 121.5l261 1227q17 80 68 121.5t130 41.5h21q80 0 113 -42t16 -121l-261 -1227q-17 -80 -68 -122t-130 -42zM712 623q-62 0 -96.5 42.5t-21.5 102.5q13 62 66.5 106t114.5 44t96 -44t22 -106q-13 -60 -66 -102.5t-115 -42.5z" />
    <glyph glyph-name="Lslash" unicode="&#x141;" horiz-adv-x="935" 
d="M623 0h-436q-80 0 -113 42.5t-16 121.5l83 393l-27 -9q-58 -18 -82 13.5t-10 97.5t47 102.5t88 51.5l41 12l98 457q17 80 68 122t130 42h37q80 0 113 -42.5t16 -121.5l-71 -336l32 8q55 14 78.5 -13t10.5 -89q-14 -67 -45.5 -105t-86.5 -55l-46 -14l-70 -330h235
q80 0 113 -42.5t16 -121.5l-4 -20q-17 -80 -68.5 -122t-130.5 -42z" />
    <glyph glyph-name="lslash" unicode="&#x142;" horiz-adv-x="626" 
d="M201 0h-20q-80 0 -113 42.5t-16 121.5l83 393l-8 -2q-64 -18 -91.5 9.5t-13.5 94.5q15 70 52 105t112 59l6 2l121 566q17 80 68 121.5t130 41.5h21q80 0 113 -42t16 -121l-96 -451l7 2q64 19 92 -5.5t13 -94.5q-17 -79 -51 -110.5t-111 -57.5l-7 -2l-108 -508
q-17 -80 -68.5 -122t-130.5 -42z" />
    <glyph glyph-name="Nacute" unicode="&#x143;" horiz-adv-x="1230" 
d="M815 1550h-2q-43 0 -64.5 14t-18.5 51t38 97l16 29q40 69 91.5 100t139.5 31h6q108 -1 122 -41t-60 -119l-53 -57q-59 -63 -103 -84t-112 -21zM207 0h-36q-80 0 -113 42.5t-16 121.5l237 1118q17 80 68.5 122t130.5 42h43q144 0 163 -127l89 -589l114 552q16 80 67.5 122
t131.5 42h37q80 0 113 -42.5t16 -121.5l-238 -1118q-17 -80 -68 -122t-130 -42h-43q-142 0 -164 127l-94 551l-109 -514q-17 -80 -68.5 -122t-130.5 -42z" />
    <glyph glyph-name="nacute" unicode="&#x144;" horiz-adv-x="1062" 
d="M653 1245h-2q-44 0 -65.5 14t-18.5 51t38 97l16 28q40 69 91.5 100t139.5 31h6q108 -1 122 -40.5t-60 -118.5l-53 -58q-59 -63 -102.5 -83.5t-111.5 -20.5zM765 1151q335 0 252 -387l-128 -600q-17 -80 -68 -122t-130 -42h-21q-80 0 -113 42.5t-16 121.5l124 584
q12 53 -9.5 74.5t-57.5 21.5q-88 0 -109 -96l-124 -584q-17 -80 -68.5 -122t-130.5 -42h-16q-80 0 -113 42.5t-16 121.5l175 823q17 79 68 121.5t129 42.5q67 0 100.5 -31t31.5 -90q29 44 92.5 82.5t147.5 38.5z" />
    <glyph glyph-name="uni0145" unicode="&#x145;" horiz-adv-x="1230" 
d="M207 0h-36q-80 0 -113 42.5t-16 121.5l237 1118q17 80 68.5 122t130.5 42h43q144 0 163 -127l89 -589l114 552q16 80 67.5 122t131.5 42h37q80 0 113 -42.5t16 -121.5l-238 -1118q-17 -80 -68 -122t-130 -42h-43q-142 0 -164 127l-94 551l-109 -514q-17 -80 -68.5 -122
t-130.5 -42zM292 -539q-37 3 -52.5 15t-14 50t27.5 109l35 97q30 83 79 117t127 34q49 0 79.5 -9t44.5 -30.5t0.5 -60.5t-55.5 -94l-85 -113q-47 -63 -90.5 -91t-95.5 -24z" />
    <glyph glyph-name="uni0146" unicode="&#x146;" horiz-adv-x="1062" 
d="M765 1151q335 0 252 -387l-128 -600q-17 -80 -68 -122t-130 -42h-21q-80 0 -113 42.5t-16 121.5l124 584q12 53 -9.5 74.5t-57.5 21.5q-88 0 -109 -96l-124 -584q-17 -80 -68.5 -122t-130.5 -42h-16q-80 0 -113 42.5t-16 121.5l175 823q17 79 68 121.5t129 42.5
q67 0 100.5 -31t31.5 -90q29 44 92.5 82.5t147.5 38.5zM410 -115q50 0 80 -9t44 -30.5t1 -60.5t-55 -94l-86 -113q-47 -63 -90.5 -91t-95.5 -24q-37 3 -52.5 15.5t-14 50.5t27.5 109l35 96q30 83 79 117t127 34z" />
    <glyph glyph-name="Ncaron" unicode="&#x147;" horiz-adv-x="1230" 
d="M861 1550h-74q-73 0 -110.5 19.5t-57.5 77.5l-27 77q-19 55 -11 93q12 55 94 55q55 0 85 -8.5t48 -38.5l43 -70l72 70q48 47 186 47q39 0 57.5 -14t12.5 -41q-9 -38 -50 -93l-60 -77q-44 -58 -89.5 -77.5t-118.5 -19.5zM207 0h-36q-80 0 -113 42.5t-16 121.5l237 1118
q17 80 68.5 122t130.5 42h43q144 0 163 -127l89 -589l114 552q16 80 67.5 122t131.5 42h37q80 0 113 -42.5t16 -121.5l-238 -1118q-17 -80 -68 -122t-130 -42h-43q-142 0 -164 127l-94 551l-109 -514q-17 -80 -68.5 -122t-130.5 -42z" />
    <glyph glyph-name="ncaron" unicode="&#x148;" horiz-adv-x="1062" 
d="M972 1572q39 0 57.5 -14t12.5 -41q-8 -35 -51 -92l-59 -78q-44 -58 -90 -77.5t-119 -19.5h-74q-73 0 -110.5 19.5t-57.5 77.5l-26 78q-19 55 -11 92q12 55 93 55q55 0 85.5 -8.5t48.5 -38.5l42 -70l72 70q48 47 187 47zM765 1151q335 0 252 -387l-128 -600
q-17 -80 -68 -122t-130 -42h-21q-80 0 -113 42.5t-16 121.5l124 584q12 53 -9.5 74.5t-57.5 21.5q-88 0 -109 -96l-124 -584q-17 -80 -68.5 -122t-130.5 -42h-16q-80 0 -113 42.5t-16 121.5l175 823q17 79 68 121.5t129 42.5q67 0 100.5 -31t31.5 -90q29 44 92.5 82.5
t147.5 38.5z" />
    <glyph glyph-name="Eng" unicode="&#x14a;" horiz-adv-x="1230" 
d="M634 -410q-86 -26 -134.5 14.5t-30.5 123.5q7 36 23.5 64.5t30 42t37.5 33.5q41 35 52.5 56t22.5 76l-120 678l-109 -514q-17 -80 -68.5 -122t-130.5 -42h-36q-80 0 -113 42.5t-16 121.5l237 1118q17 80 68.5 122t130.5 42h43q144 0 163 -127l89 -589l114 552
q16 80 67.5 122t131.5 42h37q80 0 113 -42.5t16 -121.5l-265 -1247q-77 -364 -353 -445z" />
    <glyph glyph-name="eng" unicode="&#x14b;" horiz-adv-x="1062" 
d="M765 1151q335 0 252 -387l-155 -729q-41 -193 -120.5 -298.5t-215.5 -135.5q-90 -21 -143.5 19t-35.5 122q7 33 21.5 58t26.5 36t33 28q21 16 30.5 24.5t22 28t17.5 44.5l167 787q12 53 -9.5 74.5t-57.5 21.5q-88 0 -109 -96l-124 -584q-17 -80 -68.5 -122t-130.5 -42
h-16q-80 0 -113 42.5t-16 121.5l175 823q17 79 68 121.5t129 42.5q62 0 98.5 -26.5t42.5 -75.5q108 102 231 102z" />
    <glyph glyph-name="Omacron" unicode="&#x14c;" 
d="M929 1546h-305q-77 0 -104 30t-14 91q12 59 52 89t117 30h305q77 0 104 -29.5t14 -89.5q-13 -61 -52.5 -91t-116.5 -30zM490 0q-107 0 -195.5 36.5t-145.5 102.5t-80.5 157.5t0.5 201.5l96 448q48 227 193.5 363.5t356.5 136.5q105 0 193.5 -36.5t145.5 -102.5t80.5 -158
t-0.5 -203l-96 -448q-47 -224 -193.5 -361t-354.5 -137zM523 348q119 0 148 137l101 473q18 84 -9.5 112t-80.5 28q-54 0 -93 -28t-57 -112l-101 -473q-17 -82 12 -109.5t80 -27.5z" />
    <glyph glyph-name="omacron" unicode="&#x14d;" horiz-adv-x="1021" 
d="M807 1249h-305q-77 0 -104 30t-14 91q12 59 52 89t117 30h305q77 0 104 -29.5t14 -89.5q-13 -61 -52.5 -91t-116.5 -30zM429 0q-210 0 -316.5 123.5t-62.5 331.5l53 247q45 212 166.5 330.5t321.5 118.5q207 0 316 -124t66 -325l-53 -247q-46 -217 -169 -336t-322 -119z
M453 307q36 0 67.5 21.5t42.5 74.5l74 345q12 53 -10 74.5t-60 21.5q-88 0 -109 -96l-73 -345q-11 -53 10.5 -74.5t57.5 -21.5z" />
    <glyph glyph-name="Obreve" unicode="&#x14e;" 
d="M779 1554q-141 0 -205.5 58.5t-40.5 169.5q11 51 43.5 74.5t93.5 23.5t76.5 -21t11.5 -69q-2 -24 14 -32.5t41 -8.5q59 0 72 41q30 90 142 90q63 0 83 -25t9 -79q-47 -222 -340 -222zM490 0q-107 0 -195.5 36.5t-145.5 102.5t-80.5 157.5t0.5 201.5l96 448
q48 227 193.5 363.5t356.5 136.5q105 0 193.5 -36.5t145.5 -102.5t80.5 -158t-0.5 -203l-96 -448q-47 -224 -193.5 -361t-354.5 -137zM523 348q119 0 148 137l101 473q18 84 -9.5 112t-80.5 28q-54 0 -93 -28t-57 -112l-101 -473q-17 -82 12 -109.5t80 -27.5z" />
    <glyph glyph-name="obreve" unicode="&#x14f;" horiz-adv-x="1021" 
d="M654 1243q-141 0 -206 58t-41 169q11 51 44 75t94 24t76.5 -21t11.5 -69q-2 -24 13.5 -32.5t40.5 -8.5q60 0 73 41q30 90 141 90q63 0 83.5 -25.5t9.5 -79.5q-47 -221 -340 -221zM429 0q-210 0 -316.5 123.5t-62.5 331.5l53 247q45 212 166.5 330.5t321.5 118.5
q207 0 316 -124t66 -325l-53 -247q-46 -217 -169 -336t-322 -119zM453 307q36 0 67.5 21.5t42.5 74.5l74 345q12 53 -10 74.5t-60 21.5q-88 0 -109 -96l-73 -345q-11 -53 10.5 -74.5t57.5 -21.5z" />
    <glyph glyph-name="Ohungarumlaut" unicode="&#x150;" 
d="M583 1546q-112 0 -32 150l14 24q35 67 78 94t116 27q168 -1 46 -145l-44 -54q-48 -58 -84.5 -77t-93.5 -19zM933 1546q-113 0 -31 150l13 24q37 68 79.5 94.5t116.5 26.5q85 -1 95 -37.5t-50 -107.5l-44 -54q-48 -58 -85 -77t-94 -19zM490 0q-107 0 -195.5 36.5
t-145.5 102.5t-80 157.5t1 201.5l95 448q48 226 194 363t357 137q105 0 193.5 -36.5t145.5 -102.5t80 -158t-1 -203l-96 -448q-47 -224 -193.5 -361t-354.5 -137zM523 348q119 0 148 137l101 473q18 84 -9.5 112t-80.5 28q-54 0 -93 -28t-57 -112l-101 -473
q-17 -82 12 -109.5t80 -27.5z" />
    <glyph glyph-name="ohungarumlaut" unicode="&#x151;" horiz-adv-x="1021" 
d="M468 1252q-53 0 -63 31.5t32 117.5l13 25q35 67 78.5 94t116.5 27q169 -1 46 -146l-44 -53q-48 -58 -85 -77t-94 -19zM819 1252q-114 0 -32 149l13 25q37 68 79.5 94.5t116.5 26.5q85 -1 95 -38t-50 -108l-44 -53q-48 -58 -84.5 -77t-93.5 -19zM429 0
q-210 0 -316.5 123.5t-62.5 331.5l53 247q45 212 166.5 330.5t321.5 118.5q207 0 316 -124t66 -325l-52 -247q-46 -217 -169.5 -336t-322.5 -119zM453 307q36 0 68 21.5t43 74.5l73 345q12 53 -10 74.5t-60 21.5q-87 0 -108 -96l-74 -345q-11 -53 10.5 -74.5t57.5 -21.5z
" />
    <glyph glyph-name="OE" unicode="&#x152;" horiz-adv-x="1581" 
d="M470 0q-217 0 -332 140t-69 358l101 475q47 221 198.5 347t367.5 126h170h82h80h456q80 0 113 -42.5t16 -121.5l-4 -22q-17 -80 -68.5 -122t-130.5 -42h-285l-47 -222h178q80 0 113.5 -40.5t17.5 -116.5q-17 -77 -68 -117.5t-130 -40.5h-178l-45 -211h285q80 0 113 -42.5
t16 -121.5l-4 -20q-17 -80 -68.5 -122t-130.5 -42h-420h-76h-86h-165zM523 348h119l159 748h-119q-54 0 -93 -28t-57 -112l-101 -471q-17 -82 12 -109.5t80 -27.5z" />
    <glyph glyph-name="oe" unicode="&#x153;" horiz-adv-x="1533" 
d="M388 0q-206 0 -294.5 121.5t-43.5 333.5l53 247q46 216 158 332.5t310 116.5q118 0 194 -51t85 -127q36 78 121.5 128t203.5 50q204 0 285.5 -114.5t36.5 -327.5l-16 -74q-17 -80 -68.5 -122t-130.5 -42h-360l-21 -100q-11 -50 10.5 -70t57.5 -20q33 0 58 8.5t36.5 18
t28.5 27.5q20 21 32.5 31t44.5 20.5t75 10.5h31q70 0 99 -22t17 -66q-83 -309 -420 -309q-122 0 -194 44t-89 126q-90 -170 -300 -170zM986 774l-14 -67h178l14 67q20 94 -70 94q-88 0 -108 -94zM453 307q36 0 67.5 21.5t42.5 74.5l74 345q12 53 -10 74.5t-60 21.5
q-88 0 -109 -96l-73 -345q-11 -53 10.5 -74.5t57.5 -21.5z" />
    <glyph glyph-name="Racute" unicode="&#x154;" horiz-adv-x="1157" 
d="M770 1549h-2q-43 0 -64.5 14t-18.5 51t38 97l16 29q40 69 91.5 100t139.5 31h6q108 -1 122 -41t-60 -119l-53 -57q-59 -63 -103 -84t-112 -21zM207 0h-36q-80 0 -113 42.5t-16 121.5l237 1118q17 80 68.5 122t130.5 42h272q108 0 194.5 -35.5t144.5 -104.5t77.5 -170.5
t-7.5 -232.5l-8 -39q-58 -277 -247 -420l53 -254q17 -85 -26.5 -137.5t-131.5 -52.5h-57q-142 0 -158 133l-24 197h-119l-35 -166q-17 -80 -68.5 -122t-130.5 -42zM605 1098l-91 -424h68q25 0 46 3.5t47.5 15t47 31.5t39 57t29.5 87l7 33q7 44 9 75.5t-8 53t-21 35t-30.5 21
t-36.5 10t-39 2.5h-67z" />
    <glyph glyph-name="racute" unicode="&#x155;" horiz-adv-x="735" 
d="M521 1251h-2q-43 0 -64.5 14t-18.5 51t38 97l16 29q40 69 91.5 100t139.5 31h6q108 -1 122 -41t-60 -119l-53 -57q-59 -63 -103 -84t-112 -21zM700 1151q67 0 94 -37.5t13 -105.5l-3 -13q-16 -75 -63 -113t-136 -73q-113 -44 -147 -209l-93 -436q-17 -80 -68.5 -122
t-130.5 -42h-16q-80 0 -113 42.5t-16 121.5l175 823q17 79 68 121.5t129 42.5q132 0 132 -115q23 46 68 80.5t107 34.5z" />
    <glyph glyph-name="uni0156" unicode="&#x156;" horiz-adv-x="1157" 
d="M207 0h-36q-80 0 -113 42.5t-16 121.5l237 1118q17 80 68.5 122t130.5 42h272q108 0 194.5 -35.5t144.5 -104.5t77.5 -170.5t-7.5 -232.5l-8 -39q-58 -277 -247 -420l53 -254q17 -85 -26.5 -137.5t-131.5 -52.5h-57q-142 0 -158 133l-24 197h-119l-35 -166
q-17 -80 -68.5 -122t-130.5 -42zM605 1098l-91 -424h68q25 0 46 3.5t47.5 15t47 31.5t39 57t29.5 87l7 33q7 44 9 75.5t-8 53t-21 35t-30.5 21t-36.5 10t-39 2.5h-67zM255 -537q-37 3 -52.5 15.5t-14 50.5t27.5 109l35 96q30 83 79 117t127 34q50 0 80 -9t44 -30.5t1 -60.5
t-55 -94l-86 -113q-47 -63 -90.5 -91t-95.5 -24z" />
    <glyph glyph-name="uni0157" unicode="&#x157;" horiz-adv-x="735" 
d="M700 1151q67 0 94 -37.5t13 -105.5l-3 -13q-16 -75 -63 -113t-136 -73q-113 -44 -147 -209l-93 -436q-17 -80 -68.5 -122t-130.5 -42h-16q-80 0 -113 42.5t-16 121.5l175 823q17 79 68 121.5t129 42.5q132 0 132 -115q23 46 68 80.5t107 34.5zM144 -127q49 0 79.5 -9.5
t44.5 -31t0.5 -60.5t-55.5 -94l-86 -112q-47 -63 -90.5 -91t-95.5 -24q-37 3 -52.5 15t-14 50t27.5 109l35 96q30 83 79.5 117.5t127.5 34.5z" />
    <glyph glyph-name="Rcaron" unicode="&#x158;" horiz-adv-x="1157" 
d="M816 1553h-74q-73 0 -110.5 19t-57.5 77l-26 78q-19 55 -11 92q12 56 93 56q54 0 85 -9t49 -39l42 -69l72 69q49 48 187 48q39 0 57.5 -14.5t12.5 -41.5q-8 -35 -51 -92l-59 -78q-44 -58 -90 -77t-119 -19zM207 0h-36q-80 0 -113 42.5t-16 121.5l237 1118q17 80 68.5 122
t130.5 42h272q108 0 194.5 -35.5t144.5 -104.5t77.5 -170.5t-7.5 -232.5l-8 -39q-58 -277 -247 -420l53 -254q17 -85 -26.5 -137.5t-131.5 -52.5h-57q-142 0 -158 133l-24 197h-119l-35 -166q-17 -80 -68.5 -122t-130.5 -42zM605 1098l-91 -424h68q25 0 46 3.5t47.5 15
t47 31.5t39 57t29.5 87l7 33q7 44 9 75.5t-8 53t-21 35t-30.5 21t-36.5 10t-39 2.5h-67z" />
    <glyph glyph-name="rcaron" unicode="&#x159;" horiz-adv-x="735" 
d="M825 1589q39 0 57.5 -14t12.5 -41q-8 -37 -50 -92l-60 -78q-44 -58 -90 -77t-119 -19h-73q-73 0 -110.5 19t-57.5 77l-27 78q-19 55 -11 92q12 55 94 55q55 0 85 -8.5t48 -38.5l43 -70l72 70q48 47 186 47zM700 1151q67 0 94 -37.5t13 -105.5l-3 -13q-16 -75 -63 -113
t-136 -73q-113 -44 -147 -209l-93 -436q-17 -80 -68.5 -122t-130.5 -42h-16q-80 0 -113 42.5t-16 121.5l175 823q17 79 68 121.5t129 42.5q132 0 132 -115q23 46 68 80.5t107 34.5z" />
    <glyph glyph-name="Sacute" unicode="&#x15a;" horiz-adv-x="1099" 
d="M771 1554h-2q-43 0 -64.5 14t-18.5 51t38 97l16 29q40 69 91.5 100t139.5 31h6q108 -1 122 -41t-60 -119l-53 -57q-59 -63 -103 -84t-112 -21zM486 0q-172 0 -307 96t-145 225q-7 91 40 143t137 52h6q37 0 63.5 -6.5t43 -21.5t24 -25.5t19.5 -32.5q22 -43 52.5 -66.5
t93.5 -23.5q51 0 90.5 29.5t44.5 74.5q7 58 -39 93t-139 66q-52 17 -97 41t-87.5 62.5t-71 85.5t-42 112.5t-5.5 141.5q22 194 163 297t349 103q96 0 191.5 -36t166.5 -107.5t83 -161.5q11 -85 -39.5 -140t-143.5 -55h-10q-39 0 -67 13.5t-38.5 26.5t-26.5 39
q-16 25 -29.5 40.5t-43 29t-69.5 13.5q-51 0 -85.5 -29.5t-39.5 -72.5q-7 -59 40 -94t140 -63q53 -15 97.5 -37.5t87.5 -59t71.5 -82.5t43 -112t7.5 -144q-12 -133 -87 -228.5t-188.5 -140.5t-253.5 -45z" />
    <glyph glyph-name="sacute" unicode="&#x15b;" horiz-adv-x="1001" 
d="M624 1247h-2q-43 0 -64.5 14t-18.5 51t38 97l16 29q40 69 91.5 100t138.5 31h7q108 -1 122 -41t-60 -119l-53 -57q-59 -63 -103 -84t-112 -21zM400 0q-149 0 -259.5 57.5t-132.5 159.5q-16 71 36.5 121.5t141.5 50.5h12q32 0 57 -9t37 -18t31 -28t31 -28t37 -18t56 -9
q39 0 65.5 18t33.5 53q6 29 -15 51.5t-59.5 40t-86.5 36t-95.5 45.5t-86 62.5t-60 93t-14.5 130.5q14 157 143 249.5t321 92.5q155 0 262 -53t127 -152q14 -71 -36.5 -120.5t-138.5 -49.5h-13q-37 0 -64.5 9.5t-39.5 19t-30 28.5q-15 16 -24.5 24t-30 16t-45.5 8
q-32 0 -56.5 -18.5t-30.5 -47.5q-7 -32 13.5 -56.5t59 -43.5t86 -38t95.5 -46t87 -62t61.5 -92t18.5 -129q-10 -167 -143.5 -257.5t-350.5 -90.5z" />
    <glyph glyph-name="Scircumflex" unicode="&#x15c;" horiz-adv-x="1099" 
d="M586 1542q-31 0 -51.5 7.5t-30.5 24.5t3 50t50 80l34 43q45 61 97 89t120 28h74q67 0 103 -22t57 -75l23 -61q64 -164 -87 -164q-63 0 -94.5 13t-48.5 47l-29 57l-14 -14q-55 -59 -98.5 -81t-107.5 -22zM486 0q-172 0 -307 96.5t-145 225.5q-7 91 40 142.5t137 51.5h6
q37 0 63.5 -6.5t43 -21.5t24 -25.5t19.5 -32.5q22 -43 52.5 -66.5t93.5 -23.5q51 0 90.5 29.5t44.5 74.5q7 58 -39 93t-139 66q-66 22 -120.5 56t-101.5 86.5t-69 130t-12 171.5q22 194 162.5 296.5t349.5 102.5q96 0 191.5 -36t166.5 -107.5t83 -161.5q11 -85 -39.5 -140
t-143.5 -55h-10q-39 0 -67 13.5t-38.5 26.5t-26.5 39q-16 25 -29.5 40.5t-43 29t-69.5 13.5q-51 0 -85.5 -29.5t-39.5 -72.5q-7 -59 40 -94t140 -63q53 -15 97.5 -37.5t87.5 -59t71.5 -82.5t43 -112t7.5 -144q-12 -133 -87 -228.5t-188.5 -140.5t-253.5 -45z" />
    <glyph glyph-name="scircumflex" unicode="&#x15d;" horiz-adv-x="1001" 
d="M459 1253q-31 0 -51.5 7.5t-30.5 24.5t3 50t50 80l34 43q45 61 97 89t120 28h74q67 0 103 -22t57 -75l24 -60q64 -165 -88 -165q-63 0 -94.5 13t-48.5 47l-29 57l-13 -14q-55 -59 -99 -81t-108 -22zM400 0q-149 0 -259.5 57.5t-132.5 159.5q-16 71 36.5 121.5t141.5 50.5
h12q32 0 57 -9t37 -18t31 -28t31 -28t37 -18t56 -9q39 0 65.5 18t33.5 53q6 29 -15 51.5t-59.5 40t-86.5 36t-95.5 45.5t-86 62.5t-60 93t-14.5 130.5q14 157 143 249.5t321 92.5q155 0 262 -53t127 -152q14 -71 -36.5 -120.5t-138.5 -49.5h-13q-37 0 -64.5 9.5t-39.5 19
t-30 28.5q-15 16 -24.5 24t-30 16t-45.5 8q-32 0 -56.5 -18.5t-30.5 -47.5q-7 -32 13.5 -56.5t59 -43.5t86 -38t95.5 -46t87 -62t61.5 -92t18.5 -129q-10 -167 -143.5 -257.5t-350.5 -90.5z" />
    <glyph glyph-name="Scedilla" unicode="&#x15e;" horiz-adv-x="1099" 
d="M653 1108q-51 0 -85.5 -29.5t-39.5 -72.5q-7 -59 40 -94t140 -63q53 -15 97.5 -37.5t87.5 -59t71.5 -82.5t43 -112t7.5 -144q-16 -177 -136.5 -282.5t-304.5 -126.5q-6 -21 -18 -52l-50 -137q-55 -152 -206 -152q-94 0 -112.5 53t41.5 142l102 153l6 9
q-125 36 -210.5 119.5t-92.5 181.5q-7 91 40 142.5t137 51.5h6q37 0 63.5 -6.5t43 -21.5t24 -25.5t19.5 -32.5q22 -43 52.5 -66.5t93.5 -23.5q51 0 90.5 29.5t44.5 74.5q7 58 -39 93t-139 66q-66 22 -120.5 56t-101.5 86.5t-69 130t-12 171.5q22 194 162.5 296.5
t349.5 102.5q96 0 191.5 -36t166.5 -107.5t83 -161.5q11 -85 -39.5 -140t-143.5 -55h-10q-39 0 -67 13.5t-38.5 26.5t-26.5 39q-16 25 -29.5 40.5t-43 29t-69.5 13.5z" />
    <glyph glyph-name="scedilla" unicode="&#x15f;" horiz-adv-x="1001" 
d="M560 881q-32 0 -56.5 -18.5t-30.5 -47.5q-7 -32 13.5 -56.5t59 -43.5t86 -38t95.5 -46t87 -62t61.5 -92t18.5 -129q-9 -149 -117.5 -237.5t-288.5 -106.5q-10 -36 -19 -58l-50 -137q-54 -151 -206 -151q-94 0 -112.5 52.5t40.5 141.5l103 154q1 2 3.5 5.5t3.5 5.5
q-97 23 -161.5 74t-81.5 126q-16 71 36.5 121.5t141.5 50.5h12q32 0 57 -9t37 -18t31 -28t31 -28t37 -18t56 -9q39 0 65.5 18t33.5 53q6 29 -15 51.5t-59.5 40t-86.5 36t-95.5 45.5t-86 62.5t-60 93t-14.5 130.5q14 157 143 249.5t321 92.5q155 0 262 -53t127 -152
q14 -71 -36.5 -120.5t-138.5 -49.5h-13q-37 0 -64.5 9.5t-39.5 19t-30 28.5q-15 16 -24.5 24t-30 16t-45.5 8z" />
    <glyph glyph-name="Scaron" unicode="&#x160;" horiz-adv-x="1099" 
d="M815 1550h-73q-73 0 -110.5 19.5t-57.5 77.5l-27 77q-19 55 -11 93q12 55 94 55q55 0 85 -8.5t48 -38.5l43 -70l72 70q48 47 186 47q39 0 57.5 -14t12.5 -41q-9 -38 -50 -93l-60 -77q-44 -58 -90 -77.5t-119 -19.5zM486 0q-172 0 -307 96.5t-145 225.5q-7 91 40 142.5
t137 51.5h6q37 0 63.5 -6.5t43 -21.5t24 -25.5t19.5 -32.5q22 -43 52.5 -66.5t93.5 -23.5q51 0 90.5 29.5t44.5 74.5q7 58 -39 93t-139 66q-66 22 -120.5 56t-101.5 86.5t-69 130t-12 171.5q22 194 162.5 296.5t349.5 102.5q96 0 191.5 -36t166.5 -107.5t83 -161.5
q11 -85 -39.5 -140t-143.5 -55h-10q-39 0 -67 13.5t-38.5 26.5t-26.5 39q-16 25 -29.5 40.5t-43 29t-69.5 13.5q-51 0 -85.5 -29.5t-39.5 -72.5q-7 -59 40 -94t140 -63q53 -15 97.5 -37.5t87.5 -59t71.5 -82.5t43 -112t7.5 -144q-12 -133 -87 -228.5t-188.5 -140.5
t-253.5 -45z" />
    <glyph glyph-name="scaron" unicode="&#x161;" horiz-adv-x="1001" 
d="M695 1264h-74q-73 0 -110.5 19t-57.5 77l-26 78q-19 55 -11 92q12 55 94 55q55 0 85 -8.5t48 -38.5l42 -70l73 70q48 47 186 47q39 0 57.5 -14t12.5 -41q-8 -37 -50 -92l-60 -78q-44 -58 -90 -77t-119 -19zM400 0q-149 0 -259.5 57.5t-132.5 159.5q-16 71 36.5 121.5
t141.5 50.5h12q32 0 57 -9t37 -18t31 -28t31 -28t37 -18t56 -9q39 0 65.5 18t33.5 53q6 29 -15 51.5t-59.5 40t-86.5 36t-95.5 45.5t-86 62.5t-60 93t-14.5 130.5q14 157 143 249.5t321 92.5q155 0 262 -53t127 -152q14 -71 -36.5 -120.5t-138.5 -49.5h-13q-37 0 -64.5 9.5
t-39.5 19t-30 28.5q-15 16 -24.5 24t-30 16t-45.5 8q-32 0 -56.5 -18.5t-30.5 -47.5q-7 -32 13.5 -56.5t59 -43.5t86 -38t95.5 -46t87 -62t61.5 -92t18.5 -129q-10 -167 -143.5 -257.5t-350.5 -90.5z" />
    <glyph glyph-name="uni0162" unicode="&#x162;" horiz-adv-x="933" 
d="M384 1446h534q80 0 113 -42.5t16 -121.5l-5 -22q-36 -164 -157 -164h-125l-198 -932q-24 -114 -117 -150q-6 -31 -30 -98l-49 -137q-55 -152 -206 -152q-94 0 -112.5 53t40.5 142l103 153q21 32 37 51q-54 41 -33 138l198 932h-84q-80 0 -113 42.5t-16 121.5l5 22
q17 80 68.5 122t130.5 42z" />
    <glyph glyph-name="uni0163" unicode="&#x163;" horiz-adv-x="712" 
d="M620 1151h14q156 0 123 -154q-33 -153 -182 -153h-20l-86 -402q-4 -20 -5 -37t3 -29.5t8 -21.5t13.5 -18t15.5 -14t18 -13q13 -9 19 -13.5t17 -14.5t15 -20t8.5 -24.5t3.5 -34t-6 -42.5q-17 -78 -59.5 -116.5t-119.5 -42.5q-8 -31 -28 -85l-49 -137q-55 -152 -206 -152
q-94 0 -112.5 53t40.5 142l103 153q33 52 61 76q-68 51 -91 147.5t3 225.5l90 422h-7q-49 0 -67 37t-4 104q3 16 7.5 29.5t12.5 25.5t13 20.5t18 19t19 16t23.5 16t24 14t28.5 15.5t29 16q19 10 40 31q19 21 32 45q45 84 81.5 120t90.5 36q59 0 83.5 -27.5t10.5 -91.5z" />
    <glyph glyph-name="Tcaron" unicode="&#x164;" horiz-adv-x="933" 
d="M707 1542h-73q-73 0 -110.5 19t-57.5 77l-27 78q-19 55 -11 92q12 56 94 56q55 0 85 -8.5t48 -38.5l43 -70l72 70q48 47 186 47q39 0 57.5 -14.5t12.5 -41.5q-8 -37 -50 -92l-60 -78q-44 -58 -90 -77t-119 -19zM363 0h-39q-80 0 -113 42.5t-16 121.5l198 932h-84
q-80 0 -113 42.5t-16 121.5l5 22q17 80 68.5 122t130.5 42h534q80 0 113 -42.5t16 -121.5l-5 -22q-36 -164 -157 -164h-125l-198 -932q-17 -80 -68.5 -122t-130.5 -42z" />
    <glyph glyph-name="tcaron" unicode="&#x165;" horiz-adv-x="712" 
d="M601 1503h-74q-73 0 -110.5 19t-57.5 77l-26 78q-20 57 -12 92q12 55 94 55q55 0 85 -8.5t48 -38.5l43 -69l72 69q48 47 186 47q39 0 57.5 -14t12.5 -41q-8 -37 -50 -92l-59 -78q-44 -58 -90 -77t-119 -19zM375 0q-155 0 -225 116.5t-29 307.5l90 422h-7q-49 0 -67 37
t-4 104q3 16 7.5 29.5t12.5 25.5t13 20.5t18 19t19 16t23.5 16t24 14t28.5 15.5t29 16q19 10 40 31q19 21 32 45q45 84 81.5 120t90.5 36q59 0 83.5 -27.5t10.5 -91.5l-26 -121h14q156 0 123 -154q-33 -153 -182 -153h-20l-86 -402q-4 -20 -5 -37t3 -29.5t8 -21.5t13.5 -18
t15.5 -14t18 -13q13 -9 19 -13.5t17 -14.5t15 -20t8.5 -24.5t3.5 -34t-6 -42.5q-18 -84 -66.5 -122t-137.5 -38z" />
    <glyph glyph-name="Tbar" unicode="&#x166;" horiz-adv-x="933" 
d="M363 0h-39q-80 0 -113 42.5t-16 121.5l99 464h-60q-37 0 -57.5 27t-11.5 70q8 40 40 67t72 27h57l59 277h-84q-80 0 -113 42.5t-16 121.5l5 22q17 80 68.5 122t130.5 42h534q80 0 113 -42.5t16 -121.5l-5 -22q-36 -164 -157 -164h-125l-60 -280l62 1q38 1 59.5 -25
t12.5 -69q-8 -40 -40.5 -68.5t-70.5 -28.5h-63l-98 -462q-17 -80 -68.5 -122t-130.5 -42z" />
    <glyph glyph-name="tbar" unicode="&#x167;" horiz-adv-x="706" 
d="M620 1151h14q156 0 123 -154q-33 -153 -182 -153h-20l-39 -182h57q72 0 59 -62q-13 -63 -83 -63h-60l-20 -95q-4 -20 -5 -37t3 -29.5t8 -21.5t13.5 -18t15.5 -14t18 -13q13 -9 19 -13.5t17 -14.5t15 -20t8.5 -24.5t3.5 -34t-6 -42.5q-18 -84 -66.5 -122t-137.5 -38
q-155 0 -225 116.5t-29 307.5l24 113h-39q-69 0 -56 63q13 62 85 62h37l39 184h-7q-49 0 -67 37t-4 104q3 16 7.5 29.5t12.5 25.5t13 20.5t18 19t19 16t23.5 16t24 14t28.5 15.5t29 16q19 10 40 31q19 21 32 45q45 84 81.5 120t90.5 36q59 0 83.5 -27.5t10.5 -91.5z" />
    <glyph glyph-name="Utilde" unicode="&#x168;" horiz-adv-x="1183" 
d="M1009 1546q-48 -10 -99.5 -2.5t-85 20.5t-78 17t-79.5 -14q-67 -31 -120.5 -16.5t-64.5 69.5q-10 57 42.5 107.5t125.5 66.5q45 10 94 1.5t82.5 -23t78 -20t81.5 10.5q73 32 121 19t59 -68q12 -58 -37.5 -106.5t-119.5 -61.5zM502 0q-107 0 -194 36.5t-142 102.5
t-76.5 157.5t2.5 201.5l167 784q17 80 68 122t130 42h35q80 0 113 -42.5t16 -121.5l-169 -797q-17 -82 12 -109.5t80 -27.5q118 0 147 137l170 797q17 80 68 122t130 42h37q80 0 113 -42.5t16 -121.5l-166 -784q-47 -223 -197.5 -360.5t-359.5 -137.5z" />
    <glyph glyph-name="utilde" unicode="&#x169;" horiz-adv-x="1042" 
d="M874 1266q-48 -10 -99.5 -2.5t-85 20t-78 16.5t-79.5 -14q-67 -31 -120.5 -16.5t-64.5 69.5q-10 57 42.5 107.5t125.5 66.5q45 10 93.5 1.5t82 -22.5t78 -19.5t81.5 10.5q73 32 121 19t59 -68q12 -58 -37 -106.5t-119 -61.5zM429 0q-211 0 -312.5 123t-56.5 332l113 532
q17 80 68.5 122t130.5 42h19q80 0 113 -42.5t16 -121.5l-124 -584q-12 -53 10 -74.5t59 -21.5q35 0 66.5 21.5t42.5 74.5l124 584q17 80 68 122t130 42h19q80 0 113 -42.5t16 -121.5l-113 -532q-47 -221 -174 -338t-328 -117z" />
    <glyph glyph-name="Umacron" unicode="&#x16a;" horiz-adv-x="1183" 
d="M953 1550h-305q-77 0 -104 30t-14 91q13 59 52 89t116 30h306q77 0 104 -29.5t14 -89.5q-13 -61 -52.5 -91t-116.5 -30zM502 0q-107 0 -194 36.5t-142 102.5t-76.5 157.5t2.5 201.5l167 784q17 80 68 122t130 42h35q80 0 113 -42.5t16 -121.5l-169 -797
q-17 -82 12 -109.5t80 -27.5q119 0 148 137l169 797q17 80 68.5 122t130.5 42h36q80 0 113 -42.5t16 -121.5l-166 -784q-47 -223 -197.5 -360.5t-359.5 -137.5z" />
    <glyph glyph-name="umacron" unicode="&#x16b;" horiz-adv-x="1042" 
d="M818 1255h-305q-77 0 -104 30t-14 91q12 59 52 89t117 30h305q77 0 104 -29.5t14 -89.5q-13 -61 -52.5 -91t-116.5 -30zM429 0q-211 0 -312.5 123t-56.5 332l114 532q17 80 68 122t130 42h19q80 0 113 -42.5t16 -121.5l-124 -584q-12 -53 10 -74.5t59 -21.5
q35 0 66.5 21.5t42.5 74.5l124 584q17 80 68 122t130 42h19q80 0 113 -42.5t16 -121.5l-113 -532q-47 -221 -174 -338t-328 -117z" />
    <glyph glyph-name="Ubreve" unicode="&#x16c;" horiz-adv-x="1183" 
d="M802 1556q-141 0 -205.5 58.5t-40.5 169.5q11 51 43.5 74.5t93.5 23.5t76.5 -21t11.5 -69q-2 -24 14 -32.5t41 -8.5q59 0 72 41q30 90 142 90q63 0 83 -25t9 -79q-47 -222 -340 -222zM502 0q-107 0 -194 36.5t-142 102.5t-76.5 157.5t2.5 201.5l167 784q17 80 68 122
t130 42h35q80 0 113 -42.5t16 -121.5l-169 -797q-17 -82 12 -109.5t80 -27.5q119 0 148 137l169 797q17 80 68 122t130 42h37q80 0 113 -42.5t16 -121.5l-166 -784q-47 -223 -197.5 -360.5t-359.5 -137.5z" />
    <glyph glyph-name="ubreve" unicode="&#x16d;" horiz-adv-x="1042" 
d="M663 1257q-141 0 -206 58.5t-41 169.5q11 51 44 74.5t94 23.5t76.5 -21t11.5 -69q-2 -24 14 -32.5t41 -8.5q59 0 72 41q30 90 141 90q64 0 84 -25.5t9 -78.5q-47 -222 -340 -222zM429 0q-211 0 -312.5 123t-56.5 332l113 532q17 80 68.5 122t130.5 42h19q80 0 113 -42.5
t16 -121.5l-124 -584q-12 -53 10 -74.5t59 -21.5q35 0 66.5 21.5t42.5 74.5l124 584q17 80 68 122t130 42h19q80 0 113 -42.5t16 -121.5l-113 -532q-47 -221 -174 -338t-328 -117z" />
    <glyph glyph-name="Uring" unicode="&#x16e;" horiz-adv-x="1183" 
d="M808 1544q-86 0 -136 59t-36 144q14 86 83 145.5t155 59.5q85 0 136 -60t38 -145q-13 -84 -84 -143.5t-156 -59.5zM833 1702q20 0 36.5 14.5t21.5 34.5q4 20 -6.5 33.5t-30.5 13.5t-37.5 -13.5t-21.5 -33.5q-5 -20 6.5 -34.5t31.5 -14.5zM502 0q-107 0 -194 36.5
t-142 102.5t-76.5 157.5t2.5 201.5l167 784q17 80 68 122t130 42h35q80 0 113 -42.5t16 -121.5l-169 -797q-17 -82 12 -109.5t80 -27.5q119 0 148 137l169 797q17 80 68.5 122t130.5 42h36q80 0 113 -42.5t16 -121.5l-166 -784q-47 -223 -197.5 -360.5t-359.5 -137.5z" />
    <glyph glyph-name="uring" unicode="&#x16f;" horiz-adv-x="1042" 
d="M666 1251q-86 0 -136 59t-36 144q14 86 83 145.5t155 59.5q85 0 136 -60t38 -145q-13 -84 -84 -143.5t-156 -59.5zM691 1409q20 0 36.5 14.5t21.5 34.5q4 20 -6.5 33.5t-30.5 13.5t-37.5 -13.5t-21.5 -33.5q-5 -20 6.5 -34.5t31.5 -14.5zM429 0q-211 0 -312.5 123
t-56.5 332l114 532q17 80 68 122t130 42h19q80 0 113 -42.5t16 -121.5l-124 -584q-12 -53 10 -74.5t59 -21.5q35 0 66.5 21.5t42.5 74.5l124 584q17 80 68 122t130 42h19q80 0 113 -42.5t16 -121.5l-113 -532q-47 -221 -174 -338t-328 -117z" />
    <glyph glyph-name="Uhungarumlaut" unicode="&#x170;" horiz-adv-x="1183" 
d="M604 1548q-112 0 -32 150l14 24q35 67 78 94t116 27q168 -1 46 -145l-44 -53q-48 -59 -84.5 -78t-93.5 -19zM954 1548q-113 0 -31 150l13 24q37 68 79.5 94.5t115.5 26.5q85 -1 95.5 -37.5t-49.5 -107.5l-45 -53q-48 -59 -84.5 -78t-93.5 -19zM502 0q-107 0 -194 36.5
t-142 102.5t-76.5 157.5t2.5 201.5l167 784q17 80 68 122t130 42h35q80 0 113 -42.5t16 -121.5l-169 -797q-17 -82 12 -109.5t80 -27.5q119 0 148 137l169 797q17 80 68.5 122t130.5 42h36q80 0 113 -42.5t16 -121.5l-166 -784q-47 -223 -197.5 -360.5t-359.5 -137.5z" />
    <glyph glyph-name="uhungarumlaut" unicode="&#x171;" horiz-adv-x="1042" 
d="M480 1252q-54 0 -64 31.5t32 117.5l13 25q35 67 78.5 94t116.5 27q169 -1 46 -146l-44 -53q-48 -58 -84.5 -77t-93.5 -19zM830 1252q-114 0 -32 149l14 25q37 68 79.5 94.5t115.5 26.5q85 -1 95 -38t-50 -108l-44 -53q-48 -58 -84.5 -77t-93.5 -19zM429 0
q-211 0 -312.5 123t-56.5 332l114 532q17 80 68 122t130 42h19q80 0 113 -42.5t16 -121.5l-124 -584q-12 -53 10 -74.5t59 -21.5q35 0 66.5 21.5t42.5 74.5l124 584q17 80 68.5 122t130.5 42h18q80 0 113 -42.5t16 -121.5l-113 -532q-47 -221 -174 -338t-328 -117z" />
    <glyph glyph-name="Uogonek" unicode="&#x172;" horiz-adv-x="1183" 
d="M1060 1446h36q80 0 113 -42.5t16 -121.5l-166 -784q-42 -196 -164 -328t-296 -162q-85 -106 -94 -149q-8 -38 6.5 -54t49.5 -27q23 -7 36 -14t22.5 -26t3.5 -47q-28 -133 -192 -133q-121 0 -180 57t-36 163q26 122 130 245q-149 47 -219.5 174.5t-33.5 300.5l167 784
q17 80 68 122t130 42h35q80 0 113 -42.5t16 -121.5l-169 -797q-17 -82 12 -109.5t80 -27.5q119 0 148 137l169 797q17 80 68.5 122t130.5 42z" />
    <glyph glyph-name="uogonek" unicode="&#x173;" horiz-adv-x="1042" 
d="M896 1151h19q80 0 113 -42.5t16 -121.5l-113 -532q-40 -187 -137 -300t-248 -144q-87 -108 -96 -152q-8 -38 6 -54t49 -27q17 -5 27 -9.5t23 -15.5t14 -25t-1 -37q-28 -133 -192 -133q-121 0 -180.5 57t-36.5 163q24 117 127 240q-140 39 -201 153.5t-25 283.5l114 532
q17 80 68 122t130 42h19q80 0 113 -42.5t16 -121.5l-124 -584q-12 -53 10 -74.5t59 -21.5q35 0 66.5 21.5t42.5 74.5l124 584q17 80 68 122t130 42z" />
    <glyph glyph-name="Wcircumflex" unicode="&#x174;" horiz-adv-x="1654" 
d="M848 1548q-31 0 -51.5 7.5t-30.5 24.5t3 50t50 80l33 43q86 117 218 117h73q67 0 103 -22t57 -75l24 -61q64 -164 -88 -164q-63 0 -94.5 13t-48.5 47l-29 57l-13 -14q-55 -59 -98.5 -81t-107.5 -22zM414 0h-75q-148 0 -148 145l-1 1121q-1 84 47.5 132t133.5 48h27
q151 0 145 -148l-28 -700l272 700q57 148 207 148h25q150 0 144 -148l-28 -700l272 700q57 148 207 148h37q86 0 115 -47.5t-8 -132.5l-477 -1121q-61 -145 -209 -145h-76q-151 0 -145 147l27 668l-256 -668q-57 -147 -208 -147z" />
    <glyph glyph-name="wcircumflex" unicode="&#x175;" horiz-adv-x="1476" 
d="M700 1252q-31 0 -51.5 7.5t-30.5 24.5t3 50t50 80l34 43q85 116 217 116h74q67 0 103 -22t57 -75l23 -60q64 -164 -87 -164q-63 0 -94.5 12.5t-48.5 46.5l-29 58l-13 -15q-55 -59 -98.5 -80.5t-108.5 -21.5zM355 0h-49q-149 0 -152 143l-23 826q-1 86 44.5 134t127.5 48
h20q153 0 147 -147l-18 -490l194 492q57 145 207 145h2q74 0 112 -37t36 -108l-15 -492l192 490q58 147 210 147h18q87 0 115 -48t-10 -134l-374 -826q-65 -143 -213 -143h-53q-153 0 -147 147l20 467l-182 -467q-56 -147 -209 -147z" />
    <glyph glyph-name="Ycircumflex" unicode="&#x176;" horiz-adv-x="1101" 
d="M573 1554q-31 0 -51.5 7.5t-30.5 24.5t3 50t50 80l33 43q86 117 218 117h73q67 0 103 -22t57 -75l24 -60q64 -165 -88 -165q-63 0 -94.5 13t-48.5 47l-29 57l-13 -14q-55 -59 -98.5 -81t-107.5 -22zM447 0h-37q-80 0 -113 42.5t-16 121.5l72 340l-130 753q-14 85 28 137
t127 52h34q144 0 158 -133l42 -383l216 383q76 133 215 133h37q91 0 115 -52t-26 -137l-451 -753l-72 -340q-17 -80 -68.5 -122t-130.5 -42z" />
    <glyph glyph-name="ycircumflex" unicode="&#x177;" horiz-adv-x="948" 
d="M434 1258q-31 0 -51.5 7.5t-30.5 24.5t3 50t50 80l33 43q86 117 218 117h73q67 0 103 -22t57 -75l24 -60q64 -165 -88 -165q-63 0 -94.5 13t-48.5 47l-29 57l-13 -14q-55 -59 -98.5 -81t-107.5 -22zM185 -403h-12q-88 0 -114.5 49t14.5 135l106 219l-61 967q-5 86 40 135
t130 49h25q74 0 112 -36.5t37 -108.5l-5 -478l198 478q60 145 209 145h32q88 0 115 -49t-14 -135l-598 -1231q-67 -139 -214 -139z" />
    <glyph glyph-name="Ydieresis" unicode="&#x178;" horiz-adv-x="1101" 
d="M559 1548q-64 0 -99.5 44.5t-21.5 107.5t68 108t118 45q63 0 99.5 -45t23.5 -108t-69 -107.5t-119 -44.5zM960 1548q-64 0 -99.5 44.5t-21.5 107.5t68 108t118 45q63 0 98.5 -45t22.5 -108t-68 -107.5t-118 -44.5zM447 0h-37q-80 0 -113 42.5t-16 121.5l72 340l-130 753
q-14 85 28 137t127 52h34q144 0 158 -133l42 -383l216 383q76 133 215 133h37q91 0 115 -52t-26 -137l-451 -753l-72 -340q-17 -80 -68.5 -122t-130.5 -42z" />
    <glyph glyph-name="Zacute" unicode="&#x179;" horiz-adv-x="946" 
d="M656 1550h-2q-44 0 -65.5 14t-18.5 51t38 97l17 29q40 69 91.5 100t138.5 31h6q108 -1 122.5 -41t-59.5 -119l-54 -57q-59 -63 -102.5 -84t-111.5 -21zM603 0h-502q-90 0 -114 51t23 137l494 908h-154q-80 0 -113 42.5t-16 121.5l5 22q17 80 68.5 122t130.5 42h450
q90 0 114.5 -52t-23.5 -137l-502 -909h213q80 0 113 -42.5t16 -121.5l-5 -20q-17 -80 -68 -122t-130 -42z" />
    <glyph glyph-name="zacute" unicode="&#x17a;" horiz-adv-x="790" 
d="M502 1252h-2q-43 0 -64.5 14t-18.5 51t38 97l16 28q40 69 91.5 100t139.5 31h6q108 -1 122 -40.5t-60 -118.5l-53 -58q-58 -63 -102.5 -83.5t-112.5 -20.5zM488 0h-424q-91 0 -115.5 51t26.5 137l393 656h-110q-79 0 -113 39.5t-18 113.5t66.5 114t129.5 40h383
q91 0 115.5 -51t-26.5 -137l-393 -656h151q80 0 113.5 -39t17.5 -114q-16 -74 -66.5 -114t-129.5 -40z" />
    <glyph glyph-name="Zdotaccent" unicode="&#x17b;" horiz-adv-x="946" 
d="M676 1550q-69 0 -105.5 47t-22.5 113q14 68 71 115t126 47q68 0 105.5 -47.5t23.5 -114.5q-14 -66 -72.5 -113t-125.5 -47zM603 0h-502q-90 0 -114 51t23 137l494 908h-154q-80 0 -113 42.5t-16 121.5l5 22q17 80 68.5 122t130.5 42h450q90 0 114.5 -52t-23.5 -137
l-502 -909h213q80 0 113 -42.5t16 -121.5l-5 -20q-17 -80 -68 -122t-130 -42z" />
    <glyph glyph-name="zdotaccent" unicode="&#x17c;" horiz-adv-x="790" 
d="M532 1257q-69 0 -105.5 46.5t-22.5 112.5q14 68 70.5 115t125.5 47q68 0 106 -47.5t24 -114.5q-14 -66 -72 -112.5t-126 -46.5zM488 0h-424q-91 0 -115.5 51t26.5 137l393 656h-110q-79 0 -113 39.5t-18 113.5t66.5 114t129.5 40h383q91 0 115.5 -51t-26.5 -137
l-393 -656h151q80 0 113.5 -39t17.5 -114q-16 -74 -66.5 -114t-129.5 -40z" />
    <glyph glyph-name="Zcaron" unicode="&#x17d;" horiz-adv-x="946" 
d="M715 1548h-74q-73 0 -110.5 19.5t-57.5 77.5l-26 77q-20 57 -12 93q12 55 94 55q55 0 85 -8.5t48 -38.5l43 -70l72 70q48 47 186 47q39 0 57.5 -14t12.5 -41q-9 -38 -50 -93l-59 -77q-44 -58 -90 -77.5t-119 -19.5zM603 0h-502q-90 0 -114 51t23 137l494 908h-154
q-80 0 -113 42.5t-16 121.5l5 22q17 80 68.5 122t130.5 42h450q90 0 114.5 -52t-23.5 -137l-502 -909h213q80 0 113 -42.5t16 -121.5l-5 -20q-17 -80 -68 -122t-130 -42z" />
    <glyph glyph-name="zcaron" unicode="&#x17e;" horiz-adv-x="790" 
d="M580 1261h-74q-73 0 -110 19t-57 77l-27 78q-19 55 -11 92q12 55 94 55q55 0 85 -8.5t48 -38.5l43 -69l72 69q48 47 186 47q39 0 57.5 -14t12.5 -41q-8 -37 -50 -92l-60 -78q-44 -58 -90 -77t-119 -19zM488 0h-424q-91 0 -115.5 51t26.5 137l393 656h-110
q-79 0 -113 39.5t-18 113.5t66.5 114t129.5 40h383q91 0 115.5 -51t-26.5 -137l-393 -656h151q80 0 113.5 -39t17.5 -114q-16 -74 -66.5 -114t-129.5 -40z" />
    <glyph glyph-name="florin" unicode="&#x192;" horiz-adv-x="712" 
d="M47 -399q-90 -21 -143.5 19t-35.5 122q7 33 22 58.5t27.5 37t34.5 27.5q21 15 31 24t22.5 28.5t17.5 43.5l188 885h-7q-111 0 -81 143l3 15q14 65 50 104t93 39h6l1 4q21 101 51.5 171t80 124.5t124.5 81t178 26.5q83 0 116.5 -36t17.5 -113q-7 -32 -18.5 -54.5
t-31 -37.5t-32 -21.5t-37.5 -17.5q-22 -9 -33.5 -15.5t-27.5 -19t-26 -30t-15 -42.5l-3 -18h34q71 0 100.5 -37.5t14.5 -107.5l-3 -15q-15 -70 -60.5 -107.5t-116.5 -37.5h-34l-172 -809q-46 -214 -120 -307.5t-216 -126.5z" />
    <glyph glyph-name="uni0218" unicode="&#x218;" horiz-adv-x="1099" 
d="M486 0q-172 0 -307 96.5t-145 225.5q-7 91 40 142.5t137 51.5h6q37 0 63.5 -6.5t43 -21.5t24 -25.5t19.5 -32.5q22 -43 52.5 -66.5t93.5 -23.5q51 0 90.5 29.5t44.5 74.5q7 58 -39 93t-139 66q-66 22 -120.5 56t-101.5 86.5t-69 130t-12 171.5q22 194 162.5 296.5
t349.5 102.5q96 0 191.5 -36t166.5 -107.5t83 -161.5q11 -85 -39.5 -140t-143.5 -55h-10q-39 0 -67 13.5t-38.5 26.5t-26.5 39q-16 25 -29.5 40.5t-43 29t-69.5 13.5q-51 0 -85.5 -29.5t-39.5 -72.5q-7 -59 40 -94t140 -63q53 -15 97.5 -37.5t87.5 -59t71.5 -82.5t43 -112
t7.5 -144q-12 -133 -87 -228.5t-188.5 -140.5t-253.5 -45zM217 -533q-37 3 -52.5 15.5t-14 50.5t27.5 109l35 96q30 83 79 117t127 34q50 0 80 -9t44 -30.5t1 -60.5t-55 -94l-86 -113q-47 -63 -90.5 -91t-95.5 -24z" />
    <glyph glyph-name="uni0219" unicode="&#x219;" horiz-adv-x="1001" 
d="M400 0q-149 0 -259.5 57.5t-132.5 159.5q-16 71 36.5 121.5t141.5 50.5h12q32 0 57 -9t37 -18t31 -28t31 -28t37 -18t56 -9q39 0 65.5 18t33.5 53q6 29 -15 51.5t-59.5 40t-86.5 36t-95.5 45.5t-86 62.5t-60 93t-14.5 130.5q14 157 143 249.5t321 92.5q155 0 262 -53
t127 -152q14 -71 -36.5 -120.5t-138.5 -49.5h-13q-37 0 -64.5 9.5t-39.5 19t-30 28.5q-15 16 -24.5 24t-30 16t-45.5 8q-32 0 -56.5 -18.5t-30.5 -47.5q-7 -32 13.5 -56.5t59 -43.5t86 -38t95.5 -46t87 -62t61.5 -92t18.5 -129q-10 -167 -143.5 -257.5t-350.5 -90.5z
M174 -551q-37 3 -52.5 15t-14 50t27.5 109l35 96q30 83 79.5 117.5t127.5 34.5q49 0 79.5 -9.5t44.5 -31t0.5 -60.5t-55.5 -94l-86 -112q-47 -63 -90.5 -91t-95.5 -24z" />
    <glyph glyph-name="uni021A" unicode="&#x21a;" horiz-adv-x="933" 
d="M363 0h-39q-80 0 -113 42.5t-16 121.5l198 932h-84q-80 0 -113 42.5t-16 121.5l5 22q17 80 68.5 122t130.5 42h534q80 0 113 -42.5t16 -121.5l-5 -22q-36 -164 -157 -164h-125l-198 -932q-17 -80 -68.5 -122t-130.5 -42zM143 -532q-37 3 -52.5 15t-13.5 50t28 109l34 96
q30 83 79.5 117t127.5 34q49 0 79.5 -9t44.5 -30.5t0.5 -60.5t-55.5 -94l-85 -113q-47 -62 -91 -90t-96 -24z" />
    <glyph glyph-name="uni021B" unicode="&#x21b;" horiz-adv-x="712" 
d="M375 0q-155 0 -225 116.5t-29 307.5l90 422h-7q-49 0 -67 37t-4 104q3 16 7.5 29.5t12.5 25.5t13 20.5t18 19t19 16t23.5 16t24 14t28.5 15.5t29 16q19 10 40 31q19 21 32 45q45 84 81.5 120t90.5 36q59 0 83.5 -27.5t10.5 -91.5l-26 -121h14q156 0 123 -154
q-33 -153 -182 -153h-20l-86 -402q-4 -20 -5 -37t3 -29.5t8 -21.5t13.5 -18t15.5 -14t18 -13q13 -9 19 -13.5t17 -14.5t15 -20t8.5 -24.5t3.5 -34t-6 -42.5q-18 -84 -66.5 -122t-137.5 -38zM53 -532q-37 3 -52.5 15t-14 50t27.5 109l35 96q30 83 79.5 117t127.5 34
q49 0 79.5 -9t44.5 -30.5t0.5 -60.5t-55.5 -94l-86 -113q-47 -63 -90.5 -90.5t-95.5 -23.5z" />
    <glyph glyph-name="circumflex" unicode="&#x2c6;" 
d="M511 1186q-31 0 -51.5 7.5t-30.5 24.5t3 50t50 80l33 43q85 116 218 116h73q67 0 103 -22t57 -75l24 -60q64 -164 -88 -164q-63 0 -94.5 12.5t-48.5 46.5l-29 58l-13 -15q-55 -59 -98 -80.5t-108 -21.5z" />
    <glyph glyph-name="caron" unicode="&#x2c7;" 
d="M738 1186h-74q-73 0 -110.5 19t-57.5 77l-26 78q-19 55 -11 92q12 55 93 55q55 0 85.5 -8.5t48.5 -38.5l42 -69l72 69q48 47 187 47q39 0 57.5 -14t12.5 -41q-8 -35 -51 -92l-59 -78q-44 -58 -90 -77t-119 -19z" />
    <glyph glyph-name="breve" unicode="&#x2d8;" 
d="M699 1178q-141 0 -205.5 58t-40.5 169q11 51 43.5 74.5t93.5 23.5t76.5 -21t11.5 -69q-2 -24 14 -32.5t41 -8.5q59 0 72 41q30 90 142 90q63 0 83 -25t9 -79q-47 -221 -340 -221z" />
    <glyph glyph-name="dotaccent" unicode="&#x2d9;" 
d="M699 1178q-69 0 -105 46.5t-22 112.5q14 68 70.5 115t125.5 47q68 0 105.5 -47.5t23.5 -114.5q-14 -66 -72 -112.5t-126 -46.5z" />
    <glyph glyph-name="ring" unicode="&#x2da;" 
d="M710 1178q-86 0 -136 58.5t-36 143.5q14 86 83 145.5t155 59.5q85 0 135.5 -60t37.5 -145q-13 -84 -83.5 -143t-155.5 -59zM735 1335q20 0 36 14t21 35q5 20 -6 34t-31 14t-37.5 -14t-21.5 -34t7.5 -34.5t31.5 -14.5z" />
    <glyph glyph-name="ogonek" unicode="&#x2db;" 
d="M376 -442q-121 0 -180.5 57t-36.5 163q22 104 104.5 212.5t213.5 202.5q109 78 154 24q15 -18 15.5 -38.5t-9 -41t-29.5 -48.5q-4 -5 -47 -58t-74 -98t-37 -74q-8 -38 6 -54t49 -27q17 -5 27 -9.5t23 -15.5t14 -25t-1 -37q-28 -133 -192 -133z" />
    <glyph glyph-name="tilde" unicode="&#x2dc;" 
d="M915 1210q-48 -10 -99.5 -2.5t-85 20.5t-78 17t-79.5 -14q-67 -31 -120.5 -16.5t-64.5 69.5q-10 57 42.5 107.5t125.5 66.5q45 10 94 1.5t82.5 -23t78 -20t81.5 10.5q73 32 121 19t59 -68q12 -58 -37.5 -106.5t-119.5 -61.5z" />
    <glyph glyph-name="hungarumlaut" unicode="&#x2dd;" 
d="M527 1186q-54 0 -64 31.5t32 117.5l14 25q35 67 78 94t116 27q169 -1 46 -146l-44 -53q-48 -58 -84.5 -77t-93.5 -19zM877 1186q-35 0 -52 13t-13 47t34 89l13 25q37 68 79.5 94.5t115.5 26.5q85 -1 95.5 -38t-49.5 -108l-45 -53q-48 -58 -84.5 -77t-93.5 -19z" />
    <glyph glyph-name="uni0326" unicode="&#x326;" horiz-adv-x="0" 
d="M-1012 -573q-37 3 -52.5 15t-14 50t27.5 109l35 96q30 83 79 117t127 34q49 0 79.5 -9t44.5 -30.5t0.5 -60.5t-55.5 -94l-85 -113q-47 -63 -90.5 -90.5t-95.5 -23.5z" />
    <glyph glyph-name="pi" unicode="&#x3c0;" horiz-adv-x="1501" 
d="M631 -118q-150 0 -268.5 47t-191 132.5t-100 205t5.5 265.5l82 385q63 296 273.5 476.5t508.5 180.5q199 0 337.5 -82.5t193.5 -232.5t14 -342l-82 -385q-63 -296 -269 -473t-504 -177zM654 108q412 0 502 424l82 385q48 224 -39 328t-281 104q-129 0 -229.5 -42
t-176.5 -140.5t-108 -249.5l-82 -385q-47 -222 43.5 -323t288.5 -101zM510 276q-61 0 -83.5 30t-6.5 106l128 602q17 80 66 122t124 42h131q145 0 222.5 -95t42.5 -260l-4 -18q-36 -168 -132.5 -258t-236.5 -90h-94l-10 -45q-17 -77 -51.5 -106.5t-95.5 -29.5zM772 950
l-57 -268h43q21 0 38.5 4t38 15.5t36 38.5t24.5 67l3 14q16 77 -9 103t-74 26h-43z" />
    <glyph glyph-name="uni1E02" unicode="&#x1e02;" horiz-adv-x="1144" 
d="M789 1552q-69 0 -105.5 47t-22.5 113q14 68 71 115t126 47q68 0 105.5 -47.5t23.5 -114.5q-14 -66 -72.5 -113t-125.5 -47zM513 0h-342q-80 0 -113 42.5t-16 121.5l237 1118q17 80 68.5 122t130.5 42h246q145 0 252.5 -46.5t159.5 -141t25 -222.5l-4 -20
q-43 -204 -218 -291q150 -93 105 -305l-4 -19q-42 -196 -177.5 -298.5t-349.5 -102.5zM603 1098l-51 -238h74q135 0 156 101l8 36q7 31 -0.5 52.5t-26.5 31.5t-39.5 13.5t-47.5 3.5h-73zM493 582l-51 -238h88q136 0 157 100l8 37q7 32 0 53.5t-26.5 31t-39.5 13t-48 3.5h-88
z" />
    <glyph glyph-name="uni1E03" unicode="&#x1e03;" horiz-adv-x="1052" 
d="M765 1151q335 0 253 -383l-82 -383q-46 -214 -136.5 -299.5t-237.5 -85.5q-95 0 -156 38.5t-75 80.5q-47 -119 -183 -119q-78 0 -111 42.5t-16 121.5l261 1227q17 80 68 121.5t130 41.5h17q80 0 113 -42t16 -121l-72 -336q35 36 89.5 66t121.5 30zM925 1554
q68 0 105.5 -47t23.5 -114q-14 -66 -72 -113t-125 -47q-69 0 -105.5 47t-22.5 113q14 68 70.5 114.5t125.5 46.5zM592 401l74 351q12 53 -9.5 74.5t-57.5 21.5q-88 0 -109 -96l-74 -351q-12 -53 9.5 -74.5t57.5 -21.5q88 0 109 96z" />
    <glyph glyph-name="uni1E0A" unicode="&#x1e0a;" horiz-adv-x="1185" 
d="M778 1546q-69 0 -105.5 47t-22.5 113q14 68 70.5 115t125.5 47q68 0 106 -47.5t24 -114.5q-14 -66 -72.5 -113t-125.5 -47zM533 0h-362q-80 0 -113 42.5t-16 121.5l237 1118q17 80 68.5 122t130.5 42h280q108 0 194.5 -35.5t144.5 -104.5t77.5 -170.5t-7.5 -232.5
l-78 -368q-55 -260 -198.5 -397.5t-357.5 -137.5zM605 1098l-161 -754h76q168 0 209 195l77 362q7 44 9 75.5t-8 53t-21 35t-30.5 21t-36.5 10t-39 2.5h-75z" />
    <glyph glyph-name="uni1E0B" unicode="&#x1e0b;" horiz-adv-x="1052" 
d="M972 1554h16q80 0 113 -42t16 -121l-260 -1227q-17 -79 -68 -121.5t-129 -42.5q-133 0 -133 115q-26 -43 -87.5 -79t-152.5 -36q-334 0 -252 385l82 383q23 110 60 185.5t86.5 118.5t106.5 61t129 18q124 0 203 -96l71 336q17 79 68 121t131 42zM474 1233
q-69 0 -105.5 47t-22.5 113q14 68 70.5 114.5t125.5 46.5q68 0 105.5 -47t23.5 -114q-14 -66 -72 -113t-125 -47zM563 401l75 351q11 53 -10.5 74.5t-57.5 21.5q-88 0 -109 -96l-74 -351q-11 -53 10.5 -74.5t57.5 -21.5q87 0 108 96z" />
    <glyph glyph-name="uni1E1E" unicode="&#x1e1e;" horiz-adv-x="966" 
d="M728 1542q-69 0 -105.5 47t-22.5 113q14 68 70.5 115t125.5 47q68 0 106 -47.5t24 -114.5q-14 -66 -72.5 -113t-125.5 -47zM205 0h-34q-80 0 -113 42.5t-16 121.5l237 1118q17 80 68.5 122t130.5 42h452q80 0 113.5 -42.5t16.5 -121.5l-5 -22q-17 -80 -68.5 -122
t-130.5 -42h-254l-47 -222h154q80 0 113 -40.5t17 -116.5q-17 -77 -66 -117.5t-125 -40.5h-160l-84 -395q-17 -80 -68.5 -122t-130.5 -42z" />
    <glyph glyph-name="uni1E1F" unicode="&#x1e1f;" horiz-adv-x="712" 
d="M633 1628q-68 0 -104.5 46.5t-22.5 113.5q14 68 70.5 115t125.5 47q68 0 105.5 -47.5t23.5 -114.5q-14 -66 -72.5 -113t-125.5 -47zM211 0h-16q-80 0 -113 42.5t-16 121.5l145 682h-5q-57 0 -77 39.5t-6 103.5l3 15q13 63 51.5 103t92.5 40h5q46 218 142.5 312.5
t292.5 94.5q83 0 116.5 -36t17.5 -113q-7 -32 -18.5 -54.5t-30.5 -37.5t-31.5 -21.5t-37.5 -17.5q-54 -22 -74.5 -46.5t-31.5 -78.5h34q71 0 100.5 -37.5t14.5 -107.5l-3 -15q-15 -70 -60.5 -107.5t-116.5 -37.5h-34l-145 -680q-17 -80 -68.5 -122t-130.5 -42z" />
    <glyph glyph-name="uni1E40" unicode="&#x1e40;" horiz-adv-x="1464" 
d="M937 1546q-68 0 -104.5 46.5t-22.5 113.5q14 68 70.5 115t125.5 47q68 0 105.5 -47.5t23.5 -114.5q-14 -66 -72.5 -113t-125.5 -47zM205 0h-34q-80 0 -113 42.5t-16 121.5l237 1118q17 80 68.5 122t130.5 42h51q141 0 158 -133l76 -570l315 570q74 133 215 133h63
q80 0 113 -42.5t16 -121.5l-237 -1118q-17 -80 -68.5 -122t-130.5 -42h-35q-80 0 -113 42.5t-16 121.5l107 504l-137 -242q-40 -70 -82.5 -102.5t-101.5 -32.5t-88 32.5t-39 102.5l-34 236l-106 -498q-17 -80 -68.5 -122t-130.5 -42z" />
    <glyph glyph-name="uni1E41" unicode="&#x1e41;" horiz-adv-x="1554" 
d="M933 1257q-68 0 -104.5 46.5t-22.5 113.5q14 68 70.5 115t125.5 47q68 0 105.5 -47.5t23.5 -114.5q-14 -66 -72.5 -113t-125.5 -47zM1265 1151q324 0 239 -399l-125 -588q-17 -80 -68.5 -122t-130.5 -42h-20q-80 0 -113 42.5t-16 121.5l124 584q21 96 -60 96
q-31 0 -59 -22.5t-39 -73.5l-124 -584q-17 -80 -68.5 -122t-130.5 -42h-20q-80 0 -113 42.5t-16 121.5l124 584q21 96 -59 96t-101 -96l-124 -584q-17 -80 -68 -122t-130 -42h-17q-80 0 -113 42.5t-16 121.5l175 823q17 79 68 121.5t129 42.5q135 0 132 -119q25 45 85.5 82
t144.5 37q192 0 242 -133q16 19 28 31.5t38 34t52 34.5t66 23t84 10z" />
    <glyph glyph-name="uni1E56" unicode="&#x1e56;" horiz-adv-x="1157" 
d="M779 1551q-69 0 -105.5 47t-22.5 113q14 68 70.5 115t125.5 47q68 0 106 -47.5t24 -114.5q-14 -66 -72.5 -113t-125.5 -47zM207 0h-36q-80 0 -113 42.5t-16 121.5l237 1118q17 80 68.5 122t130.5 42h274q107 0 193.5 -35.5t144 -104.5t77 -170.5t-7.5 -232.5l-12 -59
q-55 -261 -198 -398t-356 -137h-156l-31 -145q-17 -80 -68.5 -122t-130.5 -42zM605 1098l-95 -445h68q170 0 211 195l11 53q7 44 9 75.5t-8 53t-21.5 35t-31.5 21t-37 10t-39 2.5h-67z" />
    <glyph glyph-name="uni1E57" unicode="&#x1e57;" horiz-adv-x="1062" 
d="M685 1255q-69 0 -105.5 47t-22.5 113q14 68 71 115t126 47q68 0 105.5 -47.5t23.5 -114.5q-14 -66 -72.5 -113t-125.5 -47zM765 1151q334 0 252 -385l-81 -383q-24 -110 -59 -185.5t-83.5 -118.5t-104 -61t-127.5 -18q-77 0 -130 30t-81 66l-72 -336q-17 -80 -68 -121.5
t-130 -41.5h-17q-80 0 -113 42t-16 121l261 1227q17 79 68 121.5t129 42.5q132 0 132 -115q26 43 87.5 79t152.5 36zM591 399l75 351q11 53 -10.5 74.5t-57.5 21.5q-87 0 -108 -96l-75 -351q-11 -53 10.5 -74.5t57.5 -21.5q87 0 108 96z" />
    <glyph glyph-name="uni1E60" unicode="&#x1e60;" horiz-adv-x="1099" 
d="M759 1546q-69 0 -105.5 47t-22.5 113q14 68 71 115t126 47q68 0 105.5 -47.5t23.5 -114.5q-14 -66 -72.5 -113t-125.5 -47zM486 0q-172 0 -307 96.5t-145 225.5q-7 91 40 142.5t137 51.5h6q37 0 63.5 -6.5t43 -21.5t24 -25.5t19.5 -32.5q22 -43 52.5 -66.5t93.5 -23.5
q51 0 90.5 29.5t44.5 74.5q7 58 -39 93t-139 66q-66 22 -120.5 56t-101.5 86.5t-69 130t-12 171.5q22 194 162.5 296.5t349.5 102.5q96 0 191.5 -36t166.5 -107.5t83 -161.5q11 -85 -39.5 -140t-143.5 -55h-10q-39 0 -67 13.5t-38.5 26.5t-26.5 39q-16 25 -29.5 40.5t-43 29
t-69.5 13.5q-51 0 -85.5 -29.5t-39.5 -72.5q-7 -59 40 -94t140 -63q53 -15 97.5 -37.5t87.5 -59t71.5 -82.5t43 -112t7.5 -144q-12 -133 -87 -228.5t-188.5 -140.5t-253.5 -45z" />
    <glyph glyph-name="uni1E61" unicode="&#x1e61;" horiz-adv-x="1001" 
d="M647 1257q-69 0 -105.5 47t-22.5 113q14 68 70.5 115t125.5 47q68 0 106 -47.5t24 -114.5q-14 -66 -72.5 -113t-125.5 -47zM400 0q-149 0 -259.5 57.5t-132.5 159.5q-16 71 36.5 121.5t141.5 50.5h12q32 0 57 -9t37 -18t31 -28t31 -28t37 -18t56 -9q39 0 65.5 18t33.5 53
q6 29 -15 51.5t-59.5 40t-86.5 36t-95.5 45.5t-86 62.5t-60 93t-14.5 130.5q14 157 143 249.5t321 92.5q155 0 262 -53t127 -152q14 -71 -36.5 -120.5t-138.5 -49.5h-13q-37 0 -64.5 9.5t-39.5 19t-30 28.5q-15 16 -24.5 24t-30 16t-45.5 8q-32 0 -56.5 -18.5t-30.5 -47.5
q-7 -32 13.5 -56.5t59 -43.5t86 -38t95.5 -46t87 -62t61.5 -92t18.5 -129q-10 -167 -143.5 -257.5t-350.5 -90.5z" />
    <glyph glyph-name="uni1E6A" unicode="&#x1e6a;" horiz-adv-x="933" 
d="M698 1546q-69 0 -105.5 47t-22.5 113q14 68 70.5 115t125.5 47q68 0 106 -47.5t24 -114.5q-14 -66 -72.5 -113t-125.5 -47zM363 0h-39q-80 0 -113 42.5t-16 121.5l198 932h-84q-80 0 -113 42.5t-16 121.5l5 22q17 80 68.5 122t130.5 42h534q80 0 113 -42.5t16 -121.5
l-5 -22q-36 -164 -157 -164h-125l-198 -932q-17 -80 -68.5 -122t-130.5 -42z" />
    <glyph glyph-name="uni1E6B" unicode="&#x1e6b;" horiz-adv-x="712" 
d="M581 1477q-69 0 -105.5 46.5t-22.5 112.5q14 68 70.5 115t125.5 47q68 0 105.5 -47.5t23.5 -114.5q-14 -66 -71.5 -112.5t-125.5 -46.5zM375 0q-155 0 -225 116.5t-29 307.5l90 422h-7q-49 0 -67 37t-4 104q3 16 7.5 29.5t12.5 25.5t13 20.5t18 19t19 16t23.5 16t24 14
t28.5 15.5t29 16q19 10 40 31q19 21 32 45q45 84 81.5 120t90.5 36q59 0 83.5 -27.5t10.5 -91.5l-26 -121h14q156 0 123 -154q-33 -153 -182 -153h-20l-86 -402q-4 -20 -5 -37t3 -29.5t8 -21.5t13.5 -18t15.5 -14t18 -13q13 -9 19 -13.5t17 -14.5t15 -20t8.5 -24.5t3.5 -34
t-6 -42.5q-18 -84 -66.5 -122t-137.5 -38z" />
    <glyph glyph-name="Wgrave" unicode="&#x1e80;" horiz-adv-x="1654" 
d="M1042 1548h-2q-68 0 -103 21t-67 84l-29 57q-40 78 -9.5 118.5t137.5 41.5h9q88 0 126.5 -31t47.5 -100l5 -29q13 -89 -17.5 -125.5t-97.5 -36.5zM414 0h-75q-148 0 -148 145l-1 1121q-1 84 47.5 132t133.5 48h27q151 0 145 -148l-28 -700l272 700q57 148 207 148h25
q150 0 144 -148l-28 -700l272 700q57 148 208 148h36q86 0 115 -47.5t-8 -132.5l-477 -1121q-61 -145 -209 -145h-76q-151 0 -145 148l27 667l-256 -667q-57 -148 -208 -148z" />
    <glyph glyph-name="wgrave" unicode="&#x1e81;" horiz-adv-x="1476" 
d="M887 1259h-2q-68 0 -103.5 20.5t-66.5 83.5l-29 58q-40 78 -9.5 118t137.5 41h9q88 0 127 -31t48 -100l4 -28q13 -89 -17.5 -125.5t-97.5 -36.5zM355 0h-49q-149 0 -152 143l-23 826q-1 86 44.5 134t127.5 48h20q153 0 147 -147l-18 -490l194 492q57 145 207 145h2
q74 0 112 -37t36 -108l-15 -492l193 490q58 147 209 147h18q87 0 115 -48t-10 -134l-374 -826q-65 -143 -213 -143h-53q-74 0 -112 37.5t-35 110.5l20 466l-182 -466q-57 -148 -209 -148z" />
    <glyph glyph-name="Wacute" unicode="&#x1e82;" horiz-adv-x="1654" 
d="M1031 1552h-2q-44 0 -65.5 14t-18.5 51t38 97l17 29q40 69 91.5 100t138.5 31h7q108 -1 122 -41t-60 -119l-53 -57q-59 -63 -103 -84t-112 -21zM414 0h-75q-148 0 -148 145l-1 1121q-1 84 47.5 132t133.5 48h27q151 0 145 -148l-28 -700l272 700q57 148 207 148h25
q150 0 144 -148l-28 -700l272 700q57 148 207 148h37q86 0 115 -47.5t-8 -132.5l-477 -1121q-61 -145 -209 -145h-76q-151 0 -145 147l27 668l-256 -668q-57 -147 -208 -147z" />
    <glyph glyph-name="wacute" unicode="&#x1e83;" horiz-adv-x="1476" 
d="M894 1261h-2q-44 0 -65.5 14t-18.5 51t38 97l17 28q40 69 91.5 100t138.5 31h6q108 -1 122.5 -40.5t-59.5 -118.5l-54 -58q-59 -63 -102.5 -83.5t-111.5 -20.5zM355 0h-49q-149 0 -152 143l-23 826q-1 86 44.5 134t127.5 48h20q153 0 147 -147l-18 -490l194 492
q57 145 207 145h2q74 0 112 -37t36 -108l-15 -492l192 490q58 147 210 147h18q87 0 115 -48t-10 -134l-374 -826q-65 -143 -213 -143h-53q-153 0 -147 147l20 467l-182 -467q-56 -147 -209 -147z" />
    <glyph glyph-name="Wdieresis" unicode="&#x1e84;" horiz-adv-x="1654" 
d="M833 1546q-64 0 -99.5 44.5t-21.5 107.5t68 108t118 45q63 0 99.5 -45t23.5 -108t-69 -107.5t-119 -44.5zM1234 1546q-64 0 -99.5 44.5t-21.5 107.5t68 108t118 45q63 0 98.5 -45t22.5 -108t-68 -107.5t-118 -44.5zM414 0h-75q-148 0 -148 145l-1 1121q-1 84 47.5 132
t133.5 48h27q151 0 145 -148l-28 -700l272 700q57 148 207 148h25q150 0 144 -148l-28 -700l272 700q57 148 208 148h36q86 0 115 -47.5t-8 -132.5l-477 -1121q-61 -145 -209 -145h-76q-151 0 -145 147l27 668l-256 -668q-57 -147 -208 -147z" />
    <glyph glyph-name="wdieresis" unicode="&#x1e85;" horiz-adv-x="1476" 
d="M679 1240q-64 0 -100 44t-22 107t68 108.5t118 45.5q63 0 99.5 -45.5t23.5 -108.5t-68.5 -107t-118.5 -44zM1080 1240q-64 0 -99.5 44t-21.5 107t68 108.5t118 45.5q63 0 99 -45.5t22 -108.5q-13 -63 -68 -107t-118 -44zM355 0h-49q-149 0 -152 143l-23 826
q-1 86 44.5 134t127.5 48h20q153 0 147 -147l-18 -490l194 492q57 145 207 145h2q74 0 112 -37t36 -108l-15 -492l193 490q58 147 209 147h18q87 0 115 -48t-10 -134l-374 -826q-65 -143 -213 -143h-53q-153 0 -147 147l20 467l-182 -467q-56 -147 -209 -147z" />
    <glyph glyph-name="Ygrave" unicode="&#x1ef2;" horiz-adv-x="1101" 
d="M769 1552h-2q-68 0 -104 21t-67 84l-28 57q-40 78 -10 118.5t137 41.5h9q88 0 127 -31t48 -100l4 -29q13 -89 -17.5 -125.5t-96.5 -36.5zM447 0h-37q-80 0 -113 42.5t-16 121.5l72 340l-130 754q-14 85 28 136.5t127 51.5h34q144 0 158 -133l42 -383l216 383
q76 133 215 133h37q91 0 115 -51.5t-26 -136.5l-451 -754l-72 -340q-17 -80 -68.5 -122t-130.5 -42z" />
    <glyph glyph-name="ygrave" unicode="&#x1ef3;" horiz-adv-x="948" 
d="M624 1257h-2q-68 0 -103 21t-67 84l-29 57q-40 78 -9.5 118.5t137.5 41.5h8q88 0 127 -31t48 -100l4 -29q13 -89 -17.5 -125.5t-96.5 -36.5zM185 -403h-12q-88 0 -114.5 49t14.5 135l106 219l-61 967q-5 86 40 135t130 49h25q74 0 112 -36.5t37 -108.5l-5 -478l198 478
q60 145 209 145h33q88 0 114.5 -49t-14.5 -135l-598 -1231q-67 -139 -214 -139z" />
    <glyph glyph-name="endash" unicode="&#x2013;" horiz-adv-x="1011" 
d="M755 453h-552q-79 0 -114 35t-21 100q13 64 62.5 98.5t129.5 34.5h552q79 0 114.5 -34t21.5 -99q-14 -66 -63.5 -100.5t-129.5 -34.5z" />
    <glyph glyph-name="emdash" unicode="&#x2014;" horiz-adv-x="1495" 
d="M1239 453h-1036q-79 0 -114 35t-21 100q13 64 62.5 98.5t129.5 34.5h1036q79 0 114.5 -34t21.5 -99q-14 -66 -63.5 -100.5t-129.5 -34.5z" />
    <glyph glyph-name="quoteleft" unicode="&#x2018;" horiz-adv-x="561" 
d="M269 764h-20q-92 0 -116.5 52.5t27.5 137.5l221 363q47 77 93 103t117 26q43 0 63.5 -14t19 -54.5t-33.5 -111.5l-160 -359q-64 -143 -211 -143z" />
    <glyph glyph-name="quoteright" unicode="&#x2019;" horiz-adv-x="561" 
d="M196 764q-68 0 -80.5 41.5t30.5 138.5l160 359q64 143 211 143h20q92 0 116.5 -53t-27.5 -138l-223 -364q-78 -127 -207 -127z" />
    <glyph glyph-name="quotesinglbase" unicode="&#x201a;" horiz-adv-x="561" 
d="M-65 -268q-44 0 -64.5 13.5t-19 55t34.5 113.5l154 340q65 141 210 141h21q92 0 115.5 -52.5t-29.5 -137.5l-214 -346q-45 -74 -92 -100.5t-116 -26.5z" />
    <glyph glyph-name="quotedblleft" unicode="&#x201c;" horiz-adv-x="1052" 
d="M273 782h-20q-92 0 -116 53t29 138l215 346q45 74 91.5 100.5t115.5 26.5q32 0 51.5 -7.5t29 -27t2 -56t-32.5 -91.5l-154 -340q-65 -142 -211 -142zM765 782h-21q-92 0 -115.5 53t29.5 138l215 346q45 74 91.5 100.5t115.5 26.5q44 0 64.5 -13.5t19 -55t-34.5 -113.5
l-154 -340q-65 -142 -210 -142z" />
    <glyph glyph-name="quotedblright" unicode="&#x201d;" horiz-adv-x="1052" 
d="M202 782q-43 0 -64.5 14t-20 55.5t34.5 113.5l155 340q65 141 210 141h20q92 0 116 -53t-29 -138l-215 -346q-45 -74 -91.5 -100.5t-115.5 -26.5zM693 782q-43 0 -64.5 14t-19.5 55.5t35 113.5l154 340q64 141 210 141h21q92 0 115.5 -53t-29.5 -138l-215 -346
q-45 -74 -91.5 -100.5t-115.5 -26.5z" />
    <glyph glyph-name="quotedblbase" unicode="&#x201e;" horiz-adv-x="1052" 
d="M-65 -268q-44 0 -64.5 13.5t-19 55t34.5 113.5l154 340q65 141 210 141h21q92 0 115.5 -52.5t-29.5 -137.5l-214 -346q-45 -74 -92 -100.5t-116 -26.5zM427 -268q-44 0 -64.5 13.5t-19 55t34.5 113.5l154 340q64 141 210 141h20q92 0 116 -52.5t-29 -137.5l-215 -346
q-45 -74 -91.5 -100.5t-115.5 -26.5z" />
    <glyph glyph-name="dagger" unicode="&#x2020;" horiz-adv-x="847" 
d="M179 59l185 869h-115q-108 0 -85 112q23 111 132 111h115l51 240q19 91 60.5 127t109.5 36t92.5 -36t5.5 -127l-51 -240h117q108 0 85 -111q-23 -112 -132 -112h-117l-185 -869q-17 -79 -60 -121t-108 -42q-66 0 -91.5 42t-8.5 121z" />
    <glyph glyph-name="daggerdbl" unicode="&#x2021;" horiz-adv-x="843" 
d="M279 -104q-66 0 -91.5 42t-8.5 121l102 482h-110q-112 0 -89 112q11 54 46.5 82.5t89.5 28.5h111l35 164h-115q-108 0 -85 112q23 111 132 111h115l51 240q19 91 60.5 127t109.5 36t92.5 -36t5.5 -127l-51 -240h113q112 0 89 -111q-23 -112 -136 -112h-113l-35 -164h113
q108 0 85 -111q-23 -112 -133 -112h-112l-103 -482q-17 -79 -60 -121t-108 -42z" />
    <glyph glyph-name="bullet" unicode="&#x2022;" horiz-adv-x="970" 
d="M401 180q-189 0 -270.5 111t-39.5 307l2 12q41 191 170 302.5t318 111.5q186 0 268 -111.5t41 -302.5l-2 -12q-41 -195 -170.5 -306.5t-316.5 -111.5z" />
    <glyph glyph-name="ellipsis" unicode="&#x2026;" horiz-adv-x="1619" 
d="M148 0q-85 0 -132.5 59t-29.5 144t91 145t158 60q86 0 133.5 -60t29.5 -145t-91 -144t-159 -59zM687 0q-86 0 -133 59t-29 144t90 145t158 60q85 0 133.5 -60t30.5 -145q-18 -84 -91.5 -143.5t-158.5 -59.5zM1225 0q-86 0 -132.5 59t-28.5 144t90 145t158 60
q85 0 133 -60t30 -145q-18 -84 -91.5 -143.5t-158.5 -59.5z" />
    <glyph glyph-name="perthousand" unicode="&#x2030;" horiz-adv-x="3303" 
d="M853 -104q-85 0 -112.5 48t11.5 134l618 1335q68 141 210 141q87 0 114.5 -48t-11.5 -134l-620 -1335q-67 -141 -210 -141zM496 479q-197 0 -293 123.5t-51 331.5l13 63q45 211 165 330t310 119q195 0 291.5 -123.5t53.5 -325.5l-14 -63q-46 -216 -166 -335.5
t-309 -119.5zM530 786q34 0 65 22t42 75l34 159q12 53 -9 75t-57 22q-81 0 -102 -97l-34 -159q-12 -53 7.5 -75t53.5 -22zM1782 0q-197 0 -292.5 123t-50.5 332l14 67q45 211 165 330t309 119q194 0 292 -123.5t55 -325.5l-14 -67q-46 -215 -168 -335t-310 -120zM2724 0
q-198 0 -293 123t-50 332l14 67q45 211 164 330t310 119q194 0 292 -123.5t55 -325.5l-14 -67q-46 -215 -168 -335t-310 -120zM1817 307q33 0 63 21.5t41 74.5l35 164q12 53 -8.5 75t-54.5 22t-62.5 -22t-40.5 -75l-35 -164q-12 -53 8 -74.5t54 -21.5zM2759 307
q33 0 63 21.5t41 74.5l35 164q12 53 -8.5 75t-54.5 22q-84 0 -105 -97l-35 -164q-12 -53 8 -74.5t56 -21.5z" />
    <glyph glyph-name="guilsinglleft" unicode="&#x2039;" horiz-adv-x="663" 
d="M362 170h-4q-64 0 -95.5 23.5t-57.5 82.5l-88 195q-51 114 49 229l170 195q51 59 93 82.5t106 23.5h4q72 0 81 -51t-43 -137l-137 -227l40 -228q15 -88 -15.5 -138t-102.5 -50z" />
    <glyph glyph-name="guilsinglright" unicode="&#x203a;" horiz-adv-x="663" 
d="M135 170h-4q-72 0 -81 51.5t43 136.5l134 228l-37 227q-15 87 15.5 137.5t102.5 50.5h4q64 0 95.5 -23.5t57.5 -82.5l86 -195q51 -114 -49 -229l-168 -195q-49 -58 -92 -82t-107 -24z" />
    <glyph glyph-name="fraction" unicode="&#x2044;" horiz-adv-x="763" 
d="M-15 -6h-27q-50 0 -60.5 33t23.5 86l785 1260q50 79 135 79h11q58 0 73 -33t-19 -86l-785 -1260q-50 -79 -136 -79z" />
    <glyph glyph-name="Euro" unicode="&#x20ac;" horiz-adv-x="1193" 
d="M606 961l-15 -72h55q72 0 59 -62q-13 -63 -83 -63h-58l-21 -102h55q71 0 58 -62q-13 -63 -83 -63h-57l-10 -50q-10 -37 -6 -62.5t10 -40.5t22.5 -23t30.5 -10.5t34 -2.5q36 0 61.5 8t42.5 27t25 33.5t20 41.5q11 25 17 37.5t21 33t32 30t46 17.5t67 8h35q84 0 112.5 -51
t4.5 -134q-51 -174 -188 -286.5t-340 -112.5q-143 0 -247 63t-148.5 178t-13.5 259l7 37h-45q-69 0 -56 63q13 62 85 62h43l22 102h-45q-69 0 -56 63q13 62 84 62h43l13 59q47 224 196.5 361t361.5 137q209 0 326.5 -116t94.5 -283q-10 -79 -59 -121.5t-129 -42.5h-37
q-38 0 -64 7.5t-39 16.5t-20 27.5t-8 30t-1 34.5q0 24 -2.5 37.5t-12 30t-32 24t-58.5 7.5q-121 0 -150 -137z" />
    <glyph glyph-name="trademark" unicode="&#x2122;" horiz-adv-x="1499" 
d="M344 700q-54 0 -74 30t-4 106l87 409h-4q-79 0 -104.5 25t-15.5 76q10 50 44 75t100 25h261q64 0 86 -24.5t11 -75.5q-10 -51 -46.5 -76t-115.5 -25h-5l-87 -409q-17 -76 -48 -106t-85 -30zM803 700q-53 0 -73 31.5t-5 102.5l102 483q16 75 47.5 102t86.5 27
q56 0 82.5 -26t39.5 -103l40 -238l141 238q45 76 87.5 102.5t101.5 26.5q55 0 74 -27t3 -102l-103 -483q-15 -72 -47.5 -103t-85.5 -31t-73 31.5t-5 102.5l33 153l-36 -61q-36 -63 -69 -86t-71 -23q-39 0 -62 24t-33 87l-8 57l-32 -151q-15 -71 -48.5 -102.5t-86.5 -31.5z
" />
    <glyph glyph-name="minus" unicode="&#x2212;" horiz-adv-x="1038" 
d="M787 569h-538q-79 0 -113 40.5t-18 115.5t67 115.5t130 40.5h538q79 0 113 -40.5t18 -115.5t-67 -115.5t-130 -40.5z" />
    <glyph glyph-name="notequal" unicode="&#x2260;" horiz-adv-x="1579" 
d="M347 1282l-70 -12q-9 -2 -14 1.5t-4 12.5q0 16 18 19l22 4q-1 9 -7.5 14t-14.5 7t-14 10.5t-5 25.5q1 23 20 66t23 61q-20 6 -15 27q2 12 12.5 20t24.5 8q11 0 18 -8t5 -20q-2 -8 -13 -21q3 -14 20.5 -52.5t16.5 -62.5q0 -27 -20 -42t-21 -27l19 4q17 3 17 -14
q0 -18 -18 -21zM308 10l-60 -10l35 1262l58 2l-18 -672l34 614q70 -67 149 -89.5t157.5 -9.5t162.5 40.5t176 53.5t185 37t203 -16.5t217 -99.5q-112 -229 -210.5 -461.5t-140.5 -350.5l-43 -117q-59 66 -128.5 97t-135.5 31t-135 -12t-136 -26.5t-129 -19t-122.5 17
t-108.5 75.5zM412 645l31 -31l71 66q40 -34 96 -40.5t116 17.5q30 12 54 31l62 -65l38 36l-60 64q41 44 60.5 99.5t7.5 103.5q-19 73 -90.5 100.5t-152.5 -6.5q-17 -7 -41 -21q4 1 9.5 4t6.5 3q66 28 124 5t76 -83q10 -39 -2.5 -81.5t-42.5 -76.5l-76 78l87 82l-107 18
l-155 -145l60 -62l74 70l76 -76q-14 -12 -41 -22q-80 -35 -141 2q-21 11 -35 28z" />
    <glyph glyph-name="i.loclTRK" horiz-adv-x="565" 
d="M435 1256q-69 0 -105.5 47t-22.5 113q14 68 70.5 114.5t125.5 46.5q68 0 105.5 -47t23.5 -114q-14 -66 -72 -113t-125 -47zM166 0h-16q-80 0 -113 42.5t-16 121.5l175 823q17 80 68.5 122t130.5 42h16q80 0 113 -42.5t16 -121.5l-175 -823q-17 -80 -68.5 -122t-130.5 -42
z" />
    <glyph glyph-name="a.ss01" horiz-adv-x="1032" 
d="M608 1151q81 0 145 -13t117.5 -43t82.5 -77.5t39.5 -117t-11.5 -161.5l-122 -575q-17 -79 -68 -121.5t-129 -42.5q-66 0 -100.5 22.5t-35.5 77.5q-31 -40 -99.5 -70t-163.5 -30q-39 0 -77 8t-77.5 30.5t-66.5 57t-40.5 91.5t-3.5 130q10 74 42.5 132.5t78 95t101.5 65.5
t113 45.5t112 33.5t99 31.5t74 37.5t36 53q8 37 -11.5 58.5t-61.5 21.5q-24 0 -50 -9t-40.5 -17.5t-43.5 -27.5q-31 -20 -47 -29.5t-45.5 -19.5t-57.5 -10h-16q-84 0 -112.5 53t17.5 130q52 87 160.5 138.5t261.5 51.5zM564 405l23 109q-23 -19 -64.5 -36.5t-73.5 -29
t-61 -37t-37 -63.5q-18 -84 66 -84q47 0 89 34t58 107z" />
    <glyph glyph-name="aacute.ss01" horiz-adv-x="1032" 
d="M644 1255h-2q-43 0 -64.5 14t-18.5 51t38 97l16 29q40 69 91.5 100t139.5 31h6q108 -1 122 -41t-60 -119l-53 -57q-59 -63 -103 -84t-112 -21zM608 1151q81 0 145 -13t117.5 -43t82.5 -77.5t39.5 -117t-11.5 -161.5l-122 -575q-17 -79 -68 -121.5t-129 -42.5
q-66 0 -100.5 22.5t-35.5 77.5q-31 -40 -99.5 -70t-163.5 -30q-39 0 -77 8t-77.5 30.5t-66.5 57t-40.5 91.5t-3.5 130q10 74 42.5 132.5t78 95t101.5 65.5t113 45.5t112 33.5t99 31.5t74 37.5t36 53q8 37 -11.5 58.5t-61.5 21.5q-24 0 -50 -9t-40.5 -17.5t-43.5 -27.5
q-31 -20 -47 -29.5t-45.5 -19.5t-57.5 -10h-16q-84 0 -112.5 53t17.5 129q53 87 161.5 139t260.5 52zM564 405l23 109q-23 -19 -64.5 -36.5t-73.5 -29t-61 -37t-37 -63.5q-18 -84 66 -84q47 0 89 34t58 107z" />
    <glyph glyph-name="abreve.ss01" horiz-adv-x="1032" 
d="M920 1581q64 0 84 -25.5t9 -78.5q-47 -222 -340 -222q-141 0 -206 58.5t-41 169.5q11 51 44 74.5t94 23.5t76.5 -21t11.5 -69q-2 -24 13.5 -32.5t40.5 -8.5q60 0 73 41q30 90 141 90zM608 1151q81 0 145 -13t117.5 -43t82.5 -77.5t39.5 -117t-11.5 -161.5l-122 -575
q-17 -79 -68 -121.5t-129 -42.5q-66 0 -100.5 22.5t-35.5 77.5q-31 -40 -99.5 -70t-163.5 -30q-39 0 -77 8t-77.5 30.5t-66.5 57t-40.5 91.5t-3.5 130q10 74 42.5 132.5t78 95t101.5 65.5t113 45.5t112 33.5t99 31.5t74 37.5t36 53q8 37 -11.5 58.5t-61.5 21.5q-24 0 -50 -9
t-40.5 -17.5t-43.5 -27.5q-31 -20 -47 -29.5t-45.5 -19.5t-57.5 -10h-16q-84 0 -112.5 53t17.5 130q52 87 160.5 138.5t261.5 51.5zM564 405l23 109q-23 -19 -64.5 -36.5t-73.5 -29t-61 -37t-37 -63.5q-18 -84 66 -84q47 0 89 34t58 107z" />
    <glyph glyph-name="acircumflex.ss01" horiz-adv-x="1032" 
d="M473 1247q-31 0 -51.5 7.5t-31 24t2.5 50t50 80.5l34 43q45 61 97 89t120 28h74q67 0 103 -22t57 -75l24 -61q64 -164 -88 -164q-63 0 -94.5 13t-48.5 47l-29 57l-13 -14q-55 -59 -98.5 -81t-107.5 -22zM608 1151q81 0 145 -13t117.5 -43t82.5 -77.5t39.5 -117
t-11.5 -161.5l-122 -575q-17 -79 -68 -121.5t-129 -42.5q-66 0 -100.5 22.5t-35.5 77.5q-31 -40 -99.5 -70t-163.5 -30q-39 0 -77 8t-77.5 30.5t-66.5 57t-40.5 91.5t-3.5 130q10 74 42.5 132.5t78 95t101.5 65.5t113 45.5t112 33.5t99 31.5t74 37.5t36 53q8 37 -11.5 58.5
t-61.5 21.5q-24 0 -50 -9t-40.5 -17.5t-43.5 -27.5q-31 -20 -47 -29.5t-45.5 -19.5t-57.5 -10h-16q-84 0 -112.5 53t17.5 130q52 87 160.5 138.5t261.5 51.5zM564 405l23 109q-23 -19 -64.5 -36.5t-73.5 -29t-61 -37t-37 -63.5q-18 -84 66 -84q47 0 89 34t58 107z" />
    <glyph glyph-name="adieresis.ss01" horiz-adv-x="1032" 
d="M462 1253q-64 0 -100 44.5t-22 107.5t68 108.5t118 45.5q63 0 99.5 -45.5t23.5 -108.5t-68.5 -107.5t-118.5 -44.5zM928 1559q63 0 98.5 -45.5t22.5 -108.5t-68 -107.5t-118 -44.5q-64 0 -99.5 44.5t-21.5 107.5t68 108.5t118 45.5zM608 1151q81 0 145 -13t117.5 -43
t82.5 -77.5t39.5 -117t-11.5 -161.5l-122 -575q-17 -79 -68 -121.5t-129 -42.5q-66 0 -100.5 22.5t-35.5 77.5q-31 -40 -99.5 -70t-163.5 -30q-39 0 -77 8t-77.5 30.5t-66.5 57t-40.5 91.5t-3.5 130q10 74 42.5 132.5t78 95t101.5 65.5t113 45.5t112 33.5t99 31.5t74 37.5
t36 53q8 37 -11.5 58.5t-61.5 21.5q-24 0 -50 -9t-40.5 -17.5t-43.5 -27.5q-31 -20 -47 -29.5t-45.5 -19.5t-57.5 -10h-16q-84 0 -112.5 53t17.5 130q52 87 160.5 138.5t261.5 51.5zM564 405l23 109q-23 -19 -64.5 -36.5t-73.5 -29t-61 -37t-37 -63.5q-18 -84 66 -84
q47 0 89 34t58 107z" />
    <glyph glyph-name="agrave.ss01" horiz-adv-x="1032" 
d="M517 1362l-28 57q-40 78 -10 118.5t137 41.5h9q88 0 127 -31t48 -100l4 -29q13 -89 -17.5 -125.5t-96.5 -36.5h-2q-68 0 -104 21t-67 84zM608 1151q81 0 145 -13t117.5 -43t82.5 -77.5t39.5 -117t-11.5 -161.5l-122 -575q-17 -79 -68 -121.5t-129 -42.5
q-66 0 -100.5 22.5t-35.5 77.5q-31 -40 -99.5 -70t-163.5 -30q-39 0 -77 8t-77.5 30.5t-66.5 57t-40.5 91.5t-3.5 130q10 74 42.5 132.5t78 95t101.5 65.5t113 45.5t112 33.5t99 31.5t74 37.5t36 53q8 37 -11.5 58.5t-61.5 21.5q-24 0 -50 -9t-40.5 -17.5t-43.5 -27.5
q-31 -20 -47 -29.5t-45.5 -19.5t-57.5 -10h-16q-84 0 -112.5 53t17.5 130q52 87 160.5 138.5t261.5 51.5zM564 406l23 108q-23 -19 -64.5 -36.5t-73.5 -29t-61 -37t-37 -63.5q-18 -84 66 -84q46 0 88.5 34.5t58.5 107.5z" />
    <glyph glyph-name="amacron.ss01" horiz-adv-x="1032" 
d="M813 1260h-305q-77 0 -104 29.5t-14 90.5q12 59 52 89t117 30h305q77 0 104 -29.5t14 -89.5q-13 -61 -52.5 -90.5t-116.5 -29.5zM608 1151q81 0 145 -13t117.5 -43t82.5 -77.5t39.5 -117t-11.5 -161.5l-122 -575q-17 -79 -68 -121.5t-129 -42.5q-66 0 -100.5 22.5
t-35.5 77.5q-31 -40 -99.5 -70t-163.5 -30q-39 0 -77 8t-77.5 30.5t-66.5 57t-40.5 91.5t-3.5 130q10 74 42.5 132.5t78 95t101.5 65.5t113 45.5t112 33.5t99 31.5t74 37.5t36 53q8 37 -11.5 58.5t-61.5 21.5q-24 0 -50 -9t-40.5 -17.5t-43.5 -27.5q-31 -20 -47 -29.5
t-45.5 -19.5t-57.5 -10h-16q-84 0 -112.5 53t17.5 130q52 87 160.5 138.5t261.5 51.5zM564 405l23 109q-23 -19 -64.5 -36.5t-73.5 -29t-61 -37t-37 -63.5q-18 -84 66 -84q47 0 89 34t58 107z" />
    <glyph glyph-name="aogonek.ss01" horiz-adv-x="1032" 
d="M608 1151q81 0 145 -13t117.5 -43t82.5 -77.5t39.5 -117t-11.5 -161.5l-122 -575q-13 -60 -45 -99l-2 -2q-4 -6 -47.5 -58.5t-74.5 -98t-37 -74.5q-8 -38 6.5 -54t49.5 -27q23 -7 36 -14t22.5 -25.5t3.5 -46.5q-29 -134 -192 -134q-121 0 -180 57t-36 163q31 148 176 296
q-12 20 -13 53q-31 -40 -99.5 -70t-163.5 -30q-39 0 -77 8t-77.5 30.5t-66.5 57t-40.5 91.5t-3.5 130q10 74 42.5 132.5t78 95t101.5 65.5t113 45.5t112 33.5t99 31.5t74 37.5t36 53q8 37 -11.5 58.5t-61.5 21.5q-24 0 -50 -9t-40.5 -17.5t-43.5 -27.5q-31 -20 -47 -29.5
t-45.5 -19.5t-57.5 -10h-16q-84 0 -112.5 53t17.5 130q52 87 160.5 138.5t261.5 51.5zM417 264q47 0 89 34t58 107l23 109q-23 -19 -64.5 -36.5t-73.5 -29t-61 -37t-37 -63.5q-18 -84 66 -84z" />
    <glyph glyph-name="aring.ss01" horiz-adv-x="1032" 
d="M683 1253q-86 0 -136 59t-36 144q14 86 83 145.5t155 59.5q85 0 135.5 -60t37.5 -145q-13 -84 -83.5 -143.5t-155.5 -59.5zM669 1460q-4 -20 7.5 -34.5t31.5 -14.5t36.5 14.5t21.5 34.5q4 20 -6.5 33.5t-30.5 13.5q-21 0 -38.5 -13.5t-21.5 -33.5zM608 1151q81 0 145 -13
t117.5 -43t82.5 -77.5t39.5 -117t-11.5 -161.5l-122 -575q-17 -79 -68 -121.5t-129 -42.5q-66 0 -100.5 22.5t-35.5 77.5q-31 -40 -99.5 -70t-163.5 -30q-39 0 -77 8t-77.5 30.5t-66.5 57t-40.5 91.5t-3.5 130q10 74 42.5 132.5t78 95t101.5 65.5t113 45.5t112 33.5t99 31.5
t74 37.5t36 53q8 37 -11.5 58.5t-61.5 21.5q-24 0 -50 -9t-40.5 -17.5t-43.5 -27.5q-31 -20 -47 -29.5t-45.5 -19.5t-57.5 -10h-16q-84 0 -112.5 53t17.5 130q52 87 160.5 138.5t261.5 51.5zM564 405l23 109q-23 -19 -64.5 -36.5t-73.5 -29t-61 -37t-37 -63.5
q-18 -84 66 -84q47 0 89 34t58 107z" />
    <glyph glyph-name="atilde.ss01" horiz-adv-x="1032" 
d="M525 1284q-67 -31 -120.5 -16.5t-64.5 69.5q-10 57 42.5 107.5t125.5 66.5q45 10 94 1.5t82.5 -22.5t78 -19.5t81.5 10.5q73 32 121 19t59 -68q12 -58 -37.5 -106.5t-119.5 -61.5q-48 -10 -99.5 -2.5t-85 20t-78 16.5t-79.5 -14zM608 1151q81 0 145 -13t117.5 -43
t82.5 -77.5t39.5 -117t-11.5 -161.5l-122 -575q-17 -79 -68 -121.5t-129 -42.5q-66 0 -100.5 22.5t-35.5 77.5q-31 -40 -99.5 -70t-163.5 -30q-39 0 -77 8t-77.5 30.5t-66.5 57t-40.5 91.5t-3.5 130q10 74 42.5 132.5t78 95t101.5 65.5t113 45.5t112 33.5t99 31.5t74 37.5
t36 53q8 37 -11.5 58.5t-61.5 21.5q-24 0 -50 -9t-40.5 -17.5t-43.5 -27.5q-31 -20 -47 -29.5t-45.5 -19.5t-57.5 -10h-16q-84 0 -112.5 53t17.5 130q52 87 160.5 138.5t261.5 51.5zM564 405l23 109q-23 -19 -64.5 -36.5t-73.5 -29t-61 -37t-37 -63.5q-18 -84 66 -84
q47 0 89 34t58 107z" />
    <glyph glyph-name="ae.ss01" horiz-adv-x="1538" 
d="M1138 1151q209 0 308 -117t55 -325l-16 -74q-17 -80 -68 -122t-130 -42h-361l-21 -100q-11 -50 11 -70t58 -20q33 0 58 8.5t36.5 18t28.5 27.5q20 21 32 31t44 20.5t75 10.5h31q70 0 99.5 -22t16.5 -66q-38 -131 -160 -220t-301 -89q-214 0 -290 137
q-80 -72 -154.5 -104.5t-175.5 -32.5q-50 0 -95.5 8.5t-91.5 30.5t-77 56.5t-46.5 91.5t-5.5 130q10 74 42.5 132.5t78 95t101.5 65.5t113 45.5t112 33.5t99 31.5t74 37.5t36 53q8 37 -11.5 58.5t-61.5 21.5q-24 0 -50 -9t-40.5 -17.5t-43.5 -27.5q-31 -20 -47 -29.5
t-45.5 -19.5t-57.5 -10h-16q-84 0 -112.5 53t17.5 130q52 87 160.5 138.5t261.5 51.5q178 0 246 -95q111 95 284 95zM1154 707l15 67q20 94 -70 94q-89 0 -109 -94l-14 -67h178zM564 405l23 109q-23 -19 -64.5 -36.5t-73.5 -29t-61 -37t-37 -63.5q-18 -84 66 -84q47 0 89 34
t58 107z" />
    <glyph glyph-name="one.numr" horiz-adv-x="503" 
d="M288 637h-10q-102 0 -81 102l94 443h-12q-84 6 -64 97l1 6q7 32 22.5 48.5t45.5 33.5q58 31 95 62q33 27 77 27h12q95 0 74 -102l-130 -615q-21 -102 -124 -102z" />
    <glyph glyph-name="two.numr" horiz-adv-x="696" 
d="M346 844h209q102 0 80 -103v-2q-21 -102 -124 -102h-324q-50 0 -71 26t-10 76l4 16q24 108 62.5 164.5t134.5 118.5q27 17 74 42.5t72 40.5t47.5 37t27.5 44q6 27 -6.5 41t-36.5 14q-41 0 -72 -33q-38 -42 -89 -42h-43q-50 0 -58.5 28t16.5 80q36 79 107.5 124.5
t163.5 45.5q119 0 184.5 -70.5t47.5 -183.5q-18 -114 -143 -200q-43 -30 -109 -62.5t-103 -55t-41 -44.5z" />
    <glyph glyph-name="three.numr" horiz-adv-x="696" 
d="M354 625q-104 0 -172.5 47t-72.5 127q-2 50 29 79t84 29h21q68 0 90 -44q19 -36 58 -36q27 0 49.5 16t28.5 44q6 31 -8.5 46t-54.5 15h-8q-45 0 -64.5 18t-10.5 61l2 13q18 88 103 88h12q70 0 83 64q6 29 -6.5 45t-37.5 16q-32 0 -60 -27q-26 -24 -50 -36t-60 -12h-20
q-53 0 -71 28t5 80q36 78 110.5 124t168.5 46q120 0 190.5 -65.5t57.5 -171.5q-7 -57 -41.5 -102.5t-84.5 -69.5q88 -40 68 -170q-17 -110 -113.5 -181t-224.5 -71z" />
    </font>
</defs>
</svg>
