<svg width="287" height="105" viewBox="0 0 287 105" xmlns="http://www.w3.org/2000/svg">
    <g fill-rule="nonzero" fill="none">
        <path d="M170.772 82.333v-4.777l-.984-.778h-2.077v-.111l-.984.777v4.89l.984.777h2.077l.984-.778zm-39.58-1.666v2.555h2.514l.766-1v-.778l-.766-.777h-2.515zm47.125-2.445v-.555l-.766-1h-2.405v2.555h2.405l.766-1zm-30.725.111v-.666l-.765-.89h-2.406v2.556h2.406l.765-1zm-43.626 11.223L101.014 73H95l4.155 9.111-4.155 9h22.743l-2.297-1.555h-11.48zm76.537-1.667L183.783 71h-81.457l2.733 16.889h75.444zm-6.67-8.556v-4h4.374L179.63 77v1.889l-1.422 1.667h-3.061v3.888h-1.312v-3.777l-.766-.667.766-.667zm-8.2 0V76.89l1.64-1.556h3.171l1.64 1.556v2.444l.766.667-.766.667V83l-1.64 1.556h-3.17L165.633 83v-2.333l-.766-.667.765-.667zm-8.2 0v-4h1.312v3.89h3.717v-3.89h1.312v3.89l.766.666-.766.778v3.889h-1.312v-3.89h-3.717v3.89h-1.312v-3.89l-.766-.666.766-.667zm-6.342 2v1l.984.778h1.968l.984-.778v-1l-.984-.777h-2.296L150.107 79v-2.111l1.64-1.556h2.843l1.64 1.556v1.555h-1.312v-1l-.875-.777h-1.858l-.875.777v1l.875.778h2.405l1.64 1.556V83h-.11l-1.64 1.556h-3.06L149.778 83v-1.667h1.312zm-7.982-6h4.374L148.904 77v1.778l-1.421 1.666 1.859 3.89h-1.422v.222l-1.858-3.89h-1.64v3.89h-1.313v-3.89l-.765-.666.765-.667v-4zm-6.232 4v-4h5.467v1.334h-4.155v2.555h3.17v1.334h-3.17v2.666h4.155v1.334h-5.467v-3.89l-.765-.666.765-.667zm-6.998 0v-4h4.374L135.674 77v1.778l-.874 1 .874 1v2h.11l-1.422 1.666h-4.483v-3.777l-.765-.667.765-.667zm-7.216 0v-4h4.373L128.458 77v1.778l-1.422 1.666 1.86 3.89h-1.422v.222l-1.859-3.89h-1.64v3.89h-1.312v-3.89l-.766-.666.766-.667zm-6.889.111 1.531-4h1.422l3.39 9.112h-1.313l-.875-2.334h-3.717l-.875 2.334h-1.421l1.421-3.89-.656-.666 1.093-.556zm-7.653-.11v-4h4.373L113.916 77v1.778l-.875 1 .875 1v2h.11l-1.422 1.666h-4.483v-3.777l-.766-.667.766-.667zm46.797 12.333c-1.203.889-3.827 3.222-5.139 4.444l-2.187-2.222-2.405 2.444-.984-1 2.405-2.444c2.187-2.222 4.483-1.778 4.592.222 0 .445.22.333.22.111.218-2.555-3.718-3.778-5.905-1.444l-2.296-2.334-2.406 2.445c-2.624-2.333-5.357-.778-5.03 1 0 .222.22.333.22-.111.218-1.778 2.623-2.334 4.482-.445l2.078 2.111-1.64 2.445-2.187-2.222-2.406 2.444c-1.202-1.222-4.81-4.444-5.576-5.111-4.374-3.333-7.107-1.111-7.107.667 0 2.555 3.39 2.777 4.045 1.444.329-.667-.218-1.555-.765-1.333-.219 0-.11.11-.11.222.11.333 0 .889-.655.778-.11-.111-.11-.111 0-.222.437-.445 0-1.445-.766-1.112-.109 0-.109 0-.109.112.11.222-.219.444-.547.333-.328 0-.656-.667-.328-1.445.547-1.222 3.062-1.777 5.795.556-1.858-.889-2.952-1.111-3.936-.778-.11 0-.11.111.11.111.765.111 1.53.445 2.296 1-.328.89.437 1.778 1.53 1.667 1.312-.111 2.515.556 3.171 1.111.656.667 1.859 1.778 2.296 2.222-3.499 3.445-6.013 1.334-6.013-.222 0-2 2.514-2.333 3.061-1.111.219.333.437.333.328 0-.547-1.778-3.827-1.556-3.827 1.111 0 2.222 3.718 4.445 7.654 1.333l2.187 2.223 2.515-2.556.984 1-2.515 2.556 3.28 3.333 2.843-2.889-2.078-2.222 2.078-2.111 2.077 2.11 2.406-2.444c4.373 4 7.763 1.89 7.544-.666-.11-1.222-.875-2.222-2.296-2.222-1.203 0-2.296 1.222-1.75 2.444.11.222.438.333.22-.111-.22-.778.437-1.778 1.53-1.778.765.111 1.53.556 1.75 1.667.437 2.444-2.843 4.11-6.67.555 0 0 1.53-1.444 2.733-2.555.547-.556 1.422-.89 2.515-.89 1.64 0 2.187-.777 1.968-1.666.438-.555 1.968-1 2.296-1 .219 0 .219-.11.11-.11-.984-.334-2.078-.112-3.937.777 2.953-2.445 5.686-1.667 5.905-.222 0 .555-.11.889-.438 1-.437.11-.765-.111-.765-.334 0-.11-.11-.11-.11-.11-.437.11-.655.444-.655.666 0 .111 0 .111-.11.111-.109 0-.218-.111-.109-.444 0-.112 0-.112-.219-.112-.874.112-.984 1.667.656 2 .984.223 2.078-.444 2.187-1.888.219-3.112-4.373-3.667-8.091-.89zM137.97 99l-.984-1 2.078-2.111.984 1L137.97 99zm3.937-6 2.077-2.111.984 1L142.891 94l-.984-1zm2.514 8.222-2.077 2.111-.984-1 2.077-2.11.984 1zm-1.749-2.555-.984-1 2.077-2.111.984 1-2.077 2.11zm4.592-.223-.984-1 2.078-2.11.984 1-2.078 2.11zM191 73h-6.014l-2.952 16.556h-11.371l-2.406 1.555H191l-4.155-9L191 73zm-63.854 5.333v-.666l-.766-.89h-2.405v2.556h2.405l.766-1zm-8.966-1.222-1.421 3.778h2.733l-1.312-3.778zm-5.467 5.111v-.778l-.765-.777h-2.515v2.555h2.515l.765-1zm21.65-3.889v-.666l-.766-1h-2.406v2.555h2.406l.765-.889zm-21.76 0v-.666l-.765-1h-2.405v2.555h2.405l.766-.889z" fill="#CA9D75"/>
        <path d="M132.401 0v4.53h-.217l-2.578-3.124h-4.565v17.371l2.267 1.719v.187h-8.292v-.187l2.299-1.719V1.406h-4.597l-2.546 3.124h-.217V0H132.4zm7.857 9.467h10.527V1.875L148.674.187V0h7.919v.187l-2.112 1.688v16.934l2.112 1.687v.187h-7.92v-.187l2.112-1.687v-7.905h-10.527v7.905l2.112 1.687v.187h-7.95v-.187l2.111-1.687V1.875L134.42.187V0h7.95v.187l-2.112 1.688v7.592zm18.57 11.216v-.187l2.112-1.687V1.875L158.83.187V0h14.067v4.124h-.186l-2.298-2.75h-5.776v7.687h5.993l1.615-2.187h.156v5.717h-.156l-1.615-2.156h-5.993v8.842h6.397l2.391-3.436h.187v4.842h-14.782zM73.399 50.97c-1.616 0-3.117-.245-4.504-.734-1.387-.49-2.593-1.198-3.618-2.125a9.855 9.855 0 0 1-2.406-3.343c-.58-1.302-.87-2.765-.87-4.39 0-1.458.27-2.838.807-4.14a10.25 10.25 0 0 1 2.298-3.42c.994-.98 2.2-1.76 3.618-2.344 1.419-.583 3.007-.875 4.767-.875.663 0 1.315.031 1.957.094.641.062 1.237.14 1.785.234.549.094 1.04.193 1.475.297.435.104.777.187 1.025.25v4.093h-.186c-.352-.438-.76-.87-1.227-1.297a9 9 0 0 0-3.292-1.921 6.254 6.254 0 0 0-1.972-.313c-.993 0-1.915.23-2.763.688a7.114 7.114 0 0 0-2.22 1.89c-.632.802-1.124 1.75-1.476 2.843-.352 1.094-.528 2.276-.528 3.546 0 1.437.202 2.744.606 3.921.403 1.177.947 2.182 1.63 3.015.683.833 1.475 1.474 2.376 1.922a6.3 6.3 0 0 0 2.841.672 6.02 6.02 0 0 0 2.283-.422 8.484 8.484 0 0 0 1.848-1.016 9.04 9.04 0 0 0 1.382-1.234c.383-.427.688-.786.916-1.078h.186v3.843c-.248.125-.585.26-1.01.406-.424.146-.926.292-1.505.438a17.268 17.268 0 0 1-4.224.5zm9.253-10.404c0-1.583.28-3.047.839-4.39.559-1.344 1.32-2.505 2.282-3.484a10.583 10.583 0 0 1 3.339-2.296 9.97 9.97 0 0 1 4.037-.828c1.45 0 2.816.25 4.1.75a10.2 10.2 0 0 1 3.369 2.124c.962.917 1.723 2.02 2.282 3.312.56 1.292.839 2.718.839 4.28 0 1.604-.285 3.078-.854 4.421-.57 1.344-1.336 2.5-2.299 3.469a10.446 10.446 0 0 1-3.353 2.265 10.093 10.093 0 0 1-3.99.812c-1.409 0-2.754-.25-4.038-.75a10.512 10.512 0 0 1-3.385-2.109c-.973-.906-1.744-2.005-2.314-3.296-.569-1.291-.854-2.718-.854-4.28zm4.069-.25c0 1.416.18 2.692.543 3.827.362 1.135.844 2.104 1.444 2.906s1.289 1.416 2.065 1.843a4.99 4.99 0 0 0 2.438.64c.849 0 1.667-.213 2.453-.64.787-.427 1.48-1.041 2.081-1.843.6-.802 1.077-1.77 1.429-2.906.351-1.135.527-2.41.527-3.827 0-1.438-.18-2.729-.543-3.875-.362-1.145-.849-2.119-1.46-2.92-.61-.803-1.31-1.422-2.096-1.86a4.982 4.982 0 0 0-2.453-.656c-.849 0-1.662.219-2.438.656-.776.438-1.46 1.062-2.05 1.875-.59.812-1.06 1.791-1.413 2.937-.351 1.145-.527 2.426-.527 3.843zm19.253 10.31v-.187l2.112-1.688V31.816l-2.112-1.687v-.187h8.199c2.07 0 3.727.385 4.969 1.156 1.242.77 1.863 1.906 1.863 3.405 0 .646-.114 1.234-.342 1.766a5.9 5.9 0 0 1-.87 1.437 6.51 6.51 0 0 1-1.164 1.109 8.808 8.808 0 0 1-1.257.781l3.509 6.061c.455.813.906 1.495 1.35 2.047.446.552.855 1.015 1.227 1.39a9.157 9.157 0 0 0 1.646 1.344v.187c-.124.042-.378.089-.76.14a8.871 8.871 0 0 1-1.196.079 8.017 8.017 0 0 1-1.755-.172 4.172 4.172 0 0 1-1.397-.594 5.397 5.397 0 0 1-1.196-1.109 11.84 11.84 0 0 1-1.118-1.687l-3.726-6.811h-2.174v8.28l2.36 1.687v.187h-8.168zm5.808-19.371v7.967h2.857a1.95 1.95 0 0 0 1.056-.312c.33-.209.631-.495.9-.86.27-.364.482-.78.637-1.25a4.79 4.79 0 0 0 .233-1.515c0-.729-.109-1.348-.326-1.859a3.367 3.367 0 0 0-.885-1.25 3.478 3.478 0 0 0-1.274-.702 5.063 5.063 0 0 0-1.49-.219h-1.708zm29.47 13.685h.187v5.686h-15.62v-.187l2.111-1.688V31.816l-2.112-1.687v-.187h7.92v.187l-2.112 1.687V49.22h6.49l3.137-4.28zm2.392 5.686v-.187l2.112-1.688V31.816l-2.112-1.687v-.187h14.068v4.124h-.187l-2.298-2.75h-5.776v7.686h5.994l1.615-2.187h.155v5.718h-.155l-1.615-2.156h-5.994v8.842h6.397l2.392-3.437h.186v4.843h-14.782zm17.328-10.06c0-1.583.28-3.047.839-4.39.559-1.344 1.32-2.505 2.282-3.484a10.583 10.583 0 0 1 3.339-2.296 9.97 9.97 0 0 1 4.037-.828c1.45 0 2.816.25 4.1.75a10.2 10.2 0 0 1 3.369 2.124c.962.917 1.723 2.02 2.282 3.312.56 1.292.839 2.718.839 4.28 0 1.604-.285 3.078-.854 4.421-.57 1.344-1.336 2.5-2.298 3.469a10.446 10.446 0 0 1-3.354 2.265 10.093 10.093 0 0 1-3.99.812c-1.409 0-2.754-.25-4.038-.75a10.512 10.512 0 0 1-3.385-2.109c-.973-.906-1.744-2.005-2.314-3.296-.569-1.291-.854-2.718-.854-4.28zm4.069-.25c0 1.416.18 2.692.543 3.827.362 1.135.844 2.104 1.444 2.906s1.289 1.416 2.065 1.843a4.99 4.99 0 0 0 2.438.64c.849 0 1.667-.213 2.453-.64.787-.427 1.48-1.041 2.081-1.843.6-.802 1.077-1.77 1.429-2.906.351-1.135.527-2.41.527-3.827 0-1.438-.18-2.729-.543-3.875-.362-1.145-.849-2.119-1.46-2.92-.61-.803-1.31-1.422-2.096-1.86a4.982 4.982 0 0 0-2.453-.656c-.849 0-1.662.219-2.438.656-.776.438-1.46 1.062-2.05 1.875-.59.812-1.06 1.791-1.412 2.937-.352 1.145-.528 2.426-.528 3.843zm19.13 10.31v-.187l2.235-1.781v-16.09a45.481 45.481 0 0 0-1.428-1.5c-.228-.23-.43-.427-.606-.594a5.305 5.305 0 0 0-.388-.344v-.187h5.093l13.198 14.997V31.91l-2.577-1.78v-.188h6.552v.187l-2.267 1.781v18.715h-1.46l-14.378-16.153v14.185l2.671 1.78v.188h-6.646zm26.893-20.152c0 .25-.026.557-.078.922-.052.364-.13.796-.233 1.296-.103.5-.228 1.094-.373 1.781-.144.687-.31 1.479-.496 2.375h-.31l-.498-2.375c-.145-.687-.269-1.28-.372-1.78-.104-.5-.182-.933-.233-1.297a6.742 6.742 0 0 1-.078-.922c0-.458.109-.833.326-1.125.217-.291.554-.437 1.01-.437.455 0 .791.146 1.009.437.217.292.326.667.326 1.125zm9.347-.875c1.077 0 1.977.073 2.702.219.725.146 1.211.26 1.46.344v3.749h-.187a11.669 11.669 0 0 0-1.94-2.078 3.627 3.627 0 0 0-2.376-.86c-.725 0-1.351.225-1.88.673-.527.447-.791 1.067-.791 1.859 0 .5.077.942.233 1.327.155.386.388.755.698 1.11.311.354.694.708 1.15 1.062.455.354.983.75 1.583 1.187a38.896 38.896 0 0 1 2.019 1.562c.6.5 1.118 1.016 1.553 1.547a6.366 6.366 0 0 1 1.009 1.703c.238.604.357 1.28.357 2.03 0 .834-.155 1.61-.466 2.328a5.543 5.543 0 0 1-1.32 1.875c-.569.53-1.268.947-2.096 1.25-.828.302-1.76.453-2.795.453-1.304 0-2.417-.136-3.338-.407-.921-.27-1.64-.541-2.158-.812a13.75 13.75 0 0 1-.11-1.11c-.03-.468-.061-.973-.092-1.514a42.634 42.634 0 0 1-.062-1.656c-.01-.563-.006-1.083.015-1.563h.249c.248.625.527 1.266.838 1.922a9.02 9.02 0 0 0 1.118 1.796c.435.542.937.985 1.506 1.328.57.344 1.248.516 2.034.516.932 0 1.698-.307 2.298-.922.6-.614.9-1.39.9-2.328 0-.52-.072-.994-.217-1.421a3.947 3.947 0 0 0-.667-1.203c-.3-.375-.678-.75-1.134-1.125a22.954 22.954 0 0 0-1.646-1.218c-1.552-1.083-2.722-2.12-3.509-3.109-.786-.99-1.18-2.13-1.18-3.421 0-.813.155-1.531.466-2.156a4.603 4.603 0 0 1 1.304-1.593 5.978 5.978 0 0 1 1.972-1c.756-.23 1.59-.344 2.5-.344zM37.723 41.913c-2.613-.217-5.227-1.413-5.227-1.413s2.701-.76 5.315-.543c2.613.217 5.575 1.413 5.575 1.413s-3.049.87-5.663.543zm-8.015-.326S9.583 38.978 0 38.217V38c9.583.76 29.795 1.087 29.795 1.087l-.087 1.196v1.304zM44.78 43c-.61 0-1.132-.76-1.132-1.522 0-.76.61-1.413 1.22-1.413S46 40.826 46 41.587c-.087.87-.61 1.413-1.22 1.413zm-13.765-1.087c-.61 0-1.132-.76-1.045-1.522 0-.76.61-1.413 1.22-1.304.61 0 1.132.76 1.045 1.522-.087.76-.61 1.304-1.22 1.304zM257.266 41.587l-.087-1.304-.088-1.196S277.381 38.761 287 38v.217c-9.532.761-29.734 3.37-29.734 3.37m-1.224.326c-.612 0-1.137-.543-1.225-1.304 0-.761.438-1.413 1.05-1.522.612 0 1.137.543 1.224 1.304 0 .761-.437 1.413-1.05 1.522M242.225 43c-.612 0-1.224-.543-1.224-1.413 0-.76.437-1.522 1.137-1.522.612 0 1.224.544 1.224 1.413 0 .761-.524 1.413-1.137 1.522m1.4-1.63s2.973-1.196 5.597-1.413c2.623-.11 5.334.543 5.334.543s-2.623 1.087-5.247 1.413c-2.624.326-5.684-.543-5.684-.543" fill="#FFF"/>
    </g>
</svg>
