<?xml version="1.0" encoding="UTF-8" standalone="no"?>
<!-- Created with Inkscape (http://www.inkscape.org/) -->

<svg
   version="1.1"
   id="svg1080"
   width="191.00055"
   height="77.931"
   viewBox="0 0 191.00055 77.930998"
   sodipodi:docname="logo.svg"
   inkscape:version="1.2 (dc2aeda, 2022-05-15)"
   xmlns:inkscape="http://www.inkscape.org/namespaces/inkscape"
   xmlns:sodipodi="http://sodipodi.sourceforge.net/DTD/sodipodi-0.dtd"
   xmlns="http://www.w3.org/2000/svg"
   xmlns:svg="http://www.w3.org/2000/svg">
  <defs
     id="defs1084">
    <clipPath
       clipPathUnits="userSpaceOnUse"
       id="clipPath1150">
      <path
         d="M 0,1080 H 1920 V 0 H 0 Z"
         id="path1148" />
    </clipPath>
  </defs>
  <sodipodi:namedview
     id="namedview1082"
     pagecolor="#505050"
     bordercolor="#eeeeee"
     borderopacity="1"
     inkscape:showpageshadow="0"
     inkscape:pageopacity="0"
     inkscape:pagecheckerboard="0"
     inkscape:deskcolor="#505050"
     showgrid="false"
     inkscape:zoom="3.9849588"
     inkscape:cx="145.67277"
     inkscape:cy="60.602886"
     inkscape:window-width="1680"
     inkscape:window-height="997"
     inkscape:window-x="0"
     inkscape:window-y="25"
     inkscape:window-maximized="1"
     inkscape:current-layer="g1088" />
  <g
     id="g1088"
     inkscape:groupmode="layer"
     inkscape:label="Page 1"
     transform="matrix(1.3333333,0,0,-1.3333333,-2262.3807,121.43293)">
    <g
       id="g1144"
       transform="matrix(0.64176167,0,0,0.64176167,607.85363,32.626449)">
      <g
         id="g1146"
         clip-path="url(#clipPath1150)">
        <g
           id="g1152"
           transform="translate(1696.7979,73.4352)">
          <path
             d="M 0,0 C -0.13,1.121 0.78,1.932 2.063,1.932 H 2.2 c 0.894,0 1.233,-0.379 1.473,-1.018 0.274,-0.996 1.013,-1.593 2.392,-1.593 1.327,0 2.53,0.472 2.665,1.593 0.372,2.896 -7.469,1.489 -6.887,7.138 0.307,3.03 2.954,4.661 6.597,4.661 3.17,0 5.273,-1.239 5.458,-3.673 0.13,-1.099 -0.765,-1.905 -1.952,-1.905 h -0.149 c -0.986,0 -1.313,0.421 -1.532,1.034 C 10.044,9.141 9.401,9.586 8.099,9.586 6.757,9.586 5.827,9.051 5.678,8.052 5.187,4.911 13.096,6.393 12.617,0.929 12.343,-2.281 9.665,-3.865 5.624,-3.865 2.527,-3.865 0.155,-2.463 0,0"
             style="fill:#26263a;fill-opacity:1;fill-rule:nonzero;stroke:none"
             id="path1154" />
        </g>
        <g
           id="g1156"
           transform="translate(1713.6434,69.5707)">
          <path
             d="M 0,0 C -1.195,0 -1.705,0.649 -1.452,1.844 L 2.333,19.66 c 0.254,1.195 1.041,1.844 2.235,1.844 H 4.73 c 1.195,0 1.706,-0.649 1.452,-1.844 L 5.103,14.572 c 0.822,1.342 2.37,2.108 4.066,2.108 2.544,0 4.72,-1.504 3.77,-5.972 L 11.056,1.844 C 10.802,0.649 10.015,0 8.82,0 H 8.614 C 7.419,0 6.908,0.649 7.162,1.844 l 1.802,8.48 C 9.378,12.271 8.839,13.2 7.187,13.2 5.55,13.2 4.63,12.345 4.176,10.206 L 2.398,1.844 C 2.144,0.649 1.357,0 0.162,0 Z"
             style="fill:#26263a;fill-opacity:1;fill-rule:nonzero;stroke:none"
             id="path1158" />
        </g>
        <g
           id="g1160"
           transform="translate(1738.5538,79.9095)">
          <path
             d="m 0,0 c 0.426,2.006 -0.388,2.891 -1.76,2.891 -1.416,0 -2.569,-0.915 -3.002,-2.95 l -0.843,-3.967 c -0.439,-2.065 0.311,-2.98 1.741,-2.98 1.416,0 2.572,0.93 3.008,2.98 z m 3.361,6.239 c 1.165,0 1.676,-0.649 1.422,-1.844 L 2.04,-8.51 c -0.254,-1.195 -1.041,-1.844 -2.206,-1.844 -1.165,0 -1.682,0.62 -1.422,1.844 l 0.046,0.217 c -0.514,-0.829 -1.818,-2.061 -4.066,-2.061 -2.98,0 -4.86,1.77 -3.957,6.018 l 0.972,4.572 c 0.909,4.277 3.001,6.003 5.921,6.003 2.27,0 3.547,-1.267 3.775,-2.086 l 0.052,0.242 c 0.254,1.195 1.04,1.844 2.206,1.844 z"
             style="fill:#26263a;fill-opacity:1;fill-rule:nonzero;stroke:none"
             id="path1162" />
        </g>
        <g
           id="g1164"
           transform="translate(1754.7518,79.9391)">
          <path
             d="m 0,0 c 0.423,1.991 -0.392,2.876 -1.763,2.876 -1.445,0 -2.593,-0.959 -3.017,-2.95 l -0.846,-3.982 c -0.432,-2.035 0.326,-2.979 1.756,-2.979 1.401,0 2.572,0.929 3.008,2.979 z m 4.37,11.135 c 1.194,0 1.705,-0.648 1.451,-1.843 L 2.037,-8.525 c -0.254,-1.194 -1.041,-1.843 -2.206,-1.843 -1.165,0 -1.682,0.619 -1.441,1.755 l 0.069,0.324 c -0.546,-0.869 -1.685,-2.079 -4.07,-2.079 -2.994,0 -4.878,1.755 -3.972,6.017 l 0.975,4.587 c 0.897,4.218 2.996,5.973 5.99,5.973 2.094,0 3.246,-1.062 3.537,-1.814 l 1.038,4.897 c 0.254,1.194 1.041,1.843 2.236,1.843 z"
             style="fill:#26263a;fill-opacity:1;fill-rule:nonzero;stroke:none"
             id="path1166" />
        </g>
        <g
           id="g1168"
           transform="translate(1770.0225,75.6029)">
          <path
             d="M 0,0 0.966,4.542 C 1.339,6.297 0.443,7.079 -0.885,7.079 -2.241,7.079 -3.44,6.297 -3.813,4.542 L -4.779,0 c -0.379,-1.785 0.502,-2.566 1.844,-2.566 1.298,0 2.556,0.781 2.935,2.566 m -3.229,-6.032 c -3.982,0 -6.16,2.522 -5.297,6.578 l 0.745,3.51 c 0.838,3.938 3.209,6.489 7.191,6.489 3.908,0 6.153,-2.551 5.316,-6.489 L 3.98,0.546 C 3.118,-3.51 0.679,-6.032 -3.229,-6.032 Z"
             style="fill:#26263a;fill-opacity:1;fill-rule:nonzero;stroke:none"
             id="path1170" />
        </g>
        <g
           id="g1172"
           transform="translate(1780.2136,69.5707)">
          <path
             d="m 0,0 c -1.091,0 -1.683,0.546 -1.726,1.593 l -0.661,12.919 c -0.049,1.298 0.705,2.065 1.929,2.065 h 0.221 c 1.091,0 1.679,-0.544 1.672,-1.637 l 0.152,-9.07 4.011,9.085 c 0.456,1.079 1.244,1.622 2.35,1.622 h 0.044 c 1.107,0 1.68,-0.544 1.676,-1.622 l 0.146,-9.1 4.04,9.085 c 0.456,1.079 1.277,1.637 2.368,1.637 h 0.266 c 1.297,0 1.769,-0.767 1.168,-2.065 L 11.489,1.593 C 11,0.546 10.191,0 9.1,0 H 8.539 C 7.448,0 6.859,0.544 6.867,1.637 L 6.737,10.324 2.882,1.622 C 2.422,0.529 1.608,0 0.516,0 Z"
             style="fill:#26263a;fill-opacity:1;fill-rule:nonzero;stroke:none"
             id="path1174" />
        </g>
        <g
           id="g1176"
           transform="translate(1808.1376,79.9391)">
          <path
             d="m 0,0 c 0.423,1.991 -0.392,2.876 -1.763,2.876 -1.445,0 -2.593,-0.959 -3.017,-2.95 l -0.846,-3.982 c -0.432,-2.035 0.326,-2.979 1.756,-2.979 1.401,0 2.572,0.929 3.008,2.979 z m 4.37,11.135 c 1.194,0 1.705,-0.648 1.451,-1.843 L 2.037,-8.525 c -0.254,-1.194 -1.041,-1.843 -2.206,-1.843 -1.165,0 -1.682,0.619 -1.441,1.755 l 0.069,0.324 c -0.546,-0.869 -1.685,-2.079 -4.07,-2.079 -2.994,0 -4.878,1.755 -3.972,6.017 l 0.975,4.587 c 0.897,4.218 2.996,5.973 5.99,5.973 2.094,0 3.246,-1.062 3.537,-1.814 l 1.038,4.897 c 0.254,1.194 1.041,1.843 2.236,1.843 z"
             style="fill:#26263a;fill-opacity:1;fill-rule:nonzero;stroke:none"
             id="path1178" />
        </g>
        <g
           id="g1180"
           transform="translate(1825.5547,84.4518)">
          <path
             d="M 0,0 -0.028,-0.133 C -0.288,-1.357 -1.206,-1.858 -2.387,-2.138 -4.274,-2.345 -5.36,-3.569 -5.849,-5.87 l -1.524,-7.167 c -0.254,-1.195 -1.041,-1.844 -2.235,-1.844 h -0.163 c -1.194,0 -1.705,0.649 -1.451,1.844 l 2.74,12.89 c 0.254,1.194 1.041,1.843 2.206,1.843 1.165,0 1.676,-0.649 1.422,-1.843 l -0.112,-0.529 c 0.521,1.05 1.75,2.372 3.468,2.372 C -0.274,1.696 0.241,1.136 0,0"
             style="fill:#26263a;fill-opacity:1;fill-rule:nonzero;stroke:none"
             id="path1182" />
        </g>
        <g
           id="g1184"
           transform="translate(1834.1149,75.6029)">
          <path
             d="M 0,0 0.966,4.542 C 1.339,6.297 0.443,7.079 -0.885,7.079 -2.242,7.079 -3.44,6.297 -3.813,4.542 L -4.779,0 c -0.379,-1.785 0.502,-2.566 1.844,-2.566 1.298,0 2.556,0.781 2.935,2.566 m -3.229,-6.032 c -3.982,0 -6.16,2.522 -5.297,6.578 l 0.745,3.51 c 0.838,3.938 3.209,6.489 7.191,6.489 3.908,0 6.153,-2.551 5.316,-6.489 L 3.98,0.546 C 3.118,-3.51 0.679,-6.032 -3.229,-6.032 Z"
             style="fill:#26263a;fill-opacity:1;fill-rule:nonzero;stroke:none"
             id="path1186" />
        </g>
        <g
           id="g1188"
           transform="translate(1851.1923,79.8352)">
          <path
             d="M 0,0 C 0.433,2.035 -0.325,2.979 -1.756,2.979 -3.157,2.979 -4.328,2.05 -4.764,0 l -0.862,-4.056 c -0.423,-1.991 0.391,-2.876 1.763,-2.876 1.445,0 2.593,0.959 3.016,2.95 z m -0.016,6.312 c 2.847,0 4.878,-1.755 3.972,-6.017 L 2.981,-4.292 c -0.897,-4.218 -2.995,-5.973 -5.989,-5.973 -2.094,0 -3.07,1.032 -3.538,1.814 l -0.954,-4.49 c -0.254,-1.194 -1.041,-1.843 -2.236,-1.843 h -0.177 c -1.194,0 -1.705,0.649 -1.451,1.843 l 3.7,17.41 c 0.254,1.194 1.041,1.843 2.206,1.843 1.166,0 1.683,-0.619 1.442,-1.755 L -4.085,4.233 c 0.546,0.869 1.685,2.08 4.07,2.08 z"
             style="fill:#26263a;fill-opacity:1;fill-rule:nonzero;stroke:none"
             id="path1190" />
        </g>
        <g
           id="g1192"
           transform="translate(1730.4189,54.449)">
          <path
             d="M 0,0 -0.752,-3.534 H 10.602 L 9.85,-7.068 h 11.355 l -0.752,-3.534 h 11.355 l -0.752,-3.534 h 11.355 l -0.752,-3.534 h 11.354 l -0.752,-3.534 h 11.355 l -0.751,-3.534 h 11.354 l -0.751,-3.534 h 11.353 l -0.751,-3.534 h 11.354 l -0.751,-3.533 h 11.355 l -0.752,-3.534 h 11.354 l -0.752,-3.534 h 11.355 l -0.752,-3.534 h 11.355 l -0.752,-3.534 h 11.355 l -0.752,-3.534 h 11.354 l -0.306,-1.44 h 30.846 v 47.381 h -17.156 l 0.751,3.534 H 154.754 L 155.506,0 h -18.423 l 0.752,3.534 h -18.423 l 0.752,3.534 H 101.74 l 0.752,3.534 H -31.809 l -0.752,-3.534 h 11.355 l -0.752,-3.534 h 11.355 L -11.355,0 Z"
             style="fill:#26263a;fill-opacity:1;fill-rule:nonzero;stroke:none"
             id="path1194" />
        </g>
      </g>
    </g>
  </g>
</svg>
