<?xml version="1.0" encoding="utf-8"?>
<!-- Generator: Adobe Illustrator 26.5.0, SVG Export Plug-In . SVG Version: 6.00 Build 0)  -->
<svg version="1.1" id="Vrstva_1" xmlns="http://www.w3.org/2000/svg" xmlns:xlink="http://www.w3.org/1999/xlink" x="0px" y="0px"
	 viewBox="0 0 79.4 79.4" style="enable-background:new 0 0 79.4 79.4;" xml:space="preserve">
<style type="text/css">
	.st0{fill:none;stroke:#26263A;stroke-miterlimit:10;}
	.st1{fill:#26263A;}
</style>
<g>
	<circle class="st0" cx="39.7" cy="39.7" r="37.9"/>
	<path class="st1" d="M58.1,42.9H38.7c-0.8,0-1.7,0.3-2.4,1c-1.2,1.2-1.4,3-0.4,4.1l5.9,5.9c1.1,1.1,0.9,3-0.3,4.2
		c-1.2,1.2-3.1,1.4-4.2,0.3l-5.1-5.1l0,0L23,44.2l-4.5-4.5l15.9-15.9l0,0l2.8-2.8l0,0c1.1-1.1,3-0.9,4.2,0.3
		c1.2,1.2,1.4,3.1,0.3,4.2l-5.9,5.9c-1,1.1-0.8,2.9,0.4,4.1c0.7,0.7,1.6,1,2.4,1l19.4,0c1.5,0,2.8,1.4,2.8,3.2
		C60.9,41.5,59.6,42.9,58.1,42.9z"/>
</g>
</svg>
