<?xml version="1.0" encoding="utf-8"?>
<!-- Generator: Adobe Illustrator 27.0.0, SVG Export Plug-In . SVG Version: 6.00 Build 0)  -->
<svg version="1.1" id="Vrstva_1" xmlns="http://www.w3.org/2000/svg" xmlns:xlink="http://www.w3.org/1999/xlink" x="0px" y="0px"
	 viewBox="0 0 79.4 79.4" style="enable-background:new 0 0 79.4 79.4;" xml:space="preserve">
<style type="text/css">
	.st0{fill:none;stroke:#26263A;stroke-miterlimit:10;}
	.st1{fill:#26263A;}
</style>
<circle class="st0" cx="39.7" cy="39.7" r="37.9"/>
<path class="st1" d="M53.2,48.7l-9-9l9-9c1.1-1.1,0.9-2.9-0.3-4.2c-1.3-1.3-3.2-1.3-4.2-0.3l-9,9l-9-9c-1.1-1.1-3-1-4.2,0.3
	c-1.3,1.3-1.3,3.2-0.3,4.2l9,9l-9,9c-1.1,1.1-1,3,0.3,4.2c1.3,1.3,3.2,1.3,4.2,0.3l9-9l9,9c1.1,1.1,2.9,0.9,4.2-0.3
	C54.2,51.7,54.3,49.7,53.2,48.7z"/>
</svg>
