<?xml version="1.0" encoding="UTF-8" standalone="no"?>
<!-- Generator: Adobe Illustrator 27.0.0, SVG Export Plug-In . SVG Version: 6.00 Build 0)  -->

<svg
   version="1.1"
   id="Vrstva_1"
   x="0px"
   y="0px"
   viewBox="0 0 44.999999 44.999999"
   xml:space="preserve"
   sodipodi:docname="close-circle.svg"
   width="45"
   height="45"
   inkscape:version="1.2 (dc2aeda, 2022-05-15)"
   xmlns:inkscape="http://www.inkscape.org/namespaces/inkscape"
   xmlns:sodipodi="http://sodipodi.sourceforge.net/DTD/sodipodi-0.dtd"
   xmlns="http://www.w3.org/2000/svg"
   xmlns:svg="http://www.w3.org/2000/svg"><defs
   id="defs3925" /><sodipodi:namedview
   id="namedview3923"
   pagecolor="#505050"
   bordercolor="#eeeeee"
   borderopacity="1"
   inkscape:showpageshadow="0"
   inkscape:pageopacity="0"
   inkscape:pagecheckerboard="0"
   inkscape:deskcolor="#505050"
   showgrid="false"
   inkscape:zoom="2.9722921"
   inkscape:cx="29.775001"
   inkscape:cy="22.877967"
   inkscape:window-width="1309"
   inkscape:window-height="456"
   inkscape:window-x="0"
   inkscape:window-y="25"
   inkscape:window-maximized="0"
   inkscape:current-layer="Vrstva_1" />
<style
   type="text/css"
   id="style3916">
	.st0{fill:none;stroke:#26263A;stroke-miterlimit:10;}
	.st1{fill:#26263A;}
</style>
<circle
   class="st0"
   cx="22.5"
   cy="22.5"
   r="22.207031"
   id="circle3918"
   style="stroke-width:0.585938" />
<path
   class="st1"
   d="M 30.410156,27.773437 25.136718,22.5 30.410156,17.226562 c 0.644531,-0.644531 0.527343,-1.699218 -0.175782,-2.460937 -0.761718,-0.761719 -1.874999,-0.761719 -2.460937,-0.175781 L 22.5,19.863281 17.226562,14.589844 c -0.644531,-0.644531 -1.757812,-0.585938 -2.460937,0.175781 -0.761719,0.761719 -0.761719,1.875 -0.175781,2.460937 L 19.863281,22.5 14.589844,27.773437 c -0.644531,0.644531 -0.585938,1.757813 0.175781,2.460937 0.761719,0.761719 1.875,0.761719 2.460937,0.175782 L 22.5,25.136718 l 5.273437,5.273438 c 0.644531,0.644531 1.699219,0.527343 2.460937,-0.175782 0.761719,-0.703124 0.820313,-1.874999 0.175782,-2.460937 z"
   id="path3920"
   style="stroke-width:0.585938" />
</svg>
