<?xml version="1.0" encoding="utf-8"?>
<!-- Generator: Adobe Illustrator 26.5.0, SVG Export Plug-In . SVG Version: 6.00 Build 0)  -->
<svg version="1.1" id="Vrstva_1" xmlns="http://www.w3.org/2000/svg" xmlns:xlink="http://www.w3.org/1999/xlink" x="0px" y="0px"
	 viewBox="0 0 79.4 79.4" style="enable-background:new 0 0 79.4 79.4;" xml:space="preserve">
<style type="text/css">
	.st0{fill:none;stroke:#26263A;stroke-miterlimit:10;}
	.st1{fill:#26263A;}
</style>
<g>
	<circle class="st0" cx="39.7" cy="39.7" r="37.9"/>
	<path class="st1" d="M55.6,42.9H23.8c-1.5,0-2.8-1.4-2.8-3.2c0-1.8,1.2-3.2,2.8-3.2h31.8c1.5,0,2.8,1.4,2.8,3.2
		C58.3,41.5,57.1,42.9,55.6,42.9z"/>
	<path class="st1" d="M55.6,29.1H23.8c-1.5,0-2.8-1.4-2.8-3.2c0-1.8,1.2-3.2,2.8-3.2h31.8c1.5,0,2.8,1.4,2.8,3.2
		C58.3,27.7,57.1,29.1,55.6,29.1z"/>
	<path class="st1" d="M55.6,56.6H23.8c-1.5,0-2.8-1.4-2.8-3.2c0-1.8,1.2-3.2,2.8-3.2h31.8c1.5,0,2.8,1.4,2.8,3.2
		C58.3,55.2,57.1,56.6,55.6,56.6z"/>
</g>
</svg>
