<?xml version="1.0" encoding="UTF-8" standalone="no"?>
<!-- Generator: Adobe Illustrator 26.5.0, SVG Export Plug-In . SVG Version: 6.00 Build 0)  -->

<svg
   version="1.1"
   id="Vrstva_1"
   x="0px"
   y="0px"
   viewBox="0 0 44.999999 44.999999"
   xml:space="preserve"
   sodipodi:docname="hamburger-circle.svg"
   width="45"
   height="45"
   inkscape:version="1.2 (dc2aeda, 2022-05-15)"
   xmlns:inkscape="http://www.inkscape.org/namespaces/inkscape"
   xmlns:sodipodi="http://sodipodi.sourceforge.net/DTD/sodipodi-0.dtd"
   xmlns="http://www.w3.org/2000/svg"
   xmlns:svg="http://www.w3.org/2000/svg"><defs
   id="defs147" /><sodipodi:namedview
   id="namedview145"
   pagecolor="#505050"
   bordercolor="#eeeeee"
   borderopacity="1"
   inkscape:showpageshadow="0"
   inkscape:pageopacity="0"
   inkscape:pagecheckerboard="0"
   inkscape:deskcolor="#505050"
   showgrid="false"
   inkscape:zoom="2.9722921"
   inkscape:cx="25.737712"
   inkscape:cy="38.354238"
   inkscape:window-width="1309"
   inkscape:window-height="456"
   inkscape:window-x="0"
   inkscape:window-y="25"
   inkscape:window-maximized="0"
   inkscape:current-layer="Vrstva_1" />
<style
   type="text/css"
   id="style132">
	.st0{fill:none;stroke:#26263A;stroke-miterlimit:10;}
	.st1{fill:#26263A;}
</style>
<g
   id="g142"
   transform="matrix(0.58593748,0,0,0.58593748,-0.76171828,-0.76171828)">
	<circle
   class="st0"
   cx="39.700001"
   cy="39.700001"
   r="37.900002"
   id="circle134" />
	<path
   class="st1"
   d="M 55.6,42.9 H 23.8 c -1.5,0 -2.8,-1.4 -2.8,-3.2 0,-1.8 1.2,-3.2 2.8,-3.2 h 31.8 c 1.5,0 2.8,1.4 2.8,3.2 -0.1,1.8 -1.3,3.2 -2.8,3.2 z"
   id="path136" />
	<path
   class="st1"
   d="M 55.6,29.1 H 23.8 c -1.5,0 -2.8,-1.4 -2.8,-3.2 0,-1.8 1.2,-3.2 2.8,-3.2 h 31.8 c 1.5,0 2.8,1.4 2.8,3.2 -0.1,1.8 -1.3,3.2 -2.8,3.2 z"
   id="path138" />
	<path
   class="st1"
   d="M 55.6,56.6 H 23.8 c -1.5,0 -2.8,-1.4 -2.8,-3.2 0,-1.8 1.2,-3.2 2.8,-3.2 h 31.8 c 1.5,0 2.8,1.4 2.8,3.2 -0.1,1.8 -1.3,3.2 -2.8,3.2 z"
   id="path140" />
</g>
</svg>
